<svg width="24" height="24" viewBox="0 0 24 24" fill="none" xmlns="http://www.w3.org/2000/svg">
<path d="M6.96094 11.1777C4.60742 11.1777 2.70312 9.27344 2.70312 6.91992C2.70312 4.56641 4.60742 2.66211 6.96094 2.66211C9.31445 2.66211 11.2188 4.56641 11.2188 6.91992C11.2188 9.27344 9.31445 11.1777 6.96094 11.1777ZM17.0293 11.1777C14.6758 11.1777 12.7715 9.27344 12.7715 6.91992C12.7715 4.56641 14.6758 2.66211 17.0293 2.66211C19.3828 2.66211 21.2871 4.56641 21.2871 6.91992C21.2871 9.27344 19.3828 11.1777 17.0293 11.1777ZM6.96094 21.2363C4.60742 21.2363 2.70312 19.332 2.70312 16.9785C2.70312 14.625 4.60742 12.7207 6.96094 12.7207C9.31445 12.7207 11.2188 14.625 11.2188 16.9785C11.2188 19.332 9.31445 21.2363 6.96094 21.2363ZM17.0293 21.2363C14.6758 21.2363 12.7715 19.332 12.7715 16.9785C12.7715 14.625 14.6758 12.7207 17.0293 12.7207C19.3828 12.7207 21.2871 14.625 21.2871 16.9785C21.2871 19.332 19.3828 21.2363 17.0293 21.2363Z" fill="currentColor" />
</svg>
