<svg width="24" height="24" viewBox="0 0 24 24" fill="none" xmlns="http://www.w3.org/2000/svg">
<path d="M18.9487 19.9111C17.687 19.9111 17.0283 19.2988 17.0283 18.0835V4.39941C17.0283 3.18408 17.687 2.5625 18.9487 2.5625H21.7134C22.9937 2.5625 23.6523 3.18408 23.6523 4.39941V18.0835C23.6523 19.2988 22.9937 19.9111 21.7134 19.9111H18.9487ZM10.6084 19.9111C9.3374 19.9111 8.67871 19.2988 8.67871 18.0835L8.67871 7.1084C8.67871 5.89307 9.3374 5.27148 10.6084 5.27148H13.373C14.6533 5.27148 15.3027 5.89307 15.3027 7.1084L15.3027 18.0835C15.3027 19.2988 14.6533 19.9111 13.373 19.9111H10.6084ZM2.26807 19.9111C0.99707 19.9111 0.338379 19.2988 0.338379 18.0835L0.338379 9.80811C0.338379 8.59277 0.99707 7.97119 2.26807 7.97119H5.02344C6.30371 7.97119 6.9624 8.59277 6.9624 9.80811V18.0835C6.9624 19.2988 6.30371 19.9111 5.02344 19.9111H2.26807Z" fill="currentColor" />
</svg>
