<svg width="24" height="24" viewBox="0 0 24 24" fill="none" xmlns="http://www.w3.org/2000/svg">
<path d="M12 13.707C11.5996 13.707 11.2285 13.5801 10.75 13.3066L3.11328 8.87305C2.32227 8.41406 2.01953 8.05273 2.01953 7.51562C2.01953 6.98828 2.32227 6.62695 3.11328 6.16797L10.75 1.73438C11.2285 1.46094 11.5996 1.33398 12 1.33398C12.3906 1.33398 12.7715 1.46094 13.2402 1.73438L20.877 6.16797C21.668 6.62695 21.9707 6.98828 21.9707 7.51562C21.9707 8.05273 21.668 8.41406 20.877 8.87305L13.2402 13.3066C12.7715 13.5801 12.3906 13.707 12 13.707ZM12 18.5215C11.6387 18.5215 11.3457 18.3555 10.9258 18.1113L2.54688 13.1602C2.18555 12.9453 2.00977 12.6133 2.00977 12.3105C2.00977 11.9102 2.30273 11.5781 2.57617 11.4512L11.6191 16.6758C11.7656 16.7539 11.8828 16.8125 12 16.8125C12.1074 16.8125 12.2246 16.7539 12.3711 16.6758L21.4141 11.4512C21.6875 11.5781 21.9805 11.9102 21.9805 12.3105C21.9805 12.6133 21.8145 12.9355 21.4531 13.1602L13.0645 18.1113C12.6543 18.3555 12.3516 18.5215 12 18.5215ZM12 23.0137C11.6387 23.0137 11.3457 22.8477 10.9258 22.6035L2.54688 17.6523C2.18555 17.4473 2.00977 17.1055 2.00977 16.8027C2.00977 16.4023 2.30273 16.0801 2.57617 15.9434L11.6191 21.1777C11.7656 21.2559 11.8828 21.3145 12 21.3145C12.1074 21.3145 12.2246 21.2559 12.3711 21.1777L21.4141 15.9434C21.6875 16.0801 21.9805 16.4023 21.9805 16.8027C21.9805 17.1055 21.8047 17.4473 21.4531 17.6523L13.0645 22.6035C12.6543 22.8477 12.3516 23.0137 12 23.0137Z" fill="currentColor" />
</svg>
