<svg width="24" height="24" viewBox="0 0 24 24" fill="none" xmlns="http://www.w3.org/2000/svg">
<path d="M21.4165 13.8901L22.0659 13.2407C22.5112 12.8047 23.1143 12.7861 23.541 13.2222C23.9678 13.6582 23.9678 14.2705 23.5317 14.6973L20.3403 17.8887C19.5703 18.6494 18.6982 18.6494 17.9282 17.8887L14.7368 14.6973C14.2915 14.2705 14.2915 13.6582 14.7183 13.2222C15.145 12.7861 15.7573 12.814 16.1934 13.2407L16.8428 13.8901L18.1045 15.3188V5.89307C18.1045 5.03955 17.6592 4.63135 16.8521 4.63135H10.0054C9.3374 4.63135 8.91064 4.22314 8.90137 3.60156C8.90137 2.9707 9.3374 2.5625 10.0054 2.5625H17.0283C19.0786 2.5625 20.1641 3.64795 20.1641 5.67969V15.3096L21.4165 13.8901ZM2.57422 8.74121L1.91553 9.39062C1.47949 9.81738 0.876465 9.83594 0.44043 9.40918C0.0136719 8.97314 0.0229492 8.36084 0.458984 7.9248L3.65039 4.74268C4.41113 3.98193 5.29248 3.98193 6.0625 4.74268L9.25391 7.9248C9.68994 8.36084 9.69922 8.97314 9.27246 9.40918C8.83643 9.83594 8.2334 9.81738 7.79736 9.39062L7.13867 8.74121L5.88623 7.3125V16.729C5.88623 17.5825 6.33154 18 7.13867 18H13.9854C14.6533 18 15.0801 18.3989 15.0801 19.0298C15.0894 19.6606 14.6533 20.0596 13.9854 20.0596H6.9624C4.91211 20.0596 3.81738 18.9834 3.81738 16.9517V7.3125L2.57422 8.74121Z" fill="currentColor" />
</svg>
