<svg width="24" height="24" viewBox="0 0 24 24" fill="none" xmlns="http://www.w3.org/2000/svg">
<path d="M7.03906 4.83984L15.1738 2.49609C17.2246 1.90039 18.7285 2.52539 18.8262 4.61523V4.83984H7.03906ZM3.44531 22.0566C1.51172 22.0566 0.535156 21.0898 0.535156 19.1855V9.04883C0.535156 7.13477 1.51172 6.17773 3.44531 6.17773H19.2461C21.1895 6.17773 22.1562 7.14453 22.1562 9.04883V10.4844H18.543C16.1797 10.4844 14.7148 11.9688 14.7148 14.1074C14.7148 16.2461 16.1797 17.7305 18.543 17.7305H22.1562V19.1855C22.1562 21.0801 21.1895 22.0566 19.2461 22.0566H3.44531ZM18.543 16.4609C17 16.4609 15.9844 15.6602 15.9844 14.1074C15.9844 12.5547 17 11.7441 18.543 11.7441H22.0195C22.918 11.7441 23.4648 12.3789 23.4648 13.1797V15.0352C23.4648 15.8262 22.918 16.4609 22.0195 16.4609H18.543ZM18.377 15.1035C18.9336 15.1035 19.3828 14.6543 19.3828 14.1074C19.3828 13.5508 18.9336 13.1113 18.377 13.1113C17.8203 13.1113 17.3809 13.5508 17.3809 14.1074C17.3809 14.6543 17.8203 15.1035 18.377 15.1035Z" fill="currentColor" />
</svg>
