<svg width="40" height="40" viewBox="0 0 40 40" fill="none" xmlns="http://www.w3.org/2000/svg">
    <rect x="4" y="4" width="32" height="32" rx="16" fill="#FF7A00" fill-opacity="0.1"/>
    <path d="M25.0086 19.8478C24.9942 19.8362 24.9818 19.8224 24.9667 19.8101C24.9204 19.7514 24.8669 19.6971 24.8146 19.6414C24.7622 19.5857 24.688 19.5158 24.6186 19.4565C24.5724 19.417 24.5286 19.375 24.4789 19.3374V19.3305C24.4789 19.3305 25.915 18.2091 25.9089 16.8597C25.9089 16.8455 25.9128 16.8373 25.9132 16.8235C25.9047 15.398 25.9062 13.6262 25.9132 12.2006V12.1753C25.8702 10.5752 23.7928 9.10868 22.2611 8.24426L22.4028 8.43108C23.0843 9.45458 22.9448 10.6246 22.948 11.7667V25.4233C22.9577 26.4383 22.5238 27.1995 21.6463 27.707L17.2302 30.1833C17.026 30.3003 16.8104 30.3966 16.5867 30.4709C16.0512 30.6418 15.5759 30.6334 15.3678 30.5914L15.1974 30.5449C16.5416 31.4888 18.7804 32.6421 20.6533 31.5684L24.5417 29.3423C25.4559 28.8185 25.9128 28.0428 25.9089 26.9875L25.9018 21.6944C25.8604 20.947 25.3975 20.2802 25.0086 19.8478Z" fill="#72253D"/>
    <path d="M21.3664 24.4313C21.3579 23.3113 21.3598 19.8462 21.3618 17.5444L15.1981 21.2229V21.2274C14.4049 21.7614 14.023 22.5207 14.0048 23.4905V26.1246C14.0055 26.1317 14.0055 26.1388 14.0048 26.1459C14.0043 26.1482 14.0043 26.1507 14.0048 26.1531V29.6242C14.3216 29.6888 14.6491 29.6826 14.9632 29.6061C15.2739 29.5256 15.5718 29.4029 15.8485 29.2415C17.0686 28.5405 18.2848 27.8352 19.5096 27.1421C19.6507 27.0626 19.7905 26.9811 19.9314 26.9011C19.9372 26.898 19.9418 26.8941 19.9477 26.8902L20.0253 26.8461H20.0202C20.933 26.2972 21.3776 25.504 21.3664 24.4313ZM19.244 23.5304C19.2002 24.2883 18.9057 24.9452 18.2744 25.3817C17.681 25.7915 17.0331 26.1266 16.4105 26.4964C16.1989 26.6219 16.1062 26.5713 16.1101 26.3211C16.1194 25.6688 16.0858 25.0131 16.1318 24.3633C16.1865 23.61 16.5334 22.9712 17.1679 22.5438C17.7399 22.1581 18.3566 21.8405 18.9522 21.4907C19.1747 21.3612 19.253 21.4338 19.2484 21.6722L19.244 23.5304Z" fill="#FF5B35"/>
    <path d="M20.4105 8.06382C20.0998 8.14355 19.8018 8.26564 19.5251 8.4266L15.347 10.8202H15.3521C14.4362 11.3679 13.9949 12.1627 14 13.2365L14.0047 20.1227L20.171 16.4435V16.4391C20.9642 15.905 21.3461 15.1459 21.3637 14.1759L21.3683 8.04382C21.0515 7.97927 20.7242 7.98611 20.4105 8.06382ZM19.2374 13.3011C19.1826 14.0544 18.8358 14.6932 18.2012 15.1206C17.6293 15.5063 17.0123 15.8235 16.4169 16.1733C16.1942 16.3027 16.1161 16.2302 16.1205 15.9922L16.1258 14.1333C16.1696 13.378 16.4634 12.7193 17.0945 12.2854C17.6882 11.8741 18.3359 11.54 18.9584 11.1707C19.1702 11.0447 19.2627 11.095 19.2588 11.3453C19.2498 11.9983 19.2836 12.6547 19.2374 13.3011Z" fill="#FF5B35"/>
</svg>
