<svg width="32" height="32" viewBox="0 0 32 32" fill="none" xmlns="http://www.w3.org/2000/svg">
    <rect width="32" height="32" rx="16" fill="#FF7A00" fill-opacity="0.1"/>
    <path d="M21.0086 15.8478C20.9942 15.8362 20.9818 15.8224 20.9667 15.8101C20.9204 15.7514 20.8669 15.6971 20.8146 15.6414C20.7622 15.5857 20.688 15.5158 20.6186 15.4565C20.5724 15.417 20.5286 15.375 20.4789 15.3374V15.3305C20.4789 15.3305 21.915 14.2091 21.9089 12.8597C21.9089 12.8455 21.9128 12.8373 21.9132 12.8235C21.9047 11.398 21.9062 9.62623 21.9132 8.20063V8.17534C21.8702 6.57523 19.7928 5.10868 18.2611 4.24426L18.4028 4.43108C19.0843 5.45458 18.9448 6.62465 18.948 7.76674V21.4233C18.9577 22.4383 18.5238 23.1995 17.6463 23.707L13.2302 26.1833C13.026 26.3003 12.8104 26.3966 12.5867 26.4709C12.0512 26.6418 11.5759 26.6334 11.3678 26.5914L11.1974 26.5449C12.5416 27.4888 14.7804 28.6421 16.6533 27.5684L20.5417 25.3423C21.4559 24.8185 21.9128 24.0428 21.9089 22.9875L21.9018 17.6944C21.8604 16.947 21.3975 16.2802 21.0086 15.8478Z" fill="#72253D"/>
    <path d="M17.3664 20.4313C17.3579 19.3113 17.3598 15.8462 17.3618 13.5444L11.1981 17.2229V17.2274C10.4049 17.7614 10.023 18.5207 10.0048 19.4905V22.1246C10.0055 22.1317 10.0055 22.1388 10.0048 22.1459C10.0043 22.1482 10.0043 22.1507 10.0048 22.1531V25.6242C10.3216 25.6888 10.6491 25.6826 10.9632 25.6061C11.2739 25.5256 11.5718 25.4029 11.8485 25.2415C13.0686 24.5405 14.2848 23.8352 15.5096 23.1421C15.6507 23.0626 15.7905 22.9811 15.9314 22.9011C15.9372 22.898 15.9418 22.8941 15.9477 22.8902L16.0253 22.8461H16.0202C16.933 22.2972 17.3776 21.504 17.3664 20.4313ZM15.244 19.5304C15.2002 20.2883 14.9057 20.9452 14.2744 21.3817C13.681 21.7915 13.0331 22.1266 12.4105 22.4964C12.1989 22.6219 12.1062 22.5713 12.1101 22.3211C12.1194 21.6688 12.0858 21.0131 12.1318 20.3633C12.1865 19.61 12.5334 18.9712 13.1679 18.5438C13.7399 18.1581 14.3566 17.8405 14.9522 17.4907C15.1747 17.3612 15.253 17.4338 15.2484 17.6722L15.244 19.5304Z" fill="#FF5B35"/>
    <path d="M16.4105 4.06382C16.0998 4.14355 15.8018 4.26564 15.5251 4.4266L11.347 6.82025H11.3521C10.4362 7.36791 9.99493 8.16266 10 9.23653L10.0047 16.1227L16.171 12.4435V12.4391C16.9642 11.905 17.3461 11.1459 17.3637 10.1759L17.3683 4.04382C17.0515 3.97927 16.7242 3.98611 16.4105 4.06382ZM15.2374 9.30113C15.1826 10.0544 14.8358 10.6932 14.2012 11.1206C13.6293 11.5063 13.0123 11.8235 12.4169 12.1733C12.1942 12.3027 12.1161 12.2302 12.1205 11.9922L12.1258 10.1333C12.1696 9.37804 12.4634 8.71925 13.0945 8.28537C13.6882 7.87414 14.3359 7.54001 14.9584 7.17073C15.1702 7.04466 15.2627 7.09504 15.2588 7.34526C15.2498 7.99827 15.2836 8.65465 15.2374 9.30113Z" fill="#FF5B35"/>
</svg>
