<svg width="32" height="32" viewBox="0 0 32 32" fill="none" xmlns="http://www.w3.org/2000/svg">
    <path d="M 18.796875 15.339844 C 18.40625 15.339844 18.011719 15.1875 17.714844 14.886719 C 17.117188 14.28125 17.117188 13.296875 17.714844 12.691406 L 21.664062 8.679688 C 22.261719 8.074219 23.230469 8.074219 23.828125 8.679688 C 24.421875 9.285156 24.421875 10.269531 23.828125 10.875 L 19.875 14.886719 C 19.578125 15.1875 19.1875 15.339844 18.796875 15.339844 Z M 18.796875 15.339844" fill="#38FF9C"/>
    <path d="M 15.6875 31.371094 C 7.035156 31.371094 0 24.335938 0 15.6875 C 0 7.039062 7.035156 0 15.6875 0 C 24.335938 0 31.371094 7.035156 31.371094 15.6875 C 31.371094 24.335938 24.335938 31.371094 15.6875 31.371094 Z M 15.6875 3.054688 C 8.722656 3.054688 3.054688 8.722656 3.054688 15.6875 C 3.054688 22.652344 8.722656 28.316406 15.6875 28.316406 C 22.652344 28.316406 28.316406 22.652344 28.316406 15.6875 C 28.316406 8.722656 22.648438 3.054688 15.6875 3.054688 Z M 15.6875 3.054688" fill="#38FF9C"/>
    <path d="M 9.117188 25.140625 C 8.726562 25.140625 8.335938 24.988281 8.035156 24.683594 C 7.441406 24.078125 7.441406 23.097656 8.035156 22.492188 L 11.988281 18.480469 C 12.582031 17.871094 13.550781 17.871094 14.148438 18.480469 C 14.742188 19.085938 14.746094 20.066406 14.148438 20.671875 L 10.195312 24.683594 C 9.898438 24.988281 9.507812 25.140625 9.117188 25.140625 Z M 9.117188 25.140625" fill="#38FF9C"/>
    <path d="M 15.589844 11.15625 C 12.859375 11.355469 10.652344 13.585938 10.464844 16.363281 C 10.457031 16.511719 10.390625 16.65625 10.285156 16.761719 L 8.066406 19.019531 C 7.941406 19.148438 7.722656 19.089844 7.679688 18.914062 C 7.5 18.214844 7.386719 17.464844 7.386719 16.71875 C 7.386719 11.921875 11.230469 8.019531 15.953125 8.019531 C 16.722656 8.019531 17.46875 8.125 18.179688 8.316406 C 18.324219 8.355469 18.371094 8.539062 18.265625 8.648438 L 15.972656 10.976562 C 15.871094 11.082031 15.734375 11.144531 15.589844 11.15625 Z M 15.589844 11.15625" fill="#38FF9C"/>
    <path d="M 21.554688 16.664062 L 23.851562 14.332031 C 23.957031 14.226562 24.136719 14.273438 24.175781 14.421875 C 24.367188 15.140625 24.46875 15.902344 24.46875 16.683594 C 24.46875 21.480469 20.625 25.382812 15.902344 25.382812 C 15.167969 25.382812 14.429688 25.269531 13.742188 25.085938 C 13.570312 25.039062 13.511719 24.820312 13.640625 24.691406 L 15.859375 22.4375 C 15.964844 22.332031 16.105469 22.265625 16.253906 22.253906 C 18.988281 22.066406 21.183594 19.824219 21.378906 17.050781 C 21.390625 16.90625 21.453125 16.765625 21.554688 16.664062 Z M 21.554688 16.664062" fill="#38FF9C"/>
</svg>
