<svg width="40" height="40" viewBox="0 0 40 40" fill="none" xmlns="http://www.w3.org/2000/svg">
    <rect x="4" y="4" width="32" height="32" rx="16" fill="#9F86C8"/>
    <path fill-rule="evenodd" clip-rule="evenodd" d="M9.08808 25C10.9841 29.1311 15.157 32 20 32C24.843 32 29.0159 29.1311 30.9119 25H9.08808ZM30.9119 15C29.0159 10.8689 24.843 8 20 8C15.157 8 10.9841 10.8689 9.08808 15H30.9119ZM4 20C4 11.1634 11.1634 4 20 4C28.8366 4 36 11.1634 36 20C36 28.8366 28.8366 36 20 36C11.1634 36 4 28.8366 4 20Z" fill="#400E92"/>
    <path d="M9.72037 23H13.4324V22.16H10.7844V20.488H12.8004V19.688H10.7844V18.12H13.2964V17.28H9.72037V23ZM15.5362 23H16.6083V18.12H18.2003V17.28H13.9442V18.12H15.5362V23ZM19.0563 23H20.1203V20.568H22.6883V23H23.7603V17.28H22.6883V19.712H20.1203V17.28H19.0563V23ZM26.4081 23.072C26.7041 23.072 26.9121 23.024 27.0641 22.968V22.2C26.9281 22.256 26.7841 22.28 26.5921 22.28C26.2881 22.28 26.1121 22.112 26.1121 21.744V19.544H27.0321V18.816H26.1121V17.896H25.1441V18.816H24.5841V19.544H25.1441V21.832C25.1441 22.624 25.5761 23.072 26.4081 23.072ZM27.1263 23H30.7103V22.224H28.5663L30.7743 18.952V18.816H27.3423V19.584H29.3423L27.1263 22.888V23Z" fill="white"/>
</svg>
