<svg width="32" height="32" viewBox="0 0 32 32" fill="none" xmlns="http://www.w3.org/2000/svg">
    <path fill-rule="evenodd" clip-rule="evenodd" d="M5.08808 21C6.9841 25.1311 11.157 28 16 28C20.843 28 25.0159 25.1311 26.9119 21H5.08808ZM26.9119 11C25.0159 6.86894 20.843 4 16 4C11.157 4 6.9841 6.86894 5.08808 11H26.9119ZM0 16C0 7.16344 7.16344 0 16 0C24.8366 0 32 7.16344 32 16C32 24.8366 24.8366 32 16 32C7.16344 32 0 24.8366 0 16Z" fill="#400E92"/>
    <path d="M5.72037 19H9.43237V18.16H6.78437V16.488H8.80037V15.688H6.78437V14.12H9.29638V13.28H5.72037V19ZM11.5362 19H12.6083V14.12H14.2003V13.28H9.94425V14.12H11.5362V19ZM15.0563 19H16.1203V16.568H18.6883V19H19.7603V13.28H18.6883V15.712H16.1203V13.28H15.0563V19ZM22.4081 19.072C22.7041 19.072 22.9121 19.024 23.0641 18.968V18.2C22.9281 18.256 22.7841 18.28 22.5921 18.28C22.2881 18.28 22.1121 18.112 22.1121 17.744V15.544H23.0321V14.816H22.1121V13.896H21.1441V14.816H20.5841V15.544H21.1441V17.832C21.1441 18.624 21.5761 19.072 22.4081 19.072ZM23.1263 19H26.7103V18.224H24.5663L26.7743 14.952V14.816H23.3423V15.584H25.3423L23.1263 18.888V19Z" fill="white"/>
</svg>
