<svg xmlns="http://www.w3.org/2000/svg" width="32" height="32" fill="#FF5B00"><path d="M15.246.008c-.008.008-.184.023-.391.031-1.164.062-2.637.355-3.93.781a14.59 14.59 0 0 0-2.086.871c-1.668.836-3.016 1.824-4.348 3.195a13.91 13.91 0 0 0-1.48 1.766 15.93 15.93 0 0 0-2.562 5.559c-.102.402-.258 1.211-.285 1.469l-.063.461c-.086.641-.117 2.137-.062 3.016.082 1.402.449 3.07.977 4.461.254.68.359.918.68 1.559.609 1.199 1.277 2.211 2.137 3.219a23.3 23.3 0 0 0 1.734 1.738 15.96 15.96 0 0 0 7.461 3.59 13.52 13.52 0 0 0 2.813.262c1.371.004 2.16-.066 3.289-.293a14.84 14.84 0 0 0 4-1.375 14.45 14.45 0 0 0 2.395-1.457c1.113-.82 2.402-2.094 3.238-3.207a15.91 15.91 0 0 0 3.121-7.703 18.7 18.7 0 0 0 .016-3.797l-.062-.457c-.156-1.195-.586-2.738-1.102-3.957a22.15 22.15 0 0 0-.922-1.824 15.6 15.6 0 0 0-2.504-3.223 15.37 15.37 0 0 0-4.207-3.027C21.32.773 19.27.195 17.398.059L15.246.008zm1.609.629c3.426.168 6.621 1.469 9.285 3.781a17.17 17.17 0 0 1 2.164 2.32c.816 1.094 1.656 2.605 2.063 3.711.305.824.488 1.414.629 2.027.449 1.938.512 4.152.176 6.148-.68 4.043-3.008 7.672-6.457 10.066-2.801 1.945-6.137 2.867-9.641 2.672a15.19 15.19 0 0 1-9.223-3.789c-2.542-2.257-4.171-5.03-4.925-8.37a17.56 17.56 0 0 1-.316-3.129c-.004-2.801.645-5.281 2.004-7.676a15.51 15.51 0 0 1 8.055-6.852c1.969-.73 3.934-1.016 6.188-.91zm1.84 3.515c-.164.09-.227.145-.301.281l-.074.141v2.938l-.066-.012-.355-.109a11.08 11.08 0 0 0-1.246-.281c-.457-.074-1.937-.074-2.422 0-2.48.391-4.535 1.703-5.898 3.762a8.52 8.52 0 0 0-1.25 3.07l-.078.391c-.02.102-.031 2.117-.039 6.188l-.012 6.035.074.129a.62.62 0 0 0 .203.199l.125.074h4.797l.121-.07c.133-.078.223-.187.273-.332.023-.07.031-.512.031-1.527l.02-1.434a6.99 6.99 0 0 1 .34.098c.875.27 1.555.371 2.523.371 1.141-.004 2.07-.176 3.09-.574 1.641-.645 3.004-1.754 4.023-3.277l.18-.285a.67.67 0 0 1 .07-.125c.297-.469.664-1.355.852-2.062.105-.395.238-1.129.238-1.328 0-.066.012-.125.027-.137s.031-1.988.027-5.848V4.594l-.082-.145a.72.72 0 0 0-.219-.242l-.137-.09h-2.383l-2.453.035zm.68.426c.07.027.074.043.074.227 0 .117-.016.211-.035.234s-.141.035-.328.035-.305-.012-.328-.035-.031-.117-.031-.234c0-.152.008-.199.051-.223a1.7 1.7 0 0 1 .598-.004zm4.289.02c.063.059.063.395.004.445-.031.023-.141.035-.344.031-.348-.004-.367-.02-.367-.266 0-.23.043-.258.398-.258.199 0 .273.012.309.047zm-4.27 1.141c.047.027.055.066.055.227 0 .117-.016.211-.035.23s-.141.035-.328.035-.305-.012-.328-.035-.031-.113-.031-.23c0-.152.008-.199.051-.223a1.73 1.73 0 0 1 .617-.004zm4.27.02c.063.059.063.395.004.445-.031.023-.145.035-.336.035s-.305-.012-.332-.035-.043-.094-.043-.219c0-.258.023-.273.375-.273.223 0 .297.012.332.047zM19.394 6.9c.047.027.055.063.055.227 0 .117-.016.211-.035.23s-.141.035-.328.035-.305-.012-.328-.035-.031-.113-.031-.23c0-.152.008-.199.051-.223.063-.043.543-.043.617-.004zm4.27.016a.64.64 0 0 1 .012.441c-.023.023-.141.035-.332.035-.359 0-.387-.016-.387-.262s.027-.258.375-.258c.223 0 .297.012.332.043zm0 1.16a.64.64 0 0 1 .012.441c-.023.023-.141.035-.344.035s-.316-.012-.34-.035-.035-.113-.035-.215c0-.254.023-.273.375-.273.223 0 .297.012.332.047zm0 1.16a.64.64 0 0 1 .012.441c-.023.023-.141.035-.344.035s-.316-.012-.34-.035-.035-.113-.035-.215c0-.254.023-.273.375-.273.223 0 .297.012.332.047zm0 1.16a.64.64 0 0 1 .012.441c-.023.023-.141.035-.344.035s-.316-.012-.34-.035-.035-.113-.035-.215c0-.258.023-.273.375-.273.223 0 .297.012.332.047zm-.008 1.141c.047.027.055.066.055.227 0 .117-.016.211-.035.234s-.125.031-.262.031h-.227l-.102-.203c-.109-.215-.121-.273-.062-.297a2.45 2.45 0 0 1 .633.008zm0 1.16c.047.027.055.063.055.23 0 .137-.012.207-.043.23-.047.039-.051.039-.125-.199l-.078-.242c-.02-.035-.008-.047.059-.047a.38.38 0 0 1 .133.027zm-7.672.074c.883.164 1.668.777 2.035 1.578a2.85 2.85 0 0 1 .074 2.242 2.87 2.87 0 0 1-2.363 1.785c-.301.023-.742 0-.949-.055-.82-.211-1.473-.73-1.875-1.488-.086-.152-.133-.285-.246-.656-.051-.18-.051-1.07.004-1.25.203-.664.383-.988.77-1.375.668-.676 1.605-.961 2.551-.781zM7.82 19.336c.082.164.105.238.082.246s-.168.008-.324.008l-.289-.012-.008-.215c-.008-.152.004-.223.027-.234a.75.75 0 0 1 .215-.027h.18zm.117.965c.023.027.035.121.027.242l-.008.195h-.668l-.008-.215c-.008-.152.004-.223.027-.238.066-.043.594-.031.629.016zm0 1.16c.023.027.035.117.027.242l-.008.195h-.668l-.008-.215c-.008-.152.004-.223.027-.238.066-.043.594-.031.629.016zm0 1.16c.023.023.035.117.027.238l-.008.199h-.668l-.008-.215c-.008-.152.004-.223.027-.238.066-.043.594-.031.629.016zm0 1.16c.023.023.035.117.027.238l-.008.199h-.668l-.008-.215c-.008-.156.004-.223.027-.238.066-.043.594-.031.629.016zm4.266.012c.039.078.039.359-.008.402-.02.023-.141.035-.344.035-.352 0-.344.004-.344-.234 0-.25.016-.258.363-.258.27 0 .305.008.332.055zm-4.266 1.145c.023.027.035.121.027.242l-.008.195h-.668l-.008-.211c-.008-.156.004-.227.027-.238.066-.043.594-.031.629.012zm4.246.008a.52.52 0 0 1 .012.41c-.02.023-.141.035-.344.035-.352 0-.344.004-.344-.234 0-.246.016-.258.348-.258.219 0 .297.012.328.047zm-4.246 1.152c.023.027.035.121.027.242l-.008.195h-.668l-.008-.215c-.008-.152.004-.223.027-.234.066-.047.594-.035.629.012zm4.246.008a.52.52 0 0 1 .012.41c-.02.023-.141.035-.344.035-.352 0-.344.004-.344-.234 0-.246.016-.258.348-.258.219 0 .297.012.328.047zm0 0"/></svg>
