<svg width="32" height="32" viewBox="0 0 32 32" fill="none" xmlns="http://www.w3.org/2000/svg">
    <rect width="32" height="32" rx="16" fill="#FF7A00" fill-opacity="0.1"/>
    <path fill-rule="evenodd" clip-rule="evenodd" d="M19.3643 12.9652C19.2178 12.9652 19.099 12.8465 19.099 12.7001C19.099 12.5535 19.2178 12.4348 19.3643 12.4348C19.5109 12.4348 19.6296 12.5535 19.6296 12.7001C19.6296 12.8465 19.5109 12.9652 19.3643 12.9652Z" fill="#3EBD93"/>
    <path fill-rule="evenodd" clip-rule="evenodd" d="M24.7545 12.962C26.134 13.2189 26.9465 13.6014 26.994 13.6488C27.0414 13.6964 26.793 13.7775 26.698 13.7775C26.698 13.7775 24.8105 13.057 22.5022 13.2449L20.7672 13.0364C21.4008 12.8667 21.5364 12.7451 21.7426 12.5078C21.7426 12.5078 23.3752 12.7052 24.7545 12.962Z" fill="#3EBD93"/>
    <path fill-rule="evenodd" clip-rule="evenodd" d="M13.7744 14.2555C13.7744 13.1534 14.0536 12.8517 13.5927 11.3638C11.4391 9.39185 8.77138 6.94438 8.7148 7.00096C8.62082 7.09494 8.96794 8.04154 9.09461 8.27315C9.22109 8.50476 13.2272 12.0551 13.1377 12.1443C13.0484 12.2338 9.3552 8.83837 9.3552 8.83837C9.3552 8.83837 8 8.48832 8 8.70426C8 8.92021 13.16 12.6657 13.0931 12.7327C13.0261 12.7996 9.10949 10.0743 9.10949 10.0743C9.10949 10.0743 8.05952 10.1264 8.05952 10.2754C8.05952 10.4244 13.134 13.2129 13.0633 13.2836C12.9926 13.3545 9.39984 11.4889 9.39984 11.4889C9.39984 11.4889 8.40214 11.4519 8.40214 11.6529C8.40214 11.854 13.1117 13.749 13.0335 13.8273C12.9554 13.9054 10.0998 12.7401 10.0998 12.7401C10.0998 12.7401 9.16157 12.7252 9.16157 12.9412C9.16157 13.1571 12.9963 14.2815 12.9963 14.3559C12.9963 14.4303 10.405 13.7452 10.405 13.7452C10.405 13.7452 9.32662 13.9602 9.51046 14.1443C9.70408 14.3377 13.19 14.6985 13.19 14.7952C13.19 14.8919 11.1235 14.6317 11.1235 14.6317C11.1235 14.6317 10.4126 14.9889 10.4126 15.1451C10.4126 15.3015 13.3016 15.3834 13.2272 15.4579C13.1526 15.5323 11.6337 15.5398 11.6337 15.5398C11.6337 15.5398 10.9821 15.9605 11.1049 16.0833C11.2279 16.2062 13.2495 15.8041 13.2011 15.8524C13.1526 15.901 11.7267 16.2937 11.7267 16.383C11.7267 16.4725 12.3522 16.5952 12.5198 16.5952C12.6872 16.5952 13.4858 16.1541 13.4858 16.2045C13.4858 16.2546 12.4695 16.9416 12.4695 17.0755C12.4695 17.2096 12.9637 17.1389 13.0118 17.1242C13.0987 17.098 13.497 16.7851 13.497 16.8409C13.497 16.8969 13.0474 17.3185 13.1173 17.3884C13.187 17.4581 13.4245 17.3492 13.4245 17.3492C13.4245 17.3492 13.8302 17.0152 13.931 16.8362C14.08 16.5719 13.7744 15.399 13.7744 14.2555Z" fill="#3EBD93"/>
    <path fill-rule="evenodd" clip-rule="evenodd" d="M12.6203 21.7386C12.9666 24.531 14.9955 26.2063 15.0589 26.2063C15.1222 26.2063 15.0664 25.5436 15.0664 25.5436C15.0664 25.5436 14.3367 24.8139 14.035 24.3783C13.7335 23.9427 13.375 22.9812 13.4114 22.945C13.4476 22.9085 13.6628 23.4364 14.0052 24.0208C14.3478 24.6054 15.0626 25.3648 15.1333 25.3648C15.204 25.3648 15.0515 24.5979 15.0515 24.5979C15.0515 24.5979 14.0499 23.6374 13.7744 23.1235C13.4989 22.6098 13.3834 21.8615 13.4171 21.8615C13.4506 21.8615 13.5138 22.3938 13.8825 23.0305C14.2509 23.6672 15.204 24.5233 15.2263 24.501C15.2488 24.4787 15.286 23.965 15.286 23.965C15.286 23.965 14.2732 23.1832 13.9494 22.6135C13.6254 22.044 13.551 21.1616 13.6031 21.1616C13.6554 21.1616 13.6814 21.6865 13.9792 22.3715C14.277 23.0566 15.4479 23.8551 15.4685 23.8346C15.4888 23.8142 15.5057 23.2762 15.5057 23.2204C15.5057 23.1646 15.1928 23.0491 14.9285 22.8518C14.6642 22.6544 14.359 22.2748 14.3999 22.2748C14.4408 22.2748 14.6642 22.5391 14.936 22.7178C15.2077 22.8964 15.675 23.1458 15.7866 23.1458C15.8984 23.1458 16.5658 22.8862 16.5016 22.822C16.4374 22.7578 15.4405 22.7102 14.6196 21.8893C13.8085 21.0784 13.7652 19.583 13.821 19.583C13.8768 19.583 13.9046 20.4147 14.2789 21.1183C14.6531 21.8221 15.1928 22.1742 15.1928 22.1742C15.1928 22.1742 15.23 21.6158 15.5875 21.169C15.9763 20.6829 17.2928 20.0926 18.1713 18.7971C19.0499 17.5014 19.3851 15.5567 19.863 14.7165C20.2961 13.9554 20.8911 13.4505 22.3952 13.3239L20.8296 13.0676V13.0043C21.3098 12.8229 21.4508 12.6582 21.5865 12.5153C21.3392 12.4851 20.9461 12.426 20.7552 12.3379C20.4646 12.204 20.2021 11.8154 19.3048 11.7645C17.4431 11.6587 16.4662 13.9686 16.4662 13.9686C16.3979 13.9449 15.2937 12.936 13.868 11.6307C14.2006 12.753 13.9531 13.3319 13.9531 14.4339C13.9531 15.5777 14.3012 16.6901 14.1098 17.0149C13.9155 17.3442 12.2056 18.394 12.6203 21.7386ZM19.3643 13.0825C18.8906 13.0825 18.8453 12.738 18.8453 12.7C18.8453 12.6618 18.8906 12.3175 19.3643 12.3175C19.8383 12.3175 19.8695 12.6619 19.8695 12.7001C19.8695 12.7381 19.8383 13.0825 19.3643 13.0825Z" fill="#3EBD93"/>
</svg>
