<svg width="40" height="40" viewBox="0 0 40 40" fill="none" xmlns="http://www.w3.org/2000/svg">
    <rect x="4" y="4" width="32" height="32" rx="16" fill="#FF7A00" fill-opacity="0.1"/>
    <path fill-rule="evenodd" clip-rule="evenodd" d="M23.3643 16.9652C23.2178 16.9652 23.099 16.8465 23.099 16.7001C23.099 16.5535 23.2178 16.4348 23.3643 16.4348C23.5109 16.4348 23.6296 16.5535 23.6296 16.7001C23.6296 16.8465 23.5109 16.9652 23.3643 16.9652Z" fill="#3EBD93"/>
    <path fill-rule="evenodd" clip-rule="evenodd" d="M28.7545 16.962C30.134 17.2189 30.9465 17.6014 30.994 17.6488C31.0414 17.6964 30.793 17.7775 30.698 17.7775C30.698 17.7775 28.8105 17.057 26.5022 17.2449L24.7672 17.0364C25.4008 16.8667 25.5364 16.7451 25.7426 16.5078C25.7426 16.5078 27.3752 16.7052 28.7545 16.962Z" fill="#3EBD93"/>
    <path fill-rule="evenodd" clip-rule="evenodd" d="M17.7744 18.2555C17.7744 17.1534 18.0536 16.8517 17.5927 15.3638C15.4391 13.3918 12.7714 10.9444 12.7148 11.001C12.6208 11.0949 12.9679 12.0415 13.0946 12.2732C13.2211 12.5048 17.2272 16.0551 17.1377 16.1443C17.0484 16.2338 13.3552 12.8384 13.3552 12.8384C13.3552 12.8384 12 12.4883 12 12.7043C12 12.9202 17.16 16.6657 17.0931 16.7327C17.0261 16.7996 13.1095 14.0743 13.1095 14.0743C13.1095 14.0743 12.0595 14.1264 12.0595 14.2754C12.0595 14.4244 17.134 17.2129 17.0633 17.2836C16.9926 17.3545 13.3998 15.4889 13.3998 15.4889C13.3998 15.4889 12.4021 15.4519 12.4021 15.6529C12.4021 15.854 17.1117 17.749 17.0335 17.8273C16.9554 17.9054 14.0998 16.7401 14.0998 16.7401C14.0998 16.7401 13.1616 16.7252 13.1616 16.9412C13.1616 17.1571 16.9963 18.2815 16.9963 18.3559C16.9963 18.4303 14.405 17.7452 14.405 17.7452C14.405 17.7452 13.3266 17.9602 13.5105 18.1443C13.7041 18.3377 17.19 18.6985 17.19 18.7952C17.19 18.8919 15.1235 18.6317 15.1235 18.6317C15.1235 18.6317 14.4126 18.9889 14.4126 19.1451C14.4126 19.3015 17.3016 19.3834 17.2272 19.4579C17.1526 19.5323 15.6337 19.5398 15.6337 19.5398C15.6337 19.5398 14.9821 19.9605 15.1049 20.0833C15.2279 20.2062 17.2495 19.8041 17.2011 19.8524C17.1526 19.901 15.7267 20.2937 15.7267 20.383C15.7267 20.4725 16.3522 20.5952 16.5198 20.5952C16.6872 20.5952 17.4858 20.1541 17.4858 20.2045C17.4858 20.2546 16.4695 20.9416 16.4695 21.0755C16.4695 21.2096 16.9637 21.1389 17.0118 21.1242C17.0987 21.098 17.497 20.7851 17.497 20.8409C17.497 20.8969 17.0474 21.3185 17.1173 21.3884C17.187 21.4581 17.4245 21.3492 17.4245 21.3492C17.4245 21.3492 17.8302 21.0152 17.931 20.8362C18.08 20.5719 17.7744 19.399 17.7744 18.2555Z" fill="#3EBD93"/>
    <path fill-rule="evenodd" clip-rule="evenodd" d="M16.6203 25.7386C16.9666 28.531 18.9955 30.2063 19.0589 30.2063C19.1222 30.2063 19.0664 29.5436 19.0664 29.5436C19.0664 29.5436 18.3367 28.8139 18.035 28.3783C17.7335 27.9427 17.375 26.9812 17.4114 26.945C17.4476 26.9085 17.6628 27.4364 18.0052 28.0208C18.3478 28.6054 19.0626 29.3648 19.1333 29.3648C19.204 29.3648 19.0515 28.5979 19.0515 28.5979C19.0515 28.5979 18.0499 27.6374 17.7744 27.1235C17.4989 26.6098 17.3834 25.8615 17.4171 25.8615C17.4506 25.8615 17.5138 26.3938 17.8825 27.0305C18.2509 27.6672 19.204 28.5233 19.2263 28.501C19.2488 28.4787 19.286 27.965 19.286 27.965C19.286 27.965 18.2732 27.1832 17.9494 26.6135C17.6254 26.044 17.551 25.1616 17.6031 25.1616C17.6554 25.1616 17.6814 25.6865 17.9792 26.3715C18.277 27.0566 19.4479 27.8551 19.4685 27.8346C19.4888 27.8142 19.5057 27.2762 19.5057 27.2204C19.5057 27.1646 19.1928 27.0491 18.9285 26.8518C18.6642 26.6544 18.359 26.2748 18.3999 26.2748C18.4408 26.2748 18.6642 26.5391 18.936 26.7178C19.2077 26.8964 19.675 27.1458 19.7866 27.1458C19.8984 27.1458 20.5658 26.8862 20.5016 26.822C20.4374 26.7578 19.4405 26.7102 18.6196 25.8893C17.8085 25.0784 17.7652 23.583 17.821 23.583C17.8768 23.583 17.9046 24.4147 18.2789 25.1183C18.6531 25.8221 19.1928 26.1742 19.1928 26.1742C19.1928 26.1742 19.23 25.6158 19.5875 25.169C19.9763 24.6829 21.2928 24.0926 22.1713 22.7971C23.0499 21.5014 23.3851 19.5567 23.863 18.7165C24.2961 17.9554 24.8911 17.4505 26.3952 17.3239L24.8296 17.0676V17.0043C25.3098 16.8229 25.4508 16.6582 25.5865 16.5153C25.3392 16.4851 24.9461 16.426 24.7552 16.3379C24.4646 16.204 24.2021 15.8154 23.3048 15.7645C21.4431 15.6587 20.4662 17.9686 20.4662 17.9686C20.3979 17.9449 19.2937 16.936 17.868 15.6307C18.2006 16.753 17.9531 17.3319 17.9531 18.4339C17.9531 19.5777 18.3012 20.6901 18.1098 21.0149C17.9155 21.3442 16.2056 22.394 16.6203 25.7386ZM23.3643 17.0825C22.8906 17.0825 22.8453 16.738 22.8453 16.7C22.8453 16.6618 22.8906 16.3175 23.3643 16.3175C23.8383 16.3175 23.8695 16.6619 23.8695 16.7001C23.8695 16.7381 23.8383 17.0825 23.3643 17.0825Z" fill="#3EBD93"/>
</svg>
