<svg width="40" height="40" viewBox="0 0 40 40" fill="none" xmlns="http://www.w3.org/2000/svg">
    <path fill-rule="evenodd" clip-rule="evenodd" d="M20 4C11.1634 4 4 11.1634 4 20C4 28.8366 11.1634 36 20 36C28.8366 36 36 28.8366 36 20C36 11.1634 28.8366 4 20 4ZM18.5858 12.9289L12.9289 18.5858C12.1479 19.3668 12.1479 20.6332 12.9289 21.4142L18.5858 27.0711C19.3668 27.8521 20.6332 27.8521 21.4142 27.0711L27.0711 21.4142C27.8521 20.6332 27.8521 19.3668 27.0711 18.5858L21.4142 12.9289C20.6332 12.1479 19.3668 12.1479 18.5858 12.9289Z" fill="#E4E4E4"/>
</svg>
