<svg width="32" height="32" viewBox="0 0 32 32" fill="none" xmlns="http://www.w3.org/2000/svg">
    <rect width="32" height="32" rx="16" fill="#FF7A00" fill-opacity="0.1"/>
    <path d="M15.3077 19.6101C15.4987 19.4668 15.7374 19.3713 15.9284 19.2281H15.9761L16.0716 19.1803C17.4562 18.321 18.1247 17.1273 18.1247 15.504C18.1247 13.7852 18.1247 8.53316 18.1247 5L8.81429 10.5862C7.62068 11.3979 7.04775 12.5438 7 14.0239C7 15.9814 7 17.5093 7 18.0345V18.0822V23.3819C7.47748 23.4774 7.9549 23.4774 8.43238 23.3342C8.90981 23.1909 9.3395 23.0477 9.76924 22.7612C11.6313 21.7586 13.4934 20.6605 15.3077 19.6101ZM10.2467 15.3607C10.3422 14.2148 10.8673 13.2599 11.8222 12.5915C12.6817 12.0185 13.6366 11.5411 14.496 10.9682C14.8303 10.7772 14.9735 10.8727 14.9257 11.2546V14.0716C14.8779 15.2175 14.4005 16.2201 13.4456 16.8886C12.5384 17.5093 11.5835 18.0345 10.6286 18.6074C10.2944 18.7984 10.1512 18.7029 10.1512 18.321C10.1989 17.366 10.1512 16.3634 10.2467 15.3607Z" fill="#45C3E4"/>
    <path d="M25 18.5119V18.4642C25 16.3157 25 13.5942 25 11.3979V11.3501C25 10.4907 24.5703 9.63129 23.9018 8.81964L23.8541 8.72412L23.8063 8.67639C23.7586 8.62866 23.7109 8.53314 23.6631 8.48541L23.6154 8.43768C23.5676 8.38994 23.5199 8.29443 23.4244 8.24669L23.3289 8.15118C23.2812 8.10345 23.2334 8.05571 23.1379 7.9602L23.0424 7.86473L22.9947 7.81695C22.9469 7.76922 22.8992 7.72149 22.8037 7.67375C22.0875 7.05308 21.3236 6.48009 20.5119 5.95493C20.1777 5.71617 19.7957 5.52519 19.4615 5.33423L19.6525 5.6207C20.2732 6.52787 20.4164 7.53051 20.4642 8.58092V16.9841C20.4642 18.5119 19.8435 19.7055 18.5066 20.4695L11.8223 24.2414C11.5358 24.4324 11.2016 24.5756 10.8674 24.6711C10.0557 24.9098 9.33954 24.9098 9.00532 24.8621L8.7666 24.8143C10.8197 26.2467 14.1618 28.0133 17.0265 26.3899L20.5119 24.3846L22.8992 23C23.0424 22.9045 23.1857 22.8567 23.2811 22.7613C24.3793 21.9496 24.9522 20.8515 24.9522 19.4191L25 18.5119Z" fill="#15629A"/>
</svg>
