<svg width="40" height="40" viewBox="0 0 40 40" fill="none" xmlns="http://www.w3.org/2000/svg">
    <rect x="4" y="4" width="32" height="32" rx="16" fill="#FF7A00" fill-opacity="0.1"/>
    <path d="M19.3077 23.6101C19.4987 23.4668 19.7374 23.3713 19.9284 23.2281H19.9761L20.0716 23.1803C21.4562 22.321 22.1247 21.1273 22.1247 19.504C22.1247 17.7852 22.1247 12.5332 22.1247 9L12.8143 14.5862C11.6207 15.3979 11.0477 16.5438 11 18.0239C11 19.9814 11 21.5093 11 22.0345V22.0822V27.3819C11.4775 27.4774 11.9549 27.4774 12.4324 27.3342C12.9098 27.1909 13.3395 27.0477 13.7692 26.7612C15.6313 25.7586 17.4934 24.6605 19.3077 23.6101ZM14.2467 19.3607C14.3422 18.2148 14.8673 17.2599 15.8222 16.5915C16.6817 16.0185 17.6366 15.5411 18.496 14.9682C18.8303 14.7772 18.9735 14.8727 18.9257 15.2546V18.0716C18.8779 19.2175 18.4005 20.2201 17.4456 20.8886C16.5384 21.5093 15.5835 22.0345 14.6286 22.6074C14.2944 22.7984 14.1512 22.7029 14.1512 22.321C14.1989 21.366 14.1512 20.3634 14.2467 19.3607Z" fill="#45C3E4"/>
    <path d="M29 22.5119V22.4642C29 20.3157 29 17.5942 29 15.3979V15.3501C29 14.4907 28.5703 13.6313 27.9018 12.8196L27.8541 12.7241L27.8063 12.6764C27.7586 12.6287 27.7109 12.5331 27.6631 12.4854L27.6154 12.4377C27.5676 12.3899 27.5199 12.2944 27.4244 12.2467L27.3289 12.1512C27.2812 12.1034 27.2334 12.0557 27.1379 11.9602L27.0424 11.8647L26.9947 11.817C26.9469 11.7692 26.8992 11.7215 26.8037 11.6738C26.0875 11.0531 25.3236 10.4801 24.5119 9.95493C24.1777 9.71617 23.7957 9.52519 23.4615 9.33423L23.6525 9.6207C24.2732 10.5279 24.4164 11.5305 24.4642 12.5809V20.9841C24.4642 22.5119 23.8435 23.7055 22.5066 24.4695L15.8223 28.2414C15.5358 28.4324 15.2016 28.5756 14.8674 28.6711C14.0557 28.9098 13.3395 28.9098 13.0053 28.8621L12.7666 28.8143C14.8197 30.2467 18.1618 32.0133 21.0265 30.3899L24.5119 28.3846L26.8992 27C27.0424 26.9045 27.1857 26.8567 27.2811 26.7613C28.3793 25.9496 28.9522 24.8515 28.9522 23.4191L29 22.5119Z" fill="#15629A"/>
</svg>
