<svg width="24" height="24" viewBox="0 0 24 24" fill="none" xmlns="http://www.w3.org/2000/svg">
<path fill-rule="evenodd" clip-rule="evenodd" d="M0 12C0 5.37258 5.37258 0 12 0C18.6274 0 24 5.37258 24 12C24 18.6274 18.6274 24 12 24C5.37258 24 0 18.6274 0 12ZM12 8.4C12 6.41178 13.6118 4.8 15.6 4.8C17.5882 4.8 19.2 6.41178 19.2 8.4C19.2 10.3882 17.5882 12 15.6 12C13.6118 12 12 10.3882 12 8.4ZM6 12C5.33726 12 4.8 12.5373 4.8 13.2V18C4.8 18.6627 5.33726 19.2 6 19.2H10.8C11.4627 19.2 12 18.6627 12 18V13.2C12 12.5373 11.4627 12 10.8 12H6Z" fill="#E4E4E4"/>
</svg>
