<svg width="40" height="40" viewBox="0 0 40 40" fill="none" xmlns="http://www.w3.org/2000/svg">
    <rect x="4" y="4" width="32" height="32" rx="16" fill="#2C7DF7"/>
    <path d="M22.3352 30.787C20.7806 30.787 19.6458 30.4126 18.931 29.6636C18.2688 29.0297 17.8845 28.1593 17.8621 27.2428C17.8541 26.9644 17.9186 26.6887 18.0494 26.4428C18.1713 26.2303 18.3475 26.0539 18.5599 25.9318C18.8068 25.8087 19.0789 25.7446 19.3548 25.7446C19.6307 25.7446 19.9028 25.8087 20.1497 25.9318C20.3617 26.0535 20.5371 26.23 20.6574 26.4428C20.7919 26.6875 20.8588 26.9637 20.8513 27.2428C20.8652 27.5763 20.7696 27.9051 20.579 28.179C20.4202 28.4026 20.1931 28.5688 19.932 28.6525C20.1874 28.9777 20.5488 29.203 20.9532 29.2892C21.4057 29.4206 21.8743 29.4882 22.3455 29.4899C22.9693 29.4954 23.5803 29.3127 24.0987 28.9657C24.6365 28.5857 25.0376 28.0426 25.2425 27.4168C25.5022 26.672 25.629 25.8873 25.617 25.0986C25.6379 24.2763 25.4992 23.4578 25.2084 22.6884C24.9898 22.0729 24.5747 21.5466 24.0272 21.1905C23.5183 20.8685 22.9276 20.6995 22.3254 20.7037C21.8006 20.7482 21.2947 20.92 20.8513 21.2042L19.7583 21.7522V21.2042L24.6705 14.6143H17.8621V21.4527C17.8429 21.9461 17.9734 22.4339 18.2366 22.8518C18.3639 23.0339 18.5361 23.18 18.7365 23.276C18.9369 23.3721 19.1587 23.4147 19.3804 23.3998C19.79 23.3915 20.1862 23.2519 20.5105 23.0016C20.8781 22.7321 21.198 22.403 21.4569 22.0279C21.4802 21.9621 21.5232 21.9051 21.58 21.8646C21.6256 21.8252 21.6838 21.8034 21.7441 21.8033C21.8624 21.8141 21.9743 21.8617 22.0642 21.9394C22.1779 22.0666 22.2399 22.2318 22.2377 22.4024C22.2246 22.517 22.2041 22.6307 22.1764 22.7428C21.9346 23.3282 21.5292 23.8315 21.0087 24.1925C20.5254 24.5196 19.9544 24.693 19.3708 24.6901C17.8967 24.6901 16.8755 24.3996 16.3072 23.8186C16.0151 23.4975 15.79 23.1213 15.645 22.7121C15.5 22.303 15.4381 21.869 15.4629 21.4356V14.6143H12V13.3437H15.4791V10.4467L14.6826 9.64964V9H16.9939L17.8621 9.44942V13.3437L26.8559 13.3164L27.7514 14.2151L22.2365 19.7568C22.5697 19.6228 22.9205 19.5379 23.2781 19.5048C23.9858 19.5358 24.6763 19.7329 25.2938 20.0802C26.0088 20.4201 26.6113 20.9578 27.03 21.6296C27.4052 22.1984 27.6708 22.8322 27.813 23.4986C27.93 24.0242 27.9927 24.5604 28.0003 25.0987C28.0039 26.1262 27.771 27.1408 27.3194 28.0637C26.8913 28.9575 26.1706 29.6782 25.2768 30.1063C24.3619 30.5572 23.3552 30.7901 22.3352 30.787Z" fill="white"/>
</svg>
