<svg width="40" height="40" viewBox="0 0 40 40" fill="none" xmlns="http://www.w3.org/2000/svg">
    <rect x="4" y="4" width="32" height="32" rx="16" fill="#FF7A00" fill-opacity="0.1"/>
    <path fill-rule="evenodd" clip-rule="evenodd" d="M9.08808 25C10.9841 29.1311 15.157 32 20 32C24.843 32 29.0159 29.1311 30.9119 25H9.08808ZM30.9119 15C29.0159 10.8689 24.843 8 20 8C15.157 8 10.9841 10.8689 9.08808 15H30.9119ZM4 20C4 11.1634 11.1634 4 20 4C28.8366 4 36 11.1634 36 20C36 28.8366 28.8366 36 20 36C11.1634 36 4 28.8366 4 20Z" fill="#FF5B00"/>
    <path d="M9.67741 23H11.8774C13.1334 23 13.8374 22.464 13.8374 21.4V21.368C13.8374 20.608 13.4694 20.184 12.6934 20.016C13.3414 19.816 13.5974 19.368 13.5974 18.8V18.768C13.5974 17.728 12.9014 17.28 11.7254 17.28H9.67741V23ZM10.7174 22.24V20.408H11.6774C12.4614 20.408 12.7894 20.704 12.7894 21.296V21.328C12.7894 21.92 12.4614 22.24 11.7494 22.24H10.7174ZM10.7174 19.688V18.04H11.5814C12.2614 18.04 12.5734 18.272 12.5734 18.816V18.848C12.5734 19.432 12.3014 19.688 11.5974 19.688H10.7174ZM15.8995 23H16.9715V18.12H18.5635V17.28H14.3075V18.12H15.8995V23ZM21.6814 23.08C23.0414 23.08 24.0174 22.384 24.1854 21.008H23.1454C23.0334 21.816 22.4734 22.216 21.6814 22.216C20.6254 22.216 20.0094 21.456 20.0094 20.168V20.104C20.0094 18.824 20.6654 18.04 21.6734 18.04C22.4974 18.04 22.9214 18.432 23.0414 19.192H24.1214C23.9934 17.848 22.9774 17.192 21.6654 17.192C20.0734 17.192 18.8894 18.392 18.8894 20.112V20.176C18.8894 21.936 19.8894 23.08 21.6814 23.08ZM26.4511 23.072C26.7471 23.072 26.9551 23.024 27.1071 22.968V22.2C26.9711 22.256 26.8271 22.28 26.6351 22.28C26.3311 22.28 26.1551 22.112 26.1551 21.744V19.544H27.0751V18.816H26.1551V17.896H25.1871V18.816H24.6271V19.544H25.1871V21.832C25.1871 22.624 25.6191 23.072 26.4511 23.072ZM27.1693 23H30.7533V22.224H28.6093L30.8173 18.952V18.816H27.3853V19.584H29.3853L27.1693 22.888V23Z" fill="white"/>
</svg>
