<svg width="32" height="32" viewBox="0 0 32 32" fill="none" xmlns="http://www.w3.org/2000/svg">
    <rect width="32" height="32" rx="16" fill="#FF7A00" fill-opacity="0.1"/>
    <path fill-rule="evenodd" clip-rule="evenodd" d="M5.08808 21C6.9841 25.1311 11.157 28 16 28C20.843 28 25.0159 25.1311 26.9119 21H5.08808ZM26.9119 11C25.0159 6.86894 20.843 4 16 4C11.157 4 6.9841 6.86894 5.08808 11H26.9119ZM0 16C0 7.16344 7.16344 0 16 0C24.8366 0 32 7.16344 32 16C32 24.8366 24.8366 32 16 32C7.16344 32 0 24.8366 0 16Z" fill="#FF5B00"/>
    <path d="M5.67741 19H7.87741C9.13341 19 9.83741 18.464 9.83741 17.4V17.368C9.83741 16.608 9.46941 16.184 8.69341 16.016C9.34141 15.816 9.59741 15.368 9.59741 14.8V14.768C9.59741 13.728 8.90141 13.28 7.72541 13.28H5.67741V19ZM6.71741 18.24V16.408H7.67741C8.46141 16.408 8.78941 16.704 8.78941 17.296V17.328C8.78941 17.92 8.46141 18.24 7.74941 18.24H6.71741ZM6.71741 15.688V14.04H7.58141C8.26141 14.04 8.57341 14.272 8.57341 14.816V14.848C8.57341 15.432 8.30141 15.688 7.59741 15.688H6.71741ZM11.8995 19H12.9715V14.12H14.5635V13.28H10.3075V14.12H11.8995V19ZM17.6814 19.08C19.0414 19.08 20.0174 18.384 20.1854 17.008H19.1454C19.0334 17.816 18.4734 18.216 17.6814 18.216C16.6254 18.216 16.0094 17.456 16.0094 16.168V16.104C16.0094 14.824 16.6654 14.04 17.6734 14.04C18.4974 14.04 18.9214 14.432 19.0414 15.192H20.1214C19.9934 13.848 18.9774 13.192 17.6654 13.192C16.0734 13.192 14.8894 14.392 14.8894 16.112V16.176C14.8894 17.936 15.8894 19.08 17.6814 19.08ZM22.4511 19.072C22.7471 19.072 22.9551 19.024 23.1071 18.968V18.2C22.9711 18.256 22.8271 18.28 22.6351 18.28C22.3311 18.28 22.1551 18.112 22.1551 17.744V15.544H23.0751V14.816H22.1551V13.896H21.1871V14.816H20.6271V15.544H21.1871V17.832C21.1871 18.624 21.6191 19.072 22.4511 19.072ZM23.1693 19H26.7533V18.224H24.6093L26.8173 14.952V14.816H23.3853V15.584H25.3853L23.1693 18.888V19Z" fill="white"/>
</svg>
