<svg width="32" height="32" viewBox="0 0 32 32" fill="none" xmlns="http://www.w3.org/2000/svg">
    <path d="M24.7753 24.7738C22.4309 27.1181 19.3147 28.4074 16.0001 28.4074C12.6854 28.4074 9.56917 27.1164 7.22481 24.7738C5.72693 23.2759 4.63448 21.4218 4.06281 19.4082H0.366455C1.95085 26.711 8.50726 31.9969 16.0001 31.9969C23.4928 31.9969 30.0493 26.7093 31.6336 19.4082H27.9373C27.3656 21.4218 26.2732 23.2759 24.7753 24.7738Z" fill="url(#paint0_linear)"/>
    <path d="M28.3394 14.6736C28.3869 15.1146 28.4089 15.5608 28.4089 15.9984C28.4089 16.4378 28.3852 16.8822 28.3394 17.3233H31.9441C31.9814 16.8755 32.0001 16.4293 32.0001 15.9984C32.0001 15.5676 31.9814 15.1214 31.9441 14.6736H28.3394Z" fill="url(#paint1_linear)"/>
    <path d="M3.59118 15.9984C3.59118 15.5608 3.61493 15.1146 3.66073 14.6736H0.0559796C0.0186599 15.1197 0 15.5659 0 15.9984C0 16.431 0.0186599 16.8771 0.0559796 17.3233H3.66073C3.61493 16.8822 3.59118 16.4361 3.59118 15.9984Z" fill="url(#paint2_linear)"/>
    <path d="M7.22481 7.22308C9.56917 4.88041 12.6854 3.58949 16.0001 3.58949C19.3147 3.58949 22.4309 4.88041 24.7753 7.22477C26.2732 8.72096 27.3656 10.5751 27.9373 12.5886H31.6336C30.0493 5.28584 23.4928 0 16.0001 0C8.50726 0 1.95085 5.28584 0.366455 12.5886H4.06281C4.63448 10.5751 5.72693 8.72266 7.22481 7.22308Z" fill="url(#paint3_linear)"/>
    <path d="M16.5394 23.0399H15.5419C15.3095 23.0399 15.1925 22.9228 15.1925 22.6904V21.4114H15.0754C14.234 21.4114 13.5776 21.1705 13.106 20.6887C12.6344 20.207 12.4003 19.5403 12.4003 18.687V18.3715C12.4003 18.1391 12.5156 18.0221 12.7497 18.0221H14.1611C14.3935 18.0221 14.5106 18.1391 14.5106 18.3715V18.4869C14.5106 18.9076 14.5937 19.1959 14.7599 19.3503C14.9262 19.5047 15.2298 19.5827 15.6743 19.5827H16.3392C16.7718 19.5827 17.0721 19.4996 17.2451 19.3334C17.4164 19.1671 17.5029 18.8567 17.5029 18.4038V18.1544C17.5029 17.8779 17.4198 17.6624 17.2536 17.5064C17.0873 17.352 16.8939 17.2468 16.6717 17.1909C16.4732 17.1468 16.0814 17.0976 15.5012 17.0416C14.9194 16.9856 14.4851 16.9177 14.1967 16.8346C13.9083 16.7515 13.6149 16.6107 13.3163 16.4105C12.6955 16.0119 12.3867 15.2316 12.3867 14.0679V13.4538C12.3867 12.5785 12.6225 11.9067 13.0924 11.4351C13.5623 10.9635 14.2256 10.7294 15.0771 10.7294H15.1942V9.41647C15.1942 9.18406 15.3112 9.06702 15.5436 9.06702H16.5411C16.7735 9.06702 16.8905 9.18406 16.8905 9.41647V10.7294H16.9245C17.7116 10.7294 18.3307 10.9737 18.7854 11.4606C19.24 11.9474 19.4673 12.6124 19.4673 13.4538V13.7693C19.4673 14.0017 19.3503 14.1188 19.1179 14.1188H17.7065C17.4741 14.1188 17.357 14.0017 17.357 13.7693V13.6523C17.357 13.2316 17.2773 12.9432 17.1162 12.7888C16.955 12.6344 16.648 12.5564 16.1933 12.5564H15.6624C15.2078 12.5564 14.9007 12.6429 14.7396 12.8143C14.5784 12.9856 14.4987 13.3215 14.4987 13.8202V14.1527C14.4987 14.397 14.5818 14.587 14.748 14.7261C14.9143 14.8652 15.1026 14.9568 15.3129 15.0009C15.5572 15.045 15.9694 15.0925 16.5513 15.1417C17.1331 15.1909 17.5708 15.2638 17.8642 15.3571C18.1577 15.4504 18.4478 15.598 18.7362 15.7982C19.3231 16.2188 19.6166 16.972 19.6166 18.0577V18.6887C19.6166 19.5522 19.3757 20.2239 18.8939 20.6989C18.4122 21.1756 17.7557 21.4131 16.9245 21.4131H16.8905V22.6921C16.8888 22.9228 16.7718 23.0399 16.5394 23.0399Z" fill="url(#paint4_linear)"/>
    <defs>
        <linearGradient id="paint0_linear" x1="-41.5888" y1="78.7786" x2="24.7079" y2="12.482" gradientUnits="userSpaceOnUse">
            <stop offset="0.84" stop-color="#8568C5"/>
            <stop offset="1" stop-color="#783989"/>
        </linearGradient>
        <linearGradient id="paint1_linear" x1="71.334" y1="-33.0929" x2="14.0244" y2="35.206" gradientUnits="userSpaceOnUse">
            <stop offset="0.8849" stop-color="#793E90"/>
            <stop offset="1" stop-color="#783989"/>
        </linearGradient>
        <linearGradient id="paint2_linear" x1="54.7368" y1="-47.0195" x2="-2.57274" y2="21.2794" gradientUnits="userSpaceOnUse">
            <stop offset="0.373" stop-color="#8568C5"/>
            <stop offset="0.6215" stop-color="#8568C5"/>
        </linearGradient>
        <linearGradient id="paint3_linear" x1="-13.6894" y1="63.2601" x2="25.9943" y2="-5.4741" gradientUnits="userSpaceOnUse">
            <stop offset="0.557" stop-color="#8568C5"/>
            <stop offset="1" stop-color="#783989"/>
        </linearGradient>
        <linearGradient id="paint4_linear" x1="12.212" y1="19.8828" x2="19.871" y2="12.2237" gradientUnits="userSpaceOnUse">
            <stop offset="0.0666059" stop-color="#8568C5"/>
            <stop offset="0.278" stop-color="#8055AD"/>
            <stop offset="0.5176" stop-color="#7B4599"/>
            <stop offset="0.7583" stop-color="#793C8D"/>
            <stop offset="1" stop-color="#783989"/>
        </linearGradient>
    </defs>
</svg>
