<svg width="40" height="40" viewBox="0 0 40 40" fill="none" xmlns="http://www.w3.org/2000/svg">
    <path d="M28.7753 28.7738C26.4309 31.1181 23.3147 32.4074 20.0001 32.4074C16.6854 32.4074 13.5692 31.1164 11.2248 28.7738C9.72693 27.2759 8.63448 25.4218 8.06281 23.4082H4.36646C5.95085 30.711 12.5073 35.9969 20.0001 35.9969C27.4928 35.9969 34.0493 30.7093 35.6336 23.4082H31.9373C31.3656 25.4218 30.2732 27.2759 28.7753 28.7738Z" fill="url(#paint0_linear)"/>
    <path d="M32.3394 18.6736C32.3869 19.1146 32.4089 19.5608 32.4089 19.9984C32.4089 20.4378 32.3852 20.8822 32.3394 21.3233H35.9441C35.9814 20.8755 36.0001 20.4293 36.0001 19.9984C36.0001 19.5676 35.9814 19.1214 35.9441 18.6736H32.3394Z" fill="url(#paint1_linear)"/>
    <path d="M7.59118 19.9984C7.59118 19.5608 7.61493 19.1146 7.66073 18.6736H4.05598C4.01866 19.1197 4 19.5659 4 19.9984C4 20.431 4.01866 20.8771 4.05598 21.3233H7.66073C7.61493 20.8822 7.59118 20.4361 7.59118 19.9984Z" fill="url(#paint2_linear)"/>
    <path d="M11.2248 11.2231C13.5692 8.88041 16.6854 7.58949 20.0001 7.58949C23.3147 7.58949 26.4309 8.88041 28.7753 11.2248C30.2732 12.721 31.3656 14.5751 31.9373 16.5886H35.6336C34.0493 9.28584 27.4928 4 20.0001 4C12.5073 4 5.95085 9.28584 4.36646 16.5886H8.06281C8.63448 14.5751 9.72693 12.7227 11.2248 11.2231Z" fill="url(#paint3_linear)"/>
    <path d="M20.5394 27.0399H19.5419C19.3095 27.0399 19.1925 26.9228 19.1925 26.6904V25.4114H19.0754C18.234 25.4114 17.5776 25.1705 17.106 24.6887C16.6344 24.207 16.4003 23.5403 16.4003 22.687V22.3715C16.4003 22.1391 16.5156 22.0221 16.7497 22.0221H18.1611C18.3935 22.0221 18.5106 22.1391 18.5106 22.3715V22.4869C18.5106 22.9076 18.5937 23.1959 18.7599 23.3503C18.9262 23.5047 19.2298 23.5827 19.6743 23.5827H20.3392C20.7718 23.5827 21.0721 23.4996 21.2451 23.3334C21.4164 23.1671 21.5029 22.8567 21.5029 22.4038V22.1544C21.5029 21.8779 21.4198 21.6624 21.2536 21.5064C21.0873 21.352 20.8939 21.2468 20.6717 21.1909C20.4732 21.1468 20.0814 21.0976 19.5012 21.0416C18.9194 20.9856 18.4851 20.9177 18.1967 20.8346C17.9083 20.7515 17.6149 20.6107 17.3163 20.4105C16.6955 20.0119 16.3867 19.2316 16.3867 18.0679V17.4538C16.3867 16.5785 16.6225 15.9067 17.0924 15.4351C17.5623 14.9635 18.2256 14.7294 19.0771 14.7294H19.1942V13.4165C19.1942 13.1841 19.3112 13.067 19.5436 13.067H20.5411C20.7735 13.067 20.8905 13.1841 20.8905 13.4165V14.7294H20.9245C21.7116 14.7294 22.3307 14.9737 22.7854 15.4606C23.24 15.9474 23.4673 16.6124 23.4673 17.4538V17.7693C23.4673 18.0017 23.3503 18.1188 23.1179 18.1188H21.7065C21.4741 18.1188 21.357 18.0017 21.357 17.7693V17.6523C21.357 17.2316 21.2773 16.9432 21.1162 16.7888C20.955 16.6344 20.648 16.5564 20.1933 16.5564H19.6624C19.2078 16.5564 18.9007 16.6429 18.7396 16.8143C18.5784 16.9856 18.4987 17.3215 18.4987 17.8202V18.1527C18.4987 18.397 18.5818 18.587 18.748 18.7261C18.9143 18.8652 19.1026 18.9568 19.3129 19.0009C19.5572 19.045 19.9694 19.0925 20.5513 19.1417C21.1331 19.1909 21.5708 19.2638 21.8642 19.3571C22.1577 19.4504 22.4478 19.598 22.7362 19.7982C23.3231 20.2188 23.6166 20.972 23.6166 22.0577V22.6887C23.6166 23.5522 23.3757 24.2239 22.8939 24.6989C22.4122 25.1756 21.7557 25.4131 20.9245 25.4131H20.8905V26.6921C20.8888 26.9228 20.7718 27.0399 20.5394 27.0399Z" fill="url(#paint4_linear)"/>
    <defs>
        <linearGradient id="paint0_linear" x1="-37.5888" y1="82.7786" x2="28.7079" y2="16.482" gradientUnits="userSpaceOnUse">
            <stop offset="0.84" stop-color="#8568C5"/>
            <stop offset="1" stop-color="#783989"/>
        </linearGradient>
        <linearGradient id="paint1_linear" x1="75.334" y1="-29.0929" x2="18.0244" y2="39.206" gradientUnits="userSpaceOnUse">
            <stop offset="0.8849" stop-color="#793E90"/>
            <stop offset="1" stop-color="#783989"/>
        </linearGradient>
        <linearGradient id="paint2_linear" x1="58.7368" y1="-43.0195" x2="1.42726" y2="25.2794" gradientUnits="userSpaceOnUse">
            <stop offset="0.373" stop-color="#8568C5"/>
            <stop offset="0.6215" stop-color="#8568C5"/>
        </linearGradient>
        <linearGradient id="paint3_linear" x1="-9.68945" y1="67.2601" x2="29.9943" y2="-1.4741" gradientUnits="userSpaceOnUse">
            <stop offset="0.557" stop-color="#8568C5"/>
            <stop offset="1" stop-color="#783989"/>
        </linearGradient>
        <linearGradient id="paint4_linear" x1="16.212" y1="23.8828" x2="23.871" y2="16.2237" gradientUnits="userSpaceOnUse">
            <stop offset="0.0666059" stop-color="#8568C5"/>
            <stop offset="0.278" stop-color="#8055AD"/>
            <stop offset="0.5176" stop-color="#7B4599"/>
            <stop offset="0.7583" stop-color="#793C8D"/>
            <stop offset="1" stop-color="#783989"/>
        </linearGradient>
    </defs>
</svg>
