<svg width="32" height="32" viewBox="0 0 32 32" fill="none" xmlns="http://www.w3.org/2000/svg">
    <rect width="32" height="32" rx="16" fill="#68D4D9"/>
    <path fill-rule="evenodd" clip-rule="evenodd" d="M5.08808 21C6.9841 25.1311 11.157 28 16 28C20.843 28 25.0159 25.1311 26.9119 21H5.08808ZM26.9119 11C25.0159 6.86894 20.843 4 16 4C11.157 4 6.9841 6.86894 5.08808 11H26.9119ZM0 16C0 7.16344 7.16344 0 16 0C24.8366 0 32 7.16344 32 16C32 24.8366 24.8366 32 16 32C7.16344 32 0 24.8366 0 16Z" fill="#189DA3"/>
    <path d="M7.30709 19.08C8.81909 19.08 9.62709 18.256 9.62709 16.76V13.28H8.55509V16.672C8.55509 17.856 8.13909 18.224 7.31509 18.224C6.46709 18.224 6.13109 17.792 6.13109 16.744V13.28H5.05909V16.824C5.05909 18.296 5.87509 19.08 7.30709 19.08ZM12.8323 19.08C14.0963 19.08 14.9363 18.304 14.9363 17.312C14.9363 16.168 14.2403 15.784 12.8963 15.6C11.9043 15.456 11.7123 15.224 11.7123 14.76C11.7123 14.32 12.0483 14.008 12.6963 14.008C13.3523 14.008 13.6963 14.264 13.8003 14.864H14.7763C14.6643 13.768 13.9283 13.208 12.6963 13.208C11.5043 13.208 10.7043 13.912 10.7043 14.848C10.7043 15.92 11.3523 16.336 12.7203 16.52C13.6483 16.672 13.9123 16.872 13.9123 17.4C13.9123 17.928 13.4643 18.28 12.8323 18.28C11.8643 18.28 11.6323 17.8 11.5603 17.224H10.5363C10.6163 18.304 11.2723 19.08 12.8323 19.08ZM17.0305 18.16V14.12H17.6465C18.9905 14.12 19.5505 14.864 19.5505 16.096V16.16C19.5505 17.424 18.9345 18.16 17.6545 18.16H17.0305ZM15.9665 19H17.6865C19.6945 19 20.6625 17.816 20.6625 16.152V16.08C20.6625 14.416 19.6945 13.28 17.7025 13.28H15.9665V19ZM23.0214 19.072C23.3174 19.072 23.5254 19.024 23.6774 18.968V18.2C23.5414 18.256 23.3974 18.28 23.2054 18.28C22.9014 18.28 22.7254 18.112 22.7254 17.744V15.544H23.6454V14.816H22.7254V13.896H21.7574V14.816H21.1974V15.544H21.7574V17.832C21.7574 18.624 22.1894 19.072 23.0214 19.072ZM23.7396 19H27.3236V18.224H25.1796L27.3876 14.952V14.816H23.9556V15.584H25.9556L23.7396 18.888V19Z" fill="white"/>
</svg>
