<svg width="40" height="40" viewBox="0 0 40 40" fill="none" xmlns="http://www.w3.org/2000/svg">
    <rect x="4" y="4" width="32" height="32" rx="16" fill="#68D4D9"/>
    <path fill-rule="evenodd" clip-rule="evenodd" d="M9.08808 25C10.9841 29.1311 15.157 32 20 32C24.843 32 29.0159 29.1311 30.9119 25H9.08808ZM30.9119 15C29.0159 10.8689 24.843 8 20 8C15.157 8 10.9841 10.8689 9.08808 15H30.9119ZM4 20C4 11.1634 11.1634 4 20 4C28.8366 4 36 11.1634 36 20C36 28.8366 28.8366 36 20 36C11.1634 36 4 28.8366 4 20Z" fill="#189DA3"/>
    <path d="M11.3071 23.08C12.8191 23.08 13.6271 22.256 13.6271 20.76V17.28H12.5551V20.672C12.5551 21.856 12.1391 22.224 11.3151 22.224C10.4671 22.224 10.1311 21.792 10.1311 20.744V17.28H9.05909V20.824C9.05909 22.296 9.87509 23.08 11.3071 23.08ZM16.8323 23.08C18.0963 23.08 18.9363 22.304 18.9363 21.312C18.9363 20.168 18.2403 19.784 16.8963 19.6C15.9043 19.456 15.7123 19.224 15.7123 18.76C15.7123 18.32 16.0483 18.008 16.6963 18.008C17.3523 18.008 17.6963 18.264 17.8003 18.864H18.7763C18.6643 17.768 17.9283 17.208 16.6963 17.208C15.5043 17.208 14.7043 17.912 14.7043 18.848C14.7043 19.92 15.3523 20.336 16.7203 20.52C17.6483 20.672 17.9123 20.872 17.9123 21.4C17.9123 21.928 17.4643 22.28 16.8323 22.28C15.8643 22.28 15.6323 21.8 15.5603 21.224H14.5363C14.6163 22.304 15.2723 23.08 16.8323 23.08ZM21.0305 22.16V18.12H21.6465C22.9905 18.12 23.5505 18.864 23.5505 20.096V20.16C23.5505 21.424 22.9345 22.16 21.6545 22.16H21.0305ZM19.9665 23H21.6865C23.6945 23 24.6625 21.816 24.6625 20.152V20.08C24.6625 18.416 23.6945 17.28 21.7025 17.28H19.9665V23ZM27.0214 23.072C27.3174 23.072 27.5254 23.024 27.6774 22.968V22.2C27.5414 22.256 27.3974 22.28 27.2054 22.28C26.9014 22.28 26.7254 22.112 26.7254 21.744V19.544H27.6454V18.816H26.7254V17.896H25.7574V18.816H25.1974V19.544H25.7574V21.832C25.7574 22.624 26.1894 23.072 27.0214 23.072ZM27.7396 23H31.3236V22.224H29.1796L31.3876 18.952V18.816H27.9556V19.584H29.9556L27.7396 22.888V23Z" fill="white"/>
</svg>
