<svg width="40" height="40" viewBox="0 0 40 40" fill="none" xmlns="http://www.w3.org/2000/svg">
    <rect x="4" y="4" width="32" height="32" rx="16" fill="#87B7FF"/>
    <path fill-rule="evenodd" clip-rule="evenodd" d="M9.08808 25C10.9841 29.1311 15.157 32 20 32C24.843 32 29.0159 29.1311 30.9119 25H9.08808ZM30.9119 15C29.0159 10.8689 24.843 8 20 8C15.157 8 10.9841 10.8689 9.08808 15H30.9119ZM4 20C4 11.1634 11.1634 4 20 4C28.8366 4 36 11.1634 36 20C36 28.8366 28.8366 36 20 36C11.1634 36 4 28.8366 4 20Z" fill="#2C7DF7"/>
    <path d="M10.7134 23H11.7054L12.5534 20.184L13.3294 23H14.3134L15.6254 18.816H14.6814L13.8094 21.84L12.9934 18.816H12.1854L11.2974 21.84L10.4654 18.816H9.43344L10.7134 23ZM16.0771 23H17.1651L18.5091 20.768L19.8531 23H21.0691L19.2371 20.04L20.9251 17.28H19.8291L18.6211 19.312L17.4051 17.28H16.2051L17.9171 20.064L16.0771 23ZM23.0734 23H24.1454V18.12H25.7374V17.28H21.4814V18.12H23.0734V23ZM26.0354 23H30.3794V22.144H27.6034L30.4594 17.416V17.28H26.3314V18.12H28.9554L26.0354 22.856V23Z" fill="white"/>
</svg>
