<svg width="32" height="32" viewBox="0 0 32 32" fill="none" xmlns="http://www.w3.org/2000/svg">
    <rect width="32" height="32" rx="16" fill="#87B7FF"/>
    <path fill-rule="evenodd" clip-rule="evenodd" d="M5.08808 21C6.9841 25.1311 11.157 28 16 28C20.843 28 25.0159 25.1311 26.9119 21H5.08808ZM26.9119 11C25.0159 6.86894 20.843 4 16 4C11.157 4 6.9841 6.86894 5.08808 11H26.9119ZM0 16C0 7.16344 7.16344 0 16 0C24.8366 0 32 7.16344 32 16C32 24.8366 24.8366 32 16 32C7.16344 32 0 24.8366 0 16Z" fill="#2C7DF7"/>
    <path d="M6.71344 19H7.70544L8.55344 16.184L9.32944 19H10.3134L11.6254 14.816H10.6814L9.80944 17.84L8.99344 14.816H8.18544L7.29744 17.84L6.46544 14.816H5.43344L6.71344 19ZM12.0771 19H13.1651L14.5091 16.768L15.8531 19H17.0691L15.2371 16.04L16.9251 13.28H15.8291L14.6211 15.312L13.4051 13.28H12.2051L13.9171 16.064L12.0771 19ZM19.0734 19H20.1454V14.12H21.7374V13.28H17.4814V14.12H19.0734V19ZM22.0354 19H26.3794V18.144H23.6034L26.4594 13.416V13.28H22.3314V14.12H24.9554L22.0354 18.856V19Z" fill="white"/>
</svg>
