<svg width="65" height="64" viewBox="0 0 65 64" fill="none" xmlns="http://www.w3.org/2000/svg">
<path d="M27.9401 10.2939L5.35339 48.0005C4.8877 48.807 4.6413 49.7213 4.63869 50.6526C4.63609 51.5838 4.87736 52.4996 5.33853 53.3086C5.79969 54.1177 6.46466 54.7919 7.26728 55.2641C8.0699 55.7364 8.98219 55.9903 9.91339 56.0005H55.0867C56.0179 55.9903 56.9302 55.7364 57.7328 55.2641C58.5355 54.7919 59.2004 54.1177 59.6616 53.3086C60.1227 52.4996 60.364 51.5838 60.3614 50.6526C60.3588 49.7213 60.1124 48.807 59.6467 48.0005L37.0601 10.2939C36.5847 9.51016 35.9153 8.8622 35.1166 8.4125C34.3178 7.96281 33.4167 7.72656 32.5001 7.72656C31.5834 7.72656 30.6823 7.96281 29.8835 8.4125C29.0848 8.8622 28.4154 9.51016 27.9401 10.2939V10.2939Z" stroke="#FF5B00" stroke-width="5" stroke-linecap="round" stroke-linejoin="round"/>
<path d="M32.5 24V34.6667" stroke="#FF5B00" stroke-width="5" stroke-linecap="round" stroke-linejoin="round"/>
<path d="M32.5 45.3359H32.5267" stroke="#FF5B00" stroke-width="5" stroke-linecap="round" stroke-linejoin="round"/>
</svg>
