<svg width="160" height="40" viewBox="0 0 160 40" fill="none" xmlns="http://www.w3.org/2000/svg">
<g clip-path="url(#clip0_8734_6667)">
<path fill-rule="evenodd" clip-rule="evenodd" d="M93.7161 30.3657C85.3191 30.3657 78.5127 23.638 78.5127 15.3382V0.329102H93.7161C102.113 0.329102 108.92 7.05673 108.92 15.3565C108.92 23.638 102.113 30.3657 93.7161 30.3657Z" fill="#18FFFF"/>
<path fill-rule="evenodd" clip-rule="evenodd" d="M66.9534 0C75.3505 0 82.1569 6.72762 82.1569 15.0274V30.0549H66.9534C58.5564 30.0549 51.75 23.3272 51.75 15.0274C51.75 6.72762 58.5564 0 66.9534 0Z" fill="#EF4747"/>
<path fill-rule="evenodd" clip-rule="evenodd" d="M82.1574 25.0821C79.9009 22.4678 78.5322 19.0675 78.5322 15.338V5.2832C80.7887 7.89747 82.1574 11.2978 82.1574 15.0273V25.0821Z" fill="#860EB5"/>
<path fill-rule="evenodd" clip-rule="evenodd" d="M97.1938 34.6983L97.6377 35.9049H98.2666C99.0249 35.9414 99.6353 36.5813 99.6353 37.3491C99.6353 38.1352 98.9879 38.7568 98.2111 38.7568C97.4528 38.7568 96.8239 38.1717 96.7869 37.4222V37.3491V32.8701H95.5107V37.3491C95.5107 38.7934 96.7499 39.9634 98.2111 39.9634C99.6538 39.9634 100.837 38.8299 100.856 37.4039C100.856 37.3857 100.856 37.3674 100.856 37.3491C100.856 35.9597 99.9682 34.7897 98.47 34.6983C98.3775 34.6983 98.2851 34.68 98.1926 34.68L97.1938 34.6983Z" fill="#FF5B00"/>
<path fill-rule="evenodd" clip-rule="evenodd" d="M80.0111 38.9215L78.8828 38.4279C78.7534 38.5742 78.6054 38.7022 78.4204 38.7753C78.254 38.8302 78.069 38.8484 77.8841 38.8484C77.6806 38.8484 77.4772 38.8119 77.2922 38.7022C77.1257 38.6108 76.9778 38.4828 76.8483 38.3365C76.7189 38.1903 76.6264 38.0257 76.5709 37.8612C76.5154 37.6967 76.4784 37.5322 76.4784 37.3494C76.4784 37.1482 76.5154 36.9472 76.5894 36.746C76.6633 36.5632 76.7558 36.3987 76.8853 36.2707C77.0148 36.1427 77.1627 36.033 77.3477 35.9599C77.5326 35.8868 77.7176 35.832 77.9025 35.832C78.217 35.832 78.5129 35.9234 78.7534 36.1245C78.9938 36.3073 79.1418 36.5632 79.2527 36.8375H77.0702L77.4401 37.8978H80.5105C80.5475 37.715 80.5659 37.5322 80.5659 37.3494C80.5659 36.9837 80.4919 36.6547 80.3625 36.3255C80.233 36.0148 80.0296 35.7223 79.7891 35.4846C79.5487 35.247 79.2527 35.0459 78.9383 34.9179C78.6054 34.7717 78.2725 34.7168 77.9025 34.7168C77.5326 34.7168 77.1812 34.7899 76.8483 34.9179C76.5339 35.0459 76.2379 35.247 75.9975 35.4846C75.7571 35.7223 75.5536 36.0148 75.4242 36.3255C75.2762 36.6547 75.2207 37.002 75.2207 37.3494C75.2207 37.6967 75.2947 38.044 75.4242 38.3731C75.5536 38.6839 75.7571 38.9764 75.9975 39.214C76.2379 39.4517 76.5339 39.6345 76.8483 39.7808C77.1812 39.927 77.5326 39.9819 77.9025 39.9819C78.328 39.9819 78.7348 39.8905 79.1232 39.6894C79.4562 39.4883 79.7707 39.2324 80.0111 38.9215Z" fill="#FF5B00"/>
<path fill-rule="evenodd" clip-rule="evenodd" d="M74.0003 38.026C73.8893 38.2637 73.7228 38.4648 73.5009 38.611C73.2789 38.7573 73.02 38.8304 72.761 38.8304C72.5761 38.8304 72.3726 38.7939 72.2062 38.7207C72.0397 38.6476 71.8918 38.5379 71.7623 38.4099C71.6328 38.2637 71.5403 38.1174 71.4663 37.9346C71.3924 37.7518 71.3554 37.5507 71.3554 37.3496C71.3554 37.1485 71.3924 36.9474 71.4663 36.7646C71.5403 36.5818 71.6328 36.4172 71.7623 36.271C71.8918 36.1247 72.0397 36.015 72.2062 35.9419C72.3911 35.8505 72.5761 35.8139 72.761 35.8139C73.0385 35.8139 73.2974 35.9054 73.5193 36.0699C73.7413 36.2344 73.8893 36.4355 74.0003 36.6732L75.0545 35.9967C74.814 35.6129 74.4996 35.302 74.0928 35.0827C73.6858 34.845 73.242 34.7354 72.761 34.7354C72.3911 34.7354 72.0582 34.8085 71.7253 34.9364C71.4109 35.0644 71.115 35.2655 70.8745 35.5032C70.634 35.7408 70.4306 36.0333 70.3011 36.3441C70.1531 36.6732 70.0977 37.0022 70.0977 37.3679C70.0977 37.7335 70.1716 38.0625 70.3011 38.3917C70.4306 38.7024 70.634 38.9949 70.8745 39.2326C71.115 39.4702 71.4109 39.6714 71.7253 39.7993C72.0582 39.9455 72.4097 40.0004 72.761 40.0004C73.242 40.0004 73.6858 39.8907 74.0928 39.653C74.2407 39.5617 74.3702 39.4702 74.4996 39.3605C74.7216 39.1777 74.888 38.9584 75.036 38.7207L74.0003 38.026Z" fill="#FF5B00"/>
<path fill-rule="evenodd" clip-rule="evenodd" d="M68.1553 32.8701V33.9853H69.4315V32.8701H68.1553Z" fill="#FF5B00"/>
<path fill-rule="evenodd" clip-rule="evenodd" d="M68.1553 39.8906H69.4315V34.79H68.1553V39.8906Z" fill="#FF5B00"/>
<path fill-rule="evenodd" clip-rule="evenodd" d="M66.0469 32.8701V39.8902H67.3231V32.8701H66.0469Z" fill="#FF5B00"/>
<path fill-rule="evenodd" clip-rule="evenodd" d="M81.5469 36.8369V37.879H82.9156V36.8369H81.5469Z" fill="#FF5B00"/>
<path fill-rule="evenodd" clip-rule="evenodd" d="M92.3477 34.6982C91.9778 34.6982 91.6448 34.7714 91.3119 34.8993C90.9975 35.0273 90.7016 35.2284 90.4611 35.4661C90.2207 35.7037 90.0172 35.9962 89.8877 36.307C89.6103 36.9469 89.6103 37.7147 89.8877 38.3546C90.0172 38.6653 90.2207 38.9578 90.4611 39.1955C90.7016 39.4331 90.9975 39.6342 91.3119 39.7622C91.6448 39.9084 91.9963 39.9633 92.3477 39.9633C92.7176 39.9633 93.0505 39.8902 93.3834 39.7622C93.6978 39.6342 93.9938 39.4331 94.2342 39.1955C94.4746 38.9578 94.6781 38.6653 94.8076 38.3546C94.9556 38.0254 95.011 37.6964 95.011 37.3307C95.011 36.9834 94.937 36.6361 94.8076 36.307C94.6781 35.9962 94.4746 35.7037 94.2342 35.4661C93.9938 35.2284 93.6978 35.0273 93.3834 34.8993C93.069 34.7714 92.7176 34.6982 92.3477 34.6982ZM92.3477 38.8481C92.1627 38.8481 91.9963 38.8116 91.8298 38.7202C91.6633 38.6471 91.5154 38.5191 91.4044 38.3911C91.2749 38.2449 91.1824 38.0803 91.127 37.8975C91.053 37.6964 91.016 37.4953 91.016 37.2942C91.016 37.0931 91.053 36.892 91.127 36.7092C91.2009 36.5264 91.2934 36.3801 91.4044 36.2339C91.5339 36.1059 91.6633 35.9962 91.8298 35.9048C91.9963 35.8317 92.1627 35.7768 92.3477 35.7768C92.5326 35.7768 92.6991 35.8134 92.8655 35.9048C93.032 35.9779 93.1615 36.0876 93.291 36.2339C93.4204 36.3801 93.5129 36.5447 93.5684 36.7092C93.6424 36.892 93.6794 37.0931 93.6794 37.2942C93.6794 37.4953 93.6424 37.6964 93.5684 37.8975C93.4944 38.0803 93.4019 38.2449 93.291 38.3911C93.18 38.5374 93.032 38.6471 92.8655 38.7202C92.6991 38.8116 92.5326 38.8481 92.3477 38.8481Z" fill="#FF5B00"/>
<path fill-rule="evenodd" clip-rule="evenodd" d="M63.7726 39.8899L63.3657 38.7564H62.7368C61.9785 38.7199 61.3681 38.0983 61.3681 37.3305C61.3681 36.5444 62.0155 35.9046 62.8108 35.9046C63.5691 35.9046 64.161 36.4896 64.198 37.2391V37.3123V39.8534H65.4742V37.3123C65.4742 35.8497 64.2719 34.6797 62.7923 34.6797C61.3681 34.6797 60.1844 35.7949 60.1289 37.2026V37.2208C60.1289 37.2391 60.1289 37.2391 60.1289 37.2574C60.1289 37.2757 60.1289 37.2939 60.1289 37.3123C60.1289 37.3305 60.1289 37.3488 60.1289 37.3854C60.1289 37.4036 60.1289 37.4219 60.1289 37.4585C60.1289 37.4768 60.1289 37.4951 60.1289 37.5316C60.1289 37.5499 60.1289 37.5682 60.1289 37.6048C60.1289 37.623 60.1289 37.6413 60.1289 37.6779C60.1289 37.6961 60.1289 37.7144 60.1474 37.751C60.1474 37.7693 60.1474 37.7876 60.1659 37.8241C60.1659 37.8424 60.1659 37.8607 60.1844 37.8973C60.1844 37.9155 60.1844 37.9338 60.2029 37.9704C60.2029 37.9886 60.2214 38.0069 60.2214 38.0252C60.2214 38.0435 60.2399 38.0618 60.2399 38.0801C60.2399 38.0983 60.2584 38.1166 60.2584 38.1349C60.2584 38.1532 60.2769 38.1714 60.2769 38.1898C60.2769 38.208 60.2954 38.2263 60.2954 38.2446C60.2954 38.2629 60.3139 38.2811 60.3139 38.2994C60.3139 38.3177 60.3324 38.336 60.3324 38.3543C60.3324 38.3726 60.3509 38.3908 60.3509 38.4091C60.3509 38.4274 60.3694 38.4457 60.3694 38.4639C60.3878 38.4823 60.3878 38.5005 60.4064 38.5188C60.4249 38.5371 60.4249 38.5554 60.4434 38.5736C60.4618 38.5919 60.4618 38.6102 60.4804 38.6285C60.4989 38.6467 60.4989 38.6651 60.5173 38.6833C60.5358 38.7016 60.5358 38.7199 60.5543 38.7382C60.5729 38.7564 60.5729 38.7748 60.5913 38.793C60.6098 38.8113 60.6098 38.8296 60.6283 38.8479C60.6468 38.8662 60.6468 38.8844 60.6653 38.9028C60.6838 38.921 60.6838 38.9393 60.7023 38.9576C60.7208 38.9759 60.7208 38.9941 60.7393 39.0124C60.7578 39.0307 60.7578 39.049 60.7763 39.0673C60.7948 39.0856 60.8133 39.1038 60.8133 39.1221C60.8318 39.1404 60.8502 39.1587 60.8502 39.1769C60.8688 39.1953 60.8873 39.2135 60.8873 39.2135C60.9057 39.2318 60.9242 39.2501 60.9242 39.2501C60.9428 39.2684 60.9613 39.2866 60.9797 39.2866C60.9982 39.3049 61.0167 39.3232 61.0352 39.3232C61.0722 39.3598 61.1092 39.3781 61.1277 39.3963C61.1462 39.4146 61.1647 39.4146 61.1832 39.4329C61.2017 39.4512 61.2202 39.4512 61.2387 39.4694C61.2572 39.4878 61.2757 39.4878 61.2941 39.506C61.3126 39.5243 61.3312 39.5243 61.3497 39.5426C61.3681 39.5609 61.3866 39.5609 61.4052 39.5791C61.4421 39.5974 61.4791 39.6157 61.5161 39.634C61.812 39.7985 62.256 39.8534 62.7553 39.8534H63.7726V39.8899Z" fill="#FF5B00"/>
<path fill-rule="evenodd" clip-rule="evenodd" d="M85.523 34.6983L85.9668 35.9049H86.5957C87.354 35.9414 87.9644 36.5813 87.9644 37.3491C87.9644 38.1352 87.317 38.7568 86.5402 38.7568C85.7819 38.7568 85.1531 38.1717 85.116 37.4222V37.3491V32.8701H83.8398V37.3491C83.8398 38.7934 85.0791 39.9634 86.5402 39.9634C87.9829 39.9634 89.1666 38.8299 89.1851 37.4039C89.1851 37.3857 89.1851 37.3674 89.1851 37.3491C89.1851 35.9597 88.2973 34.7897 86.7991 34.6983C86.7067 34.6983 86.6142 34.68 86.5217 34.68L85.523 34.6983Z" fill="#FF5B00"/>
</g>
<defs>
<clipPath id="clip0_8734_6667">
<rect width="57.5" height="40" fill="white" transform="translate(51.75)"/>
</clipPath>
</defs>
</svg>
