<svg width="32" height="23" viewBox="0 0 32 23" fill="none" xmlns="http://www.w3.org/2000/svg">
<g clip-path="url(#clip0_12918_271891)">
<path fill-rule="evenodd" clip-rule="evenodd" d="M23.3553 17.4605C18.6822 17.4605 14.8943 13.5921 14.8943 8.8197V0.189453H23.3553C28.0285 0.189453 31.8164 4.05784 31.8164 8.83023C31.8164 13.5921 28.0285 17.4605 23.3553 17.4605Z" fill="#18FFFF"/>
<path fill-rule="evenodd" clip-rule="evenodd" d="M8.46105 0C13.1342 0 16.9221 3.86838 16.9221 8.64078V17.2816H8.46105C3.78792 17.2816 0 13.4132 0 8.64078C0 3.86838 3.78792 0 8.46105 0Z" fill="#EF4747"/>
<path fill-rule="evenodd" clip-rule="evenodd" d="M16.9221 14.4224C15.6664 12.9193 14.9047 10.964 14.9047 8.81961V3.03809C16.1604 4.54129 16.9221 6.49651 16.9221 8.64093V14.4224Z" fill="#860EB5"/>
<path fill-rule="evenodd" clip-rule="evenodd" d="M25.2906 19.9516L25.5376 20.6454H25.8876C26.3096 20.6664 26.6493 21.0343 26.6493 21.4758C26.6493 21.9278 26.289 22.2852 25.8567 22.2852C25.4347 22.2852 25.0847 21.9488 25.0641 21.5179V21.4758V18.9004H24.3539V21.4758C24.3539 22.3063 25.0435 22.979 25.8567 22.979C26.6596 22.979 27.3183 22.3273 27.3286 21.5073C27.3286 21.4968 27.3286 21.4863 27.3286 21.4758C27.3286 20.6769 26.8345 20.0041 26.0008 19.9516C25.9493 19.9516 25.8979 19.9411 25.8464 19.9411L25.2906 19.9516Z" fill="black"/>
<path fill-rule="evenodd" clip-rule="evenodd" d="M15.7281 22.3796L15.1002 22.0958C15.0281 22.1799 14.9458 22.2535 14.8428 22.2956C14.7502 22.3271 14.6473 22.3376 14.5444 22.3376C14.4311 22.3376 14.3179 22.3166 14.215 22.2535C14.1223 22.201 14.04 22.1274 13.9679 22.0433C13.8959 21.9592 13.8444 21.8646 13.8135 21.77C13.7827 21.6753 13.7621 21.5808 13.7621 21.4756C13.7621 21.36 13.7827 21.2444 13.8238 21.1287C13.865 21.0236 13.9165 20.929 13.9885 20.8554C14.0606 20.7818 14.1429 20.7188 14.2459 20.6767C14.3488 20.6347 14.4517 20.6031 14.5546 20.6031C14.7296 20.6031 14.8943 20.6557 15.0281 20.7713C15.1619 20.8765 15.2443 21.0236 15.306 21.1813H14.0914L14.2973 21.791H16.006C16.0266 21.6859 16.0369 21.5808 16.0369 21.4756C16.0369 21.2654 15.9957 21.0762 15.9236 20.8869C15.8516 20.7083 15.7384 20.5401 15.6046 20.4034C15.4707 20.2668 15.306 20.1511 15.1311 20.0776C14.9458 19.9935 14.7605 19.9619 14.5546 19.9619C14.3488 19.9619 14.1532 20.004 13.9679 20.0776C13.7929 20.1511 13.6283 20.2668 13.4945 20.4034C13.3606 20.5401 13.2474 20.7083 13.1754 20.8869C13.093 21.0762 13.0621 21.2759 13.0621 21.4756C13.0621 21.6753 13.1033 21.8751 13.1754 22.0643C13.2474 22.243 13.3606 22.4112 13.4945 22.5478C13.6283 22.6845 13.7929 22.7896 13.9679 22.8737C14.1532 22.9578 14.3488 22.9893 14.5546 22.9893C14.7914 22.9893 15.0178 22.9368 15.234 22.8211C15.4193 22.7055 15.5943 22.5584 15.7281 22.3796Z" fill="black"/>
<path fill-rule="evenodd" clip-rule="evenodd" d="M12.3827 21.8648C12.321 22.0014 12.2283 22.1171 12.1048 22.2012C11.9813 22.2853 11.8372 22.3273 11.693 22.3273C11.5901 22.3273 11.4769 22.3063 11.3843 22.2642C11.2916 22.2222 11.2093 22.1591 11.1372 22.0855C11.0652 22.0014 11.0137 21.9173 10.9725 21.8122C10.9313 21.7071 10.9108 21.5915 10.9108 21.4759C10.9108 21.3602 10.9313 21.2446 10.9725 21.1395C11.0137 21.0344 11.0652 20.9397 11.1372 20.8556C11.2093 20.7715 11.2916 20.7085 11.3843 20.6664C11.4872 20.6139 11.5901 20.5928 11.693 20.5928C11.8475 20.5928 11.9916 20.6454 12.1151 20.74C12.2386 20.8346 12.321 20.9503 12.3827 21.0869L12.9694 20.6979C12.8356 20.4772 12.6606 20.2985 12.4342 20.1724C12.2077 20.0357 11.9607 19.9727 11.693 19.9727C11.4872 19.9727 11.3019 20.0147 11.1166 20.0883C10.9416 20.1619 10.777 20.2775 10.6431 20.4141C10.5093 20.5508 10.3961 20.719 10.324 20.8977C10.2417 21.0869 10.2108 21.2761 10.2108 21.4863C10.2108 21.6966 10.252 21.8858 10.324 22.075C10.3961 22.2537 10.5093 22.4219 10.6431 22.5586C10.777 22.6952 10.9416 22.8109 11.1166 22.8844C11.3019 22.9685 11.4975 23.0001 11.693 23.0001C11.9607 23.0001 12.2077 22.937 12.4342 22.8003C12.5165 22.7478 12.5886 22.6952 12.6606 22.6321C12.7841 22.527 12.8768 22.4009 12.9591 22.2642L12.3827 21.8648Z" fill="black"/>
<path fill-rule="evenodd" clip-rule="evenodd" d="M9.13013 18.9004V19.5416H9.84035V18.9004H9.13013Z" fill="black"/>
<path fill-rule="evenodd" clip-rule="evenodd" d="M9.13013 22.9367H9.84035V20.0039H9.13013V22.9367Z" fill="black"/>
<path fill-rule="evenodd" clip-rule="evenodd" d="M7.95667 18.9004V22.937H8.66692V18.9004H7.95667Z" fill="black"/>
<path fill-rule="evenodd" clip-rule="evenodd" d="M16.5824 21.1812V21.7803H17.3441V21.1812H16.5824Z" fill="black"/>
<path fill-rule="evenodd" clip-rule="evenodd" d="M22.5937 19.9517C22.3878 19.9517 22.2025 19.9937 22.0172 20.0673C21.8423 20.1409 21.6776 20.2565 21.5438 20.3932C21.4099 20.5298 21.2967 20.698 21.2247 20.8767C21.0703 21.2446 21.0703 21.6861 21.2247 22.054C21.2967 22.2327 21.4099 22.4009 21.5438 22.5376C21.6776 22.6742 21.8423 22.7899 22.0172 22.8634C22.2025 22.9475 22.3981 22.9791 22.5937 22.9791C22.7996 22.9791 22.9848 22.937 23.1701 22.8634C23.3451 22.7899 23.5098 22.6742 23.6436 22.5376C23.7774 22.4009 23.8906 22.2327 23.9627 22.054C24.045 21.8648 24.0759 21.6756 24.0759 21.4653C24.0759 21.2656 24.0347 21.0659 23.9627 20.8767C23.8906 20.698 23.7774 20.5298 23.6436 20.3932C23.5098 20.2565 23.3451 20.1409 23.1701 20.0673C22.9951 19.9937 22.7996 19.9517 22.5937 19.9517ZM22.5937 22.3378C22.4907 22.3378 22.3981 22.3168 22.3055 22.2643C22.2128 22.2222 22.1305 22.1486 22.0687 22.0751C21.9967 21.991 21.9452 21.8963 21.9143 21.7912C21.8731 21.6756 21.8526 21.56 21.8526 21.4443C21.8526 21.3287 21.8731 21.2131 21.9143 21.108C21.9555 21.0028 22.007 20.9187 22.0687 20.8346C22.1408 20.761 22.2128 20.698 22.3055 20.6454C22.3981 20.6034 22.4907 20.5718 22.5937 20.5718C22.6966 20.5718 22.7893 20.5929 22.8819 20.6454C22.9745 20.6875 23.0466 20.7506 23.1186 20.8346C23.1907 20.9187 23.2421 21.0134 23.273 21.108C23.3142 21.2131 23.3348 21.3287 23.3348 21.4443C23.3348 21.56 23.3142 21.6756 23.273 21.7912C23.2319 21.8963 23.1804 21.991 23.1186 22.0751C23.0569 22.1592 22.9745 22.2222 22.8819 22.2643C22.7893 22.3168 22.6966 22.3378 22.5937 22.3378Z" fill="black"/>
<path fill-rule="evenodd" clip-rule="evenodd" d="M6.69062 22.9368L6.46416 22.285H6.1142C5.69219 22.264 5.35249 21.9066 5.35249 21.4651C5.35249 21.0131 5.71276 20.6452 6.15538 20.6452C6.57739 20.6452 6.90678 20.9816 6.92739 21.4126V21.4546V22.9158H7.63761V21.4546C7.63761 20.6137 6.96853 19.9409 6.14507 19.9409C5.35249 19.9409 4.69375 20.5822 4.66284 21.3916V21.4021C4.66284 21.4126 4.66284 21.4126 4.66284 21.4231C4.66284 21.4336 4.66284 21.4441 4.66284 21.4546C4.66284 21.4651 4.66284 21.4757 4.66284 21.4967C4.66284 21.5072 4.66284 21.5177 4.66284 21.5387C4.66284 21.5492 4.66284 21.5598 4.66284 21.5808C4.66284 21.5913 4.66284 21.6018 4.66284 21.6228C4.66284 21.6333 4.66284 21.6439 4.66284 21.6649C4.66284 21.6754 4.66284 21.6859 4.67315 21.7069C4.67315 21.7174 4.67314 21.7279 4.68345 21.749C4.68345 21.7595 4.68345 21.77 4.69375 21.791C4.69375 21.8015 4.69375 21.812 4.70402 21.8331C4.70402 21.8436 4.71432 21.8541 4.71432 21.8646C4.71432 21.8751 4.72463 21.8856 4.72463 21.8961C4.72463 21.9066 4.73489 21.9172 4.73489 21.9277C4.73489 21.9382 4.7452 21.9487 4.7452 21.9592C4.7452 21.9697 4.7555 21.9802 4.7555 21.9907C4.7555 22.0013 4.7658 22.0117 4.7658 22.0223C4.7658 22.0328 4.77607 22.0433 4.77607 22.0538C4.77607 22.0643 4.78638 22.0748 4.78638 22.0853C4.78638 22.0958 4.79668 22.1064 4.79668 22.1169C4.80695 22.1274 4.80695 22.1379 4.81725 22.1484C4.82755 22.1589 4.82755 22.1694 4.83786 22.1799C4.84813 22.1905 4.84813 22.201 4.85843 22.2115C4.86873 22.222 4.86873 22.2325 4.879 22.243C4.8893 22.2535 4.8893 22.264 4.89961 22.2746C4.90991 22.2851 4.90991 22.2956 4.92018 22.3061C4.93048 22.3166 4.93048 22.3271 4.94078 22.3376C4.95105 22.3482 4.95105 22.3586 4.96136 22.3692C4.97166 22.3797 4.97166 22.3902 4.98196 22.4007C4.99223 22.4112 4.99223 22.4217 5.00253 22.4323C5.01284 22.4427 5.01284 22.4533 5.02311 22.4638C5.03341 22.4743 5.04371 22.4848 5.04371 22.4953C5.05402 22.5058 5.06428 22.5163 5.06428 22.5268C5.07459 22.5374 5.08489 22.5479 5.08489 22.5479C5.09516 22.5584 5.10546 22.5689 5.10546 22.5689C5.11577 22.5794 5.12607 22.5899 5.13634 22.5899C5.14664 22.6004 5.15694 22.6109 5.16721 22.6109C5.18782 22.632 5.20839 22.6425 5.21869 22.653C5.229 22.6635 5.23926 22.6635 5.24957 22.674C5.25987 22.6845 5.27017 22.6845 5.28044 22.695C5.29075 22.7056 5.30105 22.7056 5.31132 22.716C5.32162 22.7266 5.33192 22.7266 5.34223 22.7371C5.35249 22.7476 5.3628 22.7476 5.3731 22.7581C5.39367 22.7686 5.41428 22.7791 5.43485 22.7896C5.59953 22.8842 5.8466 22.9158 6.1245 22.9158H6.69062V22.9368Z" fill="black"/>
<path fill-rule="evenodd" clip-rule="evenodd" d="M18.7955 19.9516L19.0425 20.6454H19.3925C19.8145 20.6664 20.1541 21.0343 20.1541 21.4758C20.1541 21.9278 19.7939 22.2852 19.3616 22.2852C18.9396 22.2852 18.5896 21.9488 18.569 21.5179V21.4758V18.9004H17.8588V21.4758C17.8588 22.3063 18.5484 22.979 19.3616 22.979C20.1645 22.979 20.8232 22.3273 20.8335 21.5073C20.8335 21.4968 20.8335 21.4863 20.8335 21.4758C20.8335 20.6769 20.3394 20.0041 19.5057 19.9516C19.4542 19.9516 19.4027 19.9411 19.3513 19.9411L18.7955 19.9516Z" fill="black"/>
</g>
<defs>
<clipPath id="clip0_12918_271891">
<rect width="32" height="23" fill="white"/>
</clipPath>
</defs>
</svg>
