<svg width="25" height="24" viewBox="0 0 25 24" fill="none" xmlns="http://www.w3.org/2000/svg">
<path fill-rule="evenodd" clip-rule="evenodd" d="M12.4804 4.61243C13.6717 4.70704 14.8631 4.04474 15.6077 3.20505C16.3398 2.34169 16.8238 1.18267 16.6997 0C15.6449 0.047307 14.3419 0.662297 13.5973 1.52565C12.9147 2.27073 12.3315 3.47706 12.4804 4.61243ZM13.907 5.42723C14.6806 5.13776 15.6382 4.77938 16.6878 4.83695C17.3579 4.88425 19.2938 5.07348 20.5348 6.82384C20.5291 6.82791 20.5165 6.83572 20.4978 6.8473C20.1908 7.03758 18.2404 8.24633 18.2638 10.632C18.2871 13.4744 20.7166 14.5343 21.0344 14.673C21.0551 14.682 21.0669 14.6872 21.0684 14.6886C21.0671 14.6925 21.0646 14.7001 21.061 14.7112C20.9976 14.9067 20.5797 16.1951 19.6289 17.5152C18.7478 18.7452 17.8419 19.9515 16.4023 19.9752C15.7249 19.9867 15.2686 19.7988 14.7934 19.603C14.2936 19.3972 13.773 19.1828 12.9524 19.1828C12.1024 19.1828 11.5579 19.4029 11.0339 19.6149C10.5787 19.799 10.1388 19.9768 9.52735 19.9988C8.13745 20.0461 7.08263 18.6979 6.20153 17.4679C4.40212 14.9843 3.02464 10.4665 4.8861 7.41517C5.79201 5.88953 7.44251 4.93156 9.2171 4.90791C9.99131 4.89449 10.7296 5.17401 11.3754 5.41849C11.8682 5.60508 12.3071 5.77126 12.667 5.77126C12.9877 5.77126 13.4092 5.61351 13.907 5.42723Z" fill="black"/>
</svg>
