<svg width="18" height="20" viewBox="0 0 18 20" fill="none" xmlns="http://www.w3.org/2000/svg">
<path fill-rule="evenodd" clip-rule="evenodd" d="M8.98052 4.61243C10.1719 4.70704 11.3632 4.04474 12.1078 3.20505C12.8399 2.34169 13.3239 1.18267 13.1998 0C12.145 0.047307 10.842 0.662297 10.0974 1.52565C9.41486 2.27073 8.8316 3.47706 8.98052 4.61243ZM10.4071 5.42723C11.1807 5.13776 12.1383 4.77938 13.1879 4.83695C13.858 4.88425 15.7939 5.07348 17.0349 6.82384C17.0292 6.82791 17.0166 6.83572 16.9979 6.8473C16.6909 7.03758 14.7405 8.24633 14.7639 10.632C14.7872 13.4744 17.2167 14.5343 17.5345 14.673C17.5553 14.682 17.567 14.6872 17.5685 14.6886C17.5672 14.6925 17.5647 14.7001 17.5611 14.7112C17.4977 14.9067 17.0799 16.1951 16.129 17.5152C15.2479 18.7452 14.342 19.9515 12.9025 19.9752C12.225 19.9867 11.7687 19.7988 11.2935 19.603C10.7938 19.3972 10.2732 19.1828 9.45256 19.1828C8.60249 19.1828 8.05807 19.4029 7.534 19.6149C7.07879 19.799 6.63894 19.9768 6.02747 19.9988C4.63758 20.0461 3.58275 18.6979 2.70166 17.4679C0.902243 14.9843 -0.475239 10.4665 1.38622 7.41517C2.29213 5.88953 3.94263 4.93156 5.71722 4.90791C6.49144 4.89449 7.22972 5.17401 7.87548 5.41849C8.36831 5.60508 8.80725 5.77126 9.16713 5.77126C9.48783 5.77126 9.90936 5.61351 10.4071 5.42723Z" fill="black"/>
</svg>
