<svg width="80" height="100" viewBox="0 0 80 100" fill="none" xmlns="http://www.w3.org/2000/svg">
<path d="M79.8438 75C79.8438 82.6389 73.125 88.8889 65 88.8889C56.7188 88.8889 50 82.6389 50 75C50 67.3611 56.7188 61.2847 65 61.2847C66.1776 61.2847 68.2208 61.4477 69.9435 61.7179C70.9881 61.8817 72 60.9974 72 59.8252V25.9591C72 24.7912 71.0039 23.9406 69.9882 24.2412L29.1839 36.3163C28.4853 36.5231 27.9982 37.2247 27.9957 38.028L27.8438 86.2847C27.8438 93.9236 23.2812 100 14.8438 100C6.40625 100 0 93.9236 0 86.1111C0 78.4722 6.5625 72.3958 14.8438 72.3958C15.8237 72.3958 16.8037 72.5087 17.7547 72.7023C18.8089 72.9169 19.8438 72.0654 19.8438 70.8745V22.0486C19.8438 19.7917 21.4062 17.3611 23.2812 16.6667L73.125 0.347222C73.75 0.173611 74.5312 0 75 0C77.6562 0 79.8438 2.60417 80 5.55556L79.8438 75Z" fill="#C2C2C8"/>
</svg>
