
<svg width="343" height="343" viewBox="0 0 343 343" fill="none" xmlns="http://www.w3.org/2000/svg">
<g clip-path="url(#clip0_17055_913483)">
<g clip-path="url(#clip1_17055_913483)">
<rect width="609.778" height="343" fill="#FEE2C9"/>
<rect width="19.0556" height="19.0556" fill="#585858"/>
<rect x="19.0552" width="19.0556" height="19.0556" fill="#585858"/>
<rect x="38.1108" width="19.0556" height="19.0556" fill="#6A6A6A"/>
<rect x="57.167" width="19.0556" height="19.0556" fill="#656565"/>
<rect x="76.2222" width="19.0556" height="19.0556" fill="#E6E6E6"/>
<rect x="95.2778" width="19.0556" height="19.0556" fill="#A2A2A2"/>
<rect x="114.333" width="19.0556" height="19.0556" fill="#6B6B6B"/>
<rect x="133.389" width="19.0556" height="19.0556" fill="#4B4B4B"/>
<rect x="152.445" width="19.0556" height="19.0556" fill="#949494"/>
<rect x="171.5" width="19.0556" height="19.0556" fill="#AAAAAA"/>
<rect x="190.555" width="19.0556" height="19.0556" fill="#7E7E7E"/>
<rect x="209.611" width="19.0556" height="19.0556" fill="#979797"/>
<rect x="228.667" width="19.0556" height="19.0556" fill="#8E8E8E"/>
<rect x="247.722" width="19.0556" height="19.0556" fill="#858585"/>
<rect x="266.778" width="19.0556" height="19.0556" fill="#868686"/>
<rect x="285.833" width="19.0556" height="19.0556" fill="#515151"/>
<rect x="304.889" width="19.0556" height="19.0556" fill="#FEE2C9"/>
<rect x="323.945" width="19.0556" height="19.0556" fill="#FEE2C9"/>
<rect y="19.0554" width="19.0556" height="19.0556" fill="#606060"/>
<rect x="19.0552" y="19.0554" width="19.0556" height="19.0556" fill="#FEE2C9"/>
<rect x="38.1108" y="19.0554" width="19.0556" height="19.0556" fill="#787878"/>
<rect x="57.167" y="19.0554" width="19.0556" height="19.0556" fill="#747474"/>
<rect x="76.2222" y="19.0554" width="19.0556" height="19.0556" fill="#FEE2C9"/>
<rect x="95.2778" y="19.0554" width="19.0556" height="19.0556" fill="#969696"/>
<rect x="114.333" y="19.0554" width="19.0556" height="19.0556" fill="#FEE2C9"/>
<rect x="133.389" y="19.0554" width="19.0556" height="19.0556" fill="#9A9A9A"/>
<rect x="152.445" y="19.0554" width="19.0556" height="19.0556" fill="#8B8B8B"/>
<rect x="171.5" y="19.0554" width="19.0556" height="19.0556" fill="#FEE2C9"/>
<rect x="190.555" y="19.0554" width="19.0556" height="19.0556" fill="#FEE2C9"/>
<rect x="209.611" y="19.0554" width="19.0556" height="19.0556" fill="#464646"/>
<rect x="228.667" y="19.0554" width="19.0556" height="19.0556" fill="#A9A9A9"/>
<rect x="247.722" y="19.0554" width="19.0556" height="19.0556" fill="#898989"/>
<rect x="266.778" y="19.0554" width="19.0556" height="19.0556" fill="#B6B6B6"/>
<rect x="285.833" y="19.0554" width="19.0556" height="19.0556" fill="#8F8F8F"/>
<rect x="304.889" y="19.0554" width="19.0556" height="19.0556" fill="#838383"/>
<rect x="323.945" y="19.0554" width="19.0556" height="19.0556" fill="#8D8D8D"/>
<rect y="38.1108" width="19.0556" height="19.0556" fill="#FEE2C9"/>
<rect x="19.0552" y="38.1108" width="19.0556" height="19.0556" fill="#7F7F7F"/>
<rect x="38.1108" y="38.1108" width="19.0556" height="19.0556" fill="#585858"/>
<rect x="57.167" y="38.1108" width="19.0556" height="19.0556" fill="#FEE2C9"/>
<rect x="76.2222" y="38.1108" width="19.0556" height="19.0556" fill="#8A8A8A"/>
<rect x="95.2778" y="38.1108" width="19.0556" height="19.0556" fill="#7B7B7B"/>
<rect x="114.333" y="38.1108" width="19.0556" height="19.0556" fill="#FEE2C9"/>
<rect x="133.389" y="38.1108" width="19.0556" height="19.0556" fill="#6F6F6F"/>
<rect x="152.445" y="38.1108" width="19.0556" height="19.0556" fill="#808080"/>
<rect x="171.5" y="38.1108" width="19.0556" height="19.0556" fill="#7A7A7A"/>
<rect x="190.555" y="38.1108" width="19.0556" height="19.0556" fill="#6E6E6E"/>
<rect x="209.611" y="38.1108" width="19.0556" height="19.0556" fill="#8D8D8D"/>
<rect x="228.667" y="38.1108" width="19.0556" height="19.0556" fill="#676767"/>
<rect x="247.722" y="38.1108" width="19.0556" height="19.0556" fill="#A4A4A4"/>
<rect x="266.778" y="38.1108" width="19.0556" height="19.0556" fill="#929292"/>
<rect x="285.833" y="38.1108" width="19.0556" height="19.0556" fill="#FEE2C9"/>
<rect x="304.889" y="38.1108" width="19.0556" height="19.0556" fill="#666666"/>
<rect x="323.945" y="38.1108" width="19.0556" height="19.0556" fill="#929292"/>
<rect y="57.1669" width="19.0556" height="19.0556" fill="#FEE2C9"/>
<rect x="19.0552" y="57.1669" width="19.0556" height="19.0556" fill="#FEE2C9"/>
<rect x="38.1108" y="57.1669" width="19.0556" height="19.0556" fill="#959595"/>
<rect x="57.167" y="57.1669" width="19.0556" height="19.0556" fill="#FEE2C9"/>
<rect x="76.2222" y="57.1669" width="19.0556" height="19.0556" fill="#959595"/>
<rect x="95.2778" y="57.1669" width="19.0556" height="19.0556" fill="#979797"/>
<rect x="114.333" y="57.1669" width="19.0556" height="19.0556" fill="#FEE2C9"/>
<rect x="133.389" y="57.1669" width="19.0556" height="19.0556" fill="#C3C3C3"/>
<rect x="152.445" y="57.1669" width="19.0556" height="19.0556" fill="#ABABAB"/>
<rect x="171.5" y="57.1669" width="19.0556" height="19.0556" fill="#FEE2C9"/>
<rect x="190.555" y="57.1669" width="19.0556" height="19.0556" fill="#FEE2C9"/>
<rect x="209.611" y="57.1669" width="19.0556" height="19.0556" fill="#F9F9F9"/>
<rect x="228.667" y="57.1669" width="19.0556" height="19.0556" fill="#999999"/>
<rect x="247.722" y="57.1669" width="19.0556" height="19.0556" fill="#ABABAB"/>
<rect x="266.778" y="57.1669" width="19.0556" height="19.0556" fill="#727272"/>
<rect x="285.833" y="57.1669" width="19.0556" height="19.0556" fill="#8A8A8A"/>
<rect x="304.889" y="57.1669" width="19.0556" height="19.0556" fill="#A0A0A0"/>
<rect x="323.945" y="57.1669" width="19.0556" height="19.0556" fill="#929292"/>
<rect y="76.2223" width="19.0556" height="19.0556" fill="#818181"/>
<rect x="19.0552" y="76.2223" width="19.0556" height="19.0556" fill="#6E6E6E"/>
<rect x="38.1108" y="76.2223" width="19.0556" height="19.0556" fill="#FEE2C9"/>
<rect x="57.167" y="76.2223" width="19.0556" height="19.0556" fill="#828282"/>
<rect x="76.2222" y="76.2223" width="19.0556" height="19.0556" fill="#494949"/>
<rect x="95.2778" y="76.2223" width="19.0556" height="19.0556" fill="#3D3D3D"/>
<rect x="114.333" y="76.2223" width="19.0556" height="19.0556" fill="#9D9D9D"/>
<rect x="133.389" y="76.2223" width="19.0556" height="19.0556" fill="#979797"/>
<rect x="152.445" y="76.2223" width="19.0556" height="19.0556" fill="#BABABA"/>
<rect x="171.5" y="76.2223" width="19.0556" height="19.0556" fill="#FDFDFD"/>
<rect x="190.555" y="76.2223" width="19.0556" height="19.0556" fill="#ADADAD"/>
<rect x="209.611" y="76.2223" width="19.0556" height="19.0556" fill="#505050"/>
<rect x="228.667" y="76.2223" width="19.0556" height="19.0556" fill="#939393"/>
<rect x="247.722" y="76.2223" width="19.0556" height="19.0556" fill="#FEE2C9"/>
<rect x="266.778" y="76.2223" width="19.0556" height="19.0556" fill="#AAAAAA"/>
<rect x="285.833" y="76.2223" width="19.0556" height="19.0556" fill="#B2B2B2"/>
<rect x="304.889" y="76.2223" width="19.0556" height="19.0556" fill="#AFAFAF"/>
<rect x="323.945" y="76.2223" width="19.0556" height="19.0556" fill="#A3A3A3"/>
<rect y="95.2777" width="19.0556" height="19.0556" fill="#FEE2C9"/>
<rect x="19.0552" y="95.2777" width="19.0556" height="19.0556" fill="#8E8E8E"/>
<rect x="38.1108" y="95.2777" width="19.0556" height="19.0556" fill="#848484"/>
<rect x="57.167" y="95.2777" width="19.0556" height="19.0556" fill="#7A7A7A"/>
<rect x="76.2222" y="95.2777" width="19.0556" height="19.0556" fill="#494949"/>
<rect x="95.2778" y="95.2777" width="19.0556" height="19.0556" fill="#929292"/>
<rect x="114.333" y="95.2777" width="19.0556" height="19.0556" fill="#A0A0A0"/>
<rect x="133.389" y="95.2777" width="19.0556" height="19.0556" fill="#333333"/>
<rect x="152.445" y="95.2777" width="19.0556" height="19.0556" fill="#515151"/>
<rect x="171.5" y="95.2777" width="19.0556" height="19.0556" fill="#BCBCBC"/>
<rect x="190.555" y="95.2777" width="19.0556" height="19.0556" fill="#A0A0A0"/>
<rect x="209.611" y="95.2777" width="19.0556" height="19.0556" fill="#D7D7D7"/>
<rect x="228.667" y="95.2777" width="19.0556" height="19.0556" fill="#BEBEBE"/>
<rect x="247.722" y="95.2777" width="19.0556" height="19.0556" fill="#9C9C9C"/>
<rect x="266.778" y="95.2777" width="19.0556" height="19.0556" fill="#A4A4A4"/>
<rect x="285.833" y="95.2777" width="19.0556" height="19.0556" fill="#C6C6C6"/>
<rect x="304.889" y="95.2777" width="19.0556" height="19.0556" fill="#B4B4B4"/>
<rect x="323.945" y="95.2777" width="19.0556" height="19.0556" fill="#7C7C7C"/>
<rect y="114.333" width="19.0556" height="19.0556" fill="#8F8F8F"/>
<rect x="19.0552" y="114.333" width="19.0556" height="19.0556" fill="#787878"/>
<rect x="38.1108" y="114.333" width="19.0556" height="19.0556" fill="#7C7C7C"/>
<rect x="57.167" y="114.333" width="19.0556" height="19.0556" fill="#9E9E9E"/>
<rect x="76.2222" y="114.333" width="19.0556" height="19.0556" fill="#717171"/>
<rect x="95.2778" y="114.333" width="19.0556" height="19.0556" fill="#8F8F8F"/>
<rect x="114.333" y="114.333" width="19.0556" height="19.0556" fill="#6C6C6C"/>
<rect x="133.389" y="114.333" width="19.0556" height="19.0556" fill="#A9A9A9"/>
<rect x="152.445" y="114.333" width="19.0556" height="19.0556" fill="#9B9B9B"/>
<rect x="171.5" y="114.333" width="19.0556" height="19.0556" fill="#A9A9A9"/>
<rect x="190.555" y="114.333" width="19.0556" height="19.0556" fill="#1F1F1F"/>
<rect x="209.611" y="114.333" width="19.0556" height="19.0556" fill="#CECECE"/>
<rect x="228.667" y="114.333" width="19.0556" height="19.0556" fill="#C7C7C7"/>
<rect x="247.722" y="114.333" width="19.0556" height="19.0556" fill="#9B9B9B"/>
<rect x="266.778" y="114.333" width="19.0556" height="19.0556" fill="#AFAFAF"/>
<rect x="285.833" y="114.333" width="19.0556" height="19.0556" fill="#BBBBBB"/>
<rect x="304.889" y="114.333" width="19.0556" height="19.0556" fill="#FEE2C9"/>
<rect x="323.945" y="114.333" width="19.0556" height="19.0556" fill="#969696"/>
<rect y="133.389" width="19.0556" height="19.0556" fill="#8D8D8D"/>
<rect x="19.0552" y="133.389" width="19.0556" height="19.0556" fill="#949494"/>
<rect x="38.1108" y="133.389" width="19.0556" height="19.0556" fill="#8F8F8F"/>
<rect x="57.167" y="133.389" width="19.0556" height="19.0556" fill="#999999"/>
<rect x="76.2222" y="133.389" width="19.0556" height="19.0556" fill="#666666"/>
<rect x="95.2778" y="133.389" width="19.0556" height="19.0556" fill="#FEE2C9"/>
<rect x="114.333" y="133.389" width="19.0556" height="19.0556" fill="#787878"/>
<rect x="133.389" y="133.389" width="19.0556" height="19.0556" fill="#828282"/>
<rect x="152.445" y="133.389" width="19.0556" height="19.0556" fill="#9F9F9F"/>
<rect x="171.5" y="133.389" width="19.0556" height="19.0556" fill="#959595"/>
<rect x="190.555" y="133.389" width="19.0556" height="19.0556" fill="#8D8D8D"/>
<rect x="209.611" y="133.389" width="19.0556" height="19.0556" fill="#989898"/>
<rect x="228.667" y="133.389" width="19.0556" height="19.0556" fill="#FEE2C9"/>
<rect x="247.722" y="133.389" width="19.0556" height="19.0556" fill="#454545"/>
<rect x="266.778" y="133.389" width="19.0556" height="19.0556" fill="#BEBEBE"/>
<rect x="285.833" y="133.389" width="19.0556" height="19.0556" fill="#AFAFAF"/>
<rect x="304.889" y="133.389" width="19.0556" height="19.0556" fill="#9F9F9F"/>
<rect x="323.945" y="133.389" width="19.0556" height="19.0556" fill="#A9A9A9"/>
<rect y="152.445" width="19.0556" height="19.0556" fill="#838383"/>
<rect x="19.0552" y="152.445" width="19.0556" height="19.0556" fill="#A6A6A6"/>
<rect x="38.1108" y="152.445" width="19.0556" height="19.0556" fill="#7F7F7F"/>
<rect x="57.167" y="152.445" width="19.0556" height="19.0556" fill="#888888"/>
<rect x="76.2222" y="152.445" width="19.0556" height="19.0556" fill="#B0B0B0"/>
<rect x="95.2778" y="152.445" width="19.0556" height="19.0556" fill="#929292"/>
<rect x="114.333" y="152.445" width="19.0556" height="19.0556" fill="#868686"/>
<rect x="133.389" y="152.445" width="19.0556" height="19.0556" fill="#939393"/>
<rect x="152.445" y="152.445" width="19.0556" height="19.0556" fill="#7B7B7B"/>
<rect x="171.5" y="152.445" width="19.0556" height="19.0556" fill="#FEE2C9"/>
<rect x="190.555" y="152.445" width="19.0556" height="19.0556" fill="#AAAAAA"/>
<rect x="209.611" y="152.445" width="19.0556" height="19.0556" fill="#A0A0A0"/>
<rect x="228.667" y="152.445" width="19.0556" height="19.0556" fill="#9C9C9C"/>
<rect x="247.722" y="152.445" width="19.0556" height="19.0556" fill="#7F7F7F"/>
<rect x="266.778" y="152.445" width="19.0556" height="19.0556" fill="#848484"/>
<rect x="285.833" y="152.445" width="19.0556" height="19.0556" fill="#3B3B3B"/>
<rect x="304.889" y="152.445" width="19.0556" height="19.0556" fill="#101010"/>
<rect x="323.945" y="152.445" width="19.0556" height="19.0556" fill="#666666"/>
<rect y="171.5" width="19.0556" height="19.0556" fill="#8D8D8D"/>
<rect x="19.0552" y="171.5" width="19.0556" height="19.0556" fill="#979797"/>
<rect x="38.1108" y="171.5" width="19.0556" height="19.0556" fill="#919191"/>
<rect x="57.167" y="171.5" width="19.0556" height="19.0556" fill="#737373"/>
<rect x="76.2222" y="171.5" width="19.0556" height="19.0556" fill="#6E6E6E"/>
<rect x="95.2778" y="171.5" width="19.0556" height="19.0556" fill="#B3B3B3"/>
<rect x="114.333" y="171.5" width="19.0556" height="19.0556" fill="#979797"/>
<rect x="133.389" y="171.5" width="19.0556" height="19.0556" fill="#FEE2C9"/>
<rect x="152.445" y="171.5" width="19.0556" height="19.0556" fill="#FEE2C9"/>
<rect x="171.5" y="171.5" width="19.0556" height="19.0556" fill="#868686"/>
<rect x="190.555" y="171.5" width="19.0556" height="19.0556" fill="#707070"/>
<rect x="209.611" y="171.5" width="19.0556" height="19.0556" fill="#989898"/>
<rect x="228.667" y="171.5" width="19.0556" height="19.0556" fill="#8D8D8D"/>
<rect x="247.722" y="171.5" width="19.0556" height="19.0556" fill="#929292"/>
<rect x="266.778" y="171.5" width="19.0556" height="19.0556" fill="#767676"/>
<rect x="285.833" y="171.5" width="19.0556" height="19.0556" fill="#9F9F9F"/>
<rect x="304.889" y="171.5" width="19.0556" height="19.0556" fill="#ABABAB"/>
<rect x="323.945" y="171.5" width="19.0556" height="19.0556" fill="#6A6A6A"/>
<rect y="190.555" width="19.0556" height="19.0556" fill="#FEE2C9"/>
<rect x="19.0552" y="190.555" width="19.0556" height="19.0556" fill="#989898"/>
<rect x="38.1108" y="190.555" width="19.0556" height="19.0556" fill="#7B7B7B"/>
<rect x="57.167" y="190.555" width="19.0556" height="19.0556" fill="#8D8D8D"/>
<rect x="76.2222" y="190.555" width="19.0556" height="19.0556" fill="#858585"/>
<rect x="95.2778" y="190.555" width="19.0556" height="19.0556" fill="#888888"/>
<rect x="114.333" y="190.555" width="19.0556" height="19.0556" fill="#666666"/>
<rect x="133.389" y="190.555" width="19.0556" height="19.0556" fill="#CACACA"/>
<rect x="152.445" y="190.555" width="19.0556" height="19.0556" fill="#8A8A8A"/>
<rect x="171.5" y="190.555" width="19.0556" height="19.0556" fill="#FEE2C9"/>
<rect x="190.555" y="190.555" width="19.0556" height="19.0556" fill="#8D8D8D"/>
<rect x="209.611" y="190.555" width="19.0556" height="19.0556" fill="#B3B3B3"/>
<rect x="228.667" y="190.555" width="19.0556" height="19.0556" fill="#A2A2A2"/>
<rect x="247.722" y="190.555" width="19.0556" height="19.0556" fill="#9B9B9B"/>
<rect x="266.778" y="190.555" width="19.0556" height="19.0556" fill="#8A8A8A"/>
<rect x="285.833" y="190.555" width="19.0556" height="19.0556" fill="#868686"/>
<rect x="304.889" y="190.555" width="19.0556" height="19.0556" fill="#717171"/>
<rect x="323.945" y="190.555" width="19.0556" height="19.0556" fill="#666666"/>
<rect y="209.611" width="19.0556" height="19.0556" fill="#A1A1A1"/>
<rect x="19.0552" y="209.611" width="19.0556" height="19.0556" fill="#8D8D8D"/>
<rect x="38.1108" y="209.611" width="19.0556" height="19.0556" fill="#8A8A8A"/>
<rect x="57.167" y="209.611" width="19.0556" height="19.0556" fill="#868686"/>
<rect x="76.2222" y="209.611" width="19.0556" height="19.0556" fill="#717171"/>
<rect x="95.2778" y="209.611" width="19.0556" height="19.0556" fill="#616161"/>
<rect x="114.333" y="209.611" width="19.0556" height="19.0556" fill="#808080"/>
<rect x="133.389" y="209.611" width="19.0556" height="19.0556" fill="#FEE2C9"/>
<rect x="152.445" y="209.611" width="19.0556" height="19.0556" fill="#7A7A7A"/>
<rect x="171.5" y="209.611" width="19.0556" height="19.0556" fill="#939393"/>
<rect x="190.555" y="209.611" width="19.0556" height="19.0556" fill="#818181"/>
<rect x="209.611" y="209.611" width="19.0556" height="19.0556" fill="#8D8D8D"/>
<rect x="228.667" y="209.611" width="19.0556" height="19.0556" fill="#FEE2C9"/>
<rect x="247.722" y="209.611" width="19.0556" height="19.0556" fill="#616161"/>
<rect x="266.778" y="209.611" width="19.0556" height="19.0556" fill="#6C6C6C"/>
<rect x="285.833" y="209.611" width="19.0556" height="19.0556" fill="#787878"/>
<rect x="304.889" y="209.611" width="19.0556" height="19.0556" fill="#535353"/>
<rect x="323.945" y="209.611" width="19.0556" height="19.0556" fill="#6C6C6C"/>
<rect y="228.667" width="19.0556" height="19.0556" fill="#7C7C7C"/>
<rect x="19.0552" y="228.667" width="19.0556" height="19.0556" fill="#6B6B6B"/>
<rect x="38.1108" y="228.667" width="19.0556" height="19.0556" fill="#686868"/>
<rect x="57.167" y="228.667" width="19.0556" height="19.0556" fill="#FF7A00" fill-opacity="0.7"/>
<rect x="76.2222" y="228.667" width="19.0556" height="19.0556" fill="#FF7A00" fill-opacity="0.5"/>
<rect x="95.2778" y="228.667" width="19.0556" height="19.0556" fill="#5C5C5C"/>
<rect x="114.333" y="228.667" width="19.0556" height="19.0556" fill="#767676"/>
<rect x="133.389" y="228.667" width="19.0556" height="19.0556" fill="#535353"/>
<rect x="152.445" y="228.667" width="19.0556" height="19.0556" fill="#747474"/>
<rect x="171.5" y="228.667" width="19.0556" height="19.0556" fill="#FEE2C9"/>
<rect x="190.555" y="228.667" width="19.0556" height="19.0556" fill="#676767"/>
<rect x="209.611" y="228.667" width="19.0556" height="19.0556" fill="#5F5F5F"/>
<rect x="228.667" y="228.667" width="19.0556" height="19.0556" fill="#565656"/>
<rect x="247.722" y="228.667" width="19.0556" height="19.0556" fill="#454545"/>
<rect x="266.778" y="228.667" width="19.0556" height="19.0556" fill="#FEE2C9"/>
<rect x="285.833" y="228.667" width="19.0556" height="19.0556" fill="#FEE2C9"/>
<rect x="304.889" y="228.667" width="19.0556" height="19.0556" fill="#787878"/>
<rect x="323.945" y="228.667" width="19.0556" height="19.0556" fill="#2D2D2D"/>
<rect y="247.722" width="19.0556" height="19.0556" fill="#FEE2C9"/>
<rect x="19.0552" y="247.722" width="19.0556" height="19.0556" fill="#555555"/>
<rect x="38.1108" y="247.722" width="19.0556" height="19.0556" fill="#727272"/>
<rect x="57.167" y="247.722" width="19.0556" height="19.0556" fill="#FF7A00" fill-opacity="0.5"/>
<rect x="76.2222" y="247.722" width="19.0556" height="19.0556" fill="#5A5A5A"/>
<rect x="95.2778" y="247.722" width="19.0556" height="19.0556" fill="#434343"/>
<rect x="114.333" y="247.722" width="19.0556" height="19.0556" fill="#4C4C4C"/>
<rect x="133.389" y="247.722" width="19.0556" height="19.0556" fill="#676767"/>
<rect x="152.445" y="247.722" width="19.0556" height="19.0556" fill="#6E6E6E"/>
<rect x="171.5" y="247.722" width="19.0556" height="19.0556" fill="#585858"/>
<rect x="190.555" y="247.722" width="19.0556" height="19.0556" fill="#FEE2C9"/>
<rect x="209.611" y="247.722" width="19.0556" height="19.0556" fill="#FEE2C9"/>
<rect x="228.667" y="247.722" width="19.0556" height="19.0556" fill="#7C7C7C"/>
<rect x="247.722" y="247.722" width="19.0556" height="19.0556" fill="#FEE2C9"/>
<rect x="266.778" y="247.722" width="19.0556" height="19.0556" fill="#6B6B6B"/>
<rect x="285.833" y="247.722" width="19.0556" height="19.0556" fill="#505050"/>
<rect x="304.889" y="247.722" width="19.0556" height="19.0556" fill="#686868"/>
<rect x="323.945" y="247.722" width="19.0556" height="19.0556" fill="#242424"/>
<rect y="266.778" width="19.0556" height="19.0556" fill="#5A5A5A"/>
<rect x="19.0552" y="266.778" width="19.0556" height="19.0556" fill="#5A5A5A"/>
<rect x="38.1108" y="266.778" width="19.0556" height="19.0556" fill="#666666"/>
<rect x="57.167" y="266.778" width="19.0556" height="19.0556" fill="#7E7E7E"/>
<rect x="76.2222" y="266.778" width="19.0556" height="19.0556" fill="#575757"/>
<rect x="95.2778" y="266.778" width="19.0556" height="19.0556" fill="#4E4E4E"/>
<rect x="114.333" y="266.778" width="19.0556" height="19.0556" fill="#FEE2C9"/>
<rect x="133.389" y="266.778" width="19.0556" height="19.0556" fill="#5F5F5F"/>
<rect x="152.445" y="266.778" width="19.0556" height="19.0556" fill="#616161"/>
<rect x="171.5" y="266.778" width="19.0556" height="19.0556" fill="#747474"/>
<rect x="190.555" y="266.778" width="19.0556" height="19.0556" fill="#676767"/>
<rect x="209.611" y="266.778" width="19.0556" height="19.0556" fill="#575757"/>
<rect x="228.667" y="266.778" width="19.0556" height="19.0556" fill="#7B7B7B"/>
<rect x="247.722" y="266.778" width="19.0556" height="19.0556" fill="#666666"/>
<rect x="266.778" y="266.778" width="19.0556" height="19.0556" fill="#737373"/>
<rect x="285.833" y="266.778" width="19.0556" height="19.0556" fill="#5F5F5F"/>
<rect x="304.889" y="266.778" width="19.0556" height="19.0556" fill="#515151"/>
<rect x="323.945" y="266.778" width="19.0556" height="19.0556" fill="#2A2A2A"/>
<rect y="285.833" width="19.0556" height="19.0556" fill="#717171"/>
<rect x="19.0552" y="285.833" width="19.0556" height="19.0556" fill="#474747"/>
<rect x="38.1108" y="285.833" width="19.0556" height="19.0556" fill="#555555"/>
<rect x="57.167" y="285.833" width="19.0556" height="19.0556" fill="#717171"/>
<rect x="76.2222" y="285.833" width="19.0556" height="19.0556" fill="#626262"/>
<rect x="95.2778" y="285.833" width="19.0556" height="19.0556" fill="#FEE2C9"/>
<rect x="114.333" y="285.833" width="19.0556" height="19.0556" fill="#6F6F6F"/>
<rect x="133.389" y="285.833" width="19.0556" height="19.0556" fill="#FEE2C9"/>
<rect x="152.445" y="285.833" width="19.0556" height="19.0556" fill="#5C5C5C"/>
<rect x="171.5" y="285.833" width="19.0556" height="19.0556" fill="#656565"/>
<rect x="190.555" y="285.833" width="19.0556" height="19.0556" fill="#535353"/>
<rect x="209.611" y="285.833" width="19.0556" height="19.0556" fill="#535353"/>
<rect x="228.667" y="285.833" width="19.0556" height="19.0556" fill="#3B3B3B"/>
<rect x="247.722" y="285.833" width="19.0556" height="19.0556" fill="#707070"/>
<rect x="266.778" y="285.833" width="19.0556" height="19.0556" fill="#FEE2C9"/>
<rect x="285.833" y="285.833" width="19.0556" height="19.0556" fill="#7A7A7A"/>
<rect x="304.889" y="285.833" width="19.0556" height="19.0556" fill="#7D7D7D"/>
<rect x="323.945" y="285.833" width="19.0556" height="19.0556" fill="#1F1F1F"/>
<rect y="304.889" width="19.0556" height="19.0556" fill="#585858"/>
<rect x="19.0552" y="304.889" width="19.0556" height="19.0556" fill="#666666"/>
<rect x="38.1108" y="304.889" width="19.0556" height="19.0556" fill="#484848"/>
<rect x="57.167" y="304.889" width="19.0556" height="19.0556" fill="#4A4A4A"/>
<rect x="76.2222" y="304.889" width="19.0556" height="19.0556" fill="#444444"/>
<rect x="95.2778" y="304.889" width="19.0556" height="19.0556" fill="#7A7A7A"/>
<rect x="114.333" y="304.889" width="19.0556" height="19.0556" fill="#7A7A7A"/>
<rect x="133.389" y="304.889" width="19.0556" height="19.0556" fill="#747474"/>
<rect x="152.445" y="304.889" width="19.0556" height="19.0556" fill="#717171"/>
<rect x="171.5" y="304.889" width="19.0556" height="19.0556" fill="#6C6C6C"/>
<rect x="190.555" y="304.889" width="19.0556" height="19.0556" fill="#656565"/>
<rect x="209.611" y="304.889" width="19.0556" height="19.0556" fill="#676767"/>
<rect x="228.667" y="304.889" width="19.0556" height="19.0556" fill="#656565"/>
<rect x="247.722" y="304.889" width="19.0556" height="19.0556" fill="#454545"/>
<rect x="266.778" y="304.889" width="19.0556" height="19.0556" fill="#686868"/>
<rect x="285.833" y="304.889" width="19.0556" height="19.0556" fill="#4E4E4E"/>
<rect x="304.889" y="304.889" width="19.0556" height="19.0556" fill="#292929"/>
<rect x="323.945" y="304.889" width="19.0556" height="19.0556" fill="#464646"/>
<rect y="323.945" width="19.0556" height="19.0556" fill="#525252"/>
<rect x="19.0552" y="323.945" width="19.0556" height="19.0556" fill="#515151"/>
<rect x="38.1108" y="323.945" width="19.0556" height="19.0556" fill="#FEE2C9"/>
<rect x="57.167" y="323.945" width="19.0556" height="19.0556" fill="#6A6A6A"/>
<rect x="76.2222" y="323.945" width="19.0556" height="19.0556" fill="#767676"/>
<rect x="95.2778" y="323.945" width="19.0556" height="19.0556" fill="#FEE2C9"/>
<rect x="114.333" y="323.945" width="19.0556" height="19.0556" fill="#565656"/>
<rect x="133.389" y="323.945" width="19.0556" height="19.0556" fill="#A1A1A1"/>
<rect x="152.445" y="323.945" width="19.0556" height="19.0556" fill="#808080"/>
<rect x="171.5" y="323.945" width="19.0556" height="19.0556" fill="#8A8A8A"/>
<rect x="190.555" y="323.945" width="19.0556" height="19.0556" fill="#818181"/>
<rect x="209.611" y="323.945" width="19.0556" height="19.0556" fill="#FEE2C9"/>
<rect x="228.667" y="323.945" width="19.0556" height="19.0556" fill="#4B4B4B"/>
<rect x="247.722" y="323.945" width="19.0556" height="19.0556" fill="#323232"/>
<rect x="266.778" y="323.945" width="19.0556" height="19.0556" fill="#454545"/>
<rect x="285.833" y="323.945" width="19.0556" height="19.0556" fill="#FEE6D0"/>
<rect x="304.889" y="323.945" width="19.0556" height="19.0556" fill="#FEE2C9"/>
<rect x="323.945" y="323.945" width="19.0556" height="19.0556" fill="#767676"/>
</g>
<rect width="343" height="343" fill="white" fill-opacity="0.7"/>
</g>
<defs>
<clipPath id="clip0_17055_913483">
<rect width="343" height="343" fill="white"/>
</clipPath>
<clipPath id="clip1_17055_913483">
<rect width="609.778" height="343" fill="white"/>
</clipPath>
</defs>
</svg>
