<svg width="38" height="48" viewBox="0 0 38 48" fill="none" xmlns="http://www.w3.org/2000/svg">
<path fill-rule="evenodd" clip-rule="evenodd" d="M2.95361 12V16H5.75393V12H2.95361ZM23.1074 12V15.0112C23.1074 15.3747 23.2261 15.7249 23.44 16H38V15.0112C38 14.6116 37.8565 14.2279 37.6004 13.9424L35.8584 12H31.94L33.2701 13.4831L25.9077 13.4831V12H23.1074Z" fill="#C2C2C8"/>
<path fill-rule="evenodd" clip-rule="evenodd" d="M2.95361 24V28H5.75393V24H2.95361ZM35.1996 24V28H38V24H35.1996Z" fill="#C2C2C8"/>
<path fill-rule="evenodd" clip-rule="evenodd" d="M2.95361 36V40H5.75393V36H2.95361ZM35.1996 36V40H38V36H35.1996Z" fill="#C2C2C8"/>
<path fill-rule="evenodd" clip-rule="evenodd" d="M6.61646 0C5.16629 0 3.78174 0.642647 2.76567 1.77559C1.7506 2.90741 1.18555 4.43566 1.18555 6.02247V12H3.98574V16H1.18555V23.9998H3.98574V27.9998H1.18555V36H3.78813V40H1.18555V41.9775C1.18555 43.5643 1.7506 45.0926 2.76567 46.2244C3.78174 47.3574 5.16629 48 6.61646 48H30.801C32.2512 48 33.6357 47.3574 34.6518 46.2244C35.6668 45.0926 36.2319 43.5643 36.2319 41.9775V15.0112C36.2319 14.6116 36.0885 14.2279 35.8323 13.9424L23.7401 0.459212C23.4767 0.165525 23.116 0 22.7395 0H6.61646ZM4.7669 3.91334C5.26266 3.36056 5.92858 3.05618 6.61646 3.05618H21.3393V12H24.1395V13.4831L24.1396 13.4831V5.27388L30.1719 12H34.0902L35.8322 13.9424C36.0883 14.2279 36.2318 14.6116 36.2318 15.0112V16H21.6719C21.6965 16.0316 21.7223 16.0622 21.7494 16.0918C22.012 16.3783 22.3681 16.5393 22.7395 16.5393H33.4316V23.9998H36.2318V27.9998H33.4316V36H36.0342V40H33.4316V41.9775C33.4316 42.7747 33.1473 43.5328 32.6505 44.0867C32.1548 44.6394 31.4889 44.9438 30.801 44.9438H6.61646C5.92858 44.9438 5.26266 44.6394 4.7669 44.0867C4.27014 43.5328 3.98586 42.7747 3.98586 41.9775V6.02247C3.98586 5.22532 4.27014 4.46724 4.7669 3.91334Z" fill="#C2C2C8"/>
<path fill-rule="evenodd" clip-rule="evenodd" d="M1.76831 16V12H4.56862V16H1.76831ZM34.6731 12L36.4151 13.9424C36.6683 14.2246 36.8113 14.6028 36.8146 14.9974V16H22.2547C22.0408 15.7249 21.9221 15.3747 21.9221 15.0112V12H24.7224V13.4831L32.0848 13.4831L30.7547 12H34.6731Z" fill="#AEAEB2"/>
<path fill-rule="evenodd" clip-rule="evenodd" d="M1.76831 28V24H4.56862V28H1.76831ZM34.0143 28H36.8146V24H34.0143V28Z" fill="#AEAEB2"/>
<path fill-rule="evenodd" clip-rule="evenodd" d="M1.76831 40V36H4.56862V40H1.76831ZM34.0143 40H36.8146V36H34.0143V40Z" fill="#AEAEB2"/>
<path fill-rule="evenodd" clip-rule="evenodd" d="M5.43091 0C3.98074 0 2.59619 0.642647 1.58012 1.77559C0.56505 2.90741 0 4.43566 0 6.02247V12H2.80031V6.02247C2.80031 5.22532 3.0846 4.46724 3.58135 3.91334C4.07711 3.36056 4.74304 3.05618 5.43091 3.05618H20.1538L20.1538 12H22.9541V5.27388L28.9863 12H32.9048L22.5545 0.459212C22.2911 0.165525 21.9305 0 21.5539 0H5.43091ZM35.0463 16H20.4864C20.511 16.0316 20.5368 16.0622 20.5639 16.0918C20.8264 16.3783 21.1826 16.5393 21.5539 16.5393H32.246V23.9998H35.0463V16ZM32.246 36.0002V27.9998H35.0463V36.0002H32.246ZM32.246 40.0002V41.9775C32.246 42.7747 31.9617 43.5328 31.465 44.0867C30.9692 44.6394 30.3033 44.9438 29.6154 44.9438H5.43091C4.74304 44.9438 4.07711 44.6394 3.58135 44.0867C3.0846 43.5328 2.80031 42.7747 2.80031 41.9775V40.0002H0V41.9775C0 43.5643 0.565051 45.0926 1.58012 46.2244C2.59619 47.3574 3.98074 48 5.43091 48H29.6154C31.0656 48 32.4502 47.3574 33.4662 46.2244C34.4813 45.0926 35.0463 43.5643 35.0463 41.9775V40.0002H32.246ZM0 36.0002H2.80031V27.9998H0V36.0002ZM2.80031 23.9998H0V16H2.80031V23.9998Z" fill="#AEAEB2"/>
<path d="M10.379 23.3905C10.8776 22.8618 11.6774 22.8711 12.1655 23.4113L13.0161 24.3527L13.8184 23.4648C14.3064 22.9246 15.1062 22.9153 15.6048 23.444C16.1034 23.9727 16.112 24.8392 15.624 25.3793L14.7838 26.3092L15.7001 27.3233C16.1882 27.8635 16.1796 28.7299 15.681 29.2586C15.1824 29.7873 14.3825 29.778 13.8945 29.2379L13.0161 28.2657L12.0893 29.2914C11.6013 29.8315 10.8015 29.8408 10.3029 29.3121C9.80426 28.7835 9.79568 27.917 10.2837 27.3769L11.2484 26.3092L10.3599 25.3258C9.87182 24.7857 9.8804 23.9192 10.379 23.3905Z" fill="#AEAEB2"/>
<path d="M21.3344 23.3905C21.833 22.8618 22.6328 22.8711 23.1209 23.4113L23.9715 24.3527L24.7738 23.4648C25.2618 22.9246 26.0616 22.9153 26.5602 23.444C27.0588 23.9727 27.0674 24.8392 26.5794 25.3793L25.7392 26.3092L26.6555 27.3233C27.1435 27.8635 27.135 28.7299 26.6364 29.2586C26.1378 29.7873 25.3379 29.778 24.8499 29.2379L23.9715 28.2657L23.0447 29.2914C22.5567 29.8315 21.7569 29.8408 21.2583 29.3121C20.7596 28.7835 20.7511 27.917 21.2391 27.3769L22.2038 26.3092L21.3152 25.3258C20.8272 24.7857 20.8358 23.9192 21.3344 23.3905Z" fill="#AEAEB2"/>
<path d="M11.3721 37.8367L11.2679 37.8859C10.6282 38.1876 9.88383 37.8704 9.60533 37.1774C9.32683 36.4844 9.61964 35.678 10.2594 35.3763L10.4446 35.2889C12.2131 34.4536 14.528 33.3603 17.2424 33.024C20.1002 32.67 23.3521 33.1551 26.9308 35.454C27.531 35.8395 27.729 36.679 27.3731 37.3291C27.0173 37.9792 26.2423 38.1938 25.6422 37.8083C22.5549 35.8251 19.8594 35.4547 17.5294 35.7434C15.1966 36.0324 13.1826 36.9826 11.3721 37.8367Z" fill="#AEAEB2"/>
</svg>
