<svg width="17" height="16" viewBox="0 0 17 16" fill="none" xmlns="http://www.w3.org/2000/svg">
<path d="M8.47135 1C8.24219 1 8.04167 1.10938 7.86979 1.30078C4.375 6.25 9.41667 6.46875 9.41667 8.875C9.41667 9.85938 8.58594 10.625 7.58333 10.625C7.55469 10.625 7.55469 10.625 7.55469 10.625C6.52344 10.625 5.75 9.83203 5.75 8.84766V6.52344C5.75 6.11328 5.40625 5.86719 5.03385 5.86719C4.86198 5.86719 4.6901 5.92188 4.54688 6.05859C3.77344 6.85156 3 8.16406 3 9.75C3 12.6484 5.46354 15 8.5 15C11.5078 15 14 12.6484 14 9.75C14 5.10156 9.1875 4.5 9.1875 1.65625C9.15885 1.27344 8.84375 1 8.47135 1Z" stroke="#FF3B30" stroke-width="1.5"/>
</svg>
