<svg width="53" height="52" viewBox="0 0 53 52" fill="none" xmlns="http://www.w3.org/2000/svg">
<path d="M41.9285 3.71436L36.7856 8.85721L41.9285 14.0001V10.5715H47.0714V7.14293H41.9285V3.71436Z" fill="#FF5B00"/>
<path fill-rule="evenodd" clip-rule="evenodd" d="M13.75 3.71436C8.22715 3.71436 3.75 8.19152 3.75 13.7144V22.8529C3.75 28.3758 8.22716 32.8529 13.75 32.8529H16.2278C16.3341 30.5961 16.856 28.448 17.7186 26.4832C17.4938 26.3859 17.2833 26.2455 17.0996 26.0618L10.7356 19.6978C9.95459 18.9168 9.95459 17.6504 10.7356 16.8694L17.0996 10.5054C17.8807 9.72436 19.147 9.72436 19.928 10.5054L26.292 16.8694C26.442 17.0194 26.5632 17.1873 26.6556 17.3663C28.5745 16.4775 30.6761 15.9166 32.8886 15.7555V13.7144C32.8886 8.19151 28.4114 3.71436 22.8886 3.71436H13.75ZM32.8886 22.8529V19.2027C25.7457 19.8472 20.0886 25.6476 19.6683 32.8529H22.8886C24.8215 32.8529 26.6264 32.3045 28.1561 31.3547C28.7826 29.7477 30.0302 28.4512 31.6037 27.7602C32.4218 26.3105 32.8886 24.6362 32.8886 22.8529Z" fill="#FF5B00"/>
<path fill-rule="evenodd" clip-rule="evenodd" d="M19.6431 33.7145C19.6431 25.6676 26.1676 19.1431 34.2145 19.1431C42.2614 19.1431 48.7859 25.6676 48.7859 33.7145C48.7859 41.7614 42.2614 48.2859 34.2145 48.2859C26.1676 48.2859 19.6431 41.7614 19.6431 33.7145ZM27.7144 33.7146C27.7144 30.1251 30.6248 27.2146 34.2144 27.2146C37.8039 27.2146 40.7144 30.1251 40.7144 33.7146C40.7144 37.3041 37.8039 40.2146 34.2144 40.2146C30.6248 40.2146 27.7144 37.3041 27.7144 33.7146Z" fill="#FF5B00"/>
<path d="M11.0716 36.2859V39.7145H5.92871V43.143H11.0716V46.5716L16.2144 41.4287L11.0716 36.2859Z" fill="#FF5B00"/>
</svg>
