<svg width="24" height="24" viewBox="0 0 24 24" fill="none" xmlns="http://www.w3.org/2000/svg">
<path d="M6.66406 19.5625C5.03125 19.5625 4.21094 18.7578 4.21094 17.1406V7.60156C4.21094 5.98438 5.03125 5.17969 6.66406 5.17969H17.3359C18.9688 5.17969 19.7812 5.99219 19.7812 7.60156V12.0625C19.5781 12.0391 19.3672 12.0234 19.1641 12.0234C18.9531 12.0234 18.75 12.0391 18.5234 12.0625V9.84375C18.5234 9.125 18.1328 8.75 17.4375 8.75H6.54688C5.85156 8.75 5.46875 9.125 5.46875 9.84375V17.2109C5.46875 17.9375 5.85156 18.3047 6.54688 18.3047H14.2891C14.3984 18.75 14.5703 19.1719 14.7969 19.5625H6.66406ZM10.4688 11.5547C10.1953 11.5547 10.1016 11.4766 10.1016 11.2031V10.7422C10.1016 10.4688 10.1953 10.3828 10.4688 10.3828H10.9297C11.2031 10.3828 11.2969 10.4688 11.2969 10.7422V11.2031C11.2969 11.4766 11.2031 11.5547 10.9297 11.5547H10.4688ZM13.0703 11.5547C12.7891 11.5547 12.7031 11.4766 12.7031 11.2031V10.7422C12.7031 10.4688 12.7891 10.3828 13.0703 10.3828H13.5234C13.7969 10.3828 13.8906 10.4688 13.8906 10.7422V11.2031C13.8906 11.4766 13.7969 11.5547 13.5234 11.5547H13.0703ZM15.6641 11.5547C15.3906 11.5547 15.2969 11.4766 15.2969 11.2031V10.7422C15.2969 10.4688 15.3906 10.3828 15.6641 10.3828H16.125C16.3984 10.3828 16.4844 10.4688 16.4844 10.7422V11.2031C16.4844 11.4766 16.3984 11.5547 16.125 11.5547H15.6641ZM7.875 14.1094C7.60156 14.1094 7.50781 14.0312 7.50781 13.7578V13.2969C7.50781 13.0234 7.60156 12.9453 7.875 12.9453H8.33594C8.60938 12.9453 8.69531 13.0234 8.69531 13.2969V13.7578C8.69531 14.0312 8.60938 14.1094 8.33594 14.1094H7.875ZM10.4688 14.1094C10.1953 14.1094 10.1016 14.0312 10.1016 13.7578V13.2969C10.1016 13.0234 10.1953 12.9453 10.4688 12.9453H10.9297C11.2031 12.9453 11.2969 13.0234 11.2969 13.2969V13.7578C11.2969 14.0312 11.2031 14.1094 10.9297 14.1094H10.4688ZM13.0703 14.1094C12.7891 14.1094 12.7031 14.0312 12.7031 13.7578V13.2969C12.7031 13.0234 12.7891 12.9453 13.0703 12.9453H13.5234C13.7969 12.9453 13.8906 13.0234 13.8906 13.2969V13.7578C13.8906 14.0312 13.7969 14.1094 13.5234 14.1094H13.0703ZM19.1641 21.0312C16.9844 21.0312 15.1953 19.25 15.1953 17.0625C15.1953 14.8906 16.9844 13.0938 19.1641 13.0938C21.3359 13.0938 23.1328 14.8828 23.1328 17.0625C23.1328 19.2344 21.3125 21.0312 19.1641 21.0312ZM17.3125 17.6719H19.2031C19.4766 17.6719 19.6875 17.4609 19.6875 17.1875V14.75C19.6875 14.4922 19.4688 14.2812 19.2031 14.2812C18.9375 14.2812 18.7188 14.4922 18.7188 14.75V16.7109H17.3125C17.0469 16.7109 16.8203 16.9297 16.8203 17.1875C16.8203 17.4531 17.0391 17.6719 17.3125 17.6719ZM7.875 16.6719C7.60156 16.6719 7.50781 16.5859 7.50781 16.3125V15.8516C7.50781 15.5781 7.60156 15.5 7.875 15.5H8.33594C8.60938 15.5 8.69531 15.5781 8.69531 15.8516V16.3125C8.69531 16.5859 8.60938 16.6719 8.33594 16.6719H7.875ZM10.4688 16.6719C10.1953 16.6719 10.1016 16.5859 10.1016 16.3125V15.8516C10.1016 15.5781 10.1953 15.5 10.4688 15.5H10.9297C11.2031 15.5 11.2969 15.5781 11.2969 15.8516V16.3125C11.2969 16.5859 11.2031 16.6719 10.9297 16.6719H10.4688ZM13.0703 16.6719C12.7891 16.6719 12.7031 16.5859 12.7031 16.3125V15.8516C12.7031 15.5781 12.7891 15.5 13.0703 15.5H13.5234C13.7969 15.5 13.8906 15.5781 13.8906 15.8516V16.3125C13.8906 16.5859 13.7969 16.6719 13.5234 16.6719H13.0703Z" fill="#FF5B00"/>
</svg>
