<svg width="28" height="28" viewBox="0 0 28 28" fill="none" xmlns="http://www.w3.org/2000/svg">
    <path fill-rule="evenodd" clip-rule="evenodd" d="M14 28C21.732 28 28 21.732 28 14C28 6.26801 21.732 0 14 0C6.26801 0 0 6.26801 0 14C0 21.732 6.26801 28 14 28Z" fill="#FF7A00" fill-opacity="0.1"/>
    <path fill-rule="evenodd" clip-rule="evenodd" d="M8.85518 8.85518C8.38161 9.32874 8.38161 10.0965 8.85518 10.5701L12.2851 14L8.85518 17.4299C8.38161 17.9035 8.38161 18.6713 8.85518 19.1448C9.32874 19.6184 10.0965 19.6184 10.5701 19.1448L14 15.7149L17.4299 19.1448C17.9035 19.6184 18.6713 19.6184 19.1448 19.1448C19.6184 18.6713 19.6184 17.9035 19.1448 17.4299L15.7149 14L19.1448 10.5701C19.6184 10.0965 19.6184 9.32874 19.1448 8.85518C18.6713 8.38161 17.9035 8.38161 17.4299 8.85518L14 12.2851L10.5701 8.85518C10.0965 8.38161 9.32874 8.38161 8.85518 8.85518Z" fill="#FF5B00"/>
</svg>
