<svg viewBox="0 0 25 24" xmlns="http://www.w3.org/2000/svg">
  <path
    stroke-width="0"
    fill="#FF5B00"
    d="M18.792 19.5H6.74185C3.74901 19.5 1.5 17.3682 1.5 14.8308C1.5 12.725 2.73389 10.9816 4.71162 10.6709C4.75537 8.25432 7.10064 6.64039 9.25338 7.2618C10.3035 5.75144 11.9924 4.5 14.364 4.5C17.9431 4.5 20.7522 7.27906 20.7347 11.1283C22.4411 11.836 23.5 13.4068 23.5 15.2192C23.5 17.5926 21.4348 19.5 18.792 19.5ZM18.792 18.1105C20.6559 18.1105 22.0911 16.8245 22.0911 15.2192C22.0911 13.6571 21.0672 12.5092 19.4745 12.164C19.3695 12.1381 19.3258 12.0777 19.3345 11.9655C19.3695 11.5598 19.3958 11.0938 19.3695 10.6968C19.2208 8.13349 17.2343 5.88953 14.364 5.88953C12.0975 5.88953 10.7936 7.11507 9.94471 8.60817C9.8922 8.70311 9.83095 8.729 9.72593 8.69448C7.93198 8.11623 5.98926 8.90161 5.98926 11.5598C5.98926 11.672 5.94551 11.7325 5.82299 11.7325C3.96778 11.7325 2.90891 13.1047 2.90891 14.8308C2.90891 16.5915 4.5366 18.1105 6.74185 18.1105H18.792Z"
  />
</svg>
