<svg width="25" height="24" viewBox="0 0 25 24" fill="none" xmlns="http://www.w3.org/2000/svg">
<path d="M18.8193 18.5801H6.7168C3.71094 18.5801 1.45215 16.4092 1.45215 13.8252C1.45215 11.6807 2.69141 9.90527 4.67773 9.58887C4.72168 7.12793 7.07715 5.48438 9.23926 6.11719C10.2939 4.5791 11.9902 3.30469 14.3721 3.30469C17.9668 3.30469 20.7881 6.13477 20.7705 10.0547C22.4844 10.7754 23.5479 12.375 23.5479 14.2207C23.5479 16.6377 21.4736 18.5801 18.8193 18.5801ZM18.8193 17.165C20.6914 17.165 22.1328 15.8555 22.1328 14.2207C22.1328 12.6299 21.1045 11.4609 19.5049 11.1094C19.3994 11.083 19.3555 11.0215 19.3643 10.9072C19.3994 10.4941 19.4258 10.0195 19.3994 9.61523C19.25 7.00488 17.2549 4.71973 14.3721 4.71973C12.0957 4.71973 10.7861 5.96777 9.93359 7.48828C9.88086 7.58496 9.81934 7.61133 9.71387 7.57617C7.91211 6.9873 5.96094 7.78711 5.96094 10.4941C5.96094 10.6084 5.91699 10.6699 5.79395 10.6699C3.93066 10.6699 2.86719 12.0674 2.86719 13.8252C2.86719 15.6182 4.50195 17.165 6.7168 17.165H18.8193Z" fill="#FF5B00"/>
</svg>
