<svg width="16" height="16" viewBox="0 0 16 16" fill="none" xmlns="http://www.w3.org/2000/svg">
    <path d="M1.90625 13.2949V5.23828C1.90625 3.97852 2.55664 3.31641 3.81055 3.31641H4.80078V2.23828C4.80078 0.972656 5.45703 0.316406 6.70508 0.316406H8.91406C9.58789 0.316406 10.1094 0.486328 10.5488 0.9375L13.4727 3.91406C13.9355 4.38867 14.0938 4.88086 14.0938 5.64844V10.2891C14.0938 11.5547 13.4434 12.2109 12.1895 12.2109H11.1934V13.2949C11.1934 14.5547 10.5488 15.2168 9.29492 15.2168H3.81055C2.55664 15.2168 1.90625 14.5605 1.90625 13.2949ZM10.6074 7.13672C11.0996 7.63477 11.1934 7.99805 11.1934 8.78906V11.0625H12.0898C12.6641 11.0625 12.9453 10.7637 12.9453 10.2188V5.36719H10.3613C9.64062 5.36719 9.25391 4.99219 9.25391 4.26562V1.46484H6.80469C6.23633 1.46484 5.94922 1.76367 5.94922 2.30273V3.32227C6.59961 3.32812 6.98047 3.45117 7.43164 3.9082L10.6074 7.13672ZM10.2148 4.11914C10.2148 4.32422 10.3027 4.40625 10.502 4.40625H12.6465L10.2148 1.93945V4.11914ZM3.05469 13.2246C3.05469 13.7695 3.33594 14.0684 3.9043 14.0684H9.19531C9.76367 14.0684 10.0449 13.7695 10.0449 13.2246V8.92383H6.95117C6.11914 8.92383 5.70312 8.51367 5.70312 7.67578V4.46484H3.9043C3.33594 4.46484 3.05469 4.76953 3.05469 5.30859V13.2246ZM7.0625 7.91016H9.88672L6.7168 4.6875V7.56445C6.7168 7.80469 6.82227 7.91016 7.0625 7.91016Z" fill="#1373E4"/>
</svg>
