<svg width="17" height="16" viewBox="0 0 17 16" fill="none" xmlns="http://www.w3.org/2000/svg">
<path d="M13.8333 6H7.83333C7.09695 6 6.5 6.59695 6.5 7.33333V13.3333C6.5 14.0697 7.09695 14.6667 7.83333 14.6667H13.8333C14.5697 14.6667 15.1667 14.0697 15.1667 13.3333V7.33333C15.1667 6.59695 14.5697 6 13.8333 6Z" stroke="#FF5B00" stroke-width="1.5" stroke-linecap="round" stroke-linejoin="round"/>
<path d="M3.83301 9.99967H3.16634C2.81272 9.99967 2.47358 9.8592 2.22353 9.60915C1.97348 9.3591 1.83301 9.01996 1.83301 8.66634V2.66634C1.83301 2.31272 1.97348 1.97358 2.22353 1.72353C2.47358 1.47348 2.81272 1.33301 3.16634 1.33301H9.16634C9.51996 1.33301 9.8591 1.47348 10.1092 1.72353C10.3592 1.97358 10.4997 2.31272 10.4997 2.66634V3.33301" stroke="#FF5B00" stroke-width="1.5" stroke-linecap="round" stroke-linejoin="round"/>
</svg>
