<svg width="53" height="52" viewBox="0 0 53 52" fill="none" xmlns="http://www.w3.org/2000/svg">
<path fill-rule="evenodd" clip-rule="evenodd" d="M10.4095 9.28564H42.5906C46.6768 9.28564 48.7858 11.4461 48.7858 15.574V17.31H4.21436V15.574C4.21436 11.4461 6.34218 9.28564 10.4095 9.28564ZM10.2212 34.6898C10.2212 35.7893 10.9744 36.5416 12.0854 36.5416H16.6989C17.791 36.5416 18.5442 35.7893 18.5442 34.6898V31.1213C18.5442 30.0411 17.791 29.2695 16.6989 29.2695H12.0854C10.9744 29.2695 10.2212 30.0411 10.2212 31.1213V34.6898ZM42.5906 42.7142H10.4095C6.34218 42.7142 4.21436 40.5538 4.21436 36.4066V21.8431H48.7858V36.4066C48.7858 40.5345 46.6768 42.7142 42.5906 42.7142ZM32.154 35.1168L32.2068 33.6659L30.9801 34.4441L30.6636 33.8902L31.9562 33.2175L30.6636 32.5448L30.9801 31.9908L32.2068 32.769L32.154 31.3181H32.7872L32.7344 32.769L33.9611 31.9908L34.2776 32.5448L32.985 33.2175L34.2776 33.8902L33.9611 34.4441L32.7344 33.6659L32.7872 35.1168H32.154ZM36.8619 35.1168L36.9147 33.6659L35.688 34.4441L35.3714 33.8902L36.664 33.2175L35.3714 32.5448L35.688 31.9908L36.9147 32.769L36.8619 31.3181H37.495L37.4423 32.769L38.6689 31.9908L38.9855 32.5448L37.6929 33.2175L38.9855 33.8902L38.6689 34.4441L37.4423 33.6659L37.495 35.1168H36.8619ZM41.6225 33.6659L41.5698 35.1168H42.2029L42.1501 33.6659L43.3768 34.4441L43.6933 33.8902L42.4007 33.2175L43.6933 32.5448L43.3768 31.9908L42.1501 32.769L42.2029 31.3181H41.5698L41.6225 32.769L40.3958 31.9908L40.0793 32.5448L41.3719 33.2175L40.0793 33.8902L40.3958 34.4441L41.6225 33.6659Z" fill="#FF5B00"/>
</svg>
