<svg width="16" height="16" viewBox="0 0 16 16" fill="none" xmlns="http://www.w3.org/2000/svg">
<path d="M2 3.55439V6.8886M2 6.8886H5.27273M2 6.8886L4.53091 4.46574C5.11713 3.8682 5.84239 3.43169 6.63899 3.19695C7.43559 2.9622 8.27758 2.93686 9.08639 3.12331C9.8952 3.30975 10.6445 3.70189 11.2643 4.26314C11.8841 4.82439 12.3543 5.53646 12.6309 6.3329M14 12.4456V9.1114M14 9.1114H10.7273M14 9.1114L11.4691 11.5343C10.8829 12.1318 10.1576 12.5683 9.36101 12.8031C8.56441 13.0378 7.72242 13.0631 6.91361 12.8767C6.1048 12.6903 5.35553 12.2981 4.73571 11.7369C4.11589 11.1756 3.64573 10.4635 3.36909 9.6671" stroke="#007AFF" stroke-linecap="round" stroke-linejoin="round"/>
</svg>
