<svg width="28" height="28" viewBox="0 0 28 28" fill="none" xmlns="http://www.w3.org/2000/svg">
<path fill-rule="evenodd" clip-rule="evenodd" d="M5 11.9706H10.4285C11.2569 11.9706 11.9285 11.299 11.9285 10.4706V8C11.9285 7.17158 11.2569 6.5 10.4285 6.5H5C4.17157 6.5 3.5 7.17157 3.5 8V10.4706C3.5 11.299 4.17157 11.9706 5 11.9706ZM10.4285 13.4706H5C3.34315 13.4706 2 12.1274 2 10.4706V8C2 6.34314 3.34315 5 5 5H10.4285C12.0854 5 13.4285 6.34315 13.4285 8V10.4706C13.4285 12.1274 12.0854 13.4706 10.4285 13.4706ZM23.0001 13.4706H17.5715C15.9147 13.4706 14.5715 12.1274 14.5715 10.4706V8C14.5715 6.34314 15.9147 5 17.5715 5H23C24.6569 5 26.0001 6.34315 26.0001 8V10.4706C26.0001 12.1274 24.6569 13.4706 23.0001 13.4706ZM23.0001 21.4999H17.5715C16.7431 21.4999 16.0715 20.8283 16.0715 19.9999V17.5293C16.0715 16.7009 16.7431 16.0293 17.5715 16.0293H23C23.8285 16.0293 24.5001 16.7009 24.5001 17.5293V19.9999C24.5001 20.8283 23.8285 21.4999 23.0001 21.4999ZM17.5715 22.9999H23.0001C24.6569 22.9999 26.0001 21.6567 26.0001 19.9999V17.5293C26.0001 15.8724 24.6569 14.5293 23 14.5293H17.5715C15.9147 14.5293 14.5715 15.8724 14.5715 17.5293V19.9999C14.5715 21.6567 15.9147 22.9999 17.5715 22.9999ZM10.4285 22.9999H5C3.34315 22.9999 2 21.6568 2 19.9999V17.5294C2 15.8725 3.34315 14.5294 5 14.5294H10.4285C12.0854 14.5294 13.4285 15.8725 13.4285 17.5294V19.9999C13.4285 21.6568 12.0854 22.9999 10.4285 22.9999Z" fill="#FF5B00"/>
</svg>
