<svg width="16" height="16" viewBox="0 0 16 16" fill="none" xmlns="http://www.w3.org/2000/svg">
    <path d="M8 3.5H7.82456C7.60959 3.5 7.39603 3.46534 7.1921 3.39737L6.0952 3.03173C6.03181 3.0106 5.97001 2.985 5.91025 2.95512V2.95512C5.36666 2.68333 4.71013 2.78987 4.28039 3.21961L2.20711 5.29289C1.81658 5.68342 1.81658 6.31658 2.20711 6.70711V6.70711C2.39464 6.89464 2.5 7.149 2.5 7.41421V8.17157C2.5 8.70201 2.71071 9.21071 3.08579 9.58579L5.84062 12.3406C6.51475 13.0148 7.57099 13.1193 8.36424 12.5905L8.5 12.5M8 3.5H9.60503C9.85792 3.5 10.1005 3.39954 10.2793 3.22071V3.22071C10.6693 2.83067 11.3079 2.85194 11.6712 3.26706L13.8112 5.71275C14.2427 6.2059 14.4052 6.87913 14.2463 7.51483L14.1344 7.96257C14.0464 8.31424 13.8646 8.6354 13.6083 8.89171L13 9.5M8 3.5L7.11483 4.38517C6.56638 4.93362 6.71642 5.85821 7.41017 6.20508V6.20508C7.7749 6.38745 8.2094 6.3604 8.5487 6.1342L8.5973 6.1018C9.11384 5.75744 9.80561 5.84927 10.2144 6.31648L13 9.5M13 9.5V10C13 10.5523 12.5523 11 12 11V11M8.5 12.5L6.5 10.5M8.5 12.5L8.57697 12.5257C9.27705 12.759 10 12.2379 10 11.5V11.5M10 11.5L8 9.5M10 11.5L10.4393 11.6464C11.0479 11.8493 11.7131 11.5738 12 11V11M12 11L9.5 8.5" stroke="#FF5B00" stroke-linecap="round"/>
</svg>
