<svg width="43" height="42" viewBox="0 0 43 42" fill="none" xmlns="http://www.w3.org/2000/svg">
<circle cx="21.0698" cy="21" r="21" fill="#1373E4" fill-opacity="0.1"/>
<path d="M27.3054 20H14.974C14.0011 20 13.2124 20.8954 13.2124 22V29C13.2124 30.1046 14.0011 31 14.974 31H27.3054C28.2783 31 29.0671 30.1046 29.0671 29V22C29.0671 20.8954 28.2783 20 27.3054 20Z" stroke="#1373E4" stroke-width="1.5" stroke-linecap="round" stroke-linejoin="round"/>
<path d="M16.7354 20.0002V16.0002C16.7343 14.7602 17.139 13.564 17.8711 12.6438C18.6031 11.7236 19.6102 11.1451 20.6968 11.0204C21.7835 10.8958 22.8721 11.2341 23.7515 11.9695C24.6308 12.7049 25.2381 13.785 25.4554 15.0002" stroke="#1373E4" stroke-width="1.5" stroke-linecap="round" stroke-linejoin="round"/>
</svg>
