<svg width="32" height="32" viewBox="0 0 32 32" fill="none" xmlns="http://www.w3.org/2000/svg">
<path d="M5.94531 25.3867V7.70312C5.94531 5.18359 7.24609 3.85938 9.75391 3.85938H22.2344C24.7422 3.85938 26.043 5.18359 26.043 7.70312V25.3867C26.043 27.918 24.7422 29.2305 22.2344 29.2305H9.75391C7.24609 29.2305 5.94531 27.918 5.94531 25.3867ZM8.24219 25.2461C8.24219 26.3359 8.80469 26.9336 9.94141 26.9336H22.0352C23.1719 26.9336 23.7461 26.3359 23.7461 25.2461V7.84375C23.7461 6.75391 23.1719 6.15625 22.0352 6.15625H9.94141C8.80469 6.15625 8.24219 6.75391 8.24219 7.84375V25.2461ZM11.7109 10.9727C11.2773 10.9727 10.9492 10.6445 10.9492 10.2227C10.9492 9.8125 11.2773 9.49609 11.7109 9.49609H20.2891C20.7109 9.49609 21.0391 9.8125 21.0391 10.2227C21.0391 10.6445 20.7109 10.9727 20.2891 10.9727H11.7109ZM11.7109 14.9805C11.2773 14.9805 10.9492 14.6523 10.9492 14.2305C10.9492 13.8203 11.2773 13.5039 11.7109 13.5039H20.2891C20.7109 13.5039 21.0391 13.8203 21.0391 14.2305C21.0391 14.6523 20.7109 14.9805 20.2891 14.9805H11.7109ZM11.7109 18.9883C11.2773 18.9883 10.9492 18.6719 10.9492 18.2617C10.9492 17.8398 11.2773 17.5 11.7109 17.5H15.8594C16.2812 17.5 16.5977 17.8398 16.5977 18.2617C16.5977 18.6719 16.2812 18.9883 15.8594 18.9883H11.7109Z" fill="#FF5B00"/>
</svg>
