<svg width="16" height="16" viewBox="0 0 16 16" fill="none" xmlns="http://www.w3.org/2000/svg">
<path d="M7.96875 15.9375C3.57812 15.9375 0 12.3594 0 7.96875C0 3.57031 3.57812 0 7.96875 0C12.3672 0 15.9375 3.57031 15.9375 7.96875C15.9375 12.3594 12.3672 15.9375 7.96875 15.9375ZM7.96875 12.4531C8.11719 12.4531 8.23438 12.3281 8.23438 12.1875V11.4844C9.49219 11.4062 10.5547 10.7734 10.5547 9.46875C10.5547 8.25781 9.57812 7.78906 8.48438 7.53125L8.23438 7.47656V5.14062C8.89062 5.21094 9.35156 5.54688 9.54688 6.14844C9.625 6.39062 9.78125 6.51562 10 6.51562C10.2031 6.51562 10.4375 6.38281 10.4375 6.10156C10.4375 5.14062 9.3125 4.44531 8.23438 4.34375V3.65625C8.23438 3.51562 8.11719 3.39062 7.96875 3.39062C7.82031 3.39062 7.70312 3.51562 7.70312 3.65625V4.34375C6.51562 4.44531 5.50781 5.14844 5.50781 6.30469C5.50781 7.50781 6.51562 7.96094 7.50781 8.19531L7.70312 8.25V10.6875C7.00781 10.625 6.51562 10.3281 6.26562 9.64844C6.16406 9.40625 6.03125 9.29688 5.8125 9.29688C5.57812 9.29688 5.38281 9.46094 5.38281 9.71875C5.38281 9.80469 5.39844 9.88281 5.42969 9.97656C5.71094 10.9453 6.72656 11.4062 7.70312 11.4844V12.1875C7.70312 12.3281 7.82031 12.4531 7.96875 12.4531ZM6.41406 6.23438C6.41406 5.57031 7.03906 5.22656 7.70312 5.14062V7.35156L7.64844 7.33594C6.97656 7.17188 6.41406 6.875 6.41406 6.23438ZM8.23438 10.6953V8.36719L8.3125 8.39062C9.01562 8.5625 9.65625 8.82031 9.65625 9.53906C9.65625 10.3359 8.96875 10.6406 8.23438 10.6953Z" fill="#FF5B00"/>
</svg>
