<svg width="65" height="64" viewBox="0 0 65 64" fill="none" xmlns="http://www.w3.org/2000/svg">
<path d="M21.834 45.3359L32.5007 56.0026L43.1673 45.3359" stroke="#FF5B00" stroke-width="4" stroke-linecap="round" stroke-linejoin="round"/>
<path d="M32.5 32V56" stroke="#FF5B00" stroke-width="4" stroke-linecap="round" stroke-linejoin="round"/>
<path d="M56.1798 48.2398C58.4982 46.6095 60.2368 44.2829 61.1433 41.5976C62.0497 38.9122 62.0769 36.0079 61.2209 33.306C60.3648 30.6042 58.6701 28.2454 56.3827 26.572C54.0952 24.8986 51.334 23.9976 48.4998 23.9998H45.1398C44.3378 20.8741 42.8371 17.9711 40.7508 15.5094C38.6645 13.0476 36.0469 11.0912 33.095 9.78743C30.1432 8.48368 26.9341 7.86656 23.7092 7.98253C20.4844 8.0985 17.3279 8.94454 14.4773 10.457C11.6267 11.9694 9.15642 14.1088 7.25232 16.714C5.34822 19.3193 4.05996 22.3226 3.48452 25.4978C2.90907 28.673 3.06145 31.9374 3.93017 35.0452C4.79889 38.153 6.36131 41.0232 8.49982 43.4398" stroke="#FF5B00" stroke-width="4" stroke-linecap="round" stroke-linejoin="round"/>
</svg>
