<svg width="160" height="40" viewBox="0 0 160 40" fill="none" xmlns="http://www.w3.org/2000/svg">
<path fill-rule="evenodd" clip-rule="evenodd" d="M18 8.3335V31.6661H32.8106L35.4254 28.0333H22.3148V21.6001H32.3299L32.3155 18.0331H22.3148V11.9669H32.3243L34.9603 8.3335H18Z" fill="#FF5B00"/>
<path fill-rule="evenodd" clip-rule="evenodd" d="M79.7386 27.1497C80.9775 26.45 81.9513 25.4721 82.6595 24.2166C83.3676 22.9611 83.7217 21.5556 83.7217 20.0001C83.7217 18.4444 83.3676 17.0389 82.6595 15.7834C81.9513 14.5279 80.9775 13.55 79.7386 12.8501C78.4993 12.1496 77.1049 11.8 75.5563 11.8C74.0074 11.8 72.6135 12.1496 71.375 12.8501C70.1349 13.55 69.1615 14.5279 68.4541 15.7834C67.7455 17.0389 67.3919 18.4444 67.3919 20.0001C67.3919 21.5556 67.7455 22.9611 68.4541 24.2166C69.1615 25.4721 70.1349 26.45 71.375 27.1497C72.6135 27.8496 74.0074 28.1996 75.5563 28.1996C77.1049 28.1996 78.4993 27.8496 79.7386 27.1497ZM69.151 30.4496C67.2476 29.4167 65.7539 27.9829 64.6705 26.1502C63.5857 24.3166 63.0438 22.2667 63.0438 20.0002C63.0438 17.7335 63.5857 15.683 64.6705 13.8498C65.7539 12.0167 67.2476 10.5833 69.151 9.54998C71.0537 8.51688 73.1887 8 75.5563 8C77.924 8 80.059 8.51688 81.9624 9.54998C83.8655 10.5833 85.3587 12.0115 86.4431 13.8334C87.527 15.6557 88.0697 17.7113 88.0697 20.0002C88.0697 22.2888 87.527 24.3443 86.4431 26.1666C85.3587 27.989 83.8655 29.4167 81.9624 30.4496C80.059 31.4827 77.924 32 75.5563 32C73.1887 32 71.0537 31.4827 69.151 30.4496Z" fill="#FF5B00"/>
<path fill-rule="evenodd" clip-rule="evenodd" d="M134.271 19.6L142.403 8.3335H137.722L120.563 31.6665H125.475L131.716 22.8L138.021 31.6665H143L134.271 19.6Z" fill="#FF5B00"/>
<path fill-rule="evenodd" clip-rule="evenodd" d="M49.6659 31.6662L44.4732 24.6055L39.431 31.6662H43.4889H49.6659Z" fill="#64F0BF"/>
<path fill-rule="evenodd" clip-rule="evenodd" d="M120.562 8.3335L125.755 15.3946L130.796 8.3335H126.739H120.562Z" fill="#F06464"/>
<path fill-rule="evenodd" clip-rule="evenodd" d="M92.9852 8.3335H97.3V28.0003H109.448L106.802 31.6665H92.9852V8.3335Z" fill="#FF5B00"/>
<path fill-rule="evenodd" clip-rule="evenodd" d="M112.251 8.3335H116.566V25.6397L112.251 31.6665V8.3335Z" fill="#FF5B00"/>
<path fill-rule="evenodd" clip-rule="evenodd" d="M53.14 20.4001L61.2721 31.6665H56.5919L39.4326 8.3335H44.3446L50.5844 17.2L56.8904 8.3335H61.8693L53.14 20.4001Z" fill="#FF5B00"/>
</svg>
