<svg width="40" height="40" viewBox="0 0 40 40" fill="none" xmlns="http://www.w3.org/2000/svg">
<path fill-rule="evenodd" clip-rule="evenodd" d="M2.22936 10.7352C2.22936 11.3551 1.73112 11.8579 1.11463 11.8579C0.499107 11.8579 0.000872395 11.3551 0.000872395 10.7352V5.474C0.000872395 2.45534 2.43776 0 5.43493 0H10.7614C11.3779 0 11.8771 0.502784 11.8771 1.12272C11.8771 1.74266 11.3779 2.24544 10.7614 2.24544H5.43493C3.66784 2.24544 2.22936 3.69326 2.22936 5.474V10.7352ZM34.5649 0H29.3412C28.7256 0 28.2264 0.502784 28.2264 1.12272C28.2264 1.74266 28.7256 2.24544 29.3412 2.24544H34.5649C36.3329 2.24544 37.7714 3.69326 37.7714 5.474V10.8396C37.7714 11.4596 38.2697 11.9614 38.8852 11.9614C39.5017 11.9614 39.9999 11.4596 39.9999 10.8396V5.474C39.9999 2.45534 37.562 0 34.5649 0ZM9.96537 17.7424V14.5822C9.96537 13.7729 10.6158 13.1178 11.4194 13.1178C12.2229 13.1178 12.8734 13.7729 12.8734 14.5822V17.7424C12.8734 18.5517 12.2229 19.2068 11.4194 19.2068C10.6158 19.2068 9.96537 18.5517 9.96537 17.7424ZM30.0349 17.7427C30.0349 18.552 29.3845 19.2071 28.5809 19.2071C27.7774 19.2071 27.1269 18.552 27.1269 17.7427V14.5825C27.1269 13.7731 27.7774 13.1181 28.5809 13.1181C29.3845 13.1181 30.0349 13.7731 30.0349 14.5825V17.7427ZM17.8175 25.1936H18.5232C20.331 25.1936 21.8005 23.7125 21.8005 21.8918V14.3227C21.8005 13.7028 21.3022 13.2 20.6867 13.2C20.0702 13.2 19.572 13.7028 19.572 14.3227V21.8918C19.572 22.4736 19.1009 22.9481 18.5232 22.9481H17.8175C17.201 22.9481 16.7028 23.4509 16.7028 24.0708C16.7028 24.6908 17.201 25.1936 17.8175 25.1936ZM20.0149 30.1796C22.3025 30.1796 24.4641 29.3254 25.6554 27.9517C26.0615 27.4851 26.7662 27.4372 27.2286 27.8444C27.6929 28.2524 27.7395 28.9622 27.3343 29.4289C25.7087 31.3053 22.9713 32.4251 20.0149 32.4251C17.0323 32.4251 14.2842 31.2896 12.6606 29.3898C12.2583 28.9192 12.3107 28.2105 12.7779 27.8063C13.2432 27.4021 13.9479 27.4548 14.3501 27.9254C15.5376 29.3156 17.7088 30.1796 20.0149 30.1796ZM38.8853 28.0384C38.2697 28.0384 37.7715 28.5412 37.7715 29.1612V34.5258C37.7715 36.3065 36.333 37.7544 34.565 37.7544H29.3413C28.7257 37.7544 28.2265 38.2571 28.2265 38.8771C28.2265 39.497 28.7257 39.9998 29.3413 39.9998H34.565C37.5621 39.9998 40 37.5445 40 34.5258V29.1612C40 28.5412 39.5018 28.0384 38.8853 28.0384ZM5.43502 37.7546H10.7615C11.378 37.7546 11.8762 38.2573 11.8762 38.8773C11.8762 39.4972 11.378 40 10.7615 40H5.43502C2.43786 40 0 37.5447 0 34.526V29.2648C0 28.6449 0.499204 28.1421 1.11473 28.1421C1.73122 28.1421 2.22945 28.6449 2.22945 29.2648V34.526C2.22945 36.3067 3.66794 37.7546 5.43502 37.7546Z" fill="#FF5B00"/>
</svg>
