<svg width="32" height="32" viewBox="0 0 32 32" fill="none" xmlns="http://www.w3.org/2000/svg">
<path d="M5.94531 17.7344V7.70312C5.94531 5.18359 7.24609 3.85938 9.75391 3.85938H15.4023C16.8672 3.85938 17.6758 4.09375 18.6602 5.08984L24.8125 11.3477C25.832 12.3789 26.043 13.1289 26.043 14.7578V25.3867C26.043 27.9062 24.7422 29.2305 22.2344 29.2305H13.7031C14.125 28.5391 14.4297 27.7539 14.5703 26.9336H22.0352C23.1719 26.9336 23.7461 26.3359 23.7461 25.2461V15.0625H17.4297C15.7656 15.0625 14.9336 14.2539 14.9336 12.5781V6.15625H9.94141C8.80469 6.15625 8.24219 6.76562 8.24219 7.84375V17.7344C7.84375 17.6758 7.46875 17.6406 7.08203 17.6406C6.69531 17.6406 6.32031 17.6758 5.94531 17.7344ZM16.9609 12.3555C16.9609 12.8359 17.1602 13.0469 17.6406 13.0469H23.4297L16.9609 6.47266V12.3555ZM7.09375 31.3633C3.78906 31.3633 1.05859 28.6445 1.05859 25.3281C1.05859 22.0352 3.78906 19.3047 7.09375 19.3047C10.3984 19.3047 13.1289 22.0234 13.1289 25.3281C13.1289 28.6328 10.375 31.3633 7.09375 31.3633ZM7.10547 21.5078C6.88281 21.5078 6.69531 21.6016 6.46094 21.8125L3.48438 24.6133C3.29688 24.7773 3.20312 24.9766 3.20312 25.2109C3.17969 25.668 3.55469 26.0078 4 26.0078C4.23438 26.0195 4.45703 25.9023 4.60938 25.7383L5.64062 24.6484L6.28516 23.9922L6.22656 25.375V28.2812C6.22656 28.7617 6.61328 29.1367 7.10547 29.1367C7.59766 29.1367 7.98438 28.7617 7.98438 28.2812V25.375L7.92578 23.9922L8.55859 24.6484L9.61328 25.7383C9.75391 25.9023 9.97656 25.9961 10.1992 26.0078C10.6562 26.0312 11.0078 25.668 11.0078 25.2109C11.0078 24.9766 10.9258 24.7773 10.7383 24.6133L7.73828 21.8125C7.51562 21.6133 7.33984 21.5078 7.10547 21.5078Z" fill="#FF5B00"/>
</svg>
