<svg width="24" height="24" viewBox="0 0 24 24" xmlns="http://www.w3.org/2000/svg" fill="#FF5B00">
<path opacity="0.5" d="M11.637 8.78989C11.6351 8.79004 11.6336 8.79016 11.6318 8.79004C11.7522 8.78625 11.7813 8.78525 11.637 8.78989Z" />
<path d="M22.7146 12.6157C22.4468 12.5033 21.0277 11.7268 20.4704 11.7204C19.9132 11.7141 20.0581 11.8839 19.5321 11.5727C19.0055 11.2615 19.0055 11.2615 19.0055 11.2615C19.0055 11.2615 19.196 10.6928 19.238 9.94177C19.2801 9.19071 19.3421 8.77599 19.3421 8.77599C19.3421 8.77599 20.174 7.92849 20.6643 8.21557C21.1551 8.50292 21.1535 8.51773 21.3899 8.33752C21.6262 8.15731 21.3481 7.85965 21.3481 7.85965C21.3481 7.85965 21.5669 8.15096 21.6739 7.81411C21.7201 7.66846 21.8625 7.29087 21.485 6.85626C21.0156 6.31594 21.3051 6.30234 21.0891 6.16936C20.8726 6.03581 20.3521 5.69815 19.9644 5.64572C19.5684 5.5921 19.5787 5.65342 19.3073 5.59336C19.2341 5.71911 19.4893 6.01337 19.4893 6.01337C19.4893 6.01337 18.7937 6.0372 18.3944 6.34655C17.9954 6.65464 18.0051 6.71418 17.5316 7.03058C17.0582 7.3476 17.1616 7.06521 16.4926 7.42609C15.8235 7.78697 15.2281 8.618 14.7286 8.82352C14.0051 9.12104 11.1106 8.80371 11.6313 8.78935C11.2946 8.79718 10.2424 8.82092 10.2424 8.82092C8.69298 9.05183 8.13613 9.2389 6.44926 11.3964C4.76238 13.5538 4.06037 13.8512 2.75231 13.9869C1.4443 14.1232 1.95486 13.6466 1.42144 13.6757C0.888274 13.7048 1.20579 14.0498 1.23164 14.3248C1.25755 14.6007 2.02136 14.8372 2.89003 14.7688C3.75894 14.7004 5.03896 14.1519 7.08951 11.7537C7.70419 11.035 8.05401 10.6215 8.24313 10.3942C8.21006 10.7564 7.96489 13.3073 7.56062 13.5947C7.12527 13.905 6.42254 14.3157 5.93711 14.832C5.45173 15.3489 5.24139 16.7177 5.23286 17.1215C5.22405 17.525 5.37419 17.7137 5.55155 17.8335C5.72864 17.953 5.81519 18.135 6.06517 18.1153C6.31515 18.0957 6.15737 17.8507 6.05985 17.7084C5.85948 17.4156 5.53669 17.1135 5.96283 16.3184C6.55756 15.208 7.43102 15.2917 8.39001 14.5294C9.3488 13.7677 10.6192 12.032 10.6192 12.032C10.6192 12.032 11.3569 11.7796 12.0386 12.126C12.7206 12.4727 13.2723 12.9906 14.2618 13.1224C15.2516 13.2533 17.7336 12.3123 17.7336 12.3123C17.7336 12.3123 18.1708 12.9176 18.8573 12.9037C19.5435 12.8898 20.0712 12.3766 20.381 12.4259C20.6913 12.475 21.89 12.684 22.201 12.8832C22.5117 13.0822 22.4512 13.6055 23.101 13.1782C23.1919 13.1174 22.9819 12.7275 22.7146 12.6157Z" />
<path opacity="0.5" d="M19.2931 5.41149L19.292 5.4082C19.292 5.4082 19.2927 5.40956 19.2931 5.41149Z" />
<path d="M10.7642 12.3284C10.5861 12.5671 10.0045 13.3322 9.37356 14.0111C9.523 14.3639 9.64372 14.6972 9.66035 14.8866C9.70835 15.4273 9.10729 16.7904 9.14468 17.1995C9.18216 17.6097 9.33887 17.7814 9.53586 17.9746C9.7331 18.1678 9.91694 18.3762 9.93067 17.897C9.94442 17.4181 9.6352 17.6436 9.61195 17.3607C9.5887 17.0779 9.83396 16.4388 10.0394 16.0477C10.2448 15.6572 10.7806 14.9481 10.9906 14.3347C11.1174 13.9635 11.3055 12.9913 11.4343 12.2803C11.3051 12.2666 11.186 12.268 11.0877 12.2757C10.9466 12.2868 10.832 12.3111 10.7642 12.3284Z" />
<path d="M19.9526 12.902C19.7678 12.9925 19.5513 13.0986 19.306 13.165C19.5206 13.3186 19.6851 13.4664 19.7014 13.5692C19.7524 13.8875 19.8374 13.9931 19.7453 14.1271C19.6534 14.261 19.601 14.2771 19.5527 14.4082C19.5041 14.5387 19.5171 14.9335 19.6718 14.9626C19.8261 14.9912 19.9239 14.8914 19.9656 14.7458C20.007 14.5996 20.1862 13.4569 20.1606 13.1792C20.1537 13.1069 20.0889 13 19.9943 12.8819C19.9805 12.8885 19.9666 12.8948 19.9526 12.902Z" />
</svg>
