<svg width="24" height="24" viewBox="0 0 24 24" fill="#FF5B00" xmlns="http://www.w3.org/2000/svg">
<path d="M12.2617 8.09671C12.156 8.09567 12.0514 8.11978 11.9554 8.16733C11.8594 8.21488 11.7742 8.28469 11.706 8.37181C11.5938 8.52063 11.5349 8.70816 11.5404 8.9C11.5437 8.98004 11.5755 9.05562 11.6291 9.11097C11.6828 9.16633 11.7542 9.19718 11.8284 9.19711H13.6278C13.6429 9.19764 13.6578 9.19274 13.6702 9.18318C13.6825 9.17361 13.6915 9.15991 13.6959 9.14421C13.7003 9.12851 13.6997 9.1117 13.6943 9.09639C13.6889 9.08108 13.6789 9.06813 13.666 9.05956L13.4264 8.8945C13.1888 8.73085 12.9684 8.53992 12.7688 8.32504C12.7024 8.25282 12.6234 8.19546 12.5364 8.15628C12.4493 8.1171 12.356 8.09685 12.2617 8.09671Z"/>
<path d="M6.76918 11.8401C6.89779 11.615 7.06366 11.4173 7.25853 11.2569C7.27948 11.2428 7.29721 11.2238 7.31035 11.2012C7.3235 11.1787 7.33174 11.1532 7.33444 11.1267C7.33714 11.1002 7.33423 11.0734 7.32594 11.0483C7.31765 11.0232 7.30418 11.0005 7.28656 10.9818C7.18974 10.8808 7.06992 10.8092 6.93923 10.7742C6.80855 10.7393 6.67162 10.7422 6.54231 10.7827C6.41299 10.8231 6.29587 10.8998 6.20279 11.0048C6.10971 11.1098 6.04398 11.2395 6.01223 11.3807C5.99592 11.4799 5.99592 11.5814 6.01223 11.6805C6.02886 11.7677 6.06899 11.8476 6.12758 11.9102C6.18617 11.9728 6.26059 12.0152 6.3415 12.0323C6.4224 12.0494 6.50617 12.0402 6.58227 12.006C6.65836 11.9718 6.7234 11.9141 6.76918 11.8401Z" />
<path d="M15.0222 14.509C15.4169 13.9571 15.7196 13.3353 15.9168 12.6713C15.9822 12.4512 16.0948 12.2508 16.2453 12.0864C16.3959 11.922 16.5802 11.7982 16.7833 11.725L17.2345 11.5627C17.5073 11.4655 17.7417 11.2716 17.8997 11.0125C17.9737 10.8868 18.0085 10.7389 17.9988 10.5903C17.9892 10.4418 17.9357 10.3005 17.8461 10.1872L17.4205 9.659C17.1862 9.37107 16.9305 9.10425 16.6559 8.86122L14.905 7.27115C14.3139 6.74041 13.6398 6.32772 12.9144 6.05246L12.8686 6.03596C12.7745 6.00059 12.6737 5.99112 12.5753 6.00841C12.477 6.0257 12.3842 6.06921 12.3053 6.13499C12.227 6.20028 12.1636 6.28407 12.12 6.37993C12.0764 6.47578 12.0537 6.58115 12.0537 6.68794C12.0537 6.79473 12.0764 6.9001 12.12 6.99595C12.1636 7.09181 12.227 7.1756 12.3053 7.24089C12.5602 7.43346 12.9374 7.74157 13.284 8.01941C13.8123 8.44437 14.3999 8.77588 15.0248 9.00152L15.6211 9.21609H14.7368C14.5843 9.2152 14.437 9.27554 14.3235 9.38536C14.21 9.49518 14.1383 9.64665 14.1225 9.8103C14.1089 9.96489 14.0625 10.114 13.9869 10.2462C13.9113 10.3783 13.8086 10.4899 13.6867 10.5723L13.177 10.9052C12.6704 11.2346 12.0999 11.4326 11.5103 11.4836C10.9208 11.5347 10.3284 11.4375 9.77958 11.1996C9.29319 10.9896 8.75395 10.9707 8.25598 11.1462C7.75802 11.3217 7.33297 11.6804 7.05504 12.1596L6.69823 12.7539C6.53109 13.0456 6.44282 13.3819 6.44336 13.725C6.44333 14.0115 6.5053 14.2941 6.62432 14.5502L7.29462 15.9973C7.34593 16.1103 7.37261 16.2345 7.37261 16.3604C7.37261 16.4863 7.34593 16.6105 7.29462 16.7235L6.99642 17.3673C6.96751 17.4347 6.95469 17.5089 6.95914 17.5831C6.96358 17.6573 6.98516 17.7291 7.02189 17.792C7.05862 17.8549 7.10935 17.9069 7.16945 17.9432C7.22955 17.9795 7.29711 17.999 7.36598 18H11.7574C11.8334 18 11.9064 17.9682 11.9611 17.9112C12.0158 17.8543 12.0478 17.7766 12.0504 17.6946C12.0505 17.6271 12.0308 17.5612 11.9942 17.5064C11.9576 17.4516 11.9059 17.4106 11.8466 17.3893L10.2664 16.696C10.2094 16.6713 10.161 16.6283 10.1275 16.5727C10.0941 16.5172 10.0774 16.4519 10.0796 16.3857C10.0818 16.3195 10.1029 16.2557 10.14 16.2029C10.1771 16.1501 10.2283 16.111 10.2868 16.0908L10.4907 16.0193C10.6727 15.9563 10.8364 15.8429 10.9651 15.6903C11.0939 15.5378 11.1834 15.3515 11.2247 15.15L11.2757 14.9051C11.2874 14.8486 11.317 14.7983 11.3593 14.7627C11.4015 14.7271 11.454 14.7084 11.5076 14.7098C11.5358 14.7106 11.5636 14.7179 11.589 14.7312C11.6144 14.7445 11.6369 14.7635 11.655 14.7869C11.6731 14.8104 11.6864 14.8377 11.6939 14.8671C11.7014 14.8965 11.7031 14.9273 11.6987 14.9574L11.5917 15.6892C11.5581 15.9237 11.4574 16.1411 11.3037 16.3109C11.2706 16.3466 11.217 16.4292 11.347 16.4732L12.0581 16.729C12.3874 16.8478 12.6866 17.0474 12.9323 17.3122C13.3473 17.7554 13.9083 18.0027 14.4921 18H15.3128C15.3939 18 15.4717 17.9652 15.529 17.9033C15.5864 17.8414 15.6186 17.7574 15.6186 17.6699C15.6189 17.5627 15.5867 17.4584 15.5269 17.373C15.467 17.2875 15.3828 17.2256 15.2873 17.1967L15.0324 17.1169C14.8806 17.0742 14.7397 16.9948 14.6205 16.8847C14.5013 16.7747 14.4068 16.6367 14.3443 16.4814C14.2678 16.2795 14.2417 16.0594 14.2685 15.8432C14.2954 15.627 14.3742 15.4221 14.4972 15.249L15.0222 14.509Z" />
</svg>
