<svg width="16" height="16" viewBox="0 0 16 16" fill="none" xmlns="http://www.w3.org/2000/svg">
<g clip-path="url(#clip0)">
<path d="M8 10C9.10457 10 10 9.10457 10 8C10 6.89543 9.10457 6 8 6C6.89543 6 6 6.89543 6 8C6 9.10457 6.89543 10 8 10Z" stroke="#FF5B00" stroke-width="1.5" stroke-linecap="round" stroke-linejoin="round"/>
<path d="M12.9337 10.0003C12.8449 10.2014 12.8184 10.4245 12.8577 10.6407C12.8969 10.857 13 11.0565 13.1537 11.2137L13.1937 11.2537C13.3176 11.3775 13.416 11.5245 13.4831 11.6864C13.5502 11.8483 13.5847 12.0218 13.5847 12.197C13.5847 12.3722 13.5502 12.5457 13.4831 12.7076C13.416 12.8694 13.3176 13.0165 13.1937 13.1403C13.0698 13.2643 12.9228 13.3626 12.7609 13.4297C12.599 13.4968 12.4255 13.5314 12.2503 13.5314C12.0751 13.5314 11.9016 13.4968 11.7397 13.4297C11.5779 13.3626 11.4308 13.2643 11.307 13.1403L11.267 13.1003C11.1099 12.9466 10.9103 12.8435 10.6941 12.8043C10.4778 12.7651 10.2547 12.7916 10.0537 12.8803C9.85648 12.9648 9.68831 13.1052 9.56986 13.284C9.45141 13.4629 9.38785 13.6725 9.38699 13.887V14.0003C9.38699 14.3539 9.24652 14.6931 8.99647 14.9431C8.74642 15.1932 8.40728 15.3337 8.05366 15.3337C7.70004 15.3337 7.3609 15.1932 7.11085 14.9431C6.8608 14.6931 6.72033 14.3539 6.72033 14.0003V13.9403C6.71516 13.7197 6.64374 13.5057 6.51533 13.3261C6.38693 13.1466 6.20748 13.0098 6.00033 12.9337C5.79925 12.8449 5.5762 12.8184 5.35993 12.8577C5.14367 12.8969 4.94411 13 4.78699 13.1537L4.74699 13.1937C4.62316 13.3176 4.47611 13.416 4.31425 13.4831C4.15238 13.5502 3.97888 13.5847 3.80366 13.5847C3.62844 13.5847 3.45494 13.5502 3.29307 13.4831C3.13121 13.416 2.98416 13.3176 2.86033 13.1937C2.73636 13.0698 2.63801 12.9228 2.57091 12.7609C2.50381 12.599 2.46928 12.4255 2.46928 12.2503C2.46928 12.0751 2.50381 11.9016 2.57091 11.7397C2.63801 11.5779 2.73636 11.4308 2.86033 11.307L2.90033 11.267C3.05402 11.1099 3.15712 10.9103 3.19633 10.6941C3.23554 10.4778 3.20907 10.2547 3.12033 10.0537C3.03582 9.85648 2.8955 9.68831 2.71664 9.56986C2.53778 9.45141 2.32818 9.38785 2.11366 9.38699H2.00033C1.6467 9.38699 1.30757 9.24652 1.05752 8.99647C0.807468 8.74642 0.666992 8.40728 0.666992 8.05366C0.666992 7.70004 0.807468 7.3609 1.05752 7.11085C1.30757 6.8608 1.6467 6.72033 2.00033 6.72033H2.06033C2.28099 6.71516 2.495 6.64374 2.67453 6.51533C2.85405 6.38693 2.9908 6.20748 3.06699 6.00033C3.15574 5.79925 3.18221 5.5762 3.143 5.35993C3.10378 5.14367 3.00068 4.94411 2.84699 4.78699L2.80699 4.74699C2.68302 4.62316 2.58468 4.47611 2.51758 4.31425C2.45048 4.15238 2.41594 3.97888 2.41594 3.80366C2.41594 3.62844 2.45048 3.45494 2.51758 3.29307C2.58468 3.13121 2.68302 2.98416 2.80699 2.86033C2.93082 2.73636 3.07787 2.63801 3.23974 2.57091C3.4016 2.50381 3.5751 2.46928 3.75033 2.46928C3.92555 2.46928 4.09905 2.50381 4.26091 2.57091C4.42278 2.63801 4.56983 2.73636 4.69366 2.86033L4.73366 2.90033C4.89078 3.05402 5.09034 3.15712 5.3066 3.19633C5.52286 3.23554 5.74592 3.20907 5.94699 3.12033H6.00033C6.19751 3.03582 6.36567 2.8955 6.48412 2.71664C6.60257 2.53778 6.66614 2.32818 6.66699 2.11366V2.00033C6.66699 1.6467 6.80747 1.30757 7.05752 1.05752C7.30757 0.807468 7.6467 0.666992 8.00033 0.666992C8.35395 0.666992 8.69309 0.807468 8.94313 1.05752C9.19318 1.30757 9.33366 1.6467 9.33366 2.00033V2.06033C9.33451 2.27485 9.39808 2.48444 9.51653 2.6633C9.63498 2.84216 9.80315 2.98248 10.0003 3.06699C10.2014 3.15574 10.4245 3.18221 10.6407 3.143C10.857 3.10378 11.0565 3.00068 11.2137 2.84699L11.2537 2.80699C11.3775 2.68302 11.5245 2.58468 11.6864 2.51758C11.8483 2.45048 12.0218 2.41594 12.197 2.41594C12.3722 2.41594 12.5457 2.45048 12.7076 2.51758C12.8694 2.58468 13.0165 2.68302 13.1403 2.80699C13.2643 2.93082 13.3626 3.07787 13.4297 3.23974C13.4968 3.4016 13.5314 3.5751 13.5314 3.75033C13.5314 3.92555 13.4968 4.09905 13.4297 4.26091C13.3626 4.42278 13.2643 4.56983 13.1403 4.69366L13.1003 4.73366C12.9466 4.89078 12.8435 5.09034 12.8043 5.3066C12.7651 5.52286 12.7916 5.74592 12.8803 5.94699V6.00033C12.9648 6.19751 13.1052 6.36567 13.284 6.48412C13.4629 6.60257 13.6725 6.66614 13.887 6.66699H14.0003C14.3539 6.66699 14.6931 6.80747 14.9431 7.05752C15.1932 7.30757 15.3337 7.6467 15.3337 8.00033C15.3337 8.35395 15.1932 8.69309 14.9431 8.94313C14.6931 9.19318 14.3539 9.33366 14.0003 9.33366H13.9403C13.7258 9.33451 13.5162 9.39808 13.3373 9.51653C13.1585 9.63498 13.0182 9.80315 12.9337 10.0003V10.0003Z" stroke="#FF5B00" stroke-width="1.5" stroke-linecap="round" stroke-linejoin="round"/>
</g>
<defs>
<clipPath id="clip0">
<rect width="16" height="16" fill="white"/>
</clipPath>
</defs>
</svg>
