<svg width="24" height="24" viewBox="0 0 24 24" fill="none" xmlns="http://www.w3.org/2000/svg">
<path d="M7.81055 15.4766C7.54395 15.4766 7.36621 15.3242 7.30908 15.083L7.05518 14.0356C6.87744 13.9722 6.70605 13.9087 6.55371 13.8198L5.6333 14.3911C5.42383 14.5181 5.17627 14.499 4.99854 14.3213L4.38916 13.7056C4.21777 13.5278 4.18604 13.2739 4.31934 13.0581L4.88428 12.1567C4.80811 11.998 4.73193 11.833 4.68115 11.6616L3.62744 11.4077C3.37988 11.3506 3.23389 11.1729 3.23389 10.9126V10.0557C3.23389 9.80176 3.37988 9.61768 3.62744 9.56055L4.66846 9.30029C4.73193 9.10986 4.80811 8.94482 4.87158 8.80518L4.31934 7.88477C4.19238 7.6626 4.19238 7.42773 4.37646 7.25L4.99854 6.64062C5.17627 6.46924 5.41113 6.43115 5.62061 6.55811L6.54736 7.12939C6.69971 7.04053 6.87744 6.97705 7.05518 6.91357L7.30908 5.85986C7.36621 5.61865 7.54395 5.46631 7.81055 5.46631H8.67383C8.94043 5.46631 9.11182 5.61865 9.17529 5.85986L9.4292 6.92627C9.61328 6.9834 9.78467 7.05322 9.93066 7.13574L10.8638 6.55811C11.0732 6.43115 11.3081 6.47559 11.4858 6.64062L12.1079 7.25C12.292 7.42773 12.292 7.6626 12.165 7.88477L11.6128 8.80518C11.6763 8.94482 11.7524 9.10986 11.8159 9.30029L12.8506 9.56055C13.1045 9.61768 13.2505 9.80176 13.2505 10.0557V10.9126C13.2505 11.1729 13.1045 11.3506 12.8506 11.4077L11.8032 11.6616C11.7524 11.833 11.6763 11.998 11.6001 12.1567L12.165 13.0581C12.2983 13.2739 12.2666 13.5278 12.0952 13.7056L11.4858 14.3213C11.3081 14.499 11.0605 14.5181 10.8511 14.3911L9.93066 13.8198C9.77832 13.9087 9.60693 13.9722 9.4292 14.0356L9.17529 15.083C9.11182 15.3242 8.94043 15.4766 8.67383 15.4766H7.81055ZM8.24219 12.0615C9.12451 12.0615 9.8418 11.3506 9.8418 10.4619C9.8418 9.57959 9.12451 8.86865 8.24219 8.86865C7.35986 8.86865 6.64258 9.57959 6.64258 10.4619C6.64258 11.3506 7.35986 12.0615 8.24219 12.0615ZM16.1006 19.3804C15.8721 19.3804 15.7134 19.2471 15.6626 19.0439L15.4468 18.1362C15.2944 18.0728 15.1421 18.022 15.0088 17.9458L14.2153 18.4409C14.0376 18.5552 13.8281 18.5425 13.6694 18.3838L13.1616 17.8696C13.0093 17.7109 12.9775 17.4888 13.0981 17.311L13.5869 16.5239C13.5171 16.3906 13.46 16.2446 13.4155 16.0986L12.5015 15.8828C12.2856 15.8384 12.1587 15.6797 12.1587 15.4512V14.7339C12.1587 14.5054 12.2856 14.3467 12.5015 14.2959L13.4028 14.0801C13.46 13.915 13.5171 13.769 13.5742 13.6484L13.0981 12.8486C12.9839 12.6582 12.9902 12.4614 13.1553 12.3027L13.6694 11.7949C13.8281 11.6426 14.0312 11.6172 14.2026 11.7188L15.0024 12.2139C15.1357 12.1377 15.2944 12.0869 15.4468 12.0298L15.6626 11.1157C15.7134 10.9126 15.8721 10.7729 16.1006 10.7729H16.8242C17.0591 10.7729 17.2178 10.9126 17.2622 11.1157L17.4717 12.0425C17.6367 12.0869 17.7891 12.1567 17.916 12.2202L18.7158 11.7188C18.8936 11.6108 19.0967 11.6489 19.2554 11.7949L19.7759 12.3027C19.9409 12.4614 19.9473 12.6582 19.8267 12.8486L19.3442 13.6484C19.4077 13.769 19.4648 13.915 19.522 14.0801L20.4297 14.2959C20.6392 14.3467 20.7598 14.5054 20.7598 14.7339V15.4512C20.7598 15.6797 20.6392 15.8384 20.4297 15.8828L19.5156 16.0986C19.4648 16.2446 19.4077 16.3906 19.3379 16.5239L19.8267 17.311C19.9473 17.4888 19.9219 17.7109 19.7632 17.8696L19.2554 18.3838C19.0967 18.5425 18.8872 18.5552 18.7095 18.4409L17.916 17.9458C17.7827 18.022 17.6367 18.0728 17.4717 18.1362L17.2622 19.0439C17.2178 19.2471 17.0591 19.3804 16.8242 19.3804H16.1006ZM16.4624 16.3398C17.167 16.3398 17.7319 15.7749 17.7319 15.0703C17.7319 14.3721 17.167 13.8008 16.4624 13.8008C15.7642 13.8008 15.1929 14.3721 15.1929 15.0703C15.1929 15.7749 15.7642 16.3398 16.4624 16.3398Z" fill="#FF5B00"/>
</svg>
