<svg width="16" height="16" viewBox="0 0 16 16" fill="none" xmlns="http://www.w3.org/2000/svg">
    <g clip-path="url(#clip0)">
        <path d="M8 10C9.10457 10 10 9.10457 10 8C10 6.89543 9.10457 6 8 6C6.89543 6 6 6.89543 6 8C6 9.10457 6.89543 10 8 10Z" stroke="#FF5B00" stroke-width="1.5" stroke-linecap="round" stroke-linejoin="round"/>
        <path d="M12.9337 9.99935C12.8449 10.2004 12.8184 10.4235 12.8577 10.6397C12.8969 10.856 13 11.0556 13.1537 11.2127L13.1937 11.2527C13.3176 11.3765 13.416 11.5236 13.4831 11.6854C13.5502 11.8473 13.5847 12.0208 13.5847 12.196C13.5847 12.3712 13.5502 12.5447 13.4831 12.7066C13.416 12.8685 13.3176 13.0155 13.1937 13.1393C13.0698 13.2633 12.9228 13.3617 12.7609 13.4288C12.599 13.4959 12.4255 13.5304 12.2503 13.5304C12.0751 13.5304 11.9016 13.4959 11.7397 13.4288C11.5779 13.3617 11.4308 13.2633 11.307 13.1393L11.267 13.0993C11.1099 12.9457 10.9103 12.8426 10.6941 12.8033C10.4778 12.7641 10.2547 12.7906 10.0537 12.8793C9.85648 12.9639 9.68831 13.1042 9.56986 13.283C9.45141 13.4619 9.38785 13.6715 9.38699 13.886V13.9993C9.38699 14.353 9.24652 14.6921 8.99647 14.9422C8.74642 15.1922 8.40728 15.3327 8.05366 15.3327C7.70004 15.3327 7.3609 15.1922 7.11085 14.9422C6.8608 14.6921 6.72033 14.353 6.72033 13.9993V13.9393C6.71516 13.7187 6.64374 13.5047 6.51533 13.3251C6.38693 13.1456 6.20748 13.0089 6.00033 12.9327C5.79925 12.8439 5.5762 12.8175 5.35993 12.8567C5.14367 12.8959 4.94411 12.999 4.78699 13.1527L4.74699 13.1927C4.62316 13.3167 4.47611 13.415 4.31425 13.4821C4.15238 13.5492 3.97888 13.5837 3.80366 13.5837C3.62844 13.5837 3.45494 13.5492 3.29307 13.4821C3.13121 13.415 2.98416 13.3167 2.86033 13.1927C2.73636 13.0689 2.63801 12.9218 2.57091 12.7599C2.50381 12.5981 2.46928 12.4246 2.46928 12.2493C2.46928 12.0741 2.50381 11.9006 2.57091 11.7388C2.63801 11.5769 2.73636 11.4298 2.86033 11.306L2.90033 11.266C3.05402 11.1089 3.15712 10.9093 3.19633 10.6931C3.23554 10.4768 3.20907 10.2538 3.12033 10.0527C3.03582 9.8555 2.8955 9.68734 2.71664 9.56889C2.53778 9.45044 2.32818 9.38687 2.11366 9.38602H2.00033C1.6467 9.38602 1.30757 9.24554 1.05752 8.99549C0.807468 8.74544 0.666992 8.4063 0.666992 8.05268C0.666992 7.69906 0.807468 7.35992 1.05752 7.10987C1.30757 6.85983 1.6467 6.71935 2.00033 6.71935H2.06033C2.28099 6.71419 2.495 6.64276 2.67453 6.51436C2.85405 6.38595 2.9908 6.20651 3.06699 5.99935C3.15574 5.79827 3.18221 5.57522 3.143 5.35896C3.10378 5.14269 3.00068 4.94314 2.84699 4.78602L2.80699 4.74602C2.68302 4.62218 2.58468 4.47513 2.51758 4.31327C2.45048 4.15141 2.41594 3.9779 2.41594 3.80268C2.41594 3.62746 2.45048 3.45396 2.51758 3.2921C2.58468 3.13023 2.68302 2.98318 2.80699 2.85935C2.93082 2.73538 3.07787 2.63704 3.23974 2.56994C3.4016 2.50284 3.5751 2.4683 3.75033 2.4683C3.92555 2.4683 4.09905 2.50284 4.26091 2.56994C4.42278 2.63704 4.56983 2.73538 4.69366 2.85935L4.73366 2.89935C4.89078 3.05304 5.09034 3.15614 5.3066 3.19535C5.52286 3.23456 5.74592 3.20809 5.94699 3.11935H6.00033C6.19751 3.03484 6.36567 2.89452 6.48412 2.71566C6.60257 2.5368 6.66614 2.32721 6.66699 2.11268V1.99935C6.66699 1.64573 6.80747 1.30659 7.05752 1.05654C7.30757 0.806491 7.6467 0.666016 8.00033 0.666016C8.35395 0.666016 8.69309 0.806491 8.94313 1.05654C9.19318 1.30659 9.33366 1.64573 9.33366 1.99935V2.05935C9.33451 2.27387 9.39808 2.48347 9.51653 2.66233C9.63498 2.84119 9.80315 2.98151 10.0003 3.06602C10.2014 3.15476 10.4245 3.18123 10.6407 3.14202C10.857 3.10281 11.0565 2.99971 11.2137 2.84602L11.2537 2.80602C11.3775 2.68205 11.5245 2.5837 11.6864 2.5166C11.8483 2.4495 12.0218 2.41497 12.197 2.41497C12.3722 2.41497 12.5457 2.4495 12.7076 2.5166C12.8694 2.5837 13.0165 2.68205 13.1403 2.80602C13.2643 2.92985 13.3626 3.0769 13.4297 3.23876C13.4968 3.40063 13.5314 3.57413 13.5314 3.74935C13.5314 3.92457 13.4968 4.09807 13.4297 4.25994C13.3626 4.4218 13.2643 4.56885 13.1403 4.69268L13.1003 4.73268C12.9466 4.8898 12.8435 5.08936 12.8043 5.30562C12.7651 5.52189 12.7916 5.74494 12.8803 5.94602V5.99935C12.9648 6.19653 13.1052 6.36469 13.284 6.48314C13.4629 6.60159 13.6725 6.66516 13.887 6.66602H14.0003C14.3539 6.66602 14.6931 6.80649 14.9431 7.05654C15.1932 7.30659 15.3337 7.64573 15.3337 7.99935C15.3337 8.35297 15.1932 8.69211 14.9431 8.94216C14.6931 9.19221 14.3539 9.33268 14.0003 9.33268H13.9403C13.7258 9.33354 13.5162 9.3971 13.3373 9.51555C13.1585 9.634 13.0182 9.80217 12.9337 9.99935V9.99935Z" stroke="#FF5B00" stroke-width="1.5" stroke-linecap="round" stroke-linejoin="round"/>
    </g>
    <defs>
        <clipPath id="clip0">
            <rect width="16" height="16" fill="white"/>
        </clipPath>
    </defs>
</svg>
