<svg width="24" height="22" viewBox="0 0 24 22" fill="none" xmlns="http://www.w3.org/2000/svg">
<g clip-path="url(#clip0_12680_257804)">
<path d="M1.83265 18.6425L2.88916 20.4674C3.1087 20.8516 3.42428 21.1534 3.79475 21.373L7.56801 14.8418H0.0214844C0.0214844 15.2671 0.131252 15.6925 0.350787 16.0767L1.83265 18.6425Z" fill="#0066DA"/>
<path d="M11.9999 7.15813L8.22661 0.626953C7.85615 0.846488 7.54057 1.14835 7.32103 1.53254L0.350787 13.607C0.13529 13.9829 0.0217713 14.4086 0.0214844 14.8419H7.56801L11.9999 7.15813Z" fill="#00AC47"/>
<path d="M20.2055 21.373C20.5759 21.1534 20.8915 20.8516 21.111 20.4674L21.5501 19.7127L23.6494 16.0767C23.8689 15.6925 23.9787 15.2671 23.9787 14.8418H16.4316L18.0375 17.9976L20.2055 21.373Z" fill="#EA4335"/>
<path d="M11.9998 7.15833L15.7731 0.627154C15.4026 0.407619 14.9773 0.297852 14.5382 0.297852H9.46145C9.02238 0.297852 8.59703 0.42134 8.22656 0.627154L11.9998 7.15833Z" fill="#00832D"/>
<path d="M16.4319 14.8418H7.56818L3.79492 21.373C4.16539 21.5925 4.59074 21.7023 5.02981 21.7023H18.9703C19.4094 21.7023 19.8347 21.5788 20.2052 21.373L16.4319 14.8418Z" fill="#2684FC"/>
<path d="M20.164 7.56975L16.6788 1.53254C16.4593 1.14835 16.1437 0.846488 15.7733 0.626953L12 7.15813L16.4319 14.8419H23.9647C23.9647 14.4165 23.8549 13.9912 23.6354 13.607L20.164 7.56975Z" fill="#FFBA00"/>
</g>
<defs>
<clipPath id="clip0_12680_257804">
<rect width="24" height="21.4314" fill="white" transform="translate(0 0.28418)"/>
</clipPath>
</defs>
</svg>
