<svg width="16" height="16" viewBox="0 0 16 16" fill="none" xmlns="http://www.w3.org/2000/svg">
<g clip-path="url(#clip0_14718_305881)">
<path d="M8.00016 14.6668C11.6821 14.6668 14.6668 11.6821 14.6668 8.00016C14.6668 4.31826 11.6821 1.3335 8.00016 1.3335C4.31826 1.3335 1.3335 4.31826 1.3335 8.00016C1.3335 11.6821 4.31826 14.6668 8.00016 14.6668Z" stroke="#FF5B00" stroke-width="1.5" stroke-linecap="round" stroke-linejoin="round"/>
<path d="M6.06006 5.99989C6.21679 5.55434 6.52616 5.17863 6.93336 4.93931C7.34056 4.7 7.81932 4.61252 8.28484 4.69237C8.75036 4.77222 9.1726 5.01424 9.47678 5.37558C9.78095 5.73691 9.94743 6.19424 9.94672 6.66656C9.94672 7.99989 7.94673 8.66656 7.94673 8.66656" stroke="#FF5B00" stroke-width="1.5" stroke-linecap="round" stroke-linejoin="round"/>
<path d="M8 11.3335H8.00667" stroke="#FF5B00" stroke-width="1.5" stroke-linecap="round" stroke-linejoin="round"/>
</g>
<defs>
<clipPath id="clip0_14718_305881">
<rect width="16" height="16" fill="white"/>
</clipPath>
</defs>
</svg>
