<svg width="120" height="120" viewBox="0 0 120 120" fill="none" xmlns="http://www.w3.org/2000/svg">
<path d="M57.6001 75.8C59.0223 74.7333 60.9778 74.7333 62.4001 75.8L74.4 84.8C77.4753 87.1064 75.8441 92 72 92H48C44.156 92 42.5248 87.1064 45.6 84.8L57.6001 75.8Z" fill="#AEAEB2"/>
<path d="M56.8956 57.1791C58.4963 59.1493 61.5037 59.1493 63.1045 57.1791L67.7006 51.5224C69.8245 48.9083 67.9643 45 64.5961 45H55.4039C52.0358 45 50.1755 48.9083 52.2994 51.5224L56.8956 57.1791Z" fill="#AEAEB2"/>
<path d="M56.5359 62C58.0755 59.3333 61.9245 59.3333 63.4641 62L77.3205 86C78.8601 88.6667 76.9356 92 73.8564 92H46.1436C43.0644 92 41.1399 88.6667 42.6795 86L56.5359 62Z" stroke="#C2C2C8" stroke-width="4" stroke-linecap="round" stroke-linejoin="round"/>
<path d="M56.5359 58C58.0755 60.6667 61.9245 60.6667 63.4641 58L77.3205 34C78.8601 31.3333 76.9356 28 73.8564 28H46.1436C43.0644 28 41.1399 31.3333 42.6795 34L56.5359 58Z" stroke="#C2C2C8" stroke-width="4" stroke-linecap="round" stroke-linejoin="round"/>
</svg>
