<svg width="24" height="24" viewBox="0 0 24 24" fill="none" xmlns="http://www.w3.org/2000/svg">
  <path d="M11.9912 15.1436C11.8154 15.1436 11.666 15.0908 11.4814 14.915L8.51074 12.041C8.37891 11.9092 8.30859 11.7686 8.30859 11.584C8.30859 11.2236 8.57227 10.9688 8.94141 10.9688C9.1084 10.9688 9.30176 11.0391 9.4248 11.1797L10.752 12.5947L11.3496 13.2188L11.2969 11.9004V2.63672C11.2969 2.26758 11.6133 1.95117 11.9912 1.95117C12.3691 1.95117 12.6943 2.26758 12.6943 2.63672V11.9004L12.6416 13.2188L13.2305 12.5947L14.5664 11.1797C14.6895 11.0391 14.8652 10.9688 15.041 10.9688C15.4014 10.9688 15.6826 11.2236 15.6826 11.584C15.6826 11.7686 15.6035 11.9092 15.4717 12.041L12.501 14.915C12.3252 15.0908 12.1758 15.1436 11.9912 15.1436ZM6.95508 20.9268C5.11816 20.9268 4.19531 20.0127 4.19531 18.2021V9.43066C4.19531 7.62012 5.11816 6.70605 6.95508 6.70605H9.40723V8.12109H6.97266C6.09375 8.12109 5.61035 8.5957 5.61035 9.50977V18.123C5.61035 19.0371 6.09375 19.5117 6.97266 19.5117H17.0098C17.8799 19.5117 18.3809 19.0371 18.3809 18.123V9.50977C18.3809 8.5957 17.8799 8.12109 17.0098 8.12109H14.584V6.70605H17.0361C18.873 6.70605 19.7959 7.62012 19.7959 9.43066V18.2021C19.7959 20.0127 18.873 20.9268 17.0361 20.9268H6.95508Z" fill="white"/>
</svg>
