<svg width="24" height="24" viewBox="0 0 24 24" fill="none" xmlns="http://www.w3.org/2000/svg">
<path d="M12 20.6191C7.05176 20.6191 3.03516 16.6025 3.03516 11.6543C3.03516 6.70605 7.05176 2.68945 12 2.68945C16.9482 2.68945 20.9648 6.70605 20.9648 11.6543C20.9648 16.6025 16.9482 20.6191 12 20.6191ZM12 19.125C16.1309 19.125 19.4707 15.7852 19.4707 11.6543C19.4707 7.52344 16.1309 4.18359 12 4.18359C7.86914 4.18359 4.5293 7.52344 4.5293 11.6543C4.5293 15.7852 7.86914 19.125 12 19.125ZM11.9209 8.61328C11.2881 8.61328 10.7783 8.10352 10.7783 7.46191C10.7783 6.82031 11.2881 6.31055 11.9209 6.31055C12.5625 6.31055 13.0635 6.82031 13.0635 7.46191C13.0635 8.10352 12.5625 8.61328 11.9209 8.61328ZM10.4619 16.5762C10.1016 16.5762 9.82031 16.3125 9.82031 15.9521C9.82031 15.6094 10.1016 15.3369 10.4619 15.3369H11.5518V11.3115H10.6113C10.251 11.3115 9.96973 11.0479 9.96973 10.6875C9.96973 10.3447 10.251 10.0723 10.6113 10.0723H12.2637C12.7119 10.0723 12.9492 10.3887 12.9492 10.8633V15.3369H14.0391C14.3994 15.3369 14.6807 15.6094 14.6807 15.9521C14.6807 16.3125 14.3994 16.5762 14.0391 16.5762H10.4619Z" fill="#FF5B00"/>
</svg>
