<svg width="16" height="16" viewBox="0 0 16 16" fill="none" xmlns="http://www.w3.org/2000/svg">
<path d="M8 15.126C4.10352 15.126 0.938477 11.9609 0.938477 8.06445C0.938477 4.16797 4.10352 1.00293 8 1.00293C11.8965 1.00293 15.0615 4.16797 15.0615 8.06445C15.0615 11.9609 11.8965 15.126 8 15.126ZM7.95898 5.72656C8.49902 5.72656 8.92969 5.28906 8.92969 4.74902C8.92969 4.19531 8.49902 3.76465 7.95898 3.76465C7.41895 3.76465 6.98145 4.19531 6.98145 4.74902C6.98145 5.28906 7.41895 5.72656 7.95898 5.72656ZM6.74219 12.002H9.62695C9.94824 12.002 10.2012 11.7695 10.2012 11.4414C10.2012 11.1406 9.94824 10.8945 9.62695 10.8945H8.84082V7.53809C8.84082 7.10742 8.62207 6.82715 8.21875 6.82715H6.87207C6.55078 6.82715 6.30469 7.07324 6.30469 7.37402C6.30469 7.70215 6.55078 7.93457 6.87207 7.93457H7.58984V10.8945H6.74219C6.4209 10.8945 6.1748 11.1406 6.1748 11.4414C6.1748 11.7695 6.4209 12.002 6.74219 12.002Z" fill="#AEAEB2"/>
</svg>
