<svg width="20" height="20" viewBox="0 0 20 20" fill="none" xmlns="http://www.w3.org/2000/svg">
<path fill-rule="evenodd" clip-rule="evenodd" d="M10 16C6.68629 16 4 13.3137 4 10C4 6.68629 6.68629 4 10 4C13.3137 4 16 6.68629 16 10C16 13.3137 13.3137 16 10 16ZM9.86364 7.81818C9.487 7.81818 9.18182 7.513 9.18182 7.13636C9.18182 6.75973 9.487 6.45455 9.86364 6.45455C10.2403 6.45455 10.5455 6.75973 10.5455 7.13636C10.5455 7.513 10.2403 7.81818 9.86364 7.81818ZM8.90909 13V13.2727H11.0909V13H10.5455V8.90909V8.63636H9.45455H8.90909V8.90909H9.45455V13H8.90909Z" fill="#AEAEB2"/>
</svg>
