<svg width="32" height="32" viewBox="0 0 32 32" fill="none" xmlns="http://www.w3.org/2000/svg">
<path d="M15.0977 30.8125L13.1875 29.1484C12.8242 28.8438 12.6953 28.3633 12.6953 27.9414V16.9375C9.83594 15.6602 8.04297 12.8359 8.04297 9.68359C8.04297 5.27734 11.582 1.75 15.9883 1.75C20.3945 1.75 23.9453 5.28906 23.9453 9.68359C23.9453 12.7891 22.1523 15.4258 18.9766 17.0078L21.3086 19.3516C21.8125 19.8672 21.8242 20.6523 21.332 21.1445L18.7656 23.6992L20.4883 25.4219C20.9922 25.9258 21.0156 26.6992 20.5 27.2148L16.8906 30.8359C16.375 31.3398 15.6367 31.2812 15.0977 30.8125ZM15.9883 28.75L18.4141 26.3008L16.832 24.7422V22.6328L19.2344 20.2656L16.9844 18.0156V15.4844C19.9141 14.8281 21.8359 12.4492 21.8359 9.68359C21.8359 6.44922 19.2344 3.84766 15.9883 3.84766C12.7422 3.84766 10.1289 6.46094 10.1289 9.68359C10.1289 12.4844 12.0391 14.8281 14.7227 15.4141V27.4844L15.9883 28.75ZM15.9883 9.37891C14.9453 9.37891 14.1016 8.52344 14.1016 7.46875C14.1016 6.42578 14.9336 5.58203 15.9883 5.58203C17.043 5.58203 17.8984 6.42578 17.8984 7.46875C17.8984 8.52344 17.043 9.37891 15.9883 9.37891Z" fill="#FF5B00"/>
</svg>
