<svg width="70" height="64" viewBox="0 0 70 64" fill="none" xmlns="http://www.w3.org/2000/svg">
<path d="M31.9259 17.4545H26.2782C21.4582 17.4545 17.5509 21.3619 17.5509 26.1818V26.1818" stroke="#DDDDDD" stroke-width="4"/>
<path d="M37.676 46.5455H43.3238C48.1437 46.5455 52.051 42.6381 52.051 37.8182V37.8182" stroke="#DDDDDD" stroke-width="4"/>
<mask id="path-3-inside-1_19702_342368" fill="white">
<path fill-rule="evenodd" clip-rule="evenodd" d="M52.051 34.9091C42.5241 34.9091 34.801 27.0944 34.801 17.4545C34.801 7.81467 42.5241 0 52.051 0C61.5779 0 69.301 7.81467 69.301 17.4545C69.301 27.0944 61.5779 34.9091 52.051 34.9091ZM52.051 24.7273C48.0815 24.7273 44.8635 21.4712 44.8635 17.4545C44.8635 13.4379 48.0815 10.1818 52.051 10.1818C56.0206 10.1818 59.2385 13.4379 59.2385 17.4545C59.2385 21.4712 56.0206 24.7273 52.051 24.7273Z"/>
</mask>
<path fill-rule="evenodd" clip-rule="evenodd" d="M52.051 34.9091C42.5241 34.9091 34.801 27.0944 34.801 17.4545C34.801 7.81467 42.5241 0 52.051 0C61.5779 0 69.301 7.81467 69.301 17.4545C69.301 27.0944 61.5779 34.9091 52.051 34.9091ZM52.051 24.7273C48.0815 24.7273 44.8635 21.4712 44.8635 17.4545C44.8635 13.4379 48.0815 10.1818 52.051 10.1818C56.0206 10.1818 59.2385 13.4379 59.2385 17.4545C59.2385 21.4712 56.0206 24.7273 52.051 24.7273Z" fill="#1373E4"/>
<path d="M34.901 17.4545C34.901 27.0403 42.5805 34.8091 52.051 34.8091V35.0091C42.4678 35.0091 34.701 27.1485 34.701 17.4545H34.901ZM52.051 0.1C42.5805 0.1 34.901 7.86878 34.901 17.4545H34.701C34.701 7.76055 42.4678 -0.1 52.051 -0.1V0.1ZM69.201 17.4545C69.201 7.86878 61.5216 0.1 52.051 0.1V-0.1C61.6343 -0.1 69.401 7.76055 69.401 17.4545H69.201ZM52.051 34.8091C61.5216 34.8091 69.201 27.0403 69.201 17.4545H69.401C69.401 27.1485 61.6343 35.0091 52.051 35.0091V34.8091ZM44.9635 17.4545C44.9635 21.417 48.1378 24.6273 52.051 24.6273V24.8273C48.0251 24.8273 44.7635 21.5253 44.7635 17.4545H44.9635ZM52.051 10.2818C48.1378 10.2818 44.9635 13.492 44.9635 17.4545H44.7635C44.7635 13.3838 48.0251 10.0818 52.051 10.0818V10.2818ZM59.1385 17.4545C59.1385 13.492 55.9642 10.2818 52.051 10.2818V10.0818C56.0769 10.0818 59.3385 13.3838 59.3385 17.4545H59.1385ZM52.051 24.6273C55.9642 24.6273 59.1385 21.417 59.1385 17.4545H59.3385C59.3385 21.5253 56.0769 24.8273 52.051 24.8273V24.6273Z" fill="black" mask="url(#path-3-inside-1_19702_342368)"/>
<path fill-rule="evenodd" clip-rule="evenodd" d="M22.8009 29.0909C29.4283 29.0909 34.8009 34.4635 34.8009 41.0909V52C34.8009 58.6274 29.4283 64 22.8009 64H12.3009C5.67349 64 0.300903 58.6274 0.300903 52V41.0909C0.300903 34.4635 5.67349 29.0909 12.3009 29.0909H22.8009ZM27.364 46.1898C27.5581 46.3862 27.5581 46.7047 27.364 46.9011L17.9023 56.475C17.7082 56.6714 17.3935 56.6714 17.1994 56.475L7.73765 46.9011C7.54354 46.7047 7.54354 46.3862 7.73765 46.1898L17.1994 36.6159C17.3935 36.4195 17.7082 36.4195 17.9023 36.6159L27.364 46.1898Z" fill="#FF5B00"/>
</svg>
