<svg width="48" height="48" viewBox="0 0 48 48" fill="none" xmlns="http://www.w3.org/2000/svg">
<path d="M24 48C37.2548 48 48 37.2548 48 24C48 10.7452 37.2548 0 24 0C10.7452 0 0 10.7452 0 24C0 37.2548 10.7452 48 24 48Z" fill="white"/>
<path fill-rule="evenodd" clip-rule="evenodd" d="M24 0C10.7452 0 0 10.7452 0 24C0 37.2548 10.7452 48 24 48C37.2548 48 48 37.2548 48 24C48 10.7452 37.2548 0 24 0ZM15.7893 22.7138C15.7893 23.8593 16.7179 24.7879 17.8634 24.7879H30.111C31.2706 24.7879 32.2107 23.8479 32.2107 22.6882C32.2107 21.7466 32.8722 20.9635 33.6557 20.4413C34.6312 19.7911 35.25 18.8322 35.25 17.7635C35.25 15.7823 33.1633 14.2063 30.5323 14.2063C29.4652 14.2063 28.3711 13.8327 27.5229 13.1853C26.5527 12.4447 25.3374 11.9999 24 11.9999C22.6626 11.9999 21.4473 12.4447 20.4771 13.1853C19.6289 13.8327 18.5348 14.2063 17.4677 14.2063C14.8821 14.2063 12.75 15.8273 12.75 17.7635C12.7818 18.8675 13.3922 19.8388 14.3631 20.4919C15.1349 21.0111 15.7893 21.7837 15.7893 22.7138ZM15.6078 27.3546C15.6078 32.1276 19.3276 36 23.9093 36C28.4909 36 32.2107 32.1276 32.2107 27.3546C32.2107 27.1745 32.1993 26.9943 32.188 26.8142C32.1692 26.5161 31.9231 26.2739 31.6244 26.2739H16.7838C16.1637 26.2739 15.6078 26.7344 15.6078 27.3546Z" fill="#007AFF"/>
</svg>
