<?xml version="1.0" encoding="UTF-8" standalone="no"?>
<svg
   width="12"
   height="13"
   viewBox="0 0 12 13"
   fill="none"
   version="1.1"
   id="svg145"
   sodipodi:docname="lb-earn-source.svg"
   inkscape:version="1.2.2 (b0a8486, 2022-12-01)"
   xmlns:inkscape="http://www.inkscape.org/namespaces/inkscape"
   xmlns:sodipodi="http://sodipodi.sourceforge.net/DTD/sodipodi-0.dtd"
   xmlns="http://www.w3.org/2000/svg"
   xmlns:svg="http://www.w3.org/2000/svg">
  <sodipodi:namedview
     id="namedview147"
     pagecolor="#ffffff"
     bordercolor="#666666"
     borderopacity="1.0"
     inkscape:showpageshadow="2"
     inkscape:pageopacity="0.0"
     inkscape:pagecheckerboard="0"
     inkscape:deskcolor="#d1d1d1"
     showgrid="false"
     inkscape:zoom="18.153846"
     inkscape:cx="5.9766949"
     inkscape:cy="6.5"
     inkscape:window-width="1309"
     inkscape:window-height="456"
     inkscape:window-x="0"
     inkscape:window-y="25"
     inkscape:window-maximized="0"
     inkscape:current-layer="svg145" />
  <g
     clip-path="url(#clip0_17266_13047)"
     id="g136">
    <path
       d="M6 13.5C2.12083 13.5 -1 10.3792 -1 6.5C-1 2.62083 2.12083 -0.5 6 -0.5C9.87917 -0.5 13 2.62083 13 6.5C13 10.3792 9.87917 13.5 6 13.5Z"
       fill="#1373E4"
       id="path132" />
    <path
       fill-rule="evenodd"
       clip-rule="evenodd"
       d="M4.46586 6.697C4.17948 6.697 3.94733 6.46485 3.94733 6.17847C3.94733 5.94594 3.78373 5.75279 3.59079 5.623C3.34806 5.45972 3.19544 5.21688 3.1875 4.9409C3.1875 4.45685 3.72051 4.05159 4.36694 4.05159C4.6337 4.05159 4.90723 3.95819 5.11928 3.79634C5.36183 3.6112 5.66564 3.5 6 3.5C6.33436 3.5 6.63817 3.6112 6.88072 3.79634C7.09277 3.95819 7.3663 4.05159 7.63306 4.05159C8.29083 4.05159 8.8125 4.44559 8.8125 4.9409C8.8125 5.20806 8.65779 5.44779 8.41393 5.61033C8.21805 5.74089 8.05267 5.93666 8.05267 6.17207C8.05267 6.46198 7.81765 6.697 7.52774 6.697H4.46586ZM5.97731 9.5C4.8319 9.5 3.90196 8.53189 3.90196 7.33865C3.90196 7.24859 3.9133 7.15854 3.92464 7.06848C3.92464 7.06848 3.92465 7.06848 3.92465 7.06848H7.9061C7.98078 7.06848 8.0423 7.12903 8.047 7.20356C8.04983 7.24859 8.05267 7.29362 8.05267 7.33865C8.05267 8.53189 7.12273 9.5 5.97731 9.5Z"
       fill="#F0F1F3"
       id="path134" />
  </g>
  <rect
     x="0.25"
     y="0.75"
     width="11.5"
     height="11.5"
     rx="3.75"
     stroke="#E4E4E4"
     stroke-width="0.5"
     id="rect138" />
  <defs
     id="defs143">
    <clipPath
       id="clip0_17266_13047">
      <rect
         y="0.5"
         width="12"
         height="12"
         rx="4"
         fill="white"
         id="rect140" />
    </clipPath>
  </defs>
</svg>
