<svg width="16" height="16" viewBox="0 0 16 16" fill="none" xmlns="http://www.w3.org/2000/svg">
<path fill-rule="evenodd" clip-rule="evenodd" d="M3.90895 8.52533C3.14528 8.52533 2.52621 7.90626 2.52621 7.14259V7.14259C2.52621 6.5225 2.08995 6.00744 1.57543 5.66133C0.928166 5.22593 0.521184 4.57835 0.5 3.8424C0.5 2.55159 1.92137 1.47092 3.64516 1.47092V1.47092C4.35652 1.47092 5.08595 1.22184 5.65141 0.790228C6.29821 0.296525 7.10837 0 8 0C8.89163 0 9.70179 0.296525 10.3486 0.790228C10.9141 1.22184 11.6435 1.47092 12.3548 1.47092V1.47092C14.1089 1.47092 15.5 2.52158 15.5 3.8424C15.5 4.55482 15.0874 5.1941 14.4372 5.62755C13.9148 5.97572 13.4738 6.49777 13.4738 7.12552V7.12552C13.4738 7.89861 12.8471 8.52533 12.074 8.52533H3.90895ZM7.93922 15.9997C4.88479 15.9997 2.40495 13.4181 2.40495 10.2361C2.40495 9.99593 2.43519 9.75579 2.46543 9.51564V9.51564C2.46543 9.51563 2.46544 9.51563 2.46544 9.51563H13.0827C13.2818 9.51563 13.4459 9.67709 13.4584 9.87585V9.87585C13.4659 9.99593 13.4735 10.116 13.4735 10.2361C13.4735 13.4181 10.9937 15.9997 7.93922 15.9997Z" fill="#F0F1F3"/>
</svg>
