<svg width="40" height="40" viewBox="0 0 40 40" stroke="currentColor" fill="none" xmlns="http://www.w3.org/2000/svg">
<path d="M31.6662 18.334H8.33284C6.4919 18.334 4.99951 19.8264 4.99951 21.6673V33.334C4.99951 35.1749 6.4919 36.6673 8.33284 36.6673H31.6662C33.5071 36.6673 34.9995 35.1749 34.9995 33.334V21.6673C34.9995 19.8264 33.5071 18.334 31.6662 18.334Z" stroke-width="2.55469" stroke-linecap="round" stroke-linejoin="round"/>
<path d="M11.6665 18.334V11.6673C11.6665 9.45718 12.5445 7.33756 14.1073 5.77476C15.6701 4.21196 17.7897 3.33398 19.9998 3.33398C22.21 3.33398 24.3296 4.21196 25.8924 5.77476C27.4552 7.33756 28.3332 9.45718 28.3332 11.6673V18.334" stroke-width="2.55469" stroke-linecap="round" stroke-linejoin="round"/>
</svg>
