<svg width="28" height="28" viewBox="0 0 28 28" fill="none" xmlns="http://www.w3.org/2000/svg">
<path fill-rule="evenodd" clip-rule="evenodd" d="M12.5068 5.35714C12.5068 4.88836 12.8868 4.5 13.3639 4.5H14.9354C15.3837 4.5 15.7925 4.90878 15.7925 5.35714V22.6429C15.7925 23.12 15.4042 23.5 14.9354 23.5H13.3639C12.8665 23.5 12.5068 23.1403 12.5068 22.6429V5.35714ZM13.3639 3C12.0381 3 11.0068 4.08036 11.0068 5.35714V22.6429C11.0068 23.9688 12.0381 25 13.3639 25H14.9354C16.2122 25 17.2925 23.9688 17.2925 22.6429V5.35714C17.2925 4.08036 16.2122 3 14.9354 3H13.3639ZM5.35714 12.3537C4.03125 12.3537 3 13.4341 3 14.7109V22.568C3 23.8939 4.03125 24.9252 5.35714 24.9252H6.92857C8.20536 24.9252 9.28571 23.8939 9.28571 22.568V14.7109C9.28571 13.4341 8.20536 12.3537 6.92857 12.3537H5.35714ZM25 8.42517C25 7.14838 23.9196 6.06803 22.6429 6.06803H21.0714C19.7455 6.06803 18.7143 7.14838 18.7143 8.42517V22.568C18.7143 23.8939 19.7455 24.9252 21.0714 24.9252H22.6429C23.9196 24.9252 25 23.8939 25 22.568V8.42517Z" fill="#FF5B00"/>
</svg>
