<svg width="24" height="24" viewBox="0 0 24 24" fill="none" xmlns="http://www.w3.org/2000/svg">
<path d="M19.1016 19.2656C18.1641 19.2656 17.5156 18.6172 17.5156 17.6797V5.61719C17.5156 4.67188 18.1641 4.02344 19.1016 4.02344C20.0547 4.02344 20.6953 4.67188 20.6953 5.61719V17.6797C20.6953 18.6172 20.0547 19.2656 19.1016 19.2656ZM9.32031 15.4141V7.9375C11.3359 7.71875 14.2734 7.04688 16.4453 5.98438V17.3594C14.2969 16.3047 11.5312 15.6562 9.32031 15.4141ZM6.57031 15.4062C4.4375 15.4062 3.29688 14.2891 3.29688 12.2422V11.1016C3.29688 9.04688 4.4375 7.9375 6.57031 7.9375H8.25V15.4062H6.57031ZM9.67969 20.6953C8.77344 20.6953 8.28906 20.1875 7.89844 19.3359L6.58594 16.4688C6.83594 16.4688 7.07812 16.4844 7.21875 16.4844C9.19531 16.5391 10.0781 16.6094 10.6719 16.7109L11.1094 18.8125C11.3594 20.0156 10.6484 20.6953 9.67969 20.6953Z" fill="#FF5B00"/>
</svg>
