<svg width="24" height="24" viewBox="0 0 24 24" fill="none" xmlns="http://www.w3.org/2000/svg">
<path fill-rule="evenodd" clip-rule="evenodd" d="M6.5247 5.21935L3.6323 6.84632C3.39615 6.97916 3.25 7.22904 3.25 7.5V16.5C3.25 16.771 3.39615 17.0208 3.6323 17.1537L11.6229 21.6484C11.7316 21.7118 11.8577 21.7486 11.9922 21.75L12 21.75H12.0001C12.1393 21.75 12.2697 21.7121 12.3814 21.646L19.7159 17.5203L18.5647 16.4468L12.7501 19.7176V12.4076L13.7155 11.9249L12.6228 10.906L12 11.2174L5.07589 7.75532L7.67587 6.29283L6.5247 5.21935ZM14.0546 10.1901L18.9241 7.75532L12 3.86051L9.04776 5.52115L7.89658 4.44766L11.6323 2.34632C11.8606 2.21789 12.1394 2.21789 12.3677 2.34632L20.3677 6.84632C20.6039 6.97916 20.75 7.22904 20.75 7.5V16.4337L19.25 15.0349V9.15762L15.1472 11.209L14.0546 10.1901ZM11.2501 19.7177V12.4077L4.75 9.15762V16.0614L11.2501 19.7177Z" fill="#FF5B00"/>
<line x1="2.05934" y1="1.94703" x2="21.947" y2="19.9407" stroke="#FF5B00" stroke-width="1.5" stroke-linecap="round"/>
</svg>
