<svg width="160" height="40" viewBox="0 0 160 40" fill="none" xmlns="http://www.w3.org/2000/svg">
<g clip-path="url(#clip0_8734_42060)">
<path d="M140.59 28.3206L135.363 16.3429H138.863L142.433 24.9331L146.558 16.3429H150L141.865 32.8412H138.365L140.59 28.3206ZM127.863 25.8407C128.172 25.7705 128.47 25.6597 128.75 25.5112C129.02 25.3677 129.271 25.191 129.497 24.9851C129.723 24.7788 129.918 24.5413 130.077 24.2799C130.243 24.0052 130.371 23.7097 130.459 23.4012C130.554 23.0645 130.601 22.7162 130.598 22.3664C130.601 22.0129 130.555 21.6606 130.459 21.3201C130.371 21.0116 130.243 20.7161 130.077 20.4414C129.917 20.1789 129.722 19.9397 129.497 19.7304C129.274 19.5228 129.022 19.3476 128.75 19.2101C128.468 19.0688 128.171 18.962 127.863 18.8922C127.54 18.8183 127.21 18.7815 126.878 18.7824C126.549 18.7812 126.22 18.8181 125.899 18.8922C125.595 18.9621 125.302 19.0688 125.024 19.2101C124.753 19.3495 124.501 19.5245 124.277 19.7304C124.049 19.9385 123.852 20.1779 123.691 20.4414C123.526 20.7155 123.399 21.0112 123.315 21.3201C123.223 21.6613 123.178 22.0133 123.182 22.3664C123.179 22.7158 123.224 23.0639 123.315 23.4012C123.399 23.7101 123.526 24.0058 123.691 24.2799C123.851 24.5423 124.048 24.78 124.277 24.9851C124.504 25.1893 124.755 25.3658 125.024 25.5112C125.3 25.6596 125.594 25.7705 125.899 25.8407C126.22 25.9149 126.549 25.9518 126.878 25.9505C127.21 25.9516 127.54 25.9147 127.863 25.8407V25.8407ZM124.335 28.523C123.798 28.3868 123.282 28.1807 122.799 27.9102C121.859 27.3827 121.083 26.6066 120.557 25.6673C120.286 25.1816 120.079 24.6628 119.942 24.1238C119.657 22.9657 119.657 21.7557 119.942 20.5976C120.078 20.0602 120.285 19.5432 120.557 19.0599C121.085 18.1239 121.861 17.3502 122.799 16.8227C123.282 16.5522 123.798 16.3462 124.335 16.2099C124.908 16.0648 125.498 15.9929 126.09 15.9961C126.41 15.9953 126.729 16.0146 127.046 16.0539C127.338 16.0899 127.627 16.1479 127.91 16.2273C128.172 16.3016 128.429 16.3923 128.68 16.499C128.915 16.5987 129.142 16.7166 129.358 16.8516C129.562 16.9787 129.752 17.1259 129.926 17.2909C130.089 17.4452 130.24 17.6113 130.378 17.7881V16.3429H133.704V28.39H130.378V26.9448C130.165 27.211 129.922 27.4515 129.654 27.6616C129.357 27.8942 129.032 28.0884 128.686 28.2397C128.302 28.4081 127.899 28.5323 127.487 28.6097C127.026 28.6966 126.559 28.7392 126.09 28.7369C125.498 28.74 124.908 28.6681 124.335 28.523V28.523ZM112.26 19.3951C112.737 19.4038 113.212 19.3494 113.674 19.2333C114.034 19.1425 114.37 18.9749 114.659 18.7419C114.92 18.5249 115.119 18.244 115.238 17.9268C115.368 17.5674 115.431 17.1873 115.424 16.8053C115.431 16.4252 115.368 16.047 115.238 15.6896C115.119 15.3758 114.919 15.0988 114.659 14.8861C114.369 14.6566 114.033 14.4911 113.674 14.4005C113.212 14.2845 112.737 14.2301 112.26 14.2387H108.992V19.3951L112.26 19.3951ZM105.55 11.3945H112.585C113.689 11.3945 114.647 11.5294 115.459 11.7992C116.27 12.069 116.938 12.4428 117.463 12.9207C117.986 13.3945 118.389 13.9847 118.64 14.6433C118.903 15.3376 119.034 16.0746 119.028 16.8169C119.036 17.5574 118.904 18.2929 118.64 18.9847C118.385 19.6378 117.982 20.2234 117.463 20.6958C116.938 21.1776 116.27 21.5534 115.459 21.823C114.647 22.093 113.689 22.2279 112.585 22.2277H108.992V28.39H105.55V11.3945ZM90.7711 16.3429H94.0738V17.7881C94.2776 17.5076 94.5194 17.2566 94.7923 17.0423C95.0811 16.8163 95.3963 16.6261 95.731 16.4758C96.0998 16.3113 96.4869 16.191 96.8841 16.1174C97.3253 16.0346 97.7735 15.994 98.2225 15.996C98.9217 15.986 99.6169 16.1036 100.274 16.3429C100.859 16.558 101.389 16.8995 101.827 17.3429C102.266 17.8025 102.598 18.3533 102.8 18.9558C103.033 19.6486 103.146 20.3757 103.136 21.1062V28.39H99.8333V21.9618C99.8413 21.4919 99.7748 21.0236 99.6363 20.5744C99.5218 20.2035 99.3303 19.8608 99.0743 19.5685C98.8282 19.2971 98.5201 19.0888 98.1762 18.9616C97.7863 18.8209 97.3739 18.7523 96.9594 18.7592C96.543 18.7527 96.1288 18.8212 95.7368 18.9616C95.3906 19.0878 95.0804 19.2961 94.8329 19.5685C94.5769 19.8608 94.3854 20.2035 94.2708 20.5744C94.1324 21.0236 94.0659 21.4919 94.0738 21.9618V28.39H90.7711V16.3429ZM82.6438 25.806C82.9591 25.73 83.2644 25.6174 83.5535 25.4707C83.8286 25.3304 84.0806 25.1491 84.3009 24.9331C84.5191 24.7199 84.7081 24.4789 84.863 24.2163C85.0209 23.9458 85.138 23.6536 85.2106 23.3491C85.2895 23.0197 85.3284 22.682 85.3265 22.3433C85.3286 22.0065 85.2897 21.6707 85.2106 21.3432C85.0645 20.7397 84.749 20.1902 84.3009 19.7593C84.0777 19.5451 83.8262 19.3623 83.5535 19.2159C83.2668 19.0624 82.9608 18.9477 82.6438 18.8748C82.2998 18.796 81.9479 18.7572 81.595 18.7592C81.246 18.7576 80.8979 18.7964 80.5578 18.8748C80.2424 18.947 79.9383 19.0618 79.6539 19.2159C79.3836 19.3633 79.1342 19.5461 78.9123 19.7593C78.6937 19.9692 78.5081 20.2109 78.3618 20.4761C78.2123 20.7486 78.0956 21.0377 78.0141 21.3375C77.9266 21.6655 77.8837 22.0038 77.8867 22.3433C77.8847 22.6827 77.9276 23.0209 78.0141 23.3492C78.0935 23.6515 78.2102 23.9428 78.3618 24.2163C78.5099 24.4803 78.6953 24.7217 78.9123 24.9331C79.1312 25.1482 79.3812 25.3294 79.6539 25.4707C79.9407 25.6181 80.2442 25.7307 80.5578 25.806C80.8973 25.8883 81.2456 25.9291 81.595 25.9274C81.9482 25.9295 82.3004 25.8887 82.6438 25.806V25.806ZM79.6481 28.5172C79.0522 28.3788 78.4746 28.1712 77.9272 27.8986C77.4123 27.6425 76.9347 27.3178 76.5076 26.9332C76.0937 26.5596 75.7348 26.1295 75.4415 25.6557C75.1442 25.1734 74.916 24.6519 74.7635 24.1065C74.4468 22.9523 74.4468 21.7344 74.7635 20.5802C74.9153 20.0363 75.1436 19.5167 75.4415 19.0367C75.7369 18.5644 76.0956 18.1346 76.5076 17.7592C76.9336 17.3716 77.4113 17.0448 77.9272 16.788C78.4747 16.5156 79.0522 16.308 79.6481 16.1695C80.9372 15.8766 82.2759 15.8766 83.565 16.1695C84.1576 16.3067 84.7314 16.5144 85.2744 16.788C85.788 17.0486 86.2652 17.3751 86.694 17.7592C87.1124 18.1332 87.477 18.5631 87.7775 19.0367C88.0787 19.5157 88.309 20.0355 88.4612 20.5802C88.778 21.7344 88.778 22.9523 88.4612 24.1065C88.3084 24.6527 88.0781 25.1744 87.7775 25.6557C87.4791 26.1308 87.1142 26.561 86.694 26.9332C86.2641 27.3143 85.787 27.6387 85.2744 27.8986C84.7332 28.1718 84.1614 28.3794 83.5708 28.5172C82.2797 28.8101 80.9392 28.8101 79.6481 28.5172V28.5172ZM66.7603 25.806C67.0756 25.73 67.3809 25.6175 67.67 25.4707C67.9451 25.3304 68.1972 25.1491 68.4175 24.9331C68.6357 24.7199 68.8247 24.4789 68.9796 24.2163C69.1375 23.9459 69.2547 23.6537 69.3272 23.3491C69.406 23.0197 69.4449 22.682 69.4431 22.3433C69.4451 22.0065 69.4062 21.6707 69.3272 21.3432C69.1811 20.7397 68.8655 20.1902 68.4175 19.7593C68.1942 19.5451 67.9428 19.3623 67.67 19.2159C67.3833 19.0624 67.0774 18.9477 66.7603 18.8748C66.4164 18.796 66.0645 18.7572 65.7116 18.7592C65.3625 18.7577 65.0145 18.7965 64.6744 18.8748C64.359 18.947 64.0549 19.0618 63.7705 19.2159C63.5002 19.3634 63.2508 19.5461 63.0288 19.7593C62.8102 19.9692 62.6247 20.2109 62.4784 20.4761C62.329 20.7486 62.2123 21.0377 62.1307 21.3374C62.0432 21.6655 62.0003 22.0038 62.0032 22.3433C62.0013 22.6827 62.0441 23.0209 62.1307 23.3491C62.2101 23.6514 62.3269 23.9427 62.4784 24.2163C62.6265 24.4803 62.8119 24.7217 63.0288 24.9331C63.2478 25.1481 63.4978 25.3293 63.7705 25.4707C64.0573 25.6181 64.3608 25.7307 64.6744 25.806C65.0139 25.8883 65.3622 25.929 65.7116 25.9274C66.0648 25.9295 66.417 25.8887 66.7603 25.806V25.806ZM63.7647 28.5172C63.1688 28.3788 62.5912 28.1713 62.0438 27.8987C61.5289 27.6426 61.0514 27.3178 60.6242 26.9333C60.2103 26.5596 59.8514 26.1296 59.5581 25.6558C59.2607 25.1734 59.0326 24.652 58.8801 24.1065C58.5634 22.9523 58.5634 21.7344 58.8801 20.5802C59.0319 20.0364 59.2602 19.5168 59.5581 19.0368C59.8535 18.5645 60.2122 18.1347 60.6242 17.7593C61.0502 17.3717 61.5279 17.0449 62.0438 16.7881C62.5913 16.5156 63.1688 16.308 63.7647 16.1695C65.0538 15.8766 66.3925 15.8766 67.6816 16.1695C68.2742 16.3068 68.848 16.5144 69.3909 16.7881C69.9046 17.0486 70.3818 17.3751 70.8105 17.7593C71.229 18.1333 71.5936 18.5632 71.8941 19.0368C72.1954 19.5157 72.4256 20.0356 72.5778 20.5802C72.8945 21.7344 72.8945 22.9523 72.5778 24.1065C72.425 24.6528 72.1948 25.1745 71.8941 25.6558C71.5957 26.1309 71.2309 26.5611 70.8105 26.9333C70.3807 27.3144 69.9036 27.6388 69.3909 27.8987C68.8498 28.1718 68.2779 28.3795 67.6874 28.5172C66.3963 28.8101 65.0558 28.8101 63.7647 28.5172V28.5172ZM37.6973 11.3945H41.1738L47.1188 20.4588L53.0869 11.3945H56.5635V28.39H53.1216V16.736L48.1849 24.251H46.0758L41.1391 16.736V28.39H37.6973V11.3945Z" fill="#FF5B00"/>
<path d="M29.7592 14.4369C30.4468 14.4369 31.1189 14.2335 31.6906 13.8524C32.2624 13.4713 32.708 12.9296 32.9711 12.2958C33.2342 11.662 33.3031 10.9646 33.1689 10.2918C33.0348 9.61899 32.7037 9.00096 32.2175 8.51589C31.7313 8.03082 31.1118 7.70048 30.4374 7.56665C29.763 7.43282 29.064 7.5015 28.4287 7.76402C27.7935 8.02654 27.2505 8.4711 26.8685 9.04149C26.4865 9.61188 26.2826 10.2825 26.2826 10.9685C26.2826 11.424 26.3725 11.875 26.5472 12.2958C26.7219 12.7166 26.978 13.099 27.3008 13.4211C27.6236 13.7432 28.0069 13.9987 28.4287 14.173C28.8505 14.3473 29.3026 14.437 29.7592 14.4369V14.4369ZM19.0991 30.058C17.4231 30.058 15.7847 29.5622 14.3912 28.6332C12.9976 27.7042 11.9114 26.3838 11.2701 24.839C10.6287 23.2941 10.4609 21.5942 10.7878 19.9542C11.1148 18.3143 11.9219 16.8078 13.107 15.6255C14.2922 14.4431 15.8021 13.6379 17.4459 13.3117C19.0898 12.9855 20.7936 13.1529 22.3421 13.7928C23.8905 14.4327 25.214 15.5163 26.1451 16.9066C27.0763 18.297 27.5733 19.9315 27.5733 21.6037C27.5733 22.7139 27.3541 23.8133 26.9283 24.839C26.5024 25.8648 25.8782 26.7968 25.0913 27.5819C24.3044 28.3669 23.3702 28.9897 22.3421 29.4145C21.3139 29.8394 20.212 30.058 19.0991 30.058" fill="#7D00FF"/>
</g>
<defs>
<clipPath id="clip0_8734_42060">
<rect width="139.375" height="25.3409" fill="white" transform="translate(10.625 7.5)"/>
</clipPath>
</defs>
</svg>
