<svg width="16" height="16" viewBox="0 0 16 16" fill="none" xmlns="http://www.w3.org/2000/svg">
<path d="M8.00016 8.66671C8.36835 8.66671 8.66683 8.36823 8.66683 8.00004C8.66683 7.63185 8.36835 7.33337 8.00016 7.33337C7.63197 7.33337 7.3335 7.63185 7.3335 8.00004C7.3335 8.36823 7.63197 8.66671 8.00016 8.66671Z" stroke="#FF5B00" stroke-linecap="round" stroke-linejoin="round"/>
<path d="M12.6667 8.66671C13.0349 8.66671 13.3333 8.36823 13.3333 8.00004C13.3333 7.63185 13.0349 7.33337 12.6667 7.33337C12.2985 7.33337 12 7.63185 12 8.00004C12 8.36823 12.2985 8.66671 12.6667 8.66671Z" stroke="#FF5B00" stroke-linecap="round" stroke-linejoin="round"/>
<path d="M3.33317 8.66671C3.70136 8.66671 3.99984 8.36823 3.99984 8.00004C3.99984 7.63185 3.70136 7.33337 3.33317 7.33337C2.96498 7.33337 2.6665 7.63185 2.6665 8.00004C2.6665 8.36823 2.96498 8.66671 3.33317 8.66671Z" stroke="#FF5B00" stroke-linecap="round" stroke-linejoin="round"/>
</svg>
