<svg width="31" height="32" viewBox="0 0 31 32" fill="none" xmlns="http://www.w3.org/2000/svg">
<path d="M0.0743872 5.12124C0.0333043 2.89449 1.71336 1.05898 3.82689 1.0215L16.5832 0.795333C18.6967 0.75786 20.4434 2.53262 20.4845 4.75937L20.8564 24.9188C20.8975 27.1455 19.2175 28.981 17.1039 29.0185L4.3476 29.2447C2.23407 29.2822 0.487406 27.5074 0.446323 25.2807L0.0743872 5.12124Z" fill="#C2C2C8"/>
<path fill-rule="evenodd" clip-rule="evenodd" d="M18.68 30.7059L21.7772 31.3729C23.6668 31.7799 25.544 30.5814 25.9699 28.6959L30.6453 7.99715C31.0712 6.11166 29.8846 4.25324 27.995 3.84624L21.9582 2.54605C22.2294 3.22111 22.3836 3.95369 22.3976 4.71206L22.7701 24.9034C22.8191 27.556 21.142 29.9541 18.68 30.7059ZM11.4283 29.144L8.65957 28.5477C6.76991 28.1407 5.5833 26.2823 6.0092 24.3968L10.6847 3.69807C11.1106 1.81258 12.9877 0.614015 14.8774 1.02101L19.3893 1.99277C20.0497 2.70452 20.4644 3.67286 20.4842 4.74599L20.8567 24.9373C20.8978 27.1676 19.2178 29.0059 17.1043 29.0434L11.4283 29.144Z" fill="#C2C2C8"/>
</svg>
