<svg width="17" height="17" viewBox="0 0 17 17" fill="none" xmlns="http://www.w3.org/2000/svg">
<path d="M4.11398 4.13743L5.45137 5.52541C4.47467 5.93339 3.59929 6.56219 2.82523 7.41181C2.76849 7.4749 2.70162 7.50854 2.62462 7.51275C2.54762 7.51275 2.48075 7.4812 2.42401 7.41811L1.57903 6.54747C1.52634 6.48859 1.5 6.4276 1.5 6.36451C1.5 6.30142 1.52026 6.24254 1.56079 6.18786C1.88501 5.78829 2.26393 5.41395 2.69757 5.06485C3.13121 4.71576 3.60334 4.40661 4.11398 4.13743ZM8.23556 4.93236L6.58815 3.22262C6.93262 3.15112 7.26089 3.09855 7.57295 3.0649C7.88501 3.03125 8.19301 3.01443 8.49696 3.01443C9.43718 3.01443 10.345 3.15322 11.2204 3.43082C12.0957 3.70842 12.8941 4.08696 13.6155 4.56644C14.3409 5.04593 14.9488 5.5864 15.4392 6.18786C15.4797 6.24254 15.5 6.30142 15.5 6.36451C15.5 6.4276 15.4716 6.48859 15.4149 6.54747L14.576 7.41811C14.5193 7.4812 14.4524 7.51485 14.3754 7.51906C14.3024 7.51906 14.2376 7.48962 14.1809 7.43073C13.4352 6.6358 12.5881 6.02172 11.6398 5.5885C10.6955 5.15528 9.654 4.92816 8.5152 4.90713C8.47062 4.90713 8.42401 4.90923 8.37538 4.91344C8.32675 4.91764 8.28014 4.92395 8.23556 4.93236ZM6.82523 6.93863L8.42401 8.60421C8.02685 8.60841 7.63982 8.67361 7.26292 8.79979C6.88602 8.92176 6.53546 9.09 6.21125 9.30451C5.88703 9.51481 5.60334 9.75876 5.36018 10.0364C5.29939 10.1037 5.2305 10.1415 5.1535 10.1499C5.08055 10.1541 5.01165 10.1247 4.94681 10.0616L4.00456 9.09C3.95187 9.03532 3.92351 8.97644 3.91945 8.91335C3.9154 8.85026 3.93566 8.79138 3.98024 8.7367C4.30446 8.33713 4.70973 7.97962 5.19605 7.66417C5.68642 7.34872 6.22948 7.10687 6.82523 6.93863ZM12.6185 9.48116L10.1809 6.95125C10.7563 7.09846 11.2974 7.33399 11.804 7.65786C12.3105 7.98172 12.7158 8.34133 13.0198 8.7367C13.0603 8.79138 13.0785 8.85026 13.0745 8.91335C13.0745 8.97644 13.0481 9.03532 12.9954 9.09L12.6185 9.48116ZM8.50304 10.3833C8.93262 10.3833 9.32371 10.4822 9.67629 10.6799C10.0289 10.8776 10.3045 11.1089 10.503 11.3739C10.5436 11.4285 10.5598 11.4895 10.5517 11.5568C10.5436 11.6199 10.5152 11.6746 10.4666 11.7209L8.99544 13.1972C8.87386 13.3149 8.77862 13.3949 8.70973 13.4369C8.64083 13.479 8.57194 13.5 8.50304 13.5C8.4382 13.5 8.37133 13.479 8.30243 13.4369C8.23354 13.3949 8.1383 13.3149 8.01672 13.1972L6.53951 11.7209C6.49493 11.6746 6.46657 11.6241 6.45441 11.5694C6.44225 11.5148 6.45238 11.4622 6.4848 11.4117C6.67933 11.1383 6.95491 10.8986 7.31155 10.6925C7.67224 10.4864 8.0694 10.3833 8.50304 10.3833ZM13.6216 12.9385L3.39666 2.32674C3.3075 2.23842 3.26292 2.12485 3.26292 1.98606C3.26292 1.84726 3.3075 1.73159 3.39666 1.63906C3.48582 1.54232 3.59524 1.49606 3.72492 1.50026C3.85866 1.50026 3.97214 1.54653 4.06535 1.63906L14.2842 12.2508C14.3774 12.3433 14.422 12.4569 14.4179 12.5915C14.4179 12.7261 14.3734 12.8418 14.2842 12.9385C14.195 13.031 14.0856 13.0773 13.9559 13.0773C13.8262 13.0773 13.7148 13.031 13.6216 12.9385Z" fill="#FF5B00"/>
</svg>
