<svg width="120" height="120" viewBox="0 0 120 120" fill="none" xmlns="http://www.w3.org/2000/svg">
    <path d="M73.7502 36.25H48.7502C47.0926 36.25 45.5029 36.9085 44.3308 38.0806C43.1587 39.2527 42.5002 40.8424 42.5002 42.5V92.5C42.5002 94.1576 43.1587 95.7473 44.3308 96.9194C45.5029 98.0915 47.0926 98.75 48.7502 98.75H86.2502C87.9078 98.75 89.4976 98.0915 90.6697 96.9194C91.8418 95.7473 92.5002 94.1576 92.5002 92.5V55L73.7502 36.25Z" fill="#F4F4F4" stroke="#C2C2C8" stroke-width="4" stroke-linecap="round" stroke-linejoin="round"/>
    <path d="M73.7498 36.25V55H92.4998" fill="#C2C2C8"/>
    <path d="M73.7498 36.25V55H92.4998" stroke="#AEAEB2" stroke-width="4" stroke-linecap="round" stroke-linejoin="round"/>
    <path d="M79.9998 70.625H54.9998" stroke="#AEAEB2" stroke-width="4" stroke-linecap="round" stroke-linejoin="round"/>
    <path d="M79.9998 83.125H54.9998" stroke="#AEAEB2" stroke-width="4" stroke-linecap="round" stroke-linejoin="round"/>
    <path d="M61.2498 58.125H58.1248H54.9998" stroke="#AEAEB2" stroke-width="4" stroke-linecap="round" stroke-linejoin="round"/>
    <path d="M45.3308 39.0806L47.4521 41.2019L47.4521 41.2019L45.3308 39.0806ZM40.5002 56C40.5002 57.6569 41.8434 59 43.5002 59C45.1571 59 46.5002 57.6569 46.5002 56H40.5002ZM49.7502 34.25C47.297 34.25 44.9442 35.2246 43.2095 36.9593L47.4521 41.2019C48.0616 40.5924 48.8883 40.25 49.7502 40.25V34.25ZM43.2095 36.9593C41.4748 38.694 40.5002 41.0467 40.5002 43.5H46.5002C46.5002 42.638 46.8427 41.8114 47.4521 41.2019L43.2095 36.9593ZM40.5002 43.5V56H46.5002V43.5H40.5002ZM49.7502 40.25H61.5V34.25H49.7502V40.25Z" fill="#C2C2C8"/>
    <g clip-path="url(#clip0)">
        <path fill-rule="evenodd" clip-rule="evenodd" d="M89.7071 96.8404C89.6456 96.8822 89.7457 96.9708 89.5098 96.9224C88.7566 96.7909 87.055 95.1199 87.9168 93.7062C88.1501 93.3298 88.1727 93.323 88.3308 93.6072C88.1469 93.2361 88.2309 93.3531 88.7966 93.351C90.203 93.36 90.6007 95.8664 90.4545 96.4535C90.4349 96.5538 90.367 96.574 90.3024 96.5222C90.1342 96.6193 90.3053 96.7814 90.1144 96.8852C89.9235 96.989 89.7912 96.7918 89.7071 96.8404ZM88.8864 93.9864L89.2835 94.4125L89.7159 95.041L88.8864 93.9864ZM88.9243 94.6135L89.1377 94.6685C89.1086 94.6535 88.947 94.6068 88.9243 94.6135ZM89.3375 95.1767C89.3601 95.17 89.5152 95.195 89.5217 95.2167C89.4604 95.093 89.4442 95.1215 89.3375 95.1767ZM88.2749 94.333L88.4132 94.8831L88.7453 95.5886L88.2749 94.333ZM88.7787 94.7039L88.7332 94.8829C88.7268 94.8611 88.7561 94.7106 88.7787 94.7039ZM89.0398 95.3358C88.9168 95.4195 88.904 95.3761 88.9717 95.5215C88.9652 95.4998 89.0462 95.3575 89.0398 95.3358ZM89.4394 96.3523C89.6527 96.4073 88.922 96.4346 89.0323 96.1419C89.1069 95.9779 88.8647 95.7423 88.7903 95.7407C88.6805 95.7023 89.0101 95.8175 88.9804 96.2991C88.9542 96.5433 89.4003 96.553 89.7821 96.3453C90.2771 96.1041 90.3616 95.7244 90.1743 95.5908C89.9288 95.4271 89.9481 95.4923 89.858 95.188C89.8515 95.1663 89.8158 95.2951 89.8642 95.3753C89.9093 95.5275 89.9739 95.5793 90.0611 95.6243C90.3035 95.6944 90.1481 95.835 90.0735 95.9989C90.0411 96.0558 90.0314 96.106 89.9375 96.2047C89.9375 96.2047 90.1157 95.8919 89.9155 95.7148C89.8218 95.6479 89.6829 95.5945 89.4467 95.7118C89.272 95.7872 89.2298 95.8942 89.1812 95.9795C89.1455 96.1083 89.197 96.2822 89.4394 96.3523Z" fill="black"/>
        <path fill-rule="evenodd" clip-rule="evenodd" d="M87.2933 93.3473L87.316 93.3406C87.2642 93.3322 87.2094 93.2303 87.1965 93.1868C87.1481 93.1066 87.2387 93.0798 87.2873 92.9944C87.3261 92.9593 87.3748 92.874 87.3328 92.8155C87.2682 92.7637 87.3135 92.7503 87.3621 92.6649C87.4107 92.5796 87.3525 92.5496 87.3041 92.4693C87.2171 92.2587 87.1716 92.4376 87.0782 92.2053C87.0105 92.0598 86.9428 91.9144 86.8977 91.7623C86.8557 91.7038 86.7847 91.6302 86.7945 91.5801C86.7687 91.4931 86.8981 91.4311 86.9498 91.4395C87.0533 91.4561 87.0628 91.5715 87.1274 91.6233C87.1565 91.6383 87.2309 91.6399 87.2664 91.6767C87.2535 91.6332 87.2633 91.583 87.273 91.5329C87.2537 91.4677 87.1762 91.3724 87.2022 91.2938C87.2346 91.2369 87.364 91.1749 87.4286 91.2267C87.4641 91.2635 87.4963 91.3722 87.5318 91.4089C87.6222 91.5476 87.7125 91.6864 87.7964 91.8034C87.9578 92.0156 87.7898 91.9472 87.9221 92.1444C87.964 92.2029 87.9381 92.2815 88.0642 92.2915C88.145 92.3148 88.1774 92.2579 88.2031 92.3449C88.2224 92.4101 88.3032 92.4334 88.3711 92.4133C88.4681 92.4082 88.5458 92.3379 88.578 92.4466C88.6135 92.4834 88.6684 92.5853 88.6295 92.6205C88.7751 92.5301 89.2697 92.62 89.3762 92.7303C89.4053 92.7453 89.2821 92.9946 89.2821 92.9946C89.2433 93.0297 88.6615 92.8947 88.5776 92.7777C88.5485 92.7627 88.5485 92.7627 88.5421 92.741C88.5485 92.7627 88.5161 92.8196 88.4935 92.8263C88.4935 92.8263 88.4644 92.8113 88.4191 92.8247C88.3965 92.8314 88.3414 92.895 88.309 92.9518C88.2604 93.0372 88.2344 93.1158 88.2602 93.2027C88.2666 93.2245 88.2957 93.2395 88.2731 93.2462C88.2569 93.2746 88.1341 93.1928 88.105 93.1778C88.0888 93.2062 88.1275 93.3366 88.066 93.3785C88.0433 93.3852 88.0369 93.3634 88.0305 93.3417C87.9821 93.2615 87.8786 93.2448 87.7816 93.2499C87.7299 93.2416 87.6556 93.24 87.6167 93.2751C87.5714 93.2885 87.5779 93.3103 87.5843 93.332C87.5617 93.3387 87.51 93.3304 87.4809 93.3154C87.4873 93.3371 87.4873 93.3371 87.5002 93.3806C87.5131 93.424 87.5033 93.4742 87.4838 93.5746C87.4642 93.6749 87.4059 93.8104 87.3799 93.889C87.3377 93.9961 87.328 94.0463 87.3118 94.0747C87.2665 94.0881 87.231 94.0514 87.2019 94.0363C87.1728 94.0213 87.1502 94.028 87.1275 94.0347C87.0823 94.0481 87.0143 94.0682 87.0177 93.9963C87.0048 93.9529 87.0405 93.8241 87.0827 93.717C87.1022 93.6167 87.1282 93.538 87.1606 93.4812C87.193 93.4243 87.2545 93.3824 87.2933 93.3473Z" fill="black"/>
        <path fill-rule="evenodd" clip-rule="evenodd" d="M94.1386 95.1726C94.1095 95.1576 93.6955 95.2566 94.3965 95.7109C95.0329 96.1134 95.6174 96.6732 95.9564 97.0693C96.1404 97.2748 96.2274 97.4855 96.2598 97.4286C96.3311 97.3366 95.7177 96.5962 95.4982 96.3539C95.4917 96.3322 95.5239 96.4408 95.4787 96.4543C95.4107 96.4744 95.5854 96.399 95.3852 96.2219C94.2711 95.2043 94.7102 95.6889 94.5872 95.7726L94.5745 95.5636L94.1386 95.1726Z" fill="black"/>
        <path fill-rule="evenodd" clip-rule="evenodd" d="M93.0948 94.7253C92.991 95.0398 93.589 95.1464 93.7117 95.2282C93.7699 95.2583 93.8409 95.3318 93.9315 95.305C93.9541 95.2983 94.0577 95.1493 94.074 95.1209C94.1743 95.0439 93.5024 94.6046 93.3019 94.5931C93.2502 94.5847 93.111 94.6969 93.0948 94.7253Z" fill="black"/>
        <path fill-rule="evenodd" clip-rule="evenodd" d="M93.092 94.4667C93.0274 94.4149 92.8756 94.318 92.7884 94.273C92.7302 94.2429 92.5686 94.1962 92.5071 94.2381L92.3873 94.4154C92.3677 94.5158 92.6068 94.6577 92.6876 94.6811C92.7167 94.6961 93.0139 94.8681 93.0301 94.8397C93.069 94.8045 93.0723 94.7326 93.082 94.6824C93.1209 94.6473 93.1888 94.6272 93.1695 94.562C93.1631 94.5402 93.1275 94.5035 93.092 94.4667Z" fill="black"/>
        <path fill-rule="evenodd" clip-rule="evenodd" d="M92.4652 94.1789C92.3877 94.0836 92.3715 94.1121 92.2778 94.0453C92.2197 94.0152 92.0938 93.8397 92.0033 93.8665C91.958 93.8799 91.9029 93.9435 91.8641 93.9787C91.809 94.0423 91.8155 94.064 91.8348 94.1292C91.9025 94.2746 91.9413 94.2395 92.0577 94.2996C92.1223 94.3514 92.2643 94.4985 92.3647 94.4214C92.3647 94.4214 92.5071 94.2374 92.5007 94.2157C92.5007 94.2157 92.4943 94.1939 92.4652 94.1789Z" fill="black"/>
        <path fill-rule="evenodd" clip-rule="evenodd" d="M91.9384 93.8148C91.8448 93.7479 91.5959 93.6561 91.4989 93.6612C91.4019 93.6663 91.3209 93.8085 91.2949 93.8872C91.2268 94.0728 91.5016 94.086 91.6277 94.0959L91.8055 94.1142C91.7895 93.9771 91.9739 93.8515 91.9675 93.8298C91.9675 93.8298 91.9675 93.8298 91.9384 93.8148Z" fill="black"/>
        <path fill-rule="evenodd" clip-rule="evenodd" d="M91.4119 93.6168C91.399 93.5733 91.2019 93.4898 91.1502 93.4815C91.092 93.4515 90.9304 93.4048 90.8625 93.4249C90.801 93.4667 90.7103 93.6591 90.7134 93.7528C90.7198 93.7745 91.1722 93.9715 91.2175 93.9581C91.2465 93.9731 91.2627 93.9447 91.2563 93.9229C91.2758 93.8226 91.2694 93.8008 91.3471 93.7305C91.3633 93.7021 91.441 93.6318 91.4119 93.6168Z" fill="black"/>
        <path fill-rule="evenodd" clip-rule="evenodd" d="M90.8334 93.4091C90.785 93.3288 90.4456 93.2639 90.3486 93.269C90.3259 93.2757 90.3259 93.2757 90.3033 93.2824C90.2256 93.3527 90.2061 93.453 90.2609 93.555C90.2674 93.5767 90.6971 93.7804 90.6842 93.737C90.6909 93.5931 90.8624 93.4241 90.8334 93.4091Z" fill="black"/>
        <path fill-rule="evenodd" clip-rule="evenodd" d="M90.09 93.2277C90.0318 93.1976 89.9736 93.1676 89.9122 93.2094C89.8216 93.2363 89.7923 93.3868 89.8505 93.4168C89.8795 93.4319 90.1284 93.5237 90.151 93.517C90.1801 93.532 90.2383 93.562 90.2318 93.5403C90.2061 93.4534 90.1641 93.3949 90.3033 93.2827C90.3195 93.2543 90.3195 93.2543 90.2904 93.2392C90.2613 93.2242 90.1352 93.2143 90.09 93.2277Z" fill="black"/>
        <path fill-rule="evenodd" clip-rule="evenodd" d="M89.8475 93.157C89.715 93.1253 89.5436 93.1288 89.4111 93.0971C89.3012 93.0588 89.0233 92.9519 89.0362 92.9954C89.0393 93.0891 89.0133 93.1677 88.9357 93.238C88.858 93.3083 89.5756 93.403 89.5982 93.3963C89.6273 93.4114 89.7922 93.3861 89.7922 93.3861C89.7922 93.3861 89.8701 93.1503 89.8475 93.157Z" fill="black"/>
        <path fill-rule="evenodd" clip-rule="evenodd" d="M88.4998 92.8472C88.3866 92.8807 88.257 93.1083 88.3345 93.2035C88.4055 93.2771 88.8388 93.2433 88.9293 93.2165C88.9682 93.1813 89.033 93.0676 89.0201 93.0241C88.9879 92.9154 88.8004 92.9473 88.7196 92.924C88.6161 92.9073 88.5677 92.8271 88.4998 92.8472Z" fill="black"/>
        <path fill-rule="evenodd" clip-rule="evenodd" d="M92.3661 93.4291C92.5115 93.5042 93.271 93.6575 93.4713 93.8346C93.5423 93.9081 93.5649 93.9014 93.5423 93.9081C93.4065 93.9484 93.2708 93.823 93.064 93.7898C92.6955 93.7098 92.2591 93.6499 92.062 93.5664C91.9974 93.5146 92.0331 93.3859 92.0655 93.329C92.0882 93.3223 92.3434 93.4358 92.3661 93.4291Z" fill="black"/>
        <path fill-rule="evenodd" clip-rule="evenodd" d="M92.0234 93.2701C91.9878 93.2333 91.9523 93.1966 91.878 93.195C91.8327 93.2084 91.6322 93.1968 91.6322 93.1968C91.5643 93.2169 91.4542 93.3441 91.5026 93.4244C91.5155 93.4678 91.5899 93.4694 91.6416 93.4778C91.7224 93.5011 91.8096 93.5462 91.8775 93.5261C91.9066 93.5411 92.0101 93.5577 92.0036 93.536C91.9941 93.4206 92.0491 93.357 92.0653 93.3286C92.0589 93.3069 92.0589 93.3069 92.0234 93.2701Z" fill="black"/>
        <path fill-rule="evenodd" clip-rule="evenodd" d="M91.2931 93.1319C91.264 93.1169 91.235 93.1019 91.1897 93.1153C91.1282 93.1571 91.0796 93.2425 91.0989 93.3077C91.1311 93.4163 91.4867 93.4529 91.4802 93.4311C91.4383 93.3726 91.5257 93.2522 91.6034 93.1819C91.6034 93.1819 91.3222 93.147 91.2931 93.1319Z" fill="black"/>
        <path fill-rule="evenodd" clip-rule="evenodd" d="M90.9858 93.0095C90.9341 93.0012 90.8533 92.9778 90.8145 93.013C90.753 93.0548 90.7206 93.1117 90.7172 93.1836C90.7075 93.2338 90.743 93.2705 90.7721 93.2856C90.8238 93.2939 91.008 93.3339 91.0533 93.3205C91.0533 93.3205 91.1279 93.1565 91.1441 93.1281C91.1603 93.0997 91.1603 93.0997 91.1603 93.0997C91.1603 93.0997 91.0149 93.0245 90.9858 93.0095Z" fill="black"/>
        <path fill-rule="evenodd" clip-rule="evenodd" d="M90.5139 92.9133C90.4622 92.905 90.4396 92.9117 90.4169 92.9184C90.3652 92.9101 90.2776 93.1961 90.3357 93.2261C90.3874 93.2345 90.6396 93.2543 90.6784 93.2192C90.6946 93.1907 90.6915 93.0971 90.779 92.9766C90.8178 92.9415 90.5366 92.9066 90.5139 92.9133Z" fill="black"/>
        <path fill-rule="evenodd" clip-rule="evenodd" d="M90.336 92.8941C90.2714 92.8423 90.0872 92.8023 90.0031 92.8509C89.9125 92.8777 89.8444 93.0634 89.909 93.1152C89.9445 93.1519 90.2612 93.2236 90.271 93.1734C90.3196 93.0881 90.3067 93.0446 90.3553 92.9593C90.3715 92.9309 90.3651 92.9091 90.336 92.8941Z" fill="black"/>
        <path fill-rule="evenodd" clip-rule="evenodd" d="M89.9222 92.8274C89.8803 92.7689 89.4665 92.7023 89.4179 92.7876C89.3855 92.8445 89.3434 92.9516 89.34 93.0235C89.34 93.0235 89.8475 93.1569 89.8508 93.085C89.8541 93.0131 89.9513 92.8424 89.9222 92.8274Z" fill="black"/>
        <path fill-rule="evenodd" clip-rule="evenodd" d="M88.4399 91.5647C88.469 91.5797 88.608 91.6331 88.7729 91.6079C88.7955 91.6012 88.5976 92.18 88.5878 92.2301C88.523 92.3439 88.303 92.4327 88.2708 92.324C88.2386 92.2154 88.3203 91.5765 88.4399 91.5647Z" fill="black"/>
        <path fill-rule="evenodd" clip-rule="evenodd" d="M88.5508 90.7754C88.5897 90.7402 88.7124 90.8221 88.8774 90.7969C88.9453 90.7768 88.9189 91.1865 88.9027 91.2149C88.8831 91.3153 88.8667 91.5093 88.7826 91.5578C88.6985 91.6064 88.5142 91.5664 88.4497 91.5146C88.4206 91.4996 88.4436 91.1618 88.4598 91.1333C88.4696 91.0831 88.5508 90.7754 88.5508 90.7754Z" fill="black"/>
        <path fill-rule="evenodd" clip-rule="evenodd" d="M88.6752 89.5325C88.8013 89.5424 88.798 89.6143 89.0179 89.5255C89.0858 89.5054 88.9587 90.3232 88.9489 90.3734C88.9456 90.4453 88.9485 90.7045 88.887 90.7464C88.8191 90.7665 88.6349 90.7265 88.5831 90.7182C88.4733 90.6798 88.5582 89.969 88.5713 89.8469C88.5811 89.7968 88.6235 89.5241 88.6752 89.5325Z" fill="black"/>
        <path fill-rule="evenodd" clip-rule="evenodd" d="M88.7441 88.8501C88.7667 88.8434 88.7958 88.8585 88.8475 88.8668C88.8992 88.8751 88.9671 88.855 88.9962 88.87C89.0415 88.8566 89.0415 88.8566 89.0479 88.8783C89.0575 88.9937 89.083 89.2462 89.0473 89.375C89.0116 89.5038 88.9694 89.6109 88.7723 89.5274C88.6624 89.489 88.64 89.3302 88.6531 89.2081C88.679 89.1295 88.7083 88.9789 88.7117 88.907C88.7279 88.8786 88.7214 88.8568 88.7441 88.8501Z" fill="black"/>
        <path fill-rule="evenodd" clip-rule="evenodd" d="M88.9035 88.1412C88.9197 88.1128 88.9359 88.0843 88.9586 88.0776C89.0394 88.101 89.0523 88.1444 89.1719 88.1326C89.201 88.1477 89.201 88.1477 89.1848 88.1761C89.1619 88.3484 89.11 88.5056 89.0871 88.6779C89.1 88.7213 89.0967 88.7933 89.0514 88.8067C88.9673 88.8552 88.7959 88.8587 88.7313 88.8069C88.6894 88.7484 88.7382 88.4975 88.7706 88.4407C88.7901 88.3403 88.8614 88.2483 88.9035 88.1412Z" fill="black"/>
        <path fill-rule="evenodd" clip-rule="evenodd" d="M89.1832 87.0901C89.196 87.1335 89.3803 87.1735 89.432 87.1818C89.5225 87.155 89.2562 88.085 89.1657 88.1118C89.1204 88.1253 89.0041 88.0651 88.975 88.0501C88.9104 87.9983 89.1476 87.0533 89.1832 87.0901Z" fill="black"/>
        <path fill-rule="evenodd" clip-rule="evenodd" d="M89.3876 86.3671C89.9181 86.1627 89.5193 87.061 89.4416 87.1313C89.4027 87.1665 89.2411 87.1198 89.2056 87.083C89.1765 87.068 89.3035 86.4157 89.3876 86.3671Z" fill="black"/>
        <path fill-rule="evenodd" clip-rule="evenodd" d="M90.5836 84.1689C90.4218 84.2877 89.5402 85.9674 89.4364 86.2819C89.4104 86.3605 89.556 86.2701 89.6109 86.372C89.6109 86.372 90.4118 84.5035 90.6578 84.3361C90.9943 84.1418 90.6613 84.0986 90.5836 84.1689Z" fill="black"/>
        <path fill-rule="evenodd" clip-rule="evenodd" d="M88.3171 91.4827C88.288 91.4677 88.1005 91.4996 87.9777 91.4177C87.9551 91.4244 87.9551 91.4244 87.9615 91.4462C87.9646 91.5398 87.942 91.5465 87.916 91.6252C87.8965 91.7255 87.9158 91.7907 87.8963 91.8911C87.8832 92.0131 87.9636 92.3676 88.1125 92.2053C88.1675 92.1417 88.2357 91.956 88.2616 91.8774C88.2876 91.7988 88.3753 91.5128 88.3171 91.4827Z" fill="black"/>
        <path fill-rule="evenodd" clip-rule="evenodd" d="M88.4315 90.6218C88.2957 90.662 88.0824 90.607 88.0597 90.6137C88.0371 90.6204 87.9037 91.2509 87.9876 91.3679C88.0587 91.4415 88.2365 91.4597 88.3206 91.4112C88.3659 91.3977 88.4378 90.809 88.4573 90.7087C88.4444 90.6652 88.4542 90.6151 88.4315 90.6218Z" fill="black"/>
        <path fill-rule="evenodd" clip-rule="evenodd" d="M88.4653 89.4058C88.3392 89.3958 88.3359 89.4678 88.155 89.3558C88.1323 89.3626 88.1323 89.3626 88.1161 89.391C88.0933 89.5633 88.064 89.7138 88.0638 89.8793C88.0635 90.0449 88.0374 90.2891 88.0436 90.4764C88.0565 90.5198 88.0693 90.5633 88.0984 90.5783C88.1339 90.6151 88.3117 90.6334 88.4185 90.5781C88.4638 90.5647 88.5914 89.4157 88.4653 89.4058Z" fill="black"/>
        <path fill-rule="evenodd" clip-rule="evenodd" d="M88.5052 88.7087C88.5052 88.7087 88.4599 88.7221 88.4082 88.7138C88.3564 88.7054 88.3047 88.6971 88.253 88.6888C88.2304 88.6955 88.2304 88.6955 88.2077 88.7022C88.2142 88.7239 88.198 88.7524 88.1882 88.8026C88.1946 88.8243 88.1849 88.8745 88.1751 88.9246C88.1653 88.9748 88.1329 89.0317 88.1167 89.0601C88.1036 89.1822 88.1325 89.3628 88.265 89.3945C88.3394 89.3961 88.4137 89.3977 88.4688 89.3341C88.54 89.2421 88.5402 89.0765 88.5307 88.9612C88.534 88.8893 88.5438 88.8391 88.5471 88.7672C88.5407 88.7454 88.5342 88.7237 88.5052 88.7087Z" fill="black"/>
        <path fill-rule="evenodd" clip-rule="evenodd" d="M88.4223 87.9299C88.3479 87.9283 88.3381 87.9785 88.2121 87.9685C88.1603 87.9602 88.1988 88.2562 88.189 88.3064C88.2083 88.3716 88.1595 88.6224 88.2176 88.6525C88.3049 88.6976 88.5635 88.7392 88.5701 88.5954C88.5734 88.5235 88.5865 88.4014 88.5608 88.3144C88.5479 88.271 88.474 87.9382 88.4223 87.9299Z" fill="black"/>
        <path fill-rule="evenodd" clip-rule="evenodd" d="M88.362 86.9781C88.3103 86.9698 88.168 86.9883 88.1227 87.0017C88.016 87.0569 88.141 87.8947 88.2282 87.9397C88.2573 87.9548 88.3931 87.9145 88.4093 87.8861C88.4772 87.866 88.4428 87.0014 88.362 86.9781Z" fill="black"/>
        <path fill-rule="evenodd" clip-rule="evenodd" d="M87.9879 86.2142C87.9264 86.2561 87.9552 86.4366 87.9745 86.5018C87.981 86.5236 88.0742 86.9215 88.1033 86.9365C88.1453 86.995 88.3037 86.9481 88.3426 86.9129C88.3814 86.8778 88.3399 86.4882 88.3368 86.3945C88.3468 86.1788 88.1723 86.0886 87.9879 86.2142Z" fill="black"/>
        <path fill-rule="evenodd" clip-rule="evenodd" d="M87.2148 83.937C87.3214 84.0473 87.6599 84.7745 87.7341 84.9417C87.8695 85.2326 87.9596 85.5368 88.0788 85.8562C88.1208 85.9147 88.266 86.1553 88.2078 86.1253C88.1561 86.117 88.0267 86.1789 88.004 86.1856C87.9814 86.1924 87.2759 84.2263 87.1241 84.1294C86.8204 83.9357 87.1502 83.8852 87.2148 83.937Z" fill="black"/>
        <path d="M89.4595 95.7549C89.3754 95.8034 89.3203 95.867 89.2943 95.9456C89.2393 96.0092 89.2424 96.1029 89.2908 96.1831C89.3392 96.2633 89.4038 96.3151 89.5008 96.31C89.5751 96.3117 89.6721 96.3066 89.7563 96.258C89.8178 96.2161 89.8954 96.1459 89.9278 96.089C89.9764 96.0036 89.9733 95.91 89.9249 95.8298C89.883 95.7713 89.7958 95.7262 89.715 95.7028C89.6406 95.7012 89.5436 95.7063 89.4595 95.7549ZM89.5205 96.0441C89.5367 96.0157 89.5529 95.9872 89.5756 95.9805C89.6209 95.9671 89.6435 95.9604 89.6888 95.947L89.6661 95.9537C89.6888 95.947 89.6952 95.9687 89.6952 95.9687C89.679 95.9972 89.6628 96.0256 89.6175 96.039C89.6013 96.0675 89.556 96.0809 89.527 96.0659L89.5043 96.0726L89.5205 96.0441Z" fill="black"/>
        <path fill-rule="evenodd" clip-rule="evenodd" d="M86.5515 99.24C86.5677 99.2116 86.872 98.9086 86.8774 99.7582C86.8959 100.486 87.0597 101.288 87.2014 101.766C87.2786 102.027 87.4336 102.218 87.3592 102.216C87.2622 102.221 86.9401 101.3 86.8499 100.996C86.8435 100.974 86.8919 101.054 86.9598 101.034C86.9987 100.999 86.8531 101.089 86.8049 100.844C86.5158 99.3688 86.6961 99.9774 86.8545 99.9304L86.6736 99.8185L86.5515 99.24Z" fill="black"/>
        <path fill-rule="evenodd" clip-rule="evenodd" d="M86.7438 98.1433C87.0605 98.215 86.8561 98.772 86.8495 98.9158C86.8235 98.9945 86.8719 99.0747 86.7716 99.1517C86.7716 99.1517 86.6002 99.1552 86.555 99.1686C86.4417 99.2021 86.4266 98.4028 86.5238 98.2321C86.5336 98.182 86.6921 98.135 86.7438 98.1433Z" fill="black"/>
        <path fill-rule="evenodd" clip-rule="evenodd" d="M86.5274 97.9947C86.5243 97.9011 86.5018 97.7422 86.5214 97.6419C86.5247 97.57 86.5604 97.4412 86.6445 97.3926L86.8676 97.3975C86.9484 97.4208 86.9351 97.7085 86.9318 97.7804C86.922 97.8305 86.9152 98.1399 86.8699 98.1533C86.8182 98.145 86.76 98.115 86.7083 98.1066C86.663 98.12 86.6015 98.1619 86.566 98.1251C86.5305 98.0884 86.5467 98.0599 86.5274 97.9947Z" fill="black"/>
        <path fill-rule="evenodd" clip-rule="evenodd" d="M86.6027 97.334C86.5641 97.2036 86.6093 97.1902 86.6062 97.0966C86.5869 97.0314 86.529 96.8357 86.584 96.7722C86.6229 96.737 86.7199 96.7319 86.7651 96.7185C86.8395 96.7201 86.8686 96.7351 86.9105 96.7936C86.9944 96.9106 86.9492 96.9241 86.9361 97.0461C86.9392 97.1398 86.9907 97.3137 86.8839 97.3689C86.8839 97.3689 86.6382 97.3708 86.6156 97.3775C86.6156 97.3775 86.6091 97.3558 86.6027 97.334Z" fill="black"/>
        <path fill-rule="evenodd" clip-rule="evenodd" d="M86.5811 96.6788C86.5779 96.5851 86.6203 96.3125 86.6754 96.2489C86.7466 96.1569 86.9244 96.1751 87.0052 96.1985C87.1959 96.2602 87.0598 96.466 86.995 96.5798C86.995 96.5798 86.9204 96.7437 86.914 96.722C86.7977 96.6619 86.6004 96.744 86.5939 96.7222C86.5713 96.7289 86.5875 96.7005 86.5811 96.6788Z" fill="black"/>
        <path fill-rule="evenodd" clip-rule="evenodd" d="M86.6949 96.1487C86.6593 96.1119 86.6984 95.9112 86.7082 95.8611C86.7406 95.8042 86.7699 95.6537 86.8314 95.6118C86.8928 95.5699 87.1223 95.5965 87.1869 95.6483C87.216 95.6633 87.1346 96.1367 87.0957 96.1718C87.0795 96.2003 87.0505 96.1852 87.0278 96.1919C86.9406 96.1468 86.9406 96.1468 86.8436 96.1519C86.7919 96.1436 86.7013 96.1704 86.6949 96.1487Z" fill="black"/>
        <path fill-rule="evenodd" clip-rule="evenodd" d="M86.8184 95.5682C86.7926 95.4813 86.9256 95.1819 86.9742 95.0965C86.9904 95.0681 86.9904 95.0681 87.013 95.0614C87.1036 95.0346 87.2134 95.0729 87.2683 95.1749C87.2747 95.1966 87.2321 95.6348 87.1804 95.6265C87.0577 95.5446 86.8248 95.59 86.8184 95.5682Z" fill="black"/>
        <path fill-rule="evenodd" clip-rule="evenodd" d="M87.0747 94.8534C87.078 94.7815 87.0877 94.7313 87.1492 94.6894C87.2334 94.6409 87.3497 94.701 87.3625 94.7444C87.3754 94.7879 87.304 95.0455 87.2878 95.0739C87.2942 95.0957 87.2844 95.1459 87.2844 95.1459C87.2134 95.0723 87.1714 95.0138 86.9903 95.0675C86.9903 95.0675 86.9839 95.0458 86.9774 95.024C86.971 95.0023 87.0358 94.8885 87.0747 94.8534Z" fill="black"/>
        <path fill-rule="evenodd" clip-rule="evenodd" d="M87.1525 94.6178C87.1883 94.489 87.2919 94.3401 87.3277 94.2113C87.3698 94.1042 87.4058 93.8099 87.4413 93.8466C87.535 93.9135 87.5867 93.9218 87.6837 93.9167C87.7969 93.8832 87.4922 94.5172 87.4759 94.5456L87.3723 94.6945C87.3723 94.6945 87.1299 94.6245 87.1525 94.6178Z" fill="black"/>
        <path fill-rule="evenodd" clip-rule="evenodd" d="M87.6069 93.3243C87.6845 93.254 87.9593 93.2672 87.9915 93.3759C88.0237 93.4845 87.7614 93.846 87.6934 93.8661C87.6546 93.9012 87.4994 93.8763 87.4639 93.8395C87.3929 93.766 87.5256 93.6321 87.5516 93.5535C87.6002 93.4681 87.5518 93.3879 87.6069 93.3243Z" fill="black"/>
        <path fill-rule="evenodd" clip-rule="evenodd" d="M86.0374 96.8389C85.9855 96.9961 85.7291 97.7104 85.7773 97.9562C85.7869 98.0716 85.7642 98.0783 85.7869 98.0716C85.9098 97.9879 85.881 97.8073 85.9653 97.5932C86.0918 97.272 86.2669 96.8655 86.306 96.6648C86.3029 96.5711 86.1413 96.5244 86.096 96.5379C86.0734 96.5446 86.031 96.8172 86.0374 96.8389Z" fill="black"/>
        <path fill-rule="evenodd" clip-rule="evenodd" d="M86.054 96.4799C86.0573 96.4079 86.0445 96.3645 86.0769 96.3076C86.1157 96.2724 86.2129 96.1018 86.2129 96.1018C86.2518 96.0666 86.4393 96.0347 86.4877 96.115C86.5006 96.1584 86.4682 96.2153 86.4584 96.2655C86.4325 96.3441 86.4065 96.4227 86.3805 96.5013C86.3643 96.5298 86.3157 96.6151 86.3093 96.5934C86.2156 96.5266 86.1186 96.5316 86.0895 96.5166C86.0895 96.5166 86.0604 96.5016 86.054 96.4799Z" fill="black"/>
        <path fill-rule="evenodd" clip-rule="evenodd" d="M86.3394 95.7808C86.3556 95.7523 86.3492 95.7306 86.388 95.6955C86.4495 95.6536 86.553 95.6703 86.5949 95.7288C86.666 95.8023 86.5168 96.1302 86.5104 96.1084C86.462 96.0282 86.3197 96.0467 86.2291 96.0735C86.2065 96.0802 86.3297 95.831 86.3394 95.7808Z" fill="black"/>
        <path fill-rule="evenodd" clip-rule="evenodd" d="M86.3982 95.4803C86.4079 95.4301 86.4339 95.3515 86.5018 95.3313C86.5633 95.2895 86.6377 95.2911 86.7023 95.3429C86.754 95.3512 86.7669 95.3947 86.7571 95.4449C86.7473 95.495 86.6792 95.6807 86.6339 95.6941C86.6339 95.6941 86.4497 95.6541 86.4044 95.6675C86.3818 95.6742 86.3818 95.6742 86.3818 95.6742C86.3753 95.6525 86.4046 95.502 86.3982 95.4803Z" fill="black"/>
        <path fill-rule="evenodd" clip-rule="evenodd" d="M86.5602 95.0293C86.5991 94.9942 86.6153 94.9657 86.6315 94.9373C86.6477 94.9088 86.9418 94.9872 86.9385 95.0591C86.9223 95.0876 86.7991 95.3368 86.7474 95.3285C86.7247 95.3352 86.6311 95.2684 86.4888 95.2869C86.4371 95.2786 86.544 95.0578 86.5602 95.0293Z" fill="black"/>
        <path fill-rule="evenodd" clip-rule="evenodd" d="M86.6642 94.8813C86.661 94.7877 86.713 94.6305 86.7907 94.5602C86.8586 94.54 87.059 94.5516 87.0621 94.6452C87.075 94.6887 86.9711 95.0032 86.913 94.9731C86.8322 94.9498 86.8031 94.9347 86.6997 94.9181C86.6706 94.9031 86.6479 94.9098 86.6642 94.8813Z" fill="black"/>
        <path fill-rule="evenodd" clip-rule="evenodd" d="M86.823 94.5029C86.7972 94.416 86.9626 94.0596 87.0369 94.0613C87.1339 94.0562 87.2374 94.0728 87.3019 94.1246C87.3019 94.1246 87.1461 94.5963 87.0944 94.588C87.0072 94.5429 86.8068 94.5314 86.823 94.5029Z" fill="black"/>
        <path fill-rule="evenodd" clip-rule="evenodd" d="M86.5309 92.6025C86.5373 92.6242 86.5016 92.753 86.3979 92.9019C86.3753 92.9086 86.9635 93.0653 87.0152 93.0737C87.164 93.0769 87.3484 92.9513 87.2774 92.8778C87.1935 92.7608 86.6021 92.5104 86.5309 92.6025Z" fill="black"/>
        <path fill-rule="evenodd" clip-rule="evenodd" d="M85.7879 92.2559C85.7426 92.2693 85.7586 92.4064 85.6258 92.5403C85.587 92.5755 85.9424 92.7775 85.9941 92.7859C86.0813 92.8309 86.2558 92.9211 86.3626 92.8658C86.4305 92.8457 86.4986 92.66 86.4955 92.5664C86.4891 92.5447 86.1983 92.3944 86.1401 92.3643C86.1111 92.3493 85.8105 92.2492 85.7879 92.2559Z" fill="black"/>
        <path fill-rule="evenodd" clip-rule="evenodd" d="M84.6603 91.6919C84.5955 91.8057 84.6828 91.8508 84.4757 91.983C84.4142 92.0249 85.18 92.3655 85.2317 92.3738C85.2963 92.4256 85.5063 92.5525 85.5904 92.5039C85.6583 92.4838 85.7103 92.3266 85.7362 92.248C85.7558 92.1476 85.0934 91.8237 84.9835 91.7853C84.9254 91.7553 84.6992 91.6568 84.6603 91.6919Z" fill="black"/>
        <path fill-rule="evenodd" clip-rule="evenodd" d="M84.0272 91.383C84.011 91.4114 84.0174 91.4331 83.9786 91.4683C83.9688 91.5185 83.9364 91.5754 83.8976 91.6105C83.8749 91.6172 83.8814 91.6389 83.904 91.6322C84.0041 91.7208 84.1979 91.8762 84.3078 91.9145C84.4403 91.9462 84.5728 91.9779 84.6119 91.7772C84.625 91.6551 84.4958 91.5515 84.3859 91.5131C84.3213 91.4613 84.1597 91.4146 84.1016 91.3846C84.0725 91.3696 84.0498 91.3763 84.0272 91.383Z" fill="black"/>
        <path fill-rule="evenodd" clip-rule="evenodd" d="M83.3387 91.1374C83.3096 91.1223 83.287 91.129 83.2643 91.1358C83.2384 91.2144 83.2739 91.2511 83.2026 91.3432C83.1864 91.3716 83.1864 91.3716 83.2155 91.3866C83.3835 91.4551 83.5451 91.5018 83.6905 91.5769C83.7423 91.5852 83.8069 91.637 83.8457 91.6019C83.9298 91.5533 84.0108 91.4111 83.9915 91.3459C83.9722 91.2807 83.7234 91.1889 83.6717 91.1806C83.5682 91.164 83.4421 91.154 83.3387 91.1374Z" fill="black"/>
        <path fill-rule="evenodd" clip-rule="evenodd" d="M82.2982 90.784C82.311 90.8274 82.2655 91.0064 82.2267 91.0416C82.1717 91.1052 83.0959 91.3988 83.1736 91.3285C83.2125 91.2933 83.2256 91.1712 83.2127 91.1278C83.216 91.0559 82.2626 90.7472 82.2982 90.784Z" fill="black"/>
        <path fill-rule="evenodd" clip-rule="evenodd" d="M81.5482 90.5797C81.1016 90.9012 82.0616 91.066 82.1974 91.0257C82.2427 91.0123 82.272 90.8618 82.2818 90.8116C82.2689 90.7682 81.6323 90.5312 81.5482 90.5797Z" fill="black"/>
        <path fill-rule="evenodd" clip-rule="evenodd" d="M79.0268 90.3812C79.2014 90.3059 81.1281 90.4917 81.4449 90.5634C81.5483 90.58 81.3801 90.6771 81.4285 90.7573C81.4285 90.7573 79.405 90.4111 79.1235 90.5417C78.7742 90.6925 78.9136 90.4148 79.0268 90.3812Z" fill="black"/>
        <path fill-rule="evenodd" clip-rule="evenodd" d="M86.5315 92.4381C86.5477 92.4097 86.6578 92.2825 86.658 92.1169C86.658 92.1169 86.6871 92.132 86.7097 92.1253C86.7743 92.1771 86.7969 92.1704 86.8551 92.2004C86.965 92.2388 87.0231 92.2688 87.0877 92.3206C87.2267 92.374 87.4753 92.6314 87.2651 92.67C87.1745 92.6968 86.9838 92.6351 86.903 92.6118C86.8223 92.5884 86.5346 92.5318 86.5315 92.4381Z" fill="black"/>
        <path fill-rule="evenodd" clip-rule="evenodd" d="M85.7368 92.0829C85.8533 91.9774 85.915 91.77 85.9377 91.7633C85.9377 91.7633 86.5678 91.9786 86.6129 92.1307C86.6322 92.1959 86.5577 92.3599 86.4735 92.4084C86.412 92.4503 85.866 92.1865 85.8014 92.1347C85.7497 92.1264 85.7206 92.1113 85.7368 92.0829Z" fill="black"/>
        <path fill-rule="evenodd" clip-rule="evenodd" d="M84.664 91.4543C84.7061 91.3473 84.7934 91.3924 84.7969 91.1549C84.7969 91.1549 84.7969 91.1549 84.8486 91.1632C84.9876 91.2166 85.133 91.2918 85.2784 91.3669C85.4302 91.4638 85.6628 91.584 85.8147 91.6809C85.8502 91.7177 85.8566 91.7394 85.863 91.7611C85.8824 91.8263 85.8078 91.9903 85.701 92.0455C85.6557 92.059 84.5927 91.5464 84.664 91.4543Z" fill="black"/>
        <path fill-rule="evenodd" clip-rule="evenodd" d="M84.0468 91.1169C84.0404 91.0952 84.0792 91.06 84.0954 91.0316C84.1278 90.9747 84.1376 90.9245 84.1538 90.8961C84.17 90.8676 84.17 90.8676 84.1926 90.8609C84.2217 90.876 84.2508 90.891 84.2799 90.906C84.3316 90.9143 84.3607 90.9294 84.4124 90.9377C84.4705 90.9678 84.5223 90.9761 84.5513 90.9911C84.6612 91.0295 84.8195 91.1481 84.7547 91.2619C84.7287 91.3405 84.6737 91.4041 84.5993 91.4024C84.4797 91.4142 84.3343 91.3391 84.2406 91.2723C84.2051 91.2355 84.1243 91.2122 84.0823 91.1537C84.0533 91.1386 84.0306 91.1453 84.0468 91.1169Z" fill="black"/>
        <path fill-rule="evenodd" clip-rule="evenodd" d="M83.4075 90.6211C83.4625 90.5575 83.5143 90.5659 83.5564 90.4588C83.5953 90.4237 83.8246 90.6158 83.8601 90.6526C83.9182 90.6826 84.1444 90.7811 84.1411 90.853C84.1442 90.9467 84.0372 91.1675 83.9145 91.0856C83.8337 91.0623 83.74 90.9955 83.6754 90.9437C83.6399 90.9069 83.3977 90.6713 83.4075 90.6211Z" fill="black"/>
        <path fill-rule="evenodd" clip-rule="evenodd" d="M82.6516 90.0649C82.6614 90.0147 82.7488 89.8942 82.7877 89.8591C82.8718 89.8105 83.5306 90.3719 83.5273 90.4438C83.5176 90.494 83.4237 90.5927 83.3784 90.6061C83.3105 90.6263 82.6257 90.1435 82.6516 90.0649Z" fill="black"/>
        <path fill-rule="evenodd" clip-rule="evenodd" d="M82.1643 89.3338C82.2322 89.3137 82.3678 89.439 82.426 89.4691C82.4615 89.5059 82.723 89.8067 82.7521 89.8217C82.7649 89.8652 82.6484 89.9706 82.5869 90.0125C82.5416 90.0259 82.2187 89.7669 82.1541 89.7151C81.9505 89.6099 81.9669 89.4159 82.1643 89.3338Z" fill="black"/>
        <path fill-rule="evenodd" clip-rule="evenodd" d="M80.6505 87.4661C80.6729 87.6249 81.1118 88.2751 81.2312 88.4289C81.4119 88.7063 81.6088 88.9553 81.8121 89.2261C81.8541 89.2846 81.954 89.5387 81.9864 89.4818C82.0188 89.4249 82.1191 89.3479 82.1353 89.3195C82.1579 89.3128 80.8409 87.6933 80.8573 87.4993C80.8287 87.1532 80.6312 87.4009 80.6505 87.4661Z" fill="black"/>
    </g>
    <path d="M43.4375 56.5625C33.7725 56.5625 25.9375 48.7275 25.9375 39.0625C25.9375 29.3975 33.7725 21.5625 43.4375 21.5625C53.1025 21.5625 60.9375 29.3975 60.9375 39.0625C60.9375 48.7275 53.1025 56.5625 43.4375 56.5625Z" stroke="#707070" stroke-width="4" stroke-linecap="round" stroke-linejoin="round"/>
    <path d="M21.5627 60.9375L31.0784 51.4219" stroke="#707070" stroke-width="4" stroke-linecap="round" stroke-linejoin="round"/>
    <defs>
        <clipPath id="clip0">
            <rect width="20" height="24" fill="white" transform="translate(75 86.6804) rotate(-16.5)"/>
        </clipPath>
    </defs>
</svg>
