<svg width="24" height="24" viewBox="0 0 24 24" fill="none" xmlns="http://www.w3.org/2000/svg">
  <path d="M19.0752 4.64062C19.9717 5.52832 20.1035 6.78516 20.1035 8.28809V15.0469C20.1035 16.5498 19.9717 17.7979 19.0752 18.6943C18.1787 19.5908 16.9131 19.7314 15.4102 19.7314H8.58105C7.08691 19.7314 5.82129 19.5908 4.9248 18.6943C4.02832 17.7979 3.89648 16.5498 3.89648 15.0469V8.26172C3.89648 6.79395 4.02832 5.53711 4.9248 4.64062C5.82129 3.74414 7.08691 3.60352 8.56348 3.60352H15.4102C16.9131 3.60352 18.1787 3.74414 19.0752 4.64062ZM18.6885 8.04199C18.6885 7.13672 18.5742 6.20508 18.0381 5.66895C17.5107 5.1416 16.5615 5.01855 15.6562 5.01855H8.37012C7.44727 5.01855 6.48926 5.13281 5.95312 5.66895C5.42578 6.19629 5.31152 7.14551 5.31152 8.06836V15.2842C5.31152 16.1982 5.42578 17.1299 5.95312 17.666C6.48926 18.1934 7.43848 18.3164 8.34375 18.3164H15.6562C16.5615 18.3164 17.5107 18.1934 18.0381 17.666C18.5742 17.1299 18.6885 16.1982 18.6885 15.2842V8.04199ZM7.93066 11.6543C7.93066 11.2148 8.22949 10.9072 8.68652 10.9072H11.2705V8.32324C11.2705 7.875 11.5605 7.56738 11.9912 7.56738C12.4307 7.56738 12.7383 7.875 12.7383 8.32324V10.9072H15.3311C15.7705 10.9072 16.0781 11.2148 16.0781 11.6543C16.0781 12.085 15.7705 12.375 15.3311 12.375H12.7383V14.9678C12.7383 15.416 12.4307 15.7148 11.9912 15.7148C11.5605 15.7148 11.2705 15.4072 11.2705 14.9678V12.375H8.68652C8.23828 12.375 7.93066 12.085 7.93066 11.6543Z" fill="white"/>
</svg>
