<svg width="16" height="16" viewBox="0 0 16 16" fill="none" xmlns="http://www.w3.org/2000/svg">
    <path d="M5.33333 2H3.33333C2.97971 2 2.64057 2.14048 2.39052 2.39052C2.14048 2.64057 2 2.97971 2 3.33333V5.33333M14 5.33333V3.33333C14 2.97971 13.8595 2.64057 13.6095 2.39052C13.3594 2.14048 13.0203 2 12.6667 2H10.6667M10.6667 14H12.6667C13.0203 14 13.3594 13.8595 13.6095 13.6095C13.8595 13.3594 14 13.0203 14 12.6667V10.6667M2 10.6667V12.6667C2 13.0203 2.14048 13.3594 2.39052 13.6095C2.64057 13.8595 2.97971 14 3.33333 14H5.33333" stroke="#FF5B00" stroke-linecap="round" stroke-linejoin="round"/>
    <path fill-rule="evenodd" clip-rule="evenodd" d="M5 5.33333V5H5.33333H6H6.33333V5.33293L6.33333 5.33333V6L6.33333 6.0004V6.33333L6 6.33333H5.33333L5 6.33333V6V5.33333ZM4 4.66667C4 4.29848 4.29848 4 4.66667 4H6.66667C7.03486 4 7.33333 4.29848 7.33333 4.66667V6.66667C7.33333 7.03486 7.03486 7.33333 6.66667 7.33333H4.66667C4.29848 7.33333 4 7.03486 4 6.66667V4.66667ZM9.66667 6.33333V5H10.0002H10.6668H11V5.32281L11.0002 5.33333V6L11 6.01052V6.33333L10.6668 6.33333H10.0002L9.66667 6.33333ZM8.66667 4.66667C8.66667 4.29848 8.96514 4 9.33333 4H11.3333C11.7015 4 12 4.29848 12 4.66667V6.66667C12 7.03486 11.7015 7.33333 11.3333 7.33333H9.33333C8.96514 7.33333 8.66667 7.03486 8.66667 6.66667V4.66667ZM5 9.66667V9.99992V10.6666V11H6.33333V10.667L6.33333 10.6666V9.99992L6.33333 9.99952V9.66667H6.00744L6 9.66658H5.33333L5.32589 9.66667H5ZM4.66667 8.66667C4.29848 8.66667 4 8.96514 4 9.33333V11.3333C4 11.7015 4.29848 12 4.66667 12H6.66667C7.03486 12 7.33333 11.7015 7.33333 11.3333V9.33333C7.33333 8.96514 7.03486 8.66667 6.66667 8.66667H4.66667ZM8.66667 11C8.66667 10.8159 8.81591 10.6667 9 10.6667H9.66667C9.85076 10.6667 10 10.8159 10 11V11.6667C10 11.8508 9.85076 12 9.66667 12H9C8.81591 12 8.66667 11.8508 8.66667 11.6667V11ZM11 10.6667C10.8159 10.6667 10.6667 10.8159 10.6667 11V11.6667C10.6667 11.8508 10.8159 12 11 12H11.6667C11.8508 12 12 11.8508 12 11.6667V11C12 10.8159 11.8508 10.6667 11.6667 10.6667H11ZM8.66667 9C8.66667 8.81591 8.81591 8.66667 9 8.66667H9.66667C9.85076 8.66667 10 8.81591 10 9V9.66667C10 9.85076 9.85076 10 9.66667 10H9C8.81591 10 8.66667 9.85076 8.66667 9.66667V9ZM11 8.66667C10.8159 8.66667 10.6667 8.81591 10.6667 9V9.66667C10.6667 9.85076 10.8159 10 11 10H11.6667C11.8508 10 12 9.85076 12 9.66667V9C12 8.81591 11.8508 8.66667 11.6667 8.66667H11Z" fill="#FF5B00"/>
</svg>
