<svg width="17" height="16" viewBox="0 0 17 16" fill="none" xmlns="http://www.w3.org/2000/svg">
<path fill-rule="evenodd" clip-rule="evenodd" d="M9.38921 3.66699C9.38921 3.11471 9.83693 2.66699 10.3892 2.66699H12.8337C13.3859 2.66699 13.8337 3.11471 13.8337 3.66699V6.11144C13.8337 6.66372 13.3859 7.11144 12.8337 7.11144H10.3892C9.83693 7.11144 9.38921 6.66372 9.38921 6.11144V3.66699ZM11.2224 4.00033C10.9463 4.00033 10.7224 4.22418 10.7224 4.50032V5.2781C10.7224 5.55425 10.9463 5.7781 11.2224 5.7781H12.0002C12.2764 5.7781 12.5002 5.55425 12.5002 5.2781V4.50033C12.5002 4.22418 12.2764 4.00033 12.0002 4.00033H11.2224ZM3.16699 3.66699C3.16699 3.11471 3.61471 2.66699 4.16699 2.66699H6.61144C7.16372 2.66699 7.61144 3.11471 7.61144 3.66699V6.11144C7.61144 6.66372 7.16372 7.11144 6.61144 7.11144H4.16699C3.61471 7.11144 3.16699 6.66372 3.16699 6.11144V3.66699ZM5.00033 4.00033C4.72418 4.00033 4.50033 4.22418 4.50033 4.50033V5.2781C4.50033 5.55425 4.72418 5.7781 5.00033 5.7781H5.7781C6.05425 5.7781 6.2781 5.55425 6.2781 5.2781V4.50033C6.2781 4.22418 6.05425 4.00033 5.7781 4.00033H5.00033ZM4.16699 8.88921C3.61471 8.88921 3.16699 9.33693 3.16699 9.88921V12.3337C3.16699 12.8859 3.61471 13.3337 4.16699 13.3337H6.61144C7.16372 13.3337 7.61144 12.8859 7.61144 12.3337V9.88921C7.61144 9.33693 7.16372 8.88921 6.61144 8.88921H4.16699ZM4.50033 10.7225C4.50033 10.4464 4.72418 10.2225 5.00033 10.2225H5.7781C6.05425 10.2225 6.2781 10.4464 6.2781 10.7225V11.5003C6.2781 11.7764 6.05425 12.0003 5.7781 12.0003H5.00033C4.72418 12.0003 4.50033 11.7764 4.50033 11.5003V10.7225ZM9.38921 12.0559C9.38921 11.7797 9.61307 11.5559 9.88921 11.5559H10.667C10.9431 11.5559 11.167 11.7797 11.167 12.0559V12.8337C11.167 13.1098 10.9431 13.3337 10.667 13.3337H9.88921C9.61307 13.3337 9.38921 13.1098 9.38921 12.8337V12.0559ZM12.5559 11.5559C12.2797 11.5559 12.0559 11.7797 12.0559 12.0559V12.8337C12.0559 13.1098 12.2797 13.3337 12.5559 13.3337H13.3337C13.6098 13.3337 13.8337 13.1098 13.8337 12.8337V12.0559C13.8337 11.7797 13.6098 11.5559 13.3337 11.5559H12.5559ZM9.38921 9.38921C9.38921 9.11307 9.61307 8.88921 9.88921 8.88921H10.667C10.9431 8.88921 11.167 9.11307 11.167 9.38921V10.167C11.167 10.4431 10.9431 10.667 10.667 10.667H9.88921C9.61307 10.667 9.38921 10.4431 9.38921 10.167V9.38921ZM12.5559 8.88921C12.2797 8.88921 12.0559 9.11307 12.0559 9.38921V10.167C12.0559 10.4431 12.2797 10.667 12.5559 10.667H13.3337C13.6098 10.667 13.8337 10.4431 13.8337 10.167V9.38921C13.8337 9.11307 13.6098 8.88921 13.3337 8.88921H12.5559Z" fill="#FF5B00"/>
</svg>
