<svg width="48" height="48" viewBox="0 0 48 48" fill="none" xmlns="http://www.w3.org/2000/svg">
<path d="M23.9693 40.3818C14.9112 40.3818 7.54546 33.0207 7.54546 23.9682C7.54546 14.9157 14.9112 7.55454 23.9693 7.55454C33.0275 7.55454 40.3932 14.9157 40.3932 23.9682C40.3932 24.9894 40.2974 26 40.1165 26.968L45.6407 32.4888C46.6839 29.8507 47.2587 26.968 47.2587 23.9682C47.2587 11.1394 36.8168 0.693359 23.9693 0.693359C11.1219 0.693359 0.680008 11.1394 0.680008 23.9682C0.680008 36.8076 11.1325 47.243 23.9693 47.243C26.9284 47.243 29.7491 46.6899 32.3569 45.6793L26.8113 40.1372C25.8853 40.3074 24.9379 40.3818 23.9693 40.3818Z" fill="white"/>
<path fill-rule="evenodd" clip-rule="evenodd" d="M41.4713 40.2504L33.0459 31.8189C32.0472 30.8101 31.7922 29.3447 32.2916 28.1129C32.4615 27.6987 32.7165 27.3058 33.0459 26.9766C34.3846 25.6386 36.5521 25.6386 37.8908 26.9766L46.3161 35.4081C47.6549 36.7461 47.6549 38.9124 46.3161 40.2504C46.093 40.4734 45.8487 40.6539 45.5937 40.8026C44.2868 41.5459 42.5869 41.3654 41.4713 40.2504ZM31.6445 32.8489L40.2611 41.461C41.5998 42.799 41.5998 44.9652 40.2611 46.3032C40.0486 46.5156 39.8255 46.6855 39.5811 46.8342C38.2637 47.6094 36.5425 47.4288 35.4163 46.3032L26.9909 37.8717C25.6522 36.5337 25.6522 34.3675 26.9909 33.0295C27.4052 32.6153 27.9046 32.3286 28.4252 32.1693C29.5089 31.8401 30.7308 32.0631 31.6445 32.8489Z" fill="url(#paint0_linear_7702:6872)"/>
<defs>
<linearGradient id="paint0_linear_7702:6872" x1="25.9868" y1="25.9731" x2="49.8483" y2="29.3287" gradientUnits="userSpaceOnUse">
<stop stop-color="#FF6B00"/>
<stop offset="1" stop-color="#F9A605"/>
</linearGradient>
</defs>
</svg>
