<svg width="48" height="48" viewBox="0 0 48 48" fill="none" xmlns="http://www.w3.org/2000/svg">
<path d="M23.9694 40.3818C14.9112 40.3818 7.54551 33.0207 7.54551 23.9682C7.54551 14.9157 14.9112 7.55454 23.9694 7.55454C33.0275 7.55454 40.3932 14.9157 40.3932 23.9682C40.3932 24.9894 40.2974 26 40.1165 26.968L45.6408 32.4888C46.6839 29.8507 47.2587 26.968 47.2587 23.9682C47.2587 11.1394 36.8168 0.693359 23.9694 0.693359C11.1219 0.693359 0.680054 11.1394 0.680054 23.9682C0.680054 36.8076 11.1326 47.243 23.9694 47.243C26.9284 47.243 29.7491 46.6899 32.3569 45.6793L26.8114 40.1372C25.8853 40.3074 24.938 40.3818 23.9694 40.3818Z" fill="#232735"/>
<path fill-rule="evenodd" clip-rule="evenodd" d="M41.4714 40.2506L33.046 31.8192C32.0473 30.8103 31.7923 29.3449 32.2916 28.1131C32.4616 27.699 32.7166 27.3061 33.046 26.9769C34.3847 25.6389 36.5521 25.6389 37.8909 26.9769L46.3162 35.4084C47.6549 36.7464 47.6549 38.9127 46.3162 40.2506C46.0931 40.4736 45.8487 40.6542 45.5938 40.8028C44.2869 41.5462 42.587 41.3656 41.4714 40.2506ZM31.6446 32.8492L40.2612 41.4612C41.5999 42.7992 41.5999 44.9655 40.2612 46.3035C40.0487 46.5159 39.8256 46.6858 39.5812 46.8344C38.2638 47.6096 36.5426 47.4291 35.4164 46.3035L26.991 37.872C25.6523 36.534 25.6523 34.3677 26.991 33.0297C27.4053 32.6156 27.9047 32.3289 28.4253 32.1696C29.509 31.8404 30.7309 32.0634 31.6446 32.8492Z" fill="url(#paint0_linear_6067:2080)"/>
<defs>
<linearGradient id="paint0_linear_6067:2080" x1="25.9869" y1="25.9734" x2="49.8484" y2="29.3289" gradientUnits="userSpaceOnUse">
<stop stop-color="#5C1EE0"/>
<stop offset="1" stop-color="#1373E4"/>
</linearGradient>
</defs>
</svg>
