<svg width="128" height="24" viewBox="0 0 128 24" fill="none" xmlns="http://www.w3.org/2000/svg">
<path d="M11.9846 20.1909C7.45558 20.1909 3.77272 16.5103 3.77272 11.9841C3.77272 7.45784 7.45558 3.77727 11.9846 3.77727C16.5137 3.77727 20.1966 7.45784 20.1966 11.9841C20.1966 12.4947 20.1487 13 20.0582 13.484L22.8204 16.2444C23.3419 14.9254 23.6293 13.484 23.6293 11.9841C23.6293 5.56969 18.4084 0.34668 11.9846 0.34668C5.56093 0.34668 0.339989 5.56969 0.339989 11.9841C0.339989 18.4038 5.56625 23.6215 11.9846 23.6215C13.4642 23.6215 14.8745 23.3449 16.1784 22.8397L13.4056 20.0686C12.9426 20.1537 12.469 20.1909 11.9846 20.1909Z" fill="#232735"/>
<path fill-rule="evenodd" clip-rule="evenodd" d="M20.7356 20.1254L16.5229 15.9097C16.0236 15.4053 15.8961 14.6726 16.1458 14.0567C16.2308 13.8496 16.3583 13.6532 16.5229 13.4886C17.1923 12.8196 18.276 12.8196 18.9454 13.4886L23.1581 17.7043C23.8274 18.3733 23.8274 19.4564 23.1581 20.1254C23.0465 20.2369 22.9243 20.3272 22.7968 20.4015C22.1434 20.7732 21.2934 20.6829 20.7356 20.1254ZM15.8223 16.4247L20.1306 20.7307C20.7999 21.3997 20.7999 22.4828 20.1306 23.1518C20.0243 23.258 19.9128 23.343 19.7906 23.4173C19.1318 23.8049 18.2712 23.7146 17.7081 23.1518L13.4954 18.9361C12.8261 18.2671 12.8261 17.1839 13.4954 16.5149C13.7026 16.3079 13.9523 16.1645 14.2126 16.0849C14.7545 15.9203 15.3654 16.0318 15.8223 16.4247Z" fill="url(#paint0_linear)"/>
<path d="M39.7877 5.25769C40.449 5.25769 40.9852 4.7219 40.9852 4.06097C40.9852 3.40005 40.449 2.86426 39.7877 2.86426C39.1264 2.86426 38.5902 3.40005 38.5902 4.06097C38.5902 4.7219 39.1264 5.25769 39.7877 5.25769Z" fill="#232735"/>
<path d="M34.7346 7.10498C34.1406 7.10498 33.6569 7.58845 33.6569 8.18203V12.8492C33.6569 14.2709 32.4977 15.4293 31.0751 15.4293C29.6526 15.4293 28.4934 14.2709 28.4934 12.8492V8.18203C28.4934 7.58845 28.0096 7.10498 27.4157 7.10498C26.8218 7.10498 26.338 7.58845 26.338 8.18203V12.8492C26.338 15.4581 28.4647 17.5834 31.0751 17.5834C32.0427 17.5834 32.9432 17.2914 33.6952 16.7936C33.8197 17.2484 34.2364 17.5834 34.7346 17.5834C35.3285 17.5834 35.8123 17.1 35.8123 16.5064V12.8492V8.18203C35.8123 7.58367 35.3285 7.10498 34.7346 7.10498Z" fill="#232735"/>
<path d="M65.61 7.10498C65.0161 7.10498 64.5323 7.58845 64.5323 8.18203V12.8492C64.5323 14.2709 63.3732 15.4293 61.9506 15.4293C60.528 15.4293 59.3689 14.2709 59.3689 12.8492V8.18203C59.3689 7.58845 58.8851 7.10498 58.2911 7.10498C57.6972 7.10498 57.2134 7.58845 57.2134 8.18203V12.8492C57.2134 15.4581 59.3401 17.5834 61.9506 17.5834C62.9181 17.5834 63.8186 17.2914 64.5706 16.7936C64.6952 17.2484 65.1119 17.5834 65.61 17.5834C66.204 17.5834 66.6878 17.1 66.6878 16.5064V12.8492V8.18203C66.6878 7.58367 66.2088 7.10498 65.61 7.10498Z" fill="#232735"/>
<path d="M94.8665 7.10498C94.2725 7.10498 93.7887 7.58845 93.7887 8.18203V13.304C93.7887 14.4768 92.8356 15.4293 91.662 15.4293C90.4885 15.4293 89.5354 14.4768 89.5354 13.304V8.18203C89.5354 7.58845 89.0516 7.10498 88.4576 7.10498C87.8637 7.10498 87.3799 7.58845 87.3799 8.18203V13.304C87.3799 14.4768 86.4267 15.4293 85.2532 15.4293C84.0797 15.4293 83.1265 14.4768 83.1265 13.304V8.18203C83.1265 7.58845 82.6428 7.10498 82.0488 7.10498C81.4549 7.10498 80.9711 7.58845 80.9711 8.18203V13.304C80.9711 15.6639 82.8918 17.5834 85.2532 17.5834C86.5273 17.5834 87.6721 17.0234 88.4576 16.1378C89.2432 17.0234 90.3879 17.5834 91.662 17.5834C94.0234 17.5834 95.9442 15.6639 95.9442 13.304V8.18203C95.9442 7.58367 95.4604 7.10498 94.8665 7.10498Z" fill="#232735"/>
<path d="M39.7777 6.99072C39.1838 6.99072 38.7 7.4742 38.7 8.06777V16.3921C38.7 16.9857 39.1838 17.4692 39.7777 17.4692C40.3717 17.4692 40.8554 16.9857 40.8554 16.3921V8.06777C40.8554 7.46941 40.3717 6.99072 39.7777 6.99072Z" fill="#232735"/>
<path d="M117.192 6.03271C115.788 6.03271 114.505 6.55927 113.532 7.42569C113.336 7.22465 113.063 7.10019 112.761 7.10019C112.167 7.10019 111.683 7.58366 111.683 8.17723V11.5376V19.704C111.683 20.2976 112.167 20.7811 112.761 20.7811C113.355 20.7811 113.839 20.2976 113.839 19.704V15.9032C114.768 16.6165 115.932 17.0425 117.192 17.0425C120.228 17.0425 122.7 14.5725 122.7 11.5376C122.7 8.50274 120.228 6.03271 117.192 6.03271ZM117.192 14.8884C115.343 14.8884 113.839 13.3853 113.839 11.5376C113.839 9.68988 115.343 8.18681 117.192 8.18681C119.041 8.18681 120.545 9.68988 120.545 11.5376C120.545 13.3853 119.041 14.8884 117.192 14.8884Z" fill="#232735"/>
<path d="M108.043 7.10507C107.741 7.10507 107.468 7.22953 107.272 7.43058C106.3 6.56415 105.016 6.0376 103.613 6.0376C100.576 6.0376 98.1042 8.50762 98.1042 11.5425C98.1042 14.5774 100.576 17.0474 103.613 17.0474C104.872 17.0474 106.036 16.6214 106.965 15.9081V15.9704C106.965 16.5639 107.449 17.0474 108.043 17.0474C108.637 17.0474 109.121 16.5639 109.121 15.9704V11.5425V8.18212C109.121 7.58376 108.642 7.10507 108.043 7.10507ZM103.613 14.8885C101.764 14.8885 100.26 13.3854 100.26 11.5377C100.26 9.68998 101.764 8.1869 103.613 8.1869C105.461 8.1869 106.965 9.68998 106.965 11.5377C106.965 13.3854 105.461 14.8885 103.613 14.8885Z" fill="#232735"/>
<path d="M76.9857 10.4945C76.3151 9.9201 75.5152 9.49407 74.6626 9.03932C74.562 8.98666 74.4614 8.93401 74.3608 8.87657C72.6557 7.95749 72.0521 7.33041 72.0521 6.47356C72.0521 6.11454 72.1815 5.8034 72.4353 5.54969C72.7706 5.21461 73.2879 5.01835 73.8435 5.01835H73.8483C74.7776 5.01835 75.3619 5.41566 75.8744 5.76031C75.9559 5.81776 76.0373 5.87041 76.1139 5.91828C76.6121 6.24379 77.2827 6.10018 77.6036 5.60235C77.9293 5.10451 77.7856 4.43435 77.2874 4.11363C77.2252 4.07055 77.1581 4.02747 77.0863 3.9796C76.4732 3.56314 75.4434 2.86426 73.8483 2.86426H73.8435C72.7179 2.86426 71.6498 3.2855 70.9122 4.02268C70.2559 4.67369 69.8967 5.54491 69.8967 6.46877C69.8967 8.61808 71.5492 9.80522 73.3358 10.7674C73.4364 10.8248 73.5418 10.8775 73.6424 10.9301C75.2087 11.7678 76.1714 12.3279 76.2864 13.3044C76.3391 13.7831 76.1954 14.2474 75.8697 14.6065C75.4577 15.066 74.8159 15.3245 74.0687 15.3245C72.7946 15.3245 71.8462 14.5634 71.1516 14.0081C71.0223 13.9028 70.9026 13.807 70.7828 13.7209C70.3038 13.3667 69.6285 13.4624 69.274 13.9363C68.9196 14.415 69.0154 15.0899 69.4896 15.4442C69.5806 15.5112 69.6812 15.5925 69.8009 15.6883C70.6391 16.3584 72.0378 17.4786 74.0639 17.4786C75.4338 17.4786 76.6456 16.9664 77.4743 16.0425C78.2119 15.2144 78.5472 14.1565 78.4226 13.0603C78.3173 12.0694 77.8431 11.2269 76.9857 10.4945Z" fill="#232735"/>
<path d="M49.2863 6.03271C47.8828 6.03271 46.5991 6.55927 45.6268 7.42569C45.4304 7.22465 45.1574 7.10019 44.8556 7.10019C44.2617 7.10019 43.7779 7.58366 43.7779 8.17723V11.5376V19.704C43.7779 19.9577 43.8641 20.1875 44.0126 20.3742C44.0318 20.3981 44.0557 20.4268 44.0797 20.4508C44.1228 20.4938 44.1707 20.5369 44.2186 20.5752C44.2521 20.5992 44.2857 20.6231 44.3192 20.6422C44.3431 20.6566 44.3671 20.6662 44.391 20.6805C44.3958 20.6853 44.4006 20.6853 44.4054 20.6901C44.4198 20.6949 44.4341 20.7045 44.4533 20.7093C44.4772 20.7188 44.4964 20.7284 44.5204 20.7332C44.5299 20.738 44.5347 20.738 44.5443 20.7428C44.573 20.7523 44.6018 20.7571 44.6353 20.7667H44.6401C44.7119 20.7811 44.7838 20.7906 44.8556 20.7906C45.4496 20.7906 45.9334 20.3072 45.9334 19.7136V15.9128C46.8626 16.6261 48.0265 17.0521 49.2863 17.0521C52.323 17.0521 54.7946 14.5821 54.7946 11.5472C54.7946 8.51231 52.323 6.03271 49.2863 6.03271ZM49.2863 14.8884C47.4374 14.8884 45.9334 13.3853 45.9334 11.5376C45.9334 9.68988 47.4374 8.18681 49.2863 8.18681C51.1351 8.18681 52.6391 9.68988 52.6391 11.5376C52.6391 13.3853 51.1351 14.8884 49.2863 14.8884Z" fill="#232735"/>
<defs>
<linearGradient id="paint0_linear" x1="12.9934" y1="12.9868" x2="24.9242" y2="14.6646" gradientUnits="userSpaceOnUse">
<stop stop-color="#5C1EE0"/>
<stop offset="1" stop-color="#1373E4"/>
</linearGradient>
</defs>
</svg>
