<svg width="128" height="24" viewBox="0 0 128 24" fill="none" xmlns="http://www.w3.org/2000/svg">
<path d="M11.9847 20.1909C7.45562 20.1909 3.77275 16.5103 3.77275 11.9841C3.77275 7.45784 7.45562 3.77727 11.9847 3.77727C16.5138 3.77727 20.1966 7.45784 20.1966 11.9841C20.1966 12.4947 20.1487 13 20.0582 13.484L22.8204 16.2444C23.342 14.9254 23.6293 13.484 23.6293 11.9841C23.6293 5.56969 18.4084 0.34668 11.9847 0.34668C5.56097 0.34668 0.340027 5.56969 0.340027 11.9841C0.340027 18.4038 5.56629 23.6215 11.9847 23.6215C13.4642 23.6215 14.8746 23.3449 16.1785 22.8397L13.4057 20.0686C12.9427 20.1537 12.469 20.1909 11.9847 20.1909Z" fill="white"/>
<path fill-rule="evenodd" clip-rule="evenodd" d="M20.7357 20.1259L16.523 15.9102C16.0236 15.4058 15.8961 14.6731 16.1458 14.0572C16.2308 13.8501 16.3583 13.6536 16.523 13.4891C17.1923 12.8201 18.276 12.8201 18.9454 13.4891L23.1581 17.7048C23.8274 18.3738 23.8274 19.4569 23.1581 20.1259C23.0465 20.2374 22.9243 20.3277 22.7968 20.402C22.1434 20.7737 21.2935 20.6834 20.7357 20.1259ZM15.8223 16.4256L20.1306 20.7316C20.7999 21.4006 20.7999 22.4837 20.1306 23.1527C20.0243 23.2589 19.9128 23.3439 19.7906 23.4182C19.1319 23.8058 18.2713 23.7155 17.7081 23.1527L13.4955 18.937C12.8261 18.268 12.8261 17.1848 13.4955 16.5158C13.7026 16.3088 13.9523 16.1654 14.2126 16.0858C14.7545 15.9212 15.3654 16.0327 15.8223 16.4256Z" fill="url(#paint0_linear)"/>
<path d="M39.7877 5.25769C40.449 5.25769 40.9851 4.7219 40.9851 4.06097C40.9851 3.40005 40.449 2.86426 39.7877 2.86426C39.1263 2.86426 38.5902 3.40005 38.5902 4.06097C38.5902 4.7219 39.1263 5.25769 39.7877 5.25769Z" fill="white"/>
<path d="M34.7346 7.10547C34.1407 7.10547 33.6569 7.58894 33.6569 8.18251V12.8497C33.6569 14.2714 32.4978 15.4298 31.0752 15.4298C29.6526 15.4298 28.4934 14.2714 28.4934 12.8497V8.18251C28.4934 7.58894 28.0097 7.10547 27.4157 7.10547C26.8218 7.10547 26.338 7.58894 26.338 8.18251V12.8497C26.338 15.4586 28.4647 17.5839 31.0752 17.5839C32.0427 17.5839 32.9432 17.2919 33.6952 16.7941C33.8198 17.2488 34.2365 17.5839 34.7346 17.5839C35.3286 17.5839 35.8123 17.1005 35.8123 16.5069V12.8497V8.18251C35.8123 7.58416 35.3286 7.10547 34.7346 7.10547Z" fill="white"/>
<path d="M65.6101 7.10547C65.0161 7.10547 64.5323 7.58894 64.5323 8.18251V12.8497C64.5323 14.2714 63.3732 15.4298 61.9506 15.4298C60.528 15.4298 59.3689 14.2714 59.3689 12.8497V8.18251C59.3689 7.58894 58.8851 7.10547 58.2912 7.10547C57.6972 7.10547 57.2134 7.58894 57.2134 8.18251V12.8497C57.2134 15.4586 59.3401 17.5839 61.9506 17.5839C62.9182 17.5839 63.8186 17.2919 64.5707 16.7941C64.6952 17.2488 65.1119 17.5839 65.6101 17.5839C66.204 17.5839 66.6878 17.1005 66.6878 16.5069V12.8497V8.18251C66.6878 7.58416 66.2088 7.10547 65.6101 7.10547Z" fill="white"/>
<path d="M94.8664 7.10547C94.2725 7.10547 93.7887 7.58894 93.7887 8.18251V13.3045C93.7887 14.4773 92.8355 15.4298 91.662 15.4298C90.4885 15.4298 89.5353 14.4773 89.5353 13.3045V8.18251C89.5353 7.58894 89.0515 7.10547 88.4576 7.10547C87.8637 7.10547 87.3799 7.58894 87.3799 8.18251V13.3045C87.3799 14.4773 86.4267 15.4298 85.2532 15.4298C84.0797 15.4298 83.1265 14.4773 83.1265 13.3045V8.18251C83.1265 7.58894 82.6427 7.10547 82.0488 7.10547C81.4548 7.10547 80.9711 7.58894 80.9711 8.18251V13.3045C80.9711 15.6644 82.8918 17.5839 85.2532 17.5839C86.5273 17.5839 87.6721 17.0239 88.4576 16.1383C89.2431 17.0239 90.3879 17.5839 91.662 17.5839C94.0234 17.5839 95.9441 15.6644 95.9441 13.3045V8.18251C95.9441 7.58416 95.4604 7.10547 94.8664 7.10547Z" fill="white"/>
<path d="M39.7777 6.99023C39.1838 6.99023 38.7 7.47371 38.7 8.06728V16.3916C38.7 16.9852 39.1838 17.4687 39.7777 17.4687C40.3717 17.4687 40.8554 16.9852 40.8554 16.3916V8.06728C40.8554 7.46892 40.3717 6.99023 39.7777 6.99023Z" fill="white"/>
<path d="M117.192 6.0332C115.788 6.0332 114.505 6.55976 113.532 7.42618C113.336 7.22513 113.063 7.10067 112.761 7.10067C112.167 7.10067 111.683 7.58415 111.683 8.17772V11.5381V19.7045C111.683 20.2981 112.167 20.7815 112.761 20.7815C113.355 20.7815 113.839 20.2981 113.839 19.7045V15.9037C114.768 16.617 115.932 17.043 117.192 17.043C120.228 17.043 122.7 14.573 122.7 11.5381C122.7 8.50323 120.228 6.0332 117.192 6.0332ZM117.192 14.8889C115.343 14.8889 113.839 13.3858 113.839 11.5381C113.839 9.69037 115.343 8.18729 117.192 8.18729C119.04 8.18729 120.545 9.69037 120.545 11.5381C120.545 13.3858 119.04 14.8889 117.192 14.8889Z" fill="white"/>
<path d="M108.043 7.10458C107.741 7.10458 107.468 7.22904 107.272 7.43009C106.3 6.56367 105.016 6.03711 103.613 6.03711C100.576 6.03711 98.1042 8.50713 98.1042 11.542C98.1042 14.5769 100.576 17.0469 103.613 17.0469C104.872 17.0469 106.036 16.6209 106.965 15.9076V15.9699C106.965 16.5634 107.449 17.0469 108.043 17.0469C108.637 17.0469 109.121 16.5634 109.121 15.9699V11.542V8.18163C109.121 7.58327 108.642 7.10458 108.043 7.10458ZM103.613 14.888C101.764 14.888 100.26 13.385 100.26 11.5372C100.26 9.68949 101.764 8.18641 103.613 8.18641C105.461 8.18641 106.965 9.68949 106.965 11.5372C106.965 13.385 105.461 14.888 103.613 14.888Z" fill="white"/>
<path d="M76.9857 10.4945C76.3151 9.9201 75.5152 9.49407 74.6626 9.03932C74.5621 8.98666 74.4615 8.93401 74.3609 8.87657C72.6557 7.95749 72.0522 7.33041 72.0522 6.47356C72.0522 6.11454 72.1815 5.8034 72.4354 5.54969C72.7707 5.21461 73.288 5.01835 73.8436 5.01835H73.8484C74.7776 5.01835 75.362 5.41566 75.8745 5.76031C75.9559 5.81776 76.0373 5.87041 76.114 5.91828C76.6121 6.24379 77.2827 6.10018 77.6036 5.60235C77.9293 5.10451 77.7856 4.43435 77.2875 4.11363C77.2252 4.07055 77.1582 4.02747 77.0863 3.9796C76.4732 3.56314 75.4434 2.86426 73.8484 2.86426H73.8436C72.718 2.86426 71.6498 3.2855 70.9122 4.02268C70.256 4.67369 69.8967 5.54491 69.8967 6.46877C69.8967 8.61808 71.5492 9.80522 73.3358 10.7674C73.4364 10.8248 73.5418 10.8775 73.6424 10.9301C75.2087 11.7678 76.1714 12.3279 76.2864 13.3044C76.3391 13.7831 76.1954 14.2474 75.8697 14.6065C75.4578 15.066 74.8159 15.3245 74.0687 15.3245C72.7946 15.3245 71.8462 14.5634 71.1517 14.0081C71.0224 13.9028 70.9026 13.807 70.7829 13.7209C70.3039 13.3667 69.6285 13.4624 69.2741 13.9363C68.9196 14.415 69.0154 15.0899 69.4896 15.4442C69.5806 15.5112 69.6812 15.5925 69.8009 15.6883C70.6392 16.3584 72.0378 17.4786 74.0639 17.4786C75.4338 17.4786 76.6456 16.9664 77.4743 16.0425C78.2119 15.2144 78.5472 14.1565 78.4227 13.0603C78.3173 12.0694 77.8431 11.2269 76.9857 10.4945Z" fill="white"/>
<path d="M49.2863 6.0332C47.8829 6.0332 46.5992 6.55976 45.6268 7.42618C45.4305 7.22513 45.1574 7.10068 44.8557 7.10068C44.2617 7.10068 43.778 7.58415 43.778 8.17772V11.5381V19.7045C43.778 19.9582 43.8642 20.188 44.0127 20.3747C44.0318 20.3986 44.0558 20.4273 44.0797 20.4513C44.1228 20.4943 44.1707 20.5374 44.2186 20.5757C44.2521 20.5996 44.2857 20.6236 44.3192 20.6427C44.3432 20.6571 44.3671 20.6667 44.3911 20.681C44.3958 20.6858 44.4006 20.6858 44.4054 20.6906C44.4198 20.6954 44.4342 20.705 44.4533 20.7097C44.4773 20.7193 44.4964 20.7289 44.5204 20.7337C44.53 20.7385 44.5348 20.7385 44.5443 20.7433C44.5731 20.7528 44.6018 20.7576 44.6353 20.7672H44.6401C44.712 20.7815 44.7838 20.7911 44.8557 20.7911C45.4496 20.7911 45.9334 20.3076 45.9334 19.7141V15.9133C46.8626 16.6265 48.0266 17.0526 49.2863 17.0526C52.323 17.0526 54.7946 14.5826 54.7946 11.5477C54.7946 8.5128 52.323 6.0332 49.2863 6.0332ZM49.2863 14.8889C47.4374 14.8889 45.9334 13.3858 45.9334 11.5381C45.9334 9.69037 47.4374 8.18729 49.2863 8.18729C51.1352 8.18729 52.6392 9.69037 52.6392 11.5381C52.6392 13.3858 51.1352 14.8889 49.2863 14.8889Z" fill="white"/>
<defs>
<linearGradient id="paint0_linear" x1="12.9934" y1="12.9873" x2="24.9242" y2="14.665" gradientUnits="userSpaceOnUse">
<stop stop-color="#FF6B00"/>
<stop offset="1" stop-color="#F9A605"/>
</linearGradient>
</defs>
</svg>
