<svg width="13" height="14" viewBox="0 0 13 14" fill="none" xmlns="http://www.w3.org/2000/svg">
<path d="M2.74854 13.4824C1.54883 13.4824 0.882324 12.835 0.882324 11.6353V7.83301H0.844238C0.291992 7.68066 0 7.20459 0 6.51904V4.90674C0 4.0498 0.507812 3.5166 1.33301 3.5166H2.4375C2.09473 3.16748 1.89795 2.7041 1.89795 2.16455C1.89795 0.907715 2.90088 0 4.16406 0C5.09717 0 5.89062 0.526855 6.20166 1.45361C6.5127 0.526855 7.2998 0 8.23926 0C9.49609 0 10.5054 0.907715 10.5054 2.16455C10.5054 2.7041 10.3022 3.16748 9.95947 3.5166H11.0703C11.9272 3.5166 12.4033 4.0498 12.4033 4.90674V6.51904C12.4033 7.20459 12.1113 7.68066 11.5591 7.83301H11.521V11.6353C11.521 12.835 10.8481 13.4824 9.64844 13.4824H2.74854ZM5.59863 3.5166V2.67236C5.59863 1.77734 5.0083 1.19336 4.27197 1.19336C3.58643 1.19336 3.11035 1.60596 3.11035 2.28516C3.11035 2.97705 3.66895 3.5166 4.64648 3.5166H5.59863ZM6.79834 3.5166H7.75684C8.72803 3.5166 9.29297 2.97705 9.29297 2.28516C9.29297 1.60596 8.81689 1.19336 8.13135 1.19336C7.39502 1.19336 6.79834 1.77734 6.79834 2.67236V3.5166ZM5.56055 6.78564V4.64014H1.66309C1.3584 4.64014 1.23145 4.76709 1.23145 5.07178V6.354C1.23145 6.65869 1.3584 6.78564 1.66309 6.78564H5.56055ZM6.83643 6.78564H10.7466C11.0513 6.78564 11.1719 6.66504 11.1719 6.3667V5.07178C11.1719 4.76709 11.0513 4.64014 10.7466 4.64014H6.83643V6.78564ZM5.56055 12.3462V7.90918H2.11377V11.5654C2.11377 12.0605 2.39307 12.3462 2.89453 12.3462H5.56055ZM6.83643 12.3462H9.50244C10.0039 12.3462 10.2896 12.0605 10.2896 11.5654V7.90918H6.83643V12.3462Z" fill="#FF5B00"/>
</svg>
