<svg width="28" height="28" viewBox="0 0 28 28" fill="none" xmlns="http://www.w3.org/2000/svg">
    <path fill-rule="evenodd" clip-rule="evenodd" d="M4.46442 4.46451C4.62842 4.30051 4.8755 4.26039 5.09194 4.34372L5.86251 4.6404C6.35965 4.8318 6.91957 4.59988 7.13576 4.113L7.47096 3.3581C7.56506 3.14619 7.76813 3 8 3C8.23183 3 8.43488 3.14617 8.52897 3.35805L8.86419 4.113C9.08038 4.59988 9.6403 4.8318 10.1374 4.6404L10.9081 4.3437C11.1245 4.26037 11.3716 4.30049 11.5355 4.46448C11.6995 4.62847 11.7396 4.87553 11.6563 5.09196L11.3596 5.86259C11.1682 6.35973 11.4001 6.91965 11.887 7.13584L12.642 7.47105C12.8538 7.56513 13 7.76818 13 8C13 8.23189 12.8538 8.43499 12.6419 8.52909L11.887 8.86427C11.4001 9.08046 11.1682 9.64037 11.3596 10.1375L11.6563 10.908C11.7396 11.1245 11.6995 11.3716 11.5355 11.5356C11.3715 11.6996 11.1244 11.7397 10.908 11.6564L10.1374 11.3597C9.6403 11.1683 9.08038 11.4002 8.86419 11.8871L8.52903 12.6419C8.43494 12.8538 8.23186 13 8 13C7.76811 13 7.565 12.8538 7.47089 12.6418L7.13576 11.8871C6.91957 11.4002 6.35965 11.1683 5.86251 11.3597L5.09204 11.6563C4.87559 11.7397 4.62849 11.6996 4.46448 11.5355C4.30047 11.3715 4.26035 11.1244 4.34369 10.908L4.64032 10.1375C4.83173 9.64037 4.5998 9.08046 4.11293 8.86427L3.35816 8.52913C3.14622 8.43501 3 8.2319 3 8C3 7.76816 3.14617 7.56511 3.35806 7.47102L4.11293 7.13584C4.5998 6.91965 4.83173 6.35973 4.64032 5.86258L4.34365 5.09201C4.26032 4.87558 4.30043 4.62851 4.46442 4.46451ZM10 8C10 9.10457 9.10457 10 8 10C6.89543 10 6 9.10457 6 8C6 6.89543 6.89543 6 8 6C9.10457 6 10 6.89543 10 8ZM12.9981 10.0714C13.2603 9.9196 13.5881 9.95988 13.8211 10.1535L14.4633 10.6872C14.994 11.1282 15.8014 10.9119 16.0405 10.2646L16.3292 9.4828C16.4342 9.19864 16.6971 9 17 9C17.3029 9 17.5658 9.19864 17.6708 9.4828L17.9595 10.2646C18.1986 10.9119 19.006 11.1282 19.5367 10.6872L20.1789 10.1535C20.4119 9.95988 20.7397 9.9196 21.0019 10.0714C21.2637 10.2229 21.3909 10.5257 21.3398 10.8238L21.1987 11.6467C21.0821 12.3269 21.6731 12.9179 22.3533 12.8013L23.1762 12.6602C23.4743 12.6091 23.7771 12.7363 23.9286 12.9981C24.0804 13.2603 24.0401 13.5881 23.8465 13.8211L23.3128 14.4633C22.8718 14.994 23.0881 15.8014 23.7354 16.0405L24.5172 16.3292C24.8014 16.4342 25 16.6971 25 17C25 17.3029 24.8014 17.5658 24.5172 17.6708L23.7354 17.9595C23.0881 18.1986 22.8718 19.006 23.3128 19.5367L23.8465 20.1789C24.0401 20.4119 24.0804 20.7397 23.9286 21.0019C23.7771 21.2637 23.4743 21.3909 23.1762 21.3398L22.3533 21.1987C21.6731 21.0821 21.0821 21.6731 21.1987 22.3533L21.3398 23.1762C21.3909 23.4743 21.2637 23.7771 21.0019 23.9286C20.7397 24.0804 20.4119 24.0401 20.1789 23.8465L19.5367 23.3128C19.006 22.8718 18.1986 23.0881 17.9595 23.7354L17.6708 24.5172C17.5658 24.8014 17.3029 25 17 25C16.6971 25 16.4342 24.8014 16.3292 24.5172L16.0405 23.7354C15.8014 23.0881 14.994 22.8718 14.4633 23.3128L13.8211 23.8465C13.5881 24.0401 13.2603 24.0804 12.9981 23.9286C12.7363 23.7771 12.6091 23.4743 12.6602 23.1762L12.8013 22.3533C12.9179 21.6731 12.3269 21.0821 11.6467 21.1987L10.8238 21.3398C10.5257 21.3909 10.2229 21.2637 10.0714 21.0019C9.9196 20.7397 9.95988 20.4119 10.1535 20.1789L10.6872 19.5367C11.1282 19.006 10.9119 18.1986 10.2646 17.9595L9.48279 17.6708C9.19864 17.5658 9 17.3029 9 17C9 16.6971 9.19864 16.4342 9.4828 16.3292L10.2646 16.0405C10.9119 15.8014 11.1282 14.994 10.6872 14.4633L10.1535 13.8211C9.95988 13.5881 9.9196 13.2603 10.0714 12.9981C10.2229 12.7363 10.5257 12.6091 10.8238 12.6602L11.6467 12.8013C12.3269 12.9179 12.9179 12.3269 12.8013 11.6467L12.6602 10.8238C12.6091 10.5257 12.7363 10.2229 12.9981 10.0714ZM20 17C20 18.6569 18.6569 20 17 20C15.3431 20 14 18.6569 14 17C14 15.3431 15.3431 14 17 14C18.6569 14 20 15.3431 20 17Z" fill="#FF5B00"/>
</svg>
