<svg width="28" height="28" viewBox="0 0 28 28" fill="none" xmlns="http://www.w3.org/2000/svg">
<path fill-rule="evenodd" clip-rule="evenodd" d="M8.57445 4.42892C8.89029 4.2495 9.28217 4.29782 9.56153 4.52999L11.0104 5.73403C11.4969 6.13834 12.237 5.94002 12.4561 5.34664L13.108 3.58167C13.2339 3.24089 13.5491 3.00318 13.9124 3.00034C13.9416 3.00011 13.9708 3 14 3C14.0292 3 14.0584 3.00011 14.0876 3.00034C14.4509 3.00318 14.7661 3.24089 14.892 3.58167L15.5439 5.34664C15.763 5.94003 16.5031 6.13833 16.9896 5.73403L18.4385 4.52999C18.7178 4.29782 19.1097 4.2495 19.4255 4.42892C19.4764 4.45781 19.527 4.4871 19.5774 4.51678C19.8898 4.70092 20.0433 5.06394 19.982 5.42139L19.6637 7.2779C19.5568 7.90138 20.0986 8.44317 20.7221 8.33628L22.5786 8.018C22.9361 7.95672 23.2991 8.11021 23.4832 8.42264C23.5129 8.47299 23.5422 8.52359 23.5711 8.57445C23.7505 8.89029 23.7022 9.28217 23.47 9.56153L22.266 11.0104C21.8617 11.4969 22.06 12.237 22.6534 12.4561L24.4183 13.108C24.7591 13.2339 24.9968 13.5491 24.9997 13.9124C24.9999 13.9416 25 13.9708 25 14C25 14.0292 24.9999 14.0584 24.9997 14.0876C24.9968 14.4509 24.7591 14.7661 24.4183 14.892L22.6534 15.5439C22.06 15.763 21.8617 16.5031 22.266 16.9896L23.47 18.4385C23.7022 18.7178 23.7505 19.1097 23.5711 19.4255C23.5422 19.4764 23.5129 19.527 23.4832 19.5774C23.2991 19.8898 22.9361 20.0433 22.5786 19.982L20.7221 19.6637C20.0986 19.5568 19.5568 20.0986 19.6637 20.7221L19.982 22.5786C20.0433 22.9361 19.8898 23.2991 19.5774 23.4832C19.527 23.5129 19.4764 23.5422 19.4255 23.5711C19.1097 23.7505 18.7178 23.7022 18.4385 23.47L16.9896 22.266C16.5031 21.8617 15.763 22.06 15.5439 22.6534L14.892 24.4183C14.7661 24.7591 14.4509 24.9968 14.0876 24.9997C14.0584 24.9999 14.0292 25 14 25C13.9708 25 13.9416 24.9999 13.9124 24.9997C13.5491 24.9968 13.2339 24.7591 13.108 24.4183L12.4561 22.6534C12.237 22.06 11.4969 21.8617 11.0104 22.266L9.56153 23.47C9.28217 23.7022 8.89029 23.7505 8.57445 23.5711C8.52359 23.5422 8.47299 23.5129 8.42264 23.4832C8.11021 23.2991 7.95672 22.9361 8.018 22.5786L8.33628 20.7221C8.44317 20.0986 7.90138 19.5568 7.2779 19.6637L5.42139 19.982C5.06394 20.0433 4.70092 19.8898 4.51678 19.5774C4.4871 19.527 4.45781 19.4764 4.42892 19.4255C4.2495 19.1097 4.29782 18.7178 4.52999 18.4385L5.73403 16.9896C6.13834 16.5031 5.94002 15.763 5.34664 15.5439L3.58167 14.892C3.24089 14.7661 3.00318 14.4509 3.00034 14.0876C3.00011 14.0584 3 14.0292 3 14C3 13.9708 3.00011 13.9416 3.00034 13.9124C3.00318 13.5491 3.24089 13.2339 3.58167 13.108L5.34664 12.4561C5.94003 12.237 6.13833 11.4969 5.73403 11.0104L4.52999 9.56153C4.29782 9.28217 4.2495 8.89029 4.42892 8.57445C4.45781 8.52359 4.4871 8.47299 4.51678 8.42264C4.70092 8.11021 5.06394 7.95672 5.42139 8.018L7.2779 8.33628C7.90138 8.44317 8.44317 7.90138 8.33628 7.2779L8.018 5.42139C7.95672 5.06394 8.11021 4.70092 8.42264 4.51678C8.47299 4.4871 8.52359 4.45781 8.57445 4.42892ZM19.5 14C19.5 17.0376 17.0376 19.5 14 19.5C10.9624 19.5 8.5 17.0376 8.5 14C8.5 10.9624 10.9624 8.5 14 8.5C17.0376 8.5 19.5 10.9624 19.5 14ZM15.003 11.5146C14.7914 11.6905 14.4694 11.6042 14.3741 11.3461C14.2457 10.9986 13.7543 10.9986 13.6259 11.3461C13.5306 11.6042 13.2086 11.6905 12.997 11.5146C12.7121 11.2779 12.2865 11.5236 12.3491 11.8887C12.3956 12.1599 12.1599 12.3956 11.8887 12.3491C11.5236 12.2865 11.2779 12.7121 11.5146 12.997C11.6905 13.2086 11.6042 13.5306 11.3461 13.6259C10.9986 13.7543 10.9986 14.2457 11.3461 14.3741C11.6042 14.4694 11.6905 14.7914 11.5146 15.003C11.2779 15.2879 11.5236 15.7135 11.8887 15.6509C12.1599 15.6044 12.3956 15.8401 12.3491 16.1113C12.2865 16.4764 12.7121 16.7221 12.997 16.4854C13.2086 16.3095 13.5306 16.3958 13.6259 16.6539C13.7543 17.0014 14.2457 17.0014 14.3741 16.6539C14.4694 16.3958 14.7914 16.3095 15.003 16.4854C15.2879 16.7221 15.7135 16.4764 15.6509 16.1113C15.6044 15.8401 15.8401 15.6044 16.1113 15.6509C16.4764 15.7135 16.7221 15.2879 16.4854 15.003C16.3095 14.7914 16.3958 14.4694 16.6539 14.3741C17.0014 14.2457 17.0014 13.7543 16.6539 13.6259C16.3958 13.5306 16.3095 13.2086 16.4854 12.997C16.7221 12.7121 16.4764 12.2865 16.1113 12.3491C15.8401 12.3956 15.6044 12.1599 15.6509 11.8887C15.7135 11.5236 15.2879 11.2779 15.003 11.5146Z" fill="#FF5B00"/>
</svg>
