<svg width="16" height="16" viewBox="0 0 16 16" fill="none" xmlns="http://www.w3.org/2000/svg">
<path fill-rule="evenodd" clip-rule="evenodd" d="M8.4982 1.3266C8.20531 1.03371 7.73044 1.03371 7.43754 1.3266L5.43061 3.33354C5.13771 3.62643 5.13771 4.10131 5.43061 4.3942C5.7235 4.68709 6.19837 4.68709 6.49127 4.3942L7.21787 3.66759V8.71245C7.21787 9.12667 7.55366 9.46245 7.96787 9.46245C8.38209 9.46245 8.71787 9.12667 8.71787 8.71245V3.66759L9.50887 4.45859C9.80176 4.75148 10.2766 4.75148 10.5695 4.45859C10.8624 4.1657 10.8624 3.69082 10.5695 3.39793L8.4982 1.3266ZM5.57227 5.33992H6V6.83992H5.57227C4.88191 6.83992 4.32227 7.39957 4.32227 8.08992V12.1428C4.32227 12.8331 4.88191 13.3928 5.57227 13.3928H10.4278C11.1182 13.3928 11.6778 12.8331 11.6778 12.1428V8.08992C11.6778 7.39957 11.1182 6.83992 10.4278 6.83992H10V5.33992H10.4278C11.9466 5.33992 13.1778 6.57114 13.1778 8.08992V12.1428C13.1778 13.6616 11.9466 14.8928 10.4278 14.8928H5.57227C4.05349 14.8928 2.82227 13.6616 2.82227 12.1428V8.08992C2.82227 6.57114 4.05348 5.33992 5.57227 5.33992Z" fill="#FF5B00"/>
</svg>
