<svg width="16" height="16" viewBox="0 0 16 16" fill="none" xmlns="http://www.w3.org/2000/svg">
    <path d="M6.5 14C6.77614 14 7 13.7761 7 13.5C7 13.2239 6.77614 13 6.5 13C6.22386 13 6 13.2239 6 13.5C6 13.7761 6.22386 14 6.5 14Z" stroke="#FF5B00" stroke-linecap="round" stroke-linejoin="round"/>
    <path d="M11.5 14C11.7761 14 12 13.7761 12 13.5C12 13.2239 11.7761 13 11.5 13C11.2239 13 11 13.2239 11 13.5C11 13.7761 11.2239 14 11.5 14Z" stroke="#FF5B00" stroke-linecap="round" stroke-linejoin="round"/>
    <path d="M2 2H4.18182L5.64364 10.0338C5.69352 10.31 5.83013 10.5582 6.02957 10.7348C6.22901 10.9114 6.47856 11.0052 6.73455 10.9998H12.0364C12.2923 11.0052 12.5419 10.9114 12.7413 10.7348C12.9408 10.5582 13.0774 10.31 13.1273 10.0338L14 4.99993H4.72727" stroke="#FF5B00" stroke-linecap="round" stroke-linejoin="round"/>
</svg>
