<svg width="24" height="24" viewBox="0 0 24 24" fill="none" xmlns="http://www.w3.org/2000/svg">
<path fill-rule="evenodd" clip-rule="evenodd" d="M18 13.3846V6.46154C18 6.20662 17.8081 6 17.5714 6C17.3347 6 17.1429 6.20662 17.1429 6.46154V8.22492C16.7226 8.32615 16.2774 8.32615 15.8571 8.22492V6.46154C15.8571 6.20662 15.6653 6 15.4286 6C15.1919 6 15 6.20662 15 6.46154V12.4615C15 13.9038 13.7193 14.3105 12.4286 14.3077C12.4216 14.3077 12.415 14.3078 12.4084 14.308C12.4019 14.3082 12.3955 14.3083 12.3887 14.3083C12.2091 15.3443 11.4219 16.1475 10.1816 16.1475C9.121 16.1475 8.25029 15.8451 7.57957 15.3715C6.53243 16.1729 6 17.2422 6 18H13.7143C16.0811 18 18 15.9335 18 13.3846ZM10.3606 12.9159C10.1256 12.9605 9.90502 12.7924 9.86359 12.5421C9.82245 12.2912 9.97787 12.0515 10.2109 12.0068C10.8153 11.8927 11.4253 12.0485 11.844 12.4265C12.1203 12.6759 12.2989 13.0033 12.3787 13.3847L12.3834 13.3845H12.4303C13.5703 13.3845 14.1429 13.0739 14.1429 12.4615V10.4085C13.369 9.091 11.7952 8.30762 10.2857 8.30762C8.51059 8.30762 6.85716 9.85746 6.85716 11.7692C6.85716 13.0348 7.41873 14.1912 8.36502 14.7913C8.8473 15.0522 9.43773 15.2141 10.1317 15.2219C11.109 15.2065 11.5714 14.6368 11.5714 13.8461C11.5714 13.5402 11.4779 13.3005 11.293 13.1339C11.0666 12.9292 10.7186 12.847 10.3606 12.9159Z" fill="#707070"/>
</svg>
