<svg width="12" height="13" viewBox="0 0 12 13" fill="none" xmlns="http://www.w3.org/2000/svg">
<path d="M8.87256 7.24902L4.46729 2.85645H4.65771C4.6958 2.85645 4.73389 2.83105 4.76562 2.80566L7.31738 0.437988C7.64746 0.133301 7.84424 0 8.14258 0C8.57422 0 8.87256 0.336426 8.87256 0.749023V7.24902ZM11.0625 11.8638L0.188965 0.996582C-0.00146484 0.8125 -0.00146484 0.48877 0.188965 0.304688C0.379395 0.114258 0.696777 0.114258 0.887207 0.304688L11.7544 11.1719C11.9448 11.3623 11.9448 11.667 11.7544 11.8638C11.5703 12.0542 11.2529 12.0542 11.0625 11.8638ZM2.60742 8.17578C1.74414 8.17578 1.3125 7.74414 1.3125 6.82373V4.39258C1.3125 3.96729 1.40771 3.6499 1.5918 3.44043L8.82812 10.6704C8.72656 11.0322 8.479 11.1973 8.14893 11.1973C7.85693 11.1973 7.61572 11.0767 7.31738 10.7974L4.5752 8.23291C4.53076 8.19482 4.47998 8.17578 4.4165 8.17578H2.60742Z" fill="#FF5B00"/>
</svg>
