<svg width="24" height="24" viewBox="0 0 24 24" fill="none" xmlns="http://www.w3.org/2000/svg">
<path d="M11.7501 11.2522C11.5512 11.2522 11.3604 11.1732 11.2198 11.0326C11.0791 10.8919 11.0001 10.7012 11.0001 10.5022V10.2772L10.5329 10.2195C10.4351 10.2074 10.3407 10.1761 10.255 10.1275C10.1694 10.0789 10.0941 10.0139 10.0335 9.93625C9.91124 9.77935 9.85628 9.58029 9.88075 9.38287C9.90521 9.18545 10.0071 9.00584 10.164 8.88354C10.2417 8.82299 10.3305 8.77832 10.4255 8.75211C10.5204 8.72589 10.6196 8.71863 10.7174 8.73075L11.7914 8.8635C11.8333 8.86811 11.8758 8.86382 11.916 8.8509C11.9562 8.83797 11.9932 8.81671 12.0246 8.7885C12.0566 8.76047 12.0822 8.72584 12.0995 8.68701C12.1169 8.64817 12.1256 8.60603 12.1251 8.5635C12.1272 8.52286 12.1209 8.48223 12.1067 8.44408C12.0926 8.40594 12.0708 8.37107 12.0427 8.3416C12.0147 8.31214 11.9809 8.28869 11.9435 8.27268C11.9061 8.25668 11.8658 8.24845 11.8251 8.2485H11.6751C11.3104 8.24646 10.9548 8.13365 10.6556 7.92502C10.3564 7.71638 10.1277 7.42176 9.99965 7.0802C9.87165 6.73863 9.85044 6.36623 9.93883 6.01234C10.0272 5.65845 10.221 5.33976 10.4946 5.0985C10.6454 4.9725 10.8164 4.872 11.0001 4.80225V4.50225C11.0001 4.40376 11.0195 4.30623 11.0572 4.21524C11.0949 4.12424 11.1501 4.04156 11.2198 3.97192C11.2894 3.90228 11.3721 3.84703 11.4631 3.80934C11.5541 3.77165 11.6516 3.75225 11.7501 3.75225C11.8486 3.75225 11.9461 3.77165 12.0371 3.80934C12.1281 3.84703 12.2108 3.90228 12.2805 3.97192C12.3501 4.04156 12.4053 4.12424 12.443 4.21524C12.4807 4.30623 12.5001 4.40376 12.5001 4.50225V4.75425L12.9779 4.821C13.0763 4.83343 13.1713 4.86527 13.2574 4.91469C13.3435 4.96411 13.4189 5.03012 13.4792 5.10889C13.5396 5.18765 13.5837 5.27762 13.6091 5.37357C13.6344 5.46952 13.6405 5.56955 13.6269 5.66785C13.6133 5.76616 13.5803 5.86078 13.5299 5.94625C13.4794 6.03172 13.4125 6.10633 13.333 6.16576C13.2536 6.22518 13.1631 6.26825 13.0668 6.29245C12.9706 6.31665 12.8705 6.32151 12.7724 6.30675L11.7134 6.15675C11.6712 6.15054 11.6282 6.15364 11.5874 6.16582C11.5466 6.178 11.509 6.19897 11.4771 6.22725C11.4316 6.26736 11.3994 6.32032 11.3846 6.37913C11.3698 6.43795 11.3732 6.49987 11.3943 6.55672C11.4154 6.61358 11.4533 6.6627 11.5029 6.6976C11.5525 6.73251 11.6115 6.75156 11.6721 6.75225H11.8251C12.2473 6.7463 12.6582 6.88897 12.9858 7.1553C13.3135 7.42163 13.5371 7.79467 13.6175 8.20918C13.698 8.62369 13.6301 9.05328 13.4258 9.42283C13.2216 9.79238 12.8939 10.0784 12.5001 10.2307V10.5022C12.5001 10.7012 12.4211 10.8919 12.2805 11.0326C12.1398 11.1732 11.949 11.2522 11.7501 11.2522ZM21.4926 15.1087C21.4089 16.1185 21.091 17.0949 20.5642 17.9604C20.0373 18.8259 19.3159 19.5567 18.4574 20.0947C17.4308 20.6673 16.2712 20.9586 15.0959 20.9392C14.2167 20.9329 13.3429 20.8027 12.5001 20.5522V21.7522C12.5001 21.9512 12.4211 22.1419 12.2805 22.2826C12.1398 22.4232 11.949 22.5022 11.7501 22.5022C11.5512 22.5022 11.3604 22.4232 11.2198 22.2826C11.0791 22.1419 11.0001 21.9512 11.0001 21.7522V20.5522C10.1579 20.8035 9.28337 20.9347 8.40437 20.9422C7.22879 20.9607 6.06918 20.6684 5.04287 20.0947C4.1843 19.5567 3.46295 18.8259 2.93608 17.9604C2.40921 17.0949 2.09131 16.1185 2.00762 15.1087C1.98263 14.9347 2.01955 14.7575 2.11194 14.6079C2.20433 14.4584 2.34633 14.346 2.51312 14.2905C3.60205 13.8819 4.7659 13.7114 5.92627 13.7906C7.08663 13.8698 8.21655 14.1968 9.23987 14.7495C9.90805 15.1384 10.5036 15.6404 11.0001 16.233V13.4505C9.48584 13.2597 8.10117 12.499 7.12801 11.3233C6.15484 10.1475 5.66632 8.64508 5.7619 7.12182C5.85748 5.59856 6.52997 4.16898 7.64247 3.12409C8.75498 2.0792 10.2239 1.49756 11.7501 1.49756C13.2764 1.49756 14.7453 2.0792 15.8578 3.12409C16.9703 4.16898 17.6428 5.59856 17.7383 7.12182C17.8339 8.64508 17.3454 10.1475 16.3722 11.3233C15.3991 12.499 14.0144 13.2597 12.5001 13.4505V16.233C12.9966 15.6404 13.5922 15.1384 14.2604 14.7495C15.2835 14.1962 16.4135 13.8689 17.5739 13.7897C18.7344 13.7105 19.8983 13.8813 20.9871 14.2905C21.1539 14.346 21.2959 14.4584 21.3883 14.6079C21.4807 14.7575 21.5176 14.9347 21.4926 15.1087ZM10.8554 19.0282C10.4685 17.7722 9.62293 16.7078 8.48687 16.047C6.99311 15.2401 5.24145 15.0547 3.61187 15.531C3.72177 16.1997 3.9737 16.8371 4.3507 17.4003C4.72769 17.9635 5.22099 18.4393 5.79737 18.7957C6.57987 19.1779 7.43238 19.3957 8.3023 19.4357C9.17222 19.4757 10.0411 19.337 10.8554 19.0282ZM11.7501 12.0022C12.6401 12.0022 13.5102 11.7383 14.2502 11.2439C14.9902 10.7494 15.567 10.0466 15.9076 9.22432C16.2482 8.40206 16.3373 7.49726 16.1637 6.62434C15.99 5.75143 15.5614 4.9496 14.9321 4.32027C14.3028 3.69093 13.5009 3.26235 12.628 3.08872C11.7551 2.91508 10.8503 3.0042 10.028 3.34479C9.20578 3.68539 8.50298 4.26216 8.00851 5.00218C7.51404 5.7422 7.25012 6.61223 7.25012 7.50225C7.25131 8.69536 7.7258 9.83926 8.56946 10.6829C9.41311 11.5266 10.557 12.0011 11.7501 12.0022ZM19.8921 15.5273C18.2614 15.0499 16.5082 15.2353 15.0134 16.0432C13.8773 16.7041 13.0317 17.7684 12.6449 19.0245C13.4597 19.3338 14.3292 19.4727 15.1998 19.4328C16.0704 19.3928 16.9236 19.1747 17.7066 18.792C18.2826 18.4359 18.7756 17.9607 19.1526 17.3982C19.5296 16.8357 19.7817 16.1991 19.8921 15.531V15.5273Z" fill="#1373E4"/>
</svg>
