<svg width="28" height="28" viewBox="0 0 28 28" fill="none" xmlns="http://www.w3.org/2000/svg">
<path fill-rule="evenodd" clip-rule="evenodd" d="M20 15C16.6863 15 14 12.3137 14 9C14 5.68629 16.6863 3 20 3C23.3137 3 26 5.68629 26 9C26 12.3137 23.3137 15 20 15ZM20 11.5C18.6193 11.5 17.5 10.3807 17.5 9C17.5 7.61929 18.6193 6.5 20 6.5C21.3807 6.5 22.5 7.61929 22.5 9C22.5 10.3807 21.3807 11.5 20 11.5ZM13 9.25C13 9.52614 12.7761 9.75 12.5 9.75H11C9.92782 9.75 9.03079 10.4999 8.80487 11.5039C8.74425 11.7733 8.52614 12 8.25 12H7.75C7.47386 12 7.2465 11.7749 7.28288 11.5012C7.52681 9.66593 9.09805 8.25 11 8.25H12.5C12.7761 8.25 13 8.47386 13 8.75V9.25ZM15 18.75C15 18.4739 15.2239 18.25 15.5 18.25H17C18.0722 18.25 18.9692 17.5001 19.1951 16.4961C19.2558 16.2267 19.4739 16 19.75 16H20.25C20.5261 16 20.7535 16.2251 20.7171 16.4988C20.4732 18.3341 18.902 19.75 17 19.75H15.5C15.2239 19.75 15 19.5261 15 19.25V18.75ZM14 17C14 14.7909 12.2091 13 10 13H6C3.79086 13 2 14.7909 2 17V21C2 23.2091 3.79086 25 6 25H10C12.2091 25 14 23.2091 14 21V17ZM11.182 19.3536C11.3772 19.1583 11.3772 18.8417 11.182 18.6464L8.35355 15.818C8.15829 15.6228 7.84171 15.6228 7.64645 15.818L4.81802 18.6464C4.62276 18.8417 4.62276 19.1583 4.81802 19.3536L7.64645 22.182C7.84171 22.3772 8.15829 22.3772 8.35355 22.182L11.182 19.3536Z" fill="#FF5B00"/>
</svg>
