<svg width="17" height="14" viewBox="0 0 17 14" fill="none" xmlns="http://www.w3.org/2000/svg">
<path fill-rule="evenodd" clip-rule="evenodd" d="M12.2188 4.40323C11.2883 4.40323 10.4931 3.82187 10.1742 3.00134H0.75C0.335786 3.00134 0 2.66435 0 2.24866V2.15457C0 1.73887 0.335786 1.40188 0.75 1.40188H10.1742C10.4931 0.581358 11.2883 0 12.2188 0C13.1492 0 13.9444 0.581358 14.2633 1.40188H16.25C16.6642 1.40188 17 1.73887 17 2.15457V2.24866C17 2.66435 16.6642 3.00134 16.25 3.00134H14.2633C13.9444 3.82187 13.1492 4.40323 12.2188 4.40323ZM13.2125 2.20161C13.2125 2.75241 12.7676 3.19892 12.2188 3.19892C11.6699 3.19892 11.225 2.75241 11.225 2.20161C11.225 1.65081 11.6699 1.2043 12.2188 1.2043C12.7676 1.2043 13.2125 1.65081 13.2125 2.20161ZM0.75 10.9987H10.1742C10.4931 10.1781 11.2883 9.59678 12.2188 9.59678C13.1492 9.59678 13.9444 10.1781 14.2633 10.9987H16.25C16.6642 10.9987 17 11.3356 17 11.7513V11.8454C17 12.2611 16.6642 12.5981 16.25 12.5981H14.2633C13.9444 13.4186 13.1492 14 12.2188 14C11.2883 14 10.4931 13.4186 10.1742 12.5981H0.75C0.335786 12.5981 0 12.2611 0 11.8454V11.7513C0 11.3356 0.335786 10.9987 0.75 10.9987ZM13.2125 11.7984C13.2125 12.3492 12.7676 12.7957 12.2188 12.7957C11.6699 12.7957 11.225 12.3492 11.225 11.7984C11.225 11.2476 11.6699 10.8011 12.2188 10.8011C12.7676 10.8011 13.2125 11.2476 13.2125 11.7984ZM16.25 6.20027H6.82578C6.50688 5.37975 5.71172 4.79839 4.78125 4.79839C3.85078 4.79839 3.05562 5.37975 2.73672 6.20027H0.75C0.335786 6.20027 0 6.53726 0 6.95296V7.04704C0 7.46274 0.335786 7.79973 0.75 7.79973H2.73672C3.05562 8.62026 3.85078 9.20161 4.78125 9.20161C5.71172 9.20161 6.50688 8.62026 6.82578 7.79973H16.25C16.6642 7.79973 17 7.46274 17 7.04704V6.95296C17 6.53726 16.6642 6.20027 16.25 6.20027ZM5.775 7C5.775 7.5508 5.33008 7.99731 4.78125 7.99731C4.23242 7.99731 3.7875 7.5508 3.7875 7C3.7875 6.4492 4.23242 6.00269 4.78125 6.00269C5.33008 6.00269 5.775 6.4492 5.775 7Z" fill="#FF5B00"/>
</svg>
