<svg width="28" height="28" viewBox="0 0 28 28" fill="none" xmlns="http://www.w3.org/2000/svg">
<path fill-rule="evenodd" clip-rule="evenodd" d="M5 13C5 17.9706 9.02944 22 14 22C18.9706 22 23 17.9706 23 13C23 8.02944 18.9706 4 14 4C9.02944 4 5 8.02944 5 13ZM21 13C21 16.866 17.866 20 14 20C10.134 20 7 16.866 7 13C7 9.13401 10.134 6 14 6C17.866 6 21 9.13401 21 13ZM10.5 10.7615C10.5366 8.95978 11.811 7.70001 14.0596 7.70001C16.1543 7.70001 17.5386 8.86456 17.5386 10.5345C17.5386 11.6404 17.0039 12.4095 15.9712 13.0174C14.9971 13.5814 14.7261 13.9402 14.7261 14.658V15.0462H12.7852L12.7705 14.6214C12.6753 13.4715 13.0781 12.8123 14.0889 12.2191C15.0337 11.6551 15.3193 11.2962 15.3193 10.6004C15.3193 9.9046 14.7627 9.39923 13.9277 9.39923C13.0854 9.39923 12.5288 9.9339 12.4849 10.7615H10.5ZM12.5874 17.3973C12.5874 18.0418 13.1221 18.5472 13.7812 18.5472C14.4478 18.5472 14.9824 18.0418 14.9824 17.3973C14.9824 16.7527 14.4478 16.2474 13.7812 16.2474C13.1221 16.2474 12.5874 16.7527 12.5874 17.3973Z" fill="#FF5B00"/>
</svg>
