<svg width="24" height="24" viewBox="0 0 24 24" fill="none" xmlns="http://www.w3.org/2000/svg">
<path fill-rule="evenodd" clip-rule="evenodd" d="M13.1543 7.06116H5.6011C5.26912 7.06116 5 7.31624 5 7.6309V7.70212C5 8.01678 5.26912 8.27186 5.6011 8.27186H13.1543C13.4099 8.89295 14.0472 9.333 14.793 9.333C15.5387 9.333 16.176 8.89295 16.4316 8.27186H18.0239C18.3559 8.27186 18.625 8.01678 18.625 7.70212V7.6309C18.625 7.31624 18.3559 7.06116 18.0239 7.06116H16.4316C16.176 6.44006 15.5387 6 14.793 6C14.0472 6 13.4099 6.44006 13.1543 7.06116ZM14.7929 8.4216C15.2328 8.4216 15.5894 8.08361 15.5894 7.66669C15.5894 7.24976 15.2328 6.91178 14.7929 6.91178C14.353 6.91178 13.9964 7.24976 13.9964 7.66669C13.9964 8.08361 14.353 8.4216 14.7929 8.4216ZM5.6011 15.8393H13.1544C13.4099 15.2182 14.0472 14.7782 14.793 14.7782C15.5387 14.7782 16.176 15.2182 16.4316 15.8393H18.0239C18.3559 15.8393 18.625 16.0944 18.625 16.4091V16.4803C18.625 16.7949 18.3559 17.05 18.0239 17.05H16.4316C16.176 17.6711 15.5387 18.1112 14.793 18.1112C14.0472 18.1112 13.4099 17.6711 13.1543 17.05H5.6011C5.26912 17.05 5 16.7949 5 16.4803V16.4091C5 16.0944 5.26912 15.8393 5.6011 15.8393ZM15.5894 16.4448C15.5894 16.8617 15.2328 17.1997 14.7929 17.1997C14.353 17.1997 13.9965 16.8617 13.9965 16.4448C13.9965 16.0278 14.353 15.6898 14.7929 15.6898C15.2328 15.6898 15.5894 16.0278 15.5894 16.4448ZM7.19342 11.4503H5.60112C5.26914 11.4503 5.00002 11.7054 5.00002 12.02V12.0913C5.00002 12.4059 5.26914 12.661 5.60112 12.661H7.19343C7.44902 13.2821 8.08632 13.7221 8.83206 13.7221C9.57785 13.7221 10.2152 13.282 10.4707 12.6609H18.024C18.3559 12.6609 18.6251 12.4058 18.6251 12.0911V12.0199C18.6251 11.7052 18.3559 11.4502 18.024 11.4502H10.4706C10.215 10.8291 9.57775 10.3891 8.83206 10.3891C8.08631 10.3891 7.449 10.8292 7.19342 11.4503ZM8.83202 12.8105C9.2719 12.8105 9.62848 12.4725 9.62848 12.0556C9.62848 11.6387 9.2719 11.3007 8.83202 11.3007C8.39215 11.3007 8.03556 11.6387 8.03556 12.0556C8.03556 12.4725 8.39215 12.8105 8.83202 12.8105Z" fill="#DDDDDD"/>
</svg>
