<svg width="32" height="32" viewBox="0 0 32 32" fill="none" xmlns="http://www.w3.org/2000/svg">
<path d="M15.4844 21.3906C14.125 21.1328 13.1992 20.6172 12.5078 19.9375C9.60156 17.0312 9.625 12.9531 12.4961 10.082L16.5742 5.99219C19.4453 3.12109 23.5234 3.09766 26.4297 6.01562C29.3359 8.92188 29.3242 13 26.4414 15.8711L23.0781 19.2227C23.2773 18.3203 23.1602 17.2773 22.7852 16.4219L24.8008 14.4062C26.7695 12.4375 26.7812 9.64844 24.7891 7.64453C22.8086 5.66406 20.0078 5.66406 18.0273 7.64453L14.1367 11.5352C12.168 13.5039 12.168 16.3164 14.1484 18.2969C14.875 19.0234 15.8594 19.4688 17.2656 19.5977L15.4844 21.3906ZM16.5156 11.5117C17.8867 11.7695 18.8125 12.2852 19.4922 12.9766C22.3984 15.8711 22.3867 19.9492 19.5039 22.832L15.4375 26.9102C12.5664 29.7812 8.48828 29.8047 5.58203 26.8984C2.67578 23.9922 2.6875 19.9023 5.57031 17.0312L8.92188 13.6797C8.72266 14.5938 8.85156 15.625 9.21484 16.4805L7.21094 18.4961C5.23047 20.4648 5.21875 23.2656 7.21094 25.2578C9.20312 27.2383 11.9922 27.2383 13.9727 25.2578L17.8633 21.3672C19.8438 19.3984 19.8438 16.5977 17.8516 14.6055C17.1367 13.8906 16.1406 13.4336 14.7461 13.3047L16.5156 11.5117Z" fill="#FF5B00"/>
</svg>
