<svg width="248" height="104" viewBox="0 0 248 104" fill="none" xmlns="http://www.w3.org/2000/svg">
<g clip-path="url(#clip0_22215_228105)">
<path d="M82.4751 44.8375V39.7H106.713V44.8375H97.6751V69.2H91.5126V44.8375H82.4751Z" fill="white"/>
<path d="M116.75 69.6252C114.475 69.6252 112.513 69.1627 110.875 68.2377C109.238 67.3127 107.975 66.0002 107.088 64.2877C106.2 62.5877 105.763 60.5627 105.763 58.2251C105.763 55.9501 106.2 53.9501 107.088 52.2376C107.975 50.5126 109.213 49.1751 110.825 48.2126C112.438 47.2501 114.325 46.7751 116.5 46.7751C117.963 46.7751 119.325 47.0126 120.588 47.4751C121.85 47.9376 122.95 48.6376 123.9 49.5751C124.85 50.5126 125.588 51.6751 126.113 53.0877C126.638 54.5002 126.9 56.1377 126.9 58.0252V59.7127H108.225V55.9126H121.138C121.138 55.0251 120.95 54.2501 120.563 53.5626C120.175 52.8751 119.65 52.3501 118.975 51.9501C118.3 51.5626 117.513 51.3626 116.625 51.3626C115.688 51.3626 114.875 51.5751 114.15 52.0001C113.438 52.4251 112.875 53.0002 112.475 53.7127C112.075 54.4252 111.863 55.2251 111.85 56.1001V59.7127C111.85 60.8127 112.05 61.7502 112.463 62.5502C112.875 63.3502 113.45 63.9627 114.2 64.4002C114.95 64.8377 115.838 65.0502 116.863 65.0502C117.55 65.0502 118.163 64.9502 118.738 64.7627C119.3 64.5752 119.788 64.2877 120.188 63.9002C120.588 63.5127 120.9 63.0502 121.113 62.4877L126.788 62.8627C126.5 64.2252 125.913 65.4127 125.025 66.4252C124.138 67.4377 122.988 68.2252 121.6 68.7877C120.188 69.3502 118.575 69.6252 116.75 69.6252Z" fill="white"/>
<path d="M130.913 69.2001V47.0751H136.763V50.9751H137.025C137.488 49.6751 138.25 48.6501 139.325 47.9126C140.4 47.1626 141.688 46.7876 143.188 46.7876C144.7 46.7876 146 47.1626 147.063 47.9126C148.125 48.6626 148.838 49.6876 149.2 50.9751H149.425C149.875 49.7126 150.7 48.6876 151.888 47.9251C153.075 47.1626 154.475 46.7751 156.1 46.7751C158.163 46.7751 159.838 47.4251 161.138 48.7376C162.425 50.0501 163.075 51.9001 163.075 54.3001V69.1876H156.95V55.5251C156.95 54.3001 156.625 53.3751 155.975 52.7626C155.325 52.1501 154.5 51.8376 153.525 51.8376C152.413 51.8376 151.538 52.1876 150.913 52.9001C150.288 53.6001 149.975 54.5376 149.975 55.6876V69.2001H144.025V55.4001C144.025 54.3126 143.713 53.4501 143.1 52.8126C142.475 52.1751 141.663 51.8501 140.663 51.8501C139.975 51.8501 139.363 52.0251 138.825 52.3626C138.288 52.7001 137.85 53.1751 137.538 53.7876C137.225 54.4001 137.063 55.1126 137.063 55.9251V69.2127H130.913V69.2001Z" fill="white"/>
<path d="M167.913 77.5002V47.0626H173.963V50.7751H174.238C174.513 50.1751 174.9 49.5751 175.413 48.9501C175.925 48.3251 176.6 47.8126 177.425 47.4001C178.25 46.9876 179.288 46.7751 180.525 46.7751C182.138 46.7751 183.625 47.2001 184.988 48.0376C186.35 48.8751 187.438 50.1376 188.263 51.8251C189.075 53.5126 189.488 55.6251 189.488 58.1626C189.488 60.6251 189.088 62.7126 188.3 64.4126C187.513 66.1126 186.438 67.3877 185.075 68.2627C183.713 69.1377 182.2 69.5627 180.513 69.5627C179.325 69.5627 178.313 69.3626 177.475 68.9752C176.65 68.5877 175.963 68.0877 175.438 67.4877C174.913 66.8877 174.5 66.2752 174.225 65.6626H174.038V77.5002H167.913ZM173.913 58.1377C173.913 59.4502 174.1 60.6002 174.463 61.5752C174.825 62.5502 175.35 63.3127 176.05 63.8626C176.738 64.4002 177.588 64.6751 178.575 64.6751C179.575 64.6751 180.425 64.4002 181.113 63.8501C181.8 63.3001 182.325 62.5252 182.688 61.5501C183.05 60.5626 183.225 59.4252 183.225 58.1377C183.225 56.8626 183.05 55.7376 182.688 54.7626C182.338 53.7876 181.813 53.0376 181.113 52.4876C180.425 51.9376 179.575 51.6626 178.563 51.6626C177.563 51.6626 176.725 51.9251 176.038 52.4501C175.35 52.9751 174.825 53.7251 174.463 54.7001C174.1 55.6751 173.913 56.8126 173.913 58.1377Z" fill="white"/>
<path d="M199.713 39.6875V69.1875H193.575V39.6875H199.713Z" fill="white"/>
<path d="M214.688 69.6252C212.413 69.6252 210.45 69.1627 208.813 68.2377C207.175 67.3127 205.913 66.0002 205.025 64.2877C204.138 62.5877 203.7 60.5627 203.7 58.2251C203.7 55.9501 204.138 53.9501 205.025 52.2376C205.913 50.5126 207.15 49.1751 208.763 48.2126C210.375 47.2501 212.263 46.7751 214.438 46.7751C215.9 46.7751 217.263 47.0126 218.525 47.4751C219.788 47.9376 220.888 48.6376 221.838 49.5751C222.788 50.5126 223.525 51.6751 224.05 53.0877C224.575 54.5002 224.838 56.1377 224.838 58.0252V59.7127H206.15V55.9126H219.063C219.063 55.0251 218.875 54.2501 218.488 53.5626C218.1 52.8751 217.575 52.3501 216.9 51.9501C216.225 51.5626 215.438 51.3626 214.55 51.3626C213.613 51.3626 212.8 51.5751 212.075 52.0001C211.363 52.4251 210.8 53.0002 210.4 53.7127C210 54.4252 209.788 55.2251 209.775 56.1001V59.7127C209.775 60.8127 209.975 61.7502 210.388 62.5502C210.8 63.3502 211.375 63.9627 212.125 64.4002C212.875 64.8377 213.763 65.0502 214.788 65.0502C215.475 65.0502 216.088 64.9502 216.663 64.7627C217.225 64.5752 217.713 64.2877 218.113 63.9002C218.513 63.5127 218.825 63.0502 219.038 62.4877L224.713 62.8627C224.425 64.2252 223.838 65.4127 222.95 66.4252C222.063 67.4377 220.913 68.2252 219.525 68.7877C218.125 69.3502 216.513 69.6252 214.688 69.6252Z" fill="white"/>
<path d="M57.4623 39.6875H67.3123L62.3873 20H27.9248L32.8498 39.6875H42.6873L47.6123 59.3875H41.4623L43.9248 69.225H50.0748L52.5373 79.075H67.3123L57.4623 39.6875Z" fill="url(#paint0_linear_22215_228105)"/>
<path d="M62.3874 44.6125H58.6874L57.4624 39.6875H67.3124L62.3874 44.6125Z" fill="url(#paint1_linear_22215_228105)"/>
<path d="M57.4625 29.85H35.3125L34.6875 27.3875H59.3125L57.4625 29.85Z" fill="url(#paint2_linear_22215_228105)"/>
<path d="M27.925 44.6125L23 24.925L27.925 20L32.85 39.6875L27.925 44.6125Z" fill="url(#paint3_linear_22215_228105)"/>
<path d="M50.075 69.2251H43.925L39 74.1501H45.15L50.075 69.2251Z" fill="url(#paint4_linear_22215_228105)"/>
<path d="M37.7748 44.6125H27.9248L32.8498 39.6875H42.6873L37.7748 44.6125Z" fill="url(#paint5_linear_22215_228105)"/>
<path d="M47.6124 59.3875H41.4624L37.7749 44.6125L42.6874 39.6875L47.6124 59.3875Z" fill="url(#paint6_linear_22215_228105)"/>
<path d="M43.9251 69.2249L41.4626 59.3875L36.5376 64.3125L39.0001 74.15L43.9251 69.2249Z" fill="url(#paint7_linear_22215_228105)"/>
<path d="M52.5374 79.0751L50.0749 69.2251L45.1499 74.1501L47.6124 84.0001L52.5374 79.0751Z" fill="url(#paint8_linear_22215_228105)"/>
<path d="M62.3874 79.0752L51.3124 34.7751L49.3374 36.7376L59.9249 79.0752L57.9499 81.0502H60.4124L62.3874 79.0752Z" fill="url(#paint9_linear_22215_228105)"/>
<path d="M61.1499 34.775H58.6874L57.4624 29.85L59.3124 27.3875L61.1499 34.775Z" fill="url(#paint10_linear_22215_228105)"/>
<path d="M62.3873 79.075L60.4123 81.0499H57.9498L59.9248 79.075H52.5373L47.6123 83.9999H62.3873L67.3123 79.075H62.3873Z" fill="url(#paint11_linear_22215_228105)"/>
</g>
<g filter="url(#filter0_d_22215_228105)">
<path fill-rule="evenodd" clip-rule="evenodd" d="M41.7587 14.5549C41.7587 14.5549 38.0919 11.2977 33.9258 10.2233C27.2546 8.50781 19.4263 11.1626 15.974 17.941C11.0055 27.6969 14.1267 34.1077 19.2481 42.3148C20.3173 44.0292 19.6897 49.9466 19.6897 49.9466L22.4498 47.9064C22.4498 47.9064 22.0799 40.3466 23.1493 35.1935C24.2187 30.0403 41.7612 14.5524 41.7612 14.5524L41.7587 14.5549Z" fill="#D92E2F"/>
<path opacity="0.2" fill-rule="evenodd" clip-rule="evenodd" d="M19.3779 34.878C18.7371 33.1871 17.2686 29.1016 17.2686 29.1016C17.2686 29.1016 17.7298 30.1505 18.3094 31.4176C18.8916 32.6873 20.6757 34.8569 20.6757 34.8569C20.6757 34.8569 21.7531 36.1825 22.9882 37.8948C23.0801 39.1284 23.3676 40.3403 23.7296 41.4484C22.4348 39.8844 20.3712 37.5134 19.373 34.878L19.3779 34.878Z" fill="#181714"/>
<path d="M23.4112 50.4567C22.1986 51.6637 20.2526 51.6748 19.0648 50.4814C17.8771 49.2881 17.8972 47.3422 19.1099 46.1352C20.3226 44.9282 22.2685 44.9171 23.4563 46.1105C24.6441 47.3038 24.6239 49.2497 23.4112 50.4567Z" fill="white"/>
<path fill-rule="evenodd" clip-rule="evenodd" d="M42.1848 13.2855C42.1848 13.2855 46.2727 17.8194 46.554 18.3849C46.8353 18.9503 47.2567 20.0833 45.2794 20.6423C38.9163 22.442 31.6814 27.003 29.2251 33.5217C27.9485 36.9085 27.4476 39.9433 26.741 40.3648C26.0344 40.7863 22.857 39.4349 21.9431 38.09C14.7926 27.5962 38.3278 9.73302 42.1848 13.2855Z" fill="white"/>
<path opacity="0.2" fill-rule="evenodd" clip-rule="evenodd" d="M26.1893 38.5999C27.2862 37.3598 28.2432 32.6893 30.9543 29.0466C33.6628 25.4014 39.1176 21.9547 40.8692 21.5907C42.4052 21.2731 45.6386 20.4577 46.751 18.9006C46.896 19.483 46.7584 20.2231 45.2767 20.6399C38.9136 22.4395 31.6787 27.0005 29.2224 33.5193C27.9458 36.906 27.4449 39.9409 26.7383 40.3624C26.3218 40.6088 25.047 40.2411 23.8842 39.6236C23.8842 39.6236 25.0924 39.84 26.1917 38.6024L26.1893 38.5999Z" fill="#181714"/>
</g>
<defs>
<filter id="filter0_d_22215_228105" x="1" y="2" width="54.6055" height="54.5811" filterUnits="userSpaceOnUse" color-interpolation-filters="sRGB">
<feFlood flood-opacity="0" result="BackgroundImageFix"/>
<feColorMatrix in="SourceAlpha" type="matrix" values="0 0 0 0 0 0 0 0 0 0 0 0 0 0 0 0 0 0 127 0" result="hardAlpha"/>
<feOffset dy="2"/>
<feGaussianBlur stdDeviation="1"/>
<feComposite in2="hardAlpha" operator="out"/>
<feColorMatrix type="matrix" values="0 0 0 0 0 0 0 0 0 0 0 0 0 0 0 0 0 0 0.25 0"/>
<feBlend mode="normal" in2="BackgroundImageFix" result="effect1_dropShadow_22215_228105"/>
<feBlend mode="normal" in="SourceGraphic" in2="effect1_dropShadow_22215_228105" result="shape"/>
</filter>
<linearGradient id="paint0_linear_22215_228105" x1="27.9229" y1="49.5385" x2="67.3075" y2="49.5385" gradientUnits="userSpaceOnUse">
<stop offset="0.00188079" stop-color="#FCC33C"/>
<stop offset="1" stop-color="#FFEE50"/>
</linearGradient>
<linearGradient id="paint1_linear_22215_228105" x1="67.3076" y1="42.1538" x2="57.4614" y2="42.1538" gradientUnits="userSpaceOnUse">
<stop stop-color="#FB9828"/>
<stop offset="1" stop-color="#F96C13"/>
</linearGradient>
<linearGradient id="paint2_linear_22215_228105" x1="59.3107" y1="28.6153" x2="34.6923" y2="28.6153" gradientUnits="userSpaceOnUse">
<stop stop-color="#F84200"/>
<stop offset="1" stop-color="#F96C13"/>
</linearGradient>
<linearGradient id="paint3_linear_22215_228105" x1="25.034" y1="20.7203" x2="30.8121" y2="43.8951" gradientUnits="userSpaceOnUse">
<stop stop-color="#F96C13"/>
<stop offset="1" stop-color="#FB9828"/>
</linearGradient>
<linearGradient id="paint4_linear_22215_228105" x1="39" y1="71.6924" x2="50.077" y2="71.6924" gradientUnits="userSpaceOnUse">
<stop stop-color="#F84200"/>
<stop offset="1" stop-color="#F96C13"/>
</linearGradient>
<linearGradient id="paint5_linear_22215_228105" x1="27.9229" y1="42.1538" x2="42.6921" y2="42.1538" gradientUnits="userSpaceOnUse">
<stop stop-color="#F84200"/>
<stop offset="1" stop-color="#F96C13"/>
</linearGradient>
<linearGradient id="paint6_linear_22215_228105" x1="44.7138" y1="60.108" x2="39.8032" y2="40.4126" gradientUnits="userSpaceOnUse">
<stop stop-color="#F96C13"/>
<stop offset="1" stop-color="#FB9828"/>
</linearGradient>
<linearGradient id="paint7_linear_22215_228105" x1="41.8923" y1="73.4327" x2="38.5695" y2="60.1057" gradientUnits="userSpaceOnUse">
<stop stop-color="#FB9828"/>
<stop offset="1" stop-color="#F96C13"/>
</linearGradient>
<linearGradient id="paint8_linear_22215_228105" x1="50.5075" y1="83.279" x2="47.1847" y2="69.952" gradientUnits="userSpaceOnUse">
<stop stop-color="#F96C13"/>
<stop offset="1" stop-color="#FB9828"/>
</linearGradient>
<linearGradient id="paint9_linear_22215_228105" x1="60.4145" y1="81.0456" x2="49.0188" y2="35.34" gradientUnits="userSpaceOnUse">
<stop stop-color="#F96C13"/>
<stop offset="1" stop-color="#F84200"/>
</linearGradient>
<linearGradient id="paint10_linear_22215_228105" x1="60.1806" y1="35.8091" x2="58.3393" y2="28.424" gradientUnits="userSpaceOnUse">
<stop stop-color="#F84200"/>
<stop offset="1" stop-color="#F96C13"/>
</linearGradient>
<linearGradient id="paint11_linear_22215_228105" x1="49.6801" y1="81.5384" x2="64.3895" y2="81.5384" gradientUnits="userSpaceOnUse">
<stop stop-color="#F84200"/>
<stop offset="1" stop-color="#F96C13"/>
</linearGradient>
<clipPath id="clip0_22215_228105">
<rect width="201.875" height="64" fill="white" transform="translate(23 20)"/>
</clipPath>
</defs>
</svg>
