<svg width="416" height="128" viewBox="0 0 416 128" fill="none" xmlns="http://www.w3.org/2000/svg">
    <g clip-path="url(#clip0)">
        <g clip-path="url(#clip1)">
            <path d="M124.95 49.6747V39.3997H173.425V49.6747H155.35V98.3997H143.025V49.6747H124.95Z" fill="#4A5568"/>
            <path d="M193.5 99.2506C188.95 99.2506 185.025 98.3256 181.75 96.4756C178.475 94.6255 175.95 92.0005 174.175 88.5755C172.4 85.1755 171.525 81.1255 171.525 76.4505C171.525 71.9005 172.4 67.9005 174.175 64.4755C175.95 61.0255 178.425 58.3505 181.65 56.4255C184.875 54.5005 188.65 53.5505 193 53.5505C195.925 53.5505 198.65 54.0255 201.175 54.9505C203.7 55.8755 205.9 57.2755 207.8 59.1505C209.7 61.0255 211.175 63.3505 212.225 66.1755C213.275 69.0005 213.8 72.2755 213.8 76.0505V79.4256H176.45V71.8255H202.275C202.275 70.0505 201.9 68.5005 201.125 67.1255C200.35 65.7505 199.3 64.7005 197.95 63.9005C196.6 63.1255 195.025 62.7255 193.25 62.7255C191.375 62.7255 189.75 63.1505 188.3 64.0005C186.875 64.8505 185.75 66.0005 184.95 67.4255C184.15 68.8505 183.725 70.4505 183.7 72.2005V79.4256C183.7 81.6256 184.1 83.5005 184.925 85.1005C185.75 86.7006 186.9 87.9256 188.4 88.8006C189.9 89.6756 191.675 90.1005 193.725 90.1005C195.1 90.1005 196.325 89.9006 197.475 89.5256C198.6 89.1506 199.575 88.5756 200.375 87.8006C201.175 87.0256 201.8 86.1005 202.225 84.9755L213.575 85.7255C213 88.4506 211.825 90.8256 210.05 92.8506C208.275 94.8755 205.975 96.4506 203.2 97.5756C200.375 98.7006 197.15 99.2506 193.5 99.2506Z" fill="#4A5568"/>
            <path d="M221.825 98.4005V54.1505H233.525V61.9505H234.05C234.975 59.3505 236.5 57.3005 238.65 55.8255C240.8 54.3255 243.375 53.5755 246.375 53.5755C249.4 53.5755 252 54.3255 254.125 55.8255C256.25 57.3255 257.675 59.3755 258.4 61.9505H258.85C259.75 59.4255 261.4 57.3755 263.775 55.8505C266.15 54.3255 268.95 53.5505 272.2 53.5505C276.325 53.5505 279.675 54.8505 282.275 57.4755C284.85 60.1005 286.15 63.8005 286.15 68.6005V98.3755H273.9V71.0505C273.9 68.6005 273.25 66.7505 271.95 65.5255C270.65 64.3005 269 63.6755 267.05 63.6755C264.825 63.6755 263.075 64.3755 261.825 65.8005C260.575 67.2005 259.95 69.0755 259.95 71.3755V98.4005H248.05V70.8005C248.05 68.6255 247.425 66.9005 246.2 65.6255C244.95 64.3505 243.325 63.7005 241.325 63.7005C239.95 63.7005 238.725 64.0505 237.65 64.7255C236.575 65.4005 235.7 66.3505 235.075 67.5755C234.45 68.8005 234.125 70.2255 234.125 71.8505V98.4255H221.825V98.4005Z" fill="#4A5568"/>
            <path d="M295.825 115.001V54.1255H307.925V61.5505H308.475C309.025 60.3505 309.8 59.1505 310.825 57.9005C311.85 56.6505 313.2 55.6255 314.85 54.8005C316.5 53.9755 318.575 53.5505 321.05 53.5505C324.275 53.5505 327.25 54.4005 329.975 56.0755C332.7 57.7505 334.875 60.2755 336.525 63.6505C338.15 67.0255 338.975 71.2505 338.975 76.3255C338.975 81.2505 338.175 85.4255 336.6 88.8255C335.025 92.2255 332.875 94.7756 330.15 96.5256C327.425 98.2756 324.4 99.1255 321.025 99.1255C318.65 99.1255 316.625 98.7255 314.95 97.9505C313.3 97.1755 311.925 96.1755 310.875 94.9755C309.825 93.7755 309 92.5505 308.45 91.3255H308.075V115.001H295.825ZM307.825 76.2755C307.825 78.9005 308.2 81.2005 308.925 83.1505C309.65 85.1005 310.7 86.6255 312.1 87.7255C313.475 88.8005 315.175 89.3505 317.15 89.3505C319.15 89.3505 320.85 88.8005 322.225 87.7005C323.6 86.6005 324.65 85.0505 325.375 83.1005C326.1 81.1255 326.45 78.8505 326.45 76.2755C326.45 73.7255 326.1 71.4755 325.375 69.5255C324.675 67.5755 323.625 66.0755 322.225 64.9755C320.85 63.8755 319.15 63.3255 317.125 63.3255C315.125 63.3255 313.45 63.8505 312.075 64.9005C310.7 65.9505 309.65 67.4505 308.925 69.4005C308.2 71.3505 307.825 73.6255 307.825 76.2755Z" fill="#4A5568"/>
            <path d="M359.425 39.375V98.375H347.15V39.375H359.425Z" fill="#4A5568"/>
            <path d="M389.375 99.2506C384.825 99.2506 380.9 98.3256 377.625 96.4756C374.35 94.6255 371.825 92.0005 370.05 88.5755C368.275 85.1755 367.4 81.1255 367.4 76.4505C367.4 71.9005 368.275 67.9005 370.05 64.4755C371.825 61.0255 374.3 58.3505 377.525 56.4255C380.75 54.5005 384.525 53.5505 388.875 53.5505C391.8 53.5505 394.525 54.0255 397.05 54.9505C399.575 55.8755 401.775 57.2755 403.675 59.1505C405.575 61.0255 407.05 63.3505 408.1 66.1755C409.15 69.0005 409.675 72.2755 409.675 76.0505V79.4256H372.3V71.8255H398.125C398.125 70.0505 397.75 68.5005 396.975 67.1255C396.2 65.7505 395.15 64.7005 393.8 63.9005C392.45 63.1255 390.875 62.7255 389.1 62.7255C387.225 62.7255 385.6 63.1505 384.15 64.0005C382.725 64.8505 381.6 66.0005 380.8 67.4255C380 68.8505 379.575 70.4505 379.55 72.2005V79.4256C379.55 81.6256 379.95 83.5005 380.775 85.1005C381.6 86.7006 382.75 87.9256 384.25 88.8006C385.75 89.6756 387.525 90.1005 389.575 90.1005C390.95 90.1005 392.175 89.9006 393.325 89.5256C394.45 89.1506 395.425 88.5756 396.225 87.8006C397.025 87.0256 397.65 86.1005 398.075 84.9755L409.425 85.7255C408.85 88.4506 407.675 90.8256 405.9 92.8506C404.125 94.8755 401.825 96.4506 399.05 97.5756C396.25 98.7006 393.025 99.2506 389.375 99.2506Z" fill="#4A5568"/>
            <path d="M74.9251 39.375H94.6251L84.7751 0H15.8501L25.7001 39.375H45.3751L55.2251 78.775H42.9251L47.8501 98.45H60.1501L65.0751 118.15H94.6251L74.9251 39.375Z" fill="url(#paint0_linear)"/>
            <path d="M84.7753 49.225H77.3753L74.9253 39.375H94.6253L84.7753 49.225Z" fill="url(#paint1_linear)"/>
            <path d="M74.925 19.6997H30.625L29.375 14.7747H78.625L74.925 19.6997Z" fill="url(#paint2_linear)"/>
            <path d="M15.85 49.225L6 9.85L15.85 0L25.7 39.375L15.85 49.225Z" fill="url(#paint3_linear)"/>
            <path d="M60.15 98.4504H47.85L38 108.3H50.3L60.15 98.4504Z" fill="url(#paint4_linear)"/>
            <path d="M35.5501 49.225H15.8501L25.7001 39.375H45.3751L35.5501 49.225Z" fill="url(#paint5_linear)"/>
            <path d="M55.2248 78.775H42.9248L35.5498 49.225L45.3748 39.375L55.2248 78.775Z" fill="url(#paint6_linear)"/>
            <path d="M47.8504 98.4499L42.9254 78.7749L33.0754 88.6249L38.0004 108.3L47.8504 98.4499Z" fill="url(#paint7_linear)"/>
            <path d="M65.0746 118.15L60.1496 98.4504L50.2996 108.3L55.2246 128L65.0746 118.15Z" fill="url(#paint8_linear)"/>
            <path d="M84.7753 118.15L62.6253 29.5503L58.6753 33.4753L79.8503 118.15L75.9003 122.1H80.8253L84.7753 118.15Z" fill="url(#paint9_linear)"/>
            <path d="M82.3003 29.5497H77.3753L74.9253 19.6997L78.6253 14.7747L82.3003 29.5497Z" fill="url(#paint10_linear)"/>
            <path d="M84.7751 118.15L80.8251 122.1H75.9001L79.8501 118.15H65.0751L55.2251 128H84.7751L94.6251 118.15H84.7751Z" fill="url(#paint11_linear)"/>
        </g>
    </g>
    <defs>
        <linearGradient id="paint0_linear" x1="15.8462" y1="59.077" x2="94.6155" y2="59.077" gradientUnits="userSpaceOnUse">
            <stop offset="0.00188079" stop-color="#FCC33C"/>
            <stop offset="1" stop-color="#FFEE50"/>
        </linearGradient>
        <linearGradient id="paint1_linear" x1="94.6157" y1="44.3077" x2="74.9234" y2="44.3077" gradientUnits="userSpaceOnUse">
            <stop stop-color="#FB9828"/>
            <stop offset="1" stop-color="#F96C13"/>
        </linearGradient>
        <linearGradient id="paint2_linear" x1="78.6213" y1="17.2304" x2="29.3846" y2="17.2304" gradientUnits="userSpaceOnUse">
            <stop stop-color="#F84200"/>
            <stop offset="1" stop-color="#F96C13"/>
        </linearGradient>
        <linearGradient id="paint3_linear" x1="10.0681" y1="1.44065" x2="21.6243" y2="47.7901" gradientUnits="userSpaceOnUse">
            <stop stop-color="#F96C13"/>
            <stop offset="1" stop-color="#FB9828"/>
        </linearGradient>
        <linearGradient id="paint4_linear" x1="37.9999" y1="103.385" x2="60.1539" y2="103.385" gradientUnits="userSpaceOnUse">
            <stop stop-color="#F84200"/>
            <stop offset="1" stop-color="#F96C13"/>
        </linearGradient>
        <linearGradient id="paint5_linear" x1="15.8462" y1="44.3077" x2="45.3847" y2="44.3077" gradientUnits="userSpaceOnUse">
            <stop stop-color="#F84200"/>
            <stop offset="1" stop-color="#F96C13"/>
        </linearGradient>
        <linearGradient id="paint6_linear" x1="49.4276" y1="80.2161" x2="39.6063" y2="40.8252" gradientUnits="userSpaceOnUse">
            <stop stop-color="#F96C13"/>
            <stop offset="1" stop-color="#FB9828"/>
        </linearGradient>
        <linearGradient id="paint7_linear" x1="43.7848" y1="106.865" x2="37.1392" y2="80.2114" gradientUnits="userSpaceOnUse">
            <stop stop-color="#FB9828"/>
            <stop offset="1" stop-color="#F96C13"/>
        </linearGradient>
        <linearGradient id="paint8_linear" x1="61.0147" y1="126.558" x2="54.3691" y2="99.9042" gradientUnits="userSpaceOnUse">
            <stop stop-color="#F96C13"/>
            <stop offset="1" stop-color="#FB9828"/>
        </linearGradient>
        <linearGradient id="paint9_linear" x1="80.8295" y1="122.091" x2="58.0381" y2="30.6801" gradientUnits="userSpaceOnUse">
            <stop stop-color="#F96C13"/>
            <stop offset="1" stop-color="#F84200"/>
        </linearGradient>
        <linearGradient id="paint10_linear" x1="80.3617" y1="31.618" x2="76.6791" y2="16.8478" gradientUnits="userSpaceOnUse">
            <stop stop-color="#F84200"/>
            <stop offset="1" stop-color="#F96C13"/>
        </linearGradient>
        <linearGradient id="paint11_linear" x1="59.3607" y1="123.077" x2="88.7794" y2="123.077" gradientUnits="userSpaceOnUse">
            <stop stop-color="#F84200"/>
            <stop offset="1" stop-color="#F96C13"/>
        </linearGradient>
        <clipPath id="clip0">
            <rect width="416" height="128" fill="white"/>
        </clipPath>
        <clipPath id="clip1">
            <rect width="403.75" height="128" fill="white" transform="translate(6)"/>
        </clipPath>
    </defs>
</svg>
