<svg xmlns="http://www.w3.org/2000/svg" width="24" height="24" viewBox="0 0 24 24" fill="none">
<path fill-rule="evenodd" clip-rule="evenodd" d="M23 5.45455C23 7.91472 21.0056 9.90909 18.5454 9.90909C16.0853 9.90909 14.0909 7.91472 14.0909 5.45455C14.0909 2.99437 16.0853 1 18.5454 1C21.0056 1 23 2.99437 23 5.45455ZM17.9092 2.909C17.9092 2.55755 18.1941 2.27264 18.5456 2.27264C18.897 2.27264 19.1819 2.55755 19.1819 2.909V4.81809H21.091C21.4425 4.81809 21.7274 5.103 21.7274 5.45446C21.7274 5.80591 21.4425 6.09082 21.091 6.09082H19.1819V7.99991C19.1819 8.35136 18.897 8.63627 18.5456 8.63627C18.1941 8.63627 17.9092 8.35136 17.9092 7.99991V6.09082H16.0001C15.6486 6.09082 15.3637 5.80591 15.3637 5.45446C15.3637 5.103 15.6486 4.81809 16.0001 4.81809H17.9092V2.909ZM18.2273 11.8182C18.5521 11.8182 18.8709 11.7925 19.1818 11.7432V20.7273C19.1818 21.4302 18.612 22 17.9091 22H3.27273C2.76278 22 2.32288 21.7001 2.11979 21.267L7.72733 15.9546L10.2728 18.5001L16.3434 11.5189C16.9362 11.7131 17.5695 11.8182 18.2273 11.8182ZM7.72733 13.091L2 18.8183V6.0909C2 5.38796 2.56982 4.81817 3.27273 4.81817H12.2568C12.2074 5.12913 12.1818 5.44793 12.1818 5.77272C12.1818 7.78859 13.1685 9.57401 14.6853 10.6724L10.2728 15.6364L7.72733 13.091ZM6.45462 10.5456C7.50899 10.5456 8.36371 9.69083 8.36371 8.63647C8.36371 7.5821 7.50899 6.72737 6.45462 6.72737C5.40026 6.72737 4.54553 7.5821 4.54553 8.63647C4.54553 9.69083 5.40026 10.5456 6.45462 10.5456Z" fill="#1373E4"/>
</svg>
