<svg width="28" height="28" viewBox="0 0 28 28" fill="none" xmlns="http://www.w3.org/2000/svg">
<path fill-rule="evenodd" clip-rule="evenodd" d="M23 23H5C3.34315 23 2 21.6569 2 20V8C2 6.34315 3.34315 5 5 5H23C24.6569 5 26 6.34315 26 8V9C26 9.55228 25.5523 10 25 10H20C17.7909 10 16 11.7909 16 14C16 16.2091 17.7909 18 20 18H25C25.5523 18 26 18.4477 26 19V20C26 21.6569 24.6569 23 23 23ZM25 17H20C18.3431 17 17 15.6569 17 14C17 12.3431 18.3431 11 20 11H25C25.5523 11 26 11.4477 26 12V16C26 16.5523 25.5523 17 25 17ZM20 13C20.5523 13 21 13.4477 21 14C21 14.5523 20.5523 15 20 15C19.4477 15 19 14.5523 19 14C19 13.4477 19.4477 13 20 13ZM8.314 14.384C8.19133 14.4107 8.06333 14.424 7.93 14.424C7.77533 14.424 7.65 14.384 7.554 14.304C7.458 14.2187 7.41 14.0933 7.41 13.928V11.824H10.962L9.354 13.336V14.184H9.818C10.2233 14.184 10.538 14.232 10.762 14.328C10.9913 14.4187 11.1513 14.544 11.242 14.704C11.3327 14.8587 11.378 15.0347 11.378 15.232C11.378 15.408 11.338 15.5733 11.258 15.728C11.1833 15.888 11.0553 16.016 10.874 16.112C10.6927 16.208 10.4393 16.256 10.114 16.256C9.86867 16.256 9.59667 16.224 9.298 16.16C9.00467 16.096 8.73 16.0027 8.474 15.88V16.904C8.97 17.112 9.546 17.216 10.202 17.216C10.746 17.216 11.194 17.1307 11.546 16.96C11.898 16.7947 12.1593 16.5653 12.33 16.272C12.5007 15.9787 12.586 15.6507 12.586 15.288C12.586 14.952 12.5247 14.6453 12.402 14.368C12.2793 14.0907 12.0793 13.8613 11.802 13.68C11.5247 13.4933 11.1513 13.3733 10.682 13.32L12.41 11.704V10.928H7.41V10H6.65L6.306 10.92L5.65 11.32V11.824H6.218V13.928C6.218 14.3013 6.27667 14.5947 6.394 14.808C6.51667 15.016 6.67933 15.1627 6.882 15.248C7.09 15.3333 7.32467 15.376 7.586 15.376C7.81 15.376 8.01533 15.3547 8.202 15.312C8.394 15.2747 8.554 15.2293 8.682 15.176V14.288C8.55933 14.3253 8.43667 14.3573 8.314 14.384Z" fill="#FF5B00"/>
</svg>
