<svg width="24" height="24" viewBox="0 0 24 24" fill="none" xmlns="http://www.w3.org/2000/svg">
<rect width="24" height="24" rx="12" fill="#2C7DF7"/>
<path d="M13.5324 19.5C12.5121 19.5 11.7675 19.2422 11.2984 18.7265C10.8638 18.2901 10.6116 17.6908 10.5969 17.0599C10.5917 16.8682 10.634 16.6783 10.7198 16.509C10.7998 16.3627 10.9155 16.2413 11.0549 16.1572C11.2169 16.0725 11.3954 16.0283 11.5765 16.0283C11.7575 16.0283 11.9361 16.0725 12.0981 16.1572C12.2373 16.241 12.3524 16.3625 12.4313 16.509C12.5196 16.6775 12.5635 16.8677 12.5586 17.0599C12.5677 17.2894 12.5049 17.5158 12.3799 17.7044C12.2756 17.8584 12.1266 17.9727 11.9552 18.0304C12.1229 18.2543 12.36 18.4094 12.6254 18.4687C12.9224 18.5592 13.2299 18.6057 13.5391 18.6069C13.9485 18.6107 14.3494 18.4849 14.6896 18.246C15.0426 17.9844 15.3058 17.6105 15.4402 17.1796C15.6107 16.6669 15.6938 16.1266 15.686 15.5836C15.6997 15.0175 15.6087 14.4539 15.4179 13.9242C15.2744 13.5005 15.002 13.1381 14.6427 12.8929C14.3087 12.6712 13.9211 12.5549 13.5259 12.5578C13.1815 12.5884 12.8495 12.7067 12.5586 12.9023L11.8413 13.2796V12.9023L15.0649 8.36534H10.5969V13.0734C10.5843 13.4132 10.67 13.749 10.8427 14.0367C10.9262 14.1621 11.0392 14.2627 11.1707 14.3288C11.3022 14.3949 11.4478 14.4243 11.5933 14.414C11.8621 14.4083 12.1221 14.3122 12.3349 14.1398C12.5762 13.9543 12.7861 13.7277 12.956 13.4695C12.9713 13.4242 12.9995 13.3849 13.0368 13.357C13.0667 13.3299 13.1049 13.3149 13.1445 13.3149C13.2221 13.3223 13.2955 13.3551 13.3545 13.4086C13.4291 13.4961 13.4698 13.6098 13.4684 13.7273C13.4597 13.8062 13.4463 13.8845 13.4282 13.9617C13.2694 14.3647 13.0034 14.7112 12.6619 14.9598C12.3447 15.185 11.97 15.3044 11.587 15.3023C10.6196 15.3023 9.9495 15.1023 9.57655 14.7023C9.38486 14.4813 9.23712 14.2223 9.14199 13.9406C9.04685 13.6588 9.00624 13.36 9.02252 13.0617V8.36534H6.75V7.49058H9.03311V5.49604L8.51039 4.94727V4.5H10.0272L10.5969 4.80942V7.49058L16.499 7.47175L17.0866 8.09048L13.4676 11.9058C13.6862 11.8136 13.9165 11.7552 14.1511 11.7324C14.6156 11.7537 15.0687 11.8894 15.4739 12.1285C15.9431 12.3625 16.3385 12.7327 16.6133 13.1953C16.8595 13.5869 17.0337 14.0233 17.1271 14.482C17.2039 14.8439 17.245 15.213 17.25 15.5837C17.2524 16.2911 17.0995 16.9896 16.8032 17.625C16.5222 18.2404 16.0493 18.7365 15.4627 19.0313C14.8624 19.3417 14.2017 19.5021 13.5324 19.5Z" fill="white"/>
</svg>
