<svg width="40" height="40" viewBox="0 0 40 40" fill="none" xmlns="http://www.w3.org/2000/svg">
<path d="M3.39892 15.7978C4.05584 16.0363 4.71276 15.7024 4.97865 15.0189C7.44991 8.19948 13.284 4.30493 19.7749 4.30493C22.5434 4.30493 24.6236 4.8454 26.5162 5.83096C27.2669 6.19657 27.9708 6.19657 28.2679 5.51304C28.5495 4.92488 28.2992 4.38441 27.6892 4.0188C25.2336 2.50868 22.8093 2 19.7749 2C12.0953 2 5.68249 6.22836 2.78893 13.938C2.46047 14.7964 2.77329 15.5594 3.39892 15.7978ZM5.79198 30.4222C6.183 30.9627 6.93376 31.074 7.48119 30.613C8.65426 29.5956 9.29554 27.9424 9.29554 26.1462C9.29554 23.8571 8.3258 22.6808 8.3258 19.9785C8.3258 13.6359 13.4717 8.39023 19.728 8.39023C27.1574 8.39023 32.0217 14.6056 32.0217 23.8889C32.0217 27.6086 31.4274 30.1361 30.8643 31.5032C30.5984 32.1072 30.833 32.7907 31.3648 33.061C31.9435 33.3471 32.7099 33.0769 32.9446 32.4251C33.5546 30.8037 34.2897 27.9424 34.2897 23.873C34.2897 13.2544 28.5025 6.10119 19.728 6.10119C12.236 6.10119 6.07351 12.3801 6.07351 19.9785C6.07351 22.6649 7.07453 24.4771 7.09017 26.1144C7.09017 27.2112 6.66787 28.1809 6.01095 28.8167C5.54172 29.2936 5.44788 29.9453 5.79198 30.4222ZM36.9486 21.9973C37.6055 21.9973 38.0435 21.4409 37.9966 20.7415C37.3709 14.0333 35.1812 9.97984 31.4743 6.4827C30.9582 6.00582 30.2387 6.10119 29.8477 6.56218C29.4254 7.02317 29.4879 7.6908 30.0197 8.21537C33.273 11.4423 35.3063 15.2256 35.8225 20.821C35.885 21.5045 36.323 21.9973 36.9486 21.9973ZM13.3309 24.0956C12.9242 23.0146 12.3924 21.7271 12.3924 20.0262C12.3924 15.8455 15.6614 12.5073 19.7749 12.5073C21.3234 12.5073 21.8239 12.6663 23.1064 13.2703C23.7164 13.5406 24.2795 13.3657 24.5141 12.8888C24.8269 12.3166 24.6705 11.6171 24.0136 11.2356C22.9031 10.5839 21.4485 10.2024 19.7749 10.2024C14.4257 10.2024 10.1089 14.5897 10.1089 20.0262C10.1089 21.9337 10.625 23.6823 11.1099 24.9699C11.3758 25.6534 12.0327 25.9395 12.7209 25.6693C13.3152 25.4308 13.5499 24.7632 13.3309 24.0956ZM25.8592 15.6547C27.2826 17.9279 28.0177 20.8846 28.0177 24.7155C28.0177 28.8008 26.9385 32.6954 25.2023 34.8572C24.8269 35.35 24.8269 36.0494 25.2492 36.4627C25.7498 36.9237 26.5474 36.876 26.9385 36.3356C28.9718 33.5537 30.2543 29.1664 30.2543 24.6519C30.2543 19.4857 29.1751 16.7993 27.8143 14.4307C27.4546 13.7949 26.7351 13.5883 26.1877 13.8903C25.5621 14.2082 25.4526 15.003 25.8592 15.6547ZM13.284 35.6838C15.9742 33.4902 17.4757 29.9771 17.4601 26.0826C17.4288 23.1418 16.4278 21.3614 16.4278 19.8354C16.4278 17.8802 17.7573 16.6085 19.7593 16.6085C22.5903 16.6085 23.779 19.7559 23.9041 24.5725C24.0605 29.4208 22.387 33.8081 19.9313 35.9541C19.4621 36.3674 19.3526 37.0032 19.6654 37.5119C20.0565 38.0682 20.8385 38.1795 21.3547 37.6867C24.0293 35.2228 26.0469 29.8818 26.0313 24.4135C26.0156 18.2617 24.1075 14.3195 19.7593 14.3195C16.5685 14.3195 14.1911 16.4972 14.1911 19.6447C14.1911 21.5522 15.1609 23.8412 15.1922 26.0826C15.2078 29.2936 14.0191 32.1231 11.8919 33.8876C11.3758 34.3168 11.2663 34.9685 11.6104 35.4931C12.0327 36.0812 12.7678 36.1448 13.284 35.6838ZM4.16532 25.7488C4.7284 25.5739 5.02557 24.954 4.88481 24.2863C4.47814 22.6172 4.25917 21.123 4.30609 18.9134C4.30609 18.2617 3.91507 17.7848 3.33636 17.7053C2.61688 17.6259 2.08509 18.071 2.03816 18.8022C1.91304 20.6938 2.08509 22.6649 2.71072 24.9222C2.89841 25.6057 3.53969 25.9554 4.16532 25.7488ZM21.5424 27.7835C21.9334 25.4626 21.7926 22.7444 20.9949 20.2487C20.7759 19.5175 20.1816 19.1996 19.556 19.3903C18.9616 19.5811 18.6331 20.1692 18.8208 20.8369C19.5403 23.2054 19.6498 25.3673 19.3213 27.4338C19.2119 28.0696 19.509 28.6578 20.1816 28.769C20.8229 28.8962 21.4172 28.4829 21.5424 27.7835ZM9.87425 33.522C11.1568 32.8543 12.7209 30.7719 13.1901 29.1346C13.3778 28.5306 13.0806 27.8788 12.4863 27.6722C11.9076 27.4655 11.3132 27.8153 11.0942 28.4511C10.6563 29.7546 9.95245 30.7242 8.84195 31.5032C8.23196 31.9641 8.05991 32.5523 8.27888 33.0769C8.52913 33.6491 9.20169 33.8876 9.87425 33.522ZM17.1003 37.0032C18.3829 36.0494 19.728 34.1578 20.4318 32.139C20.6665 31.5349 20.4475 30.8196 19.8375 30.6289C19.1649 30.3745 18.6019 30.7401 18.3516 31.3601C17.6634 33.0769 16.8188 34.2373 15.7239 35.1434C15.2234 35.5567 15.0983 36.2402 15.4268 36.7648C15.7552 37.3052 16.5373 37.4006 17.1003 37.0032Z" fill="#FF5B00"/>
</svg>
