<svg width="32" height="32" viewBox="0 0 32 32" fill="none" xmlns="http://www.w3.org/2000/svg">
<rect width="32" height="32" rx="16" fill="#FFDD5C"/>
<path transform="translate(-4,-4)" d="M22.59 19H26V17H24.32C24.74 16.34 25 15.68 25 15C25 12.37 22.5 11 20 11C17.65 11 15.53 13.06 15.29 13.29L16.71 14.71C17.19 14.23 18.71 13 20 13C21.04 13 23 13.42 23 15C23 15.5 22.5 16.24 21.76 17H14V19H19.63C19.21 19.36 17.75 20.67 17.41 21H14V23H15.68C15.26 23.66 15 24.32 15 25C15 27.63 17.5 29 20 29C22.35 29 24.47 26.94 24.71 26.71L23.29 25.29C22.82 25.77 21.29 27 20 27C18.96 27 17 26.58 17 25C17 24.5 17.5 23.76 18.24 23H26V21H20.38L22.59 19Z" fill="#DBA239"/>
</svg>
