<svg width="24" height="24" viewBox="0 0 24 24" fill="none" xmlns="http://www.w3.org/2000/svg">
<path fill-rule="evenodd" clip-rule="evenodd" d="M15.4021 1.25H7C5.48122 1.25 4.25 2.48122 4.25 4V20C4.25 21.5188 5.48122 22.75 7 22.75H17C18.5188 22.75 19.75 21.5188 19.75 20V6.9298C19.5071 6.97589 19.2563 7 19 7C18.7437 7 18.4929 6.97589 18.25 6.9298V20C18.25 20.6904 17.6904 21.25 17 21.25H7C6.30964 21.25 5.75 20.6904 5.75 20V4C5.75 3.30964 6.30964 2.75 7 2.75H15.0077C15.0407 2.2147 15.179 1.70788 15.4021 1.25ZM19.75 5.75769V4C19.75 2.48122 18.5188 1.25 17 1.25H16.7413C16.4141 1.67172 16.2024 2.18754 16.1536 2.75H17C17.6904 2.75 18.25 3.30964 18.25 4V5.75769C18.489 5.82254 18.7405 5.85714 19 5.85714C19.2595 5.85714 19.511 5.82254 19.75 5.75769ZM11.25 19C11.25 18.5858 11.5858 18.25 12 18.25H12.01C12.4242 18.25 12.76 18.5858 12.76 19C12.76 19.4142 12.4242 19.75 12.01 19.75H12C11.5858 19.75 11.25 19.4142 11.25 19ZM12.0578 7.09912C12.0036 7.09912 11.9514 7.10774 11.9026 7.12369C11.83 7.1473 11.7618 7.18793 11.7042 7.24557L8.24545 10.7043C8.05018 10.8996 8.05018 11.2161 8.24545 11.4114C8.44071 11.6067 8.75729 11.6067 8.95255 11.4114L11.5578 8.80614L11.5578 14.5166C11.5578 14.7927 11.7817 15.0166 12.0578 15.0166C12.334 15.0166 12.5578 14.7927 12.5578 14.5166L12.5578 8.80632L15.1629 11.4114C15.3582 11.6067 15.6748 11.6067 15.87 11.4114C16.0653 11.2161 16.0653 10.8996 15.87 10.7043L12.4171 7.25134C12.3262 7.15747 12.1988 7.09912 12.0578 7.09912ZM9 3L15 3C15 3.55228 14.5523 4 14 4H10C9.44772 4 9 3.55228 9 3Z" fill="#FF5B00"/>
<path d="M22 3C22 4.65685 20.6569 6 19 6C17.3431 6 16 4.65685 16 3C16 1.34315 17.3431 0 19 0C20.6569 0 22 1.34315 22 3Z" fill="#FF3B30"/>
</svg>
