<svg width="24" height="24" viewBox="0 0 24 24" fill="none" xmlns="http://www.w3.org/2000/svg">
    <path d="M17 2H7C5.89543 2 5 2.89543 5 4V20C5 21.1046 5.89543 22 7 22H17C18.1046 22 19 21.1046 19 20V4C19 2.89543 18.1046 2 17 2Z" stroke="#FF5B00" stroke-width="1.5" stroke-linecap="round" stroke-linejoin="round"/>
    <path d="M12 19H12.01" stroke="#FF5B00" stroke-width="1.5" stroke-linecap="round" stroke-linejoin="round"/>
    <path fill-rule="evenodd" clip-rule="evenodd" d="M11.9027 7.12381C11.9516 7.10787 12.0038 7.09924 12.0579 7.09924C12.1989 7.09924 12.3263 7.1576 12.4172 7.25147L15.8701 10.7044C16.0654 10.8997 16.0654 11.2163 15.8701 11.4115C15.6749 11.6068 15.3583 11.6068 15.163 11.4115L12.5579 8.80644L12.5579 14.5167C12.5579 14.7928 12.3341 15.0167 12.0579 15.0167C11.7818 15.0167 11.5579 14.7928 11.5579 14.5167L11.5579 8.80626L8.95267 11.4115C8.75741 11.6068 8.44083 11.6068 8.24557 11.4115C8.05031 11.2163 8.05031 10.8997 8.24557 10.7044L11.7043 7.24569C11.7619 7.18805 11.8302 7.14742 11.9027 7.12381Z" fill="#FF5B00"/>
    <path d="M9 3H15C15 3.55228 14.5523 4 14 4H10C9.44772 4 9 3.55228 9 3Z" fill="#FF5B00"/>
</svg>
