<svg width="24" height="24" viewBox="0 0 24 24" fill="none" xmlns="http://www.w3.org/2000/svg">
<path d="M16.7109 16.3438V5.84375C16.7109 5.40625 16.9844 5.14844 17.4297 5.14844H19.2344C19.6875 5.14844 19.9688 5.40625 19.9688 5.84375V16.3438C19.9688 16.7812 19.6875 17.0391 19.2344 17.0391H17.4297C16.9844 17.0391 16.7109 16.7812 16.7109 16.3438ZM12.4766 16.3438V8.07812C12.4766 7.64062 12.7578 7.38281 13.2031 7.38281H15.0078C15.4609 7.38281 15.7422 7.64062 15.7422 8.07812V16.3438C15.7422 16.7812 15.4609 17.0391 15.0078 17.0391H13.2031C12.7578 17.0391 12.4766 16.7812 12.4766 16.3438ZM8.25 16.3438V10.3125C8.25 9.89062 8.52344 9.625 8.96875 9.625H10.7812C11.2266 9.625 11.5078 9.89062 11.5078 10.3125V16.3438C11.5078 16.7812 11.2266 17.0391 10.7812 17.0391H8.96875C8.52344 17.0391 8.25 16.7812 8.25 16.3438ZM4.01562 16.3438V12.5547C4.01562 12.1172 4.29688 11.8516 4.75 11.8516H6.55469C7 11.8516 7.28125 12.1172 7.28125 12.5547V16.3438C7.28125 16.7812 7 17.0391 6.55469 17.0391H4.75C4.29688 17.0391 4.01562 16.7812 4.01562 16.3438ZM3.90625 19.5781C3.57031 19.5781 3.28125 19.3047 3.28125 18.9531C3.28125 18.6094 3.57031 18.3281 3.90625 18.3281H20.0781C20.4219 18.3281 20.7109 18.6094 20.7109 18.9531C20.7109 19.3047 20.4219 19.5781 20.0781 19.5781H3.90625Z" fill="#FF5B00"/>
</svg>
