<svg width="160" height="40" viewBox="0 0 160 40" fill="none" xmlns="http://www.w3.org/2000/svg">
<g clip-path="url(#clip0_9792_13487)">
<path fill-rule="evenodd" clip-rule="evenodd" d="M31.4628 28.913C29.8921 27.523 29.1074 25.6588 29.1074 23.3213V8.44232H33.4102V22.974C33.4102 25.28 34.6983 26.7331 37.4937 26.7331C40.2891 26.7331 41.5765 25.28 41.5765 22.974V8.44232H45.9106V23.3213C45.9106 25.6588 45.1259 27.523 43.5552 28.913C41.9846 30.3031 39.9744 30.9978 37.4937 30.9978C35.0429 30.9978 33.0329 30.3031 31.4628 28.913ZM64.3488 8.44212V12.6116H58.4126V30.5557H54.0777V12.6116H48.173V8.44212H64.3488ZM75.9073 26.7333C77.9174 26.7333 79.6134 26.0701 80.9641 24.7116C82.3149 23.3531 83.0055 21.6156 83.0055 19.4987C83.0055 17.3824 82.3149 15.6443 80.9641 14.2864C79.6134 12.9279 77.9174 12.2325 75.9073 12.2325C73.8972 12.2325 72.2011 12.9279 70.8504 14.2864C69.4998 15.6443 68.8091 17.3824 68.8091 19.4987C68.8091 21.6156 69.4998 23.3531 70.8504 24.7116C72.2011 26.0701 73.8972 26.7333 75.9073 26.7333ZM75.9073 30.9981C72.7352 30.9981 70.0338 29.8923 67.8037 27.6808C65.605 25.4378 64.5055 22.7215 64.5055 19.4987C64.5055 16.2767 65.605 13.5596 67.8037 11.3481C70.0338 9.10574 72.7352 8 75.9073 8C79.0795 8 81.7808 9.10574 84.011 11.3481C86.241 13.5596 87.3403 16.2767 87.3403 19.4987C87.3403 22.7215 86.241 25.4378 84.011 27.6808C81.7808 29.8923 79.0795 30.9981 75.9073 30.9981ZM94.722 12.5172V19.0565H99.1821C100.816 19.0565 102.166 17.5719 102.166 15.7715C102.166 13.9703 100.816 12.5172 99.1821 12.5172H94.722ZM102.448 30.5557L98.0201 22.8792H94.722V30.5557H90.3871V8.4422H99.1821C101.224 8.4422 102.951 9.1684 104.364 10.59C105.778 12.0116 106.5 13.749 106.5 15.7714C106.5 18.5193 104.804 21.0467 102.26 22.2161L107.128 30.5557H102.448ZM131 18.6774V20.3833C131 23.5429 129.994 26.1011 127.984 28.0598C125.974 30.0192 123.368 30.9982 120.195 30.9982C116.803 30.9982 113.976 29.8924 111.746 27.681C109.516 25.438 108.417 22.7208 108.417 19.5303C108.417 16.3083 109.516 13.5912 111.715 11.3482C113.945 9.10522 116.678 8.00016 119.944 8.00016C124.058 8.00016 127.639 10.0219 129.524 13.1494L125.818 15.2971C124.781 13.4967 122.52 12.2327 119.913 12.2327C117.808 12.2327 116.081 12.9281 114.73 14.3181C113.379 15.6767 112.72 17.4141 112.72 19.5303C112.72 21.6158 113.411 23.3532 114.761 24.7117C116.143 26.0702 117.965 26.7335 120.227 26.7335C123.588 26.7335 125.849 25.1537 126.633 22.5317H119.975V18.6774H131Z" fill="#FF5B00"/>
</g>
<defs>
<clipPath id="clip0_9792_13487">
<rect width="102" height="24" fill="white" transform="translate(29 8)"/>
</clipPath>
</defs>
</svg>
