<svg width="16" height="16" viewBox="0 0 16 16" fill="none" xmlns="http://www.w3.org/2000/svg">
    <path fill-rule="evenodd" clip-rule="evenodd"
          d="M8 16C12.4183 16 16 12.4183 16 8C16 3.58172 12.4183 0 8 0C3.58172 0 0 3.58172 0 8C0 12.4183 3.58172 16 8 16ZM4.71486 5.75227C4.42838 5.4658 4.42838 5.00133 4.71486 4.71486C5.00133 4.42838 5.4658 4.42838 5.75227 4.71486L8 6.96259L10.2477 4.71486C10.5342 4.42838 10.9987 4.42838 11.2851 4.71486C11.5716 5.00133 11.5716 5.4658 11.2851 5.75227L9.03741 8L11.2851 10.2477C11.5716 10.5342 11.5716 10.9987 11.2851 11.2851C10.9987 11.5716 10.5342 11.5716 10.2477 11.2851L8 9.03741L5.75227 11.2851C5.4658 11.5716 5.00133 11.5716 4.71486 11.2851C4.42838 10.9987 4.42838 10.5342 4.71486 10.2477L6.96259 8L4.71486 5.75227Z"
          fill="#C7C7CC"/>
</svg>
