<svg width="28" height="28" viewBox="0 0 28 28" fill="none" xmlns="http://www.w3.org/2000/svg">
    <path fill-rule="evenodd" clip-rule="evenodd" d="M4.375 12.8333C4.375 8.16192 8.16192 4.375 12.8333 4.375C17.5047 4.375 21.2917 8.16192 21.2917 12.8333C21.2917 15.1205 20.3839 17.1955 18.909 18.718C18.873 18.7443 18.8386 18.7738 18.8061 18.8063C18.7736 18.8388 18.7442 18.8732 18.7178 18.9092C17.1954 20.384 15.1204 21.2917 12.8333 21.2917C8.16192 21.2917 4.375 17.5047 4.375 12.8333ZM19.4065 20.6441C17.6306 22.1402 15.3372 23.0417 12.8333 23.0417C7.19543 23.0417 2.625 18.4712 2.625 12.8333C2.625 7.19543 7.19543 2.625 12.8333 2.625C18.4712 2.625 23.0417 7.19543 23.0417 12.8333C23.0417 15.3373 22.1401 17.6307 20.6439 19.4067L25.1185 23.8813C25.4602 24.223 25.4602 24.777 25.1185 25.1187C24.7768 25.4604 24.2228 25.4604 23.8811 25.1187L19.4065 20.6441ZM9.38128 9.38128C9.72299 9.03957 10.277 9.03957 10.6187 9.38128L13 11.7626L15.3813 9.38128C15.723 9.03957 16.277 9.03957 16.6187 9.38128C16.9604 9.72299 16.9604 10.277 16.6187 10.6187L14.2374 13L16.6187 15.3813C16.9604 15.723 16.9604 16.277 16.6187 16.6187C16.277 16.9604 15.723 16.9604 15.3813 16.6187L13 14.2374L10.6187 16.6187C10.277 16.9604 9.72299 16.9604 9.38128 16.6187C9.03957 16.277 9.03957 15.723 9.38128 15.3813L11.7626 13L9.38128 10.6187C9.03957 10.277 9.03957 9.72299 9.38128 9.38128Z" fill="#FF5B00"/>
</svg>
