<?xml version="1.0" encoding="UTF-8" standalone="no"?>
<svg
   width="12"
   height="12"
   viewBox="0 0 12 12"
   fill="none"
   version="1.1"
   id="svg941"
   xmlns="http://www.w3.org/2000/svg"
   xmlns:svg="http://www.w3.org/2000/svg">
  <g
     clip-path="url(#clip0_14568_300377)"
     id="g929"
     transform="translate(0,-0.5)">
    <g
       clip-path="url(#clip1_14568_300377)"
       id="g927">
      <path
         d="m 6,13.5 c -3.87917,0 -7,-3.1208 -7,-7 0,-3.87917 3.12083,-7 7,-7 3.87917,0 7,3.12083 7,7 0,3.8792 -3.12083,7 -7,7 z"
         fill="#f3ebdf"
         id="path921" />
      <path
         d="m 9.09999,3.6004 h -0.95 c -0.2,0 -0.375,0.125 -0.4,0.325 l -0.85,3.025 h -0.1 l -1,-3.05 c -0.05,-0.175 -0.225,-0.3 -0.4,-0.3 h -1.15 c -0.05,-0.025 -0.075,0.025 -0.05,0.075 l 1.425,4.075 c 0.05,0.1 0.1,0.125 0.225,0.125 h 0.725 c -0.3,1 -1.825,0.5 -2.2,0.4 -0.05,-0.025 -0.125,0.05 -0.1,0.125 l 0.325,0.975 c 0.025,0.05 0.05,0.075 0.1,0.075 0.175,0.05 0.825,0.225 1.525,0.1 0.95,-0.2 1.325,-1.075 1.475,-1.4 0.175,-0.425 1.35,-4 1.5,-4.45 -0.025,-0.05 -0.05,-0.1 -0.1,-0.1 z"
         fill="#143a3a"
         id="path923" />
      <path
         d="m 5.29989,7.775 -0.4,-1.1 C 4.87489,6.575 4.77489,6.5 4.64989,6.5 h -0.975 c -0.225,0 -0.4,0.225 -0.325,0.45 0.1,0.25 0.125,0.4 0.225,0.65 0.05,0.175 0.225,0.3 0.4,0.3 h 1.225 c 0.075,0 0.125,-0.075 0.1,-0.125 z"
         fill="#143a3a"
         id="path925" />
    </g>
  </g>
  <rect
     x="0.25"
     y="0.25"
     width="11.5"
     height="11.5"
     rx="3.75"
     stroke="#242424"
     stroke-width="0.5"
     id="rect931" />
  <defs
     id="defs939">
    <clipPath
       id="clip0_14568_300377">
      <rect
         y="0.5"
         width="12"
         height="12"
         rx="4"
         fill="#ffffff"
         id="rect933"
         x="0" />
    </clipPath>
    <clipPath
       id="clip1_14568_300377">
      <rect
         width="12"
         height="12"
         fill="#ffffff"
         transform="translate(0,0.5)"
         id="rect936"
         x="0"
         y="0" />
    </clipPath>
  </defs>
</svg>
