<?xml version="1.0" encoding="UTF-8" standalone="no"?>
<svg
   width="12"
   height="12"
   viewBox="0 0 12 12"
   fill="none"
   version="1.1"
   id="svg20494"
   xmlns="http://www.w3.org/2000/svg"
   xmlns:svg="http://www.w3.org/2000/svg">
  <g
     clip-path="url(#clip0_17844_12071)"
     id="g20482"
     transform="translate(0,-0.5)">
    <g
       clip-path="url(#clip1_17844_12071)"
       id="g20480">
      <path
         d="m 6,13.5 c -3.87917,0 -7,-3.1208 -7,-7 0,-3.87917 3.12083,-7 7,-7 3.87917,0 7,3.12083 7,7 0,3.8792 -3.12083,7 -7,7 z"
         fill="#143a3a"
         id="path20474" />
      <path
         d="m 9.10121,3.6004 h -0.95 c -0.2,0 -0.375,0.125 -0.4,0.325 l -0.85,3.025 h -0.1 l -1,-3.05 c -0.05,-0.175 -0.225,-0.3 -0.4,-0.3 h -1.15 c -0.05,-0.025 -0.075,0.025 -0.05,0.075 l 1.425,4.075 c 0.05,0.1 0.1,0.125 0.225,0.125 h 0.725 c -0.3,1 -1.825,0.5 -2.2,0.4 -0.05,-0.025 -0.125,0.05 -0.1,0.125 l 0.325,0.975 c 0.025,0.05 0.05,0.075 0.1,0.075 0.175,0.05 0.825,0.225 1.525,0.1 0.95,-0.2 1.325,-1.075 1.475,-1.4 0.175,-0.425 1.35,-4 1.5,-4.45 -0.025,-0.05 -0.05,-0.1 -0.1,-0.1 z"
         fill="#ffffff"
         id="path20476" />
      <path
         d="m 5.29965,7.775 -0.4,-1.1 C 4.87465,6.575 4.77465,6.5 4.64965,6.5 h -0.975 c -0.225,0 -0.4,0.225 -0.325,0.45 0.1,0.25 0.125,0.4 0.225,0.65 0.05,0.175 0.225,0.3 0.4,0.3 h 1.225 c 0.075,0 0.125,-0.075 0.1,-0.125 z"
         fill="#ffffff"
         id="path20478" />
    </g>
  </g>
  <rect
     x="0.25"
     y="0.25"
     width="11.5"
     height="11.5"
     rx="3.75"
     stroke="#e4e4e4"
     stroke-width="0.5"
     id="rect20484" />
  <defs
     id="defs20492">
    <clipPath
       id="clip0_17844_12071">
      <rect
         y="0.5"
         width="12"
         height="12"
         rx="4"
         fill="#ffffff"
         id="rect20486"
         x="0" />
    </clipPath>
    <clipPath
       id="clip1_17844_12071">
      <rect
         width="12"
         height="12"
         fill="#ffffff"
         transform="translate(0,0.5)"
         id="rect20489"
         x="0"
         y="0" />
    </clipPath>
  </defs>
</svg>
