<?xml version="1.0" encoding="UTF-8" standalone="no"?>
<svg
   width="24"
   height="24"
   viewBox="0 0 24 24"
   fill="none"
   version="1.1"
   id="svg1095"
   xmlns="http://www.w3.org/2000/svg"
   xmlns:svg="http://www.w3.org/2000/svg">
  <g
     clip-path="url(#clip0_15109_311202)"
     id="g1083">
    <g
       clip-path="url(#clip1_15109_311202)"
       id="g1081">
      <path
         d="M12 26C4.24167 26 -2 19.7583 -2 12C-2 4.24167 4.24167 -2 12 -2C19.7583 -2 26 4.24167 26 12C26 19.7583 19.7583 26 12 26Z"
         fill="#143A3A"
         id="path1075" />
      <path
         d="M18.2005 6.2008H16.3005C15.9005 6.2008 15.5505 6.4508 15.5005 6.8508L13.8005 12.9008H13.6005L11.6005 6.8008C11.5005 6.4508 11.1505 6.2008 10.8005 6.2008H8.50047C8.40047 6.1508 8.35047 6.2508 8.40047 6.3508L11.2505 14.5008C11.3505 14.7008 11.4505 14.7508 11.7005 14.7508H13.1505C12.5505 16.7508 9.50047 15.7508 8.75047 15.5508C8.65047 15.5008 8.50048 15.6508 8.55048 15.8008L9.20047 17.7508C9.25047 17.8508 9.30047 17.9008 9.40047 17.9008C9.75047 18.0008 11.0505 18.3508 12.4505 18.1008C14.3505 17.7008 15.1005 15.9508 15.4005 15.3008C15.7505 14.4508 18.1005 7.3008 18.4005 6.4008C18.3505 6.3008 18.3005 6.2008 18.2005 6.2008Z"
         fill="white"
         id="path1077" />
      <path
         d="M10.5998 14.55L9.79979 12.35C9.74979 12.15 9.54979 12 9.29979 12H7.34979C6.89979 12 6.54979 12.45 6.69979 12.9C6.89979 13.4 6.94979 13.7 7.14979 14.2C7.24979 14.55 7.59979 14.8 7.94979 14.8H10.3998C10.5498 14.8 10.6498 14.65 10.5998 14.55Z"
         fill="white"
         id="path1079" />
    </g>
  </g>
  <rect
     x="0.25"
     y="0.25"
     width="23.5"
     height="23.5"
     rx="5.75"
     stroke="#242424"
     stroke-width="0.5"
     id="rect1085"
     style="stroke:none" />
  <defs
     id="defs1093">
    <clipPath
       id="clip0_15109_311202">
      <rect
         width="24"
         height="24"
         rx="6"
         fill="white"
         id="rect1087" />
    </clipPath>
    <clipPath
       id="clip1_15109_311202">
      <rect
         width="24"
         height="24"
         fill="white"
         id="rect1090" />
    </clipPath>
  </defs>
</svg>
