<svg width="16" height="16" viewBox="0 0 16 16" fill="none" xmlns="http://www.w3.org/2000/svg">
<path d="M2.71582 14.6201C1.51953 14.6201 0.774414 13.7588 0.774414 12.6855C0.774414 12.3574 0.863281 12.0225 1.04785 11.7012L6.33887 2.47266C6.70117 1.83008 7.34375 1.50195 8 1.50195C8.64941 1.50195 9.29199 1.83008 9.66113 2.47266L14.9521 11.7012C15.1299 12.0156 15.2256 12.3574 15.2256 12.6855C15.2256 13.7588 14.4736 14.6201 13.2842 14.6201H2.71582ZM2.83203 13.335H13.1611C13.585 13.335 13.8584 13 13.8584 12.624C13.8584 12.5078 13.8311 12.3643 13.7627 12.2412L8.58789 3.18359C8.45801 2.95801 8.22559 2.8623 8 2.8623C7.77441 2.8623 7.53516 2.95801 7.40527 3.18359L2.23047 12.2275C2.16211 12.3574 2.1416 12.5078 2.1416 12.624C2.1416 13 2.40137 13.335 2.83203 13.335ZM8 9.89648C7.61719 9.89648 7.40527 9.67773 7.3916 9.29492L7.2959 5.95898C7.28223 5.5625 7.57617 5.28223 7.99316 5.28223C8.41016 5.28223 8.71094 5.56934 8.69727 5.96582L8.59473 9.28809C8.58789 9.68457 8.36914 9.89648 8 9.89648ZM8 12.1592C7.5625 12.1592 7.2002 11.8379 7.2002 11.4072C7.2002 10.9834 7.5625 10.6621 8 10.6621C8.44434 10.6621 8.7998 10.9766 8.7998 11.4072C8.7998 11.8379 8.4375 12.1592 8 12.1592Z" fill="currentColor" />
</svg>
