<svg width="15" height="14" viewBox="0 0 15 14" xmlns="http://www.w3.org/2000/svg">
<path d="M1.94141 13.1182C0.745117 13.1182 0 12.2568 0 11.1836C0 10.8555 0.0888672 10.5205 0.273438 10.1992L5.56445 0.970703C5.92676 0.328125 6.56934 0 7.22559 0C7.875 0 8.51758 0.328125 8.88672 0.970703L14.1777 10.1992C14.3555 10.5137 14.4512 10.8555 14.4512 11.1836C14.4512 12.2568 13.6992 13.1182 12.5098 13.1182H1.94141ZM2.05762 11.833H12.3867C12.8105 11.833 13.084 11.498 13.084 11.1221C13.084 11.0059 13.0566 10.8623 12.9883 10.7393L7.81348 1.68164C7.68359 1.45605 7.45117 1.36035 7.22559 1.36035C7 1.36035 6.76074 1.45605 6.63086 1.68164L1.45605 10.7256C1.3877 10.8555 1.36719 11.0059 1.36719 11.1221C1.36719 11.498 1.62695 11.833 2.05762 11.833ZM7.22559 8.39453C6.84277 8.39453 6.63086 8.17578 6.61719 7.79297L6.52148 4.45703C6.50781 4.06055 6.80176 3.78027 7.21875 3.78027C7.63574 3.78027 7.93652 4.06738 7.92285 4.46387L7.82031 7.78613C7.81348 8.18262 7.59473 8.39453 7.22559 8.39453ZM7.22559 10.6572C6.78809 10.6572 6.42578 10.3359 6.42578 9.90527C6.42578 9.48145 6.78809 9.16016 7.22559 9.16016C7.66992 9.16016 8.02539 9.47461 8.02539 9.90527C8.02539 10.3359 7.66309 10.6572 7.22559 10.6572Z" stroke="none" fill="currentColor" />
</svg>
