<svg width="16" height="16" viewBox="0 0 16 16" fill="none" xmlns="http://www.w3.org/2000/svg">
<path d="M3.1001 7.21387C2.66064 7.21387 2.33105 6.87695 2.33105 6.43018C2.33105 6.21777 2.41162 6.02734 2.58008 5.85156L7.40674 1.01758C7.56787 0.856445 7.78027 0.76123 8 0.76123C8.21973 0.76123 8.43213 0.856445 8.59326 1.01758L13.4199 5.85156C13.5884 6.02734 13.6689 6.21777 13.6689 6.43018C13.6689 6.87695 13.3467 7.21387 12.9072 7.21387C12.6802 7.21387 12.4824 7.11865 12.3359 6.97949L10.6733 5.33887L8.73975 3.17822L8.79834 4.76025V13.8569C8.79834 14.3403 8.47607 14.6699 8 14.6699C7.53125 14.6699 7.20166 14.3403 7.20166 13.8569V4.76025L7.26025 3.1709L5.32666 5.33887L3.66406 6.97949C3.5249 7.11865 3.31982 7.21387 3.1001 7.21387Z" fill="currentColor" />
</svg>
