<svg width="14" height="12" viewBox="0 0 14 12" xmlns="http://www.w3.org/2000/svg">
<path d="M4.12354 6.46729L2.41699 6.36475L4.57764 8.34229L6.21826 10.0049C6.36475 10.144 6.45264 10.3418 6.45264 10.5688C6.45264 11.0083 6.12305 11.3379 5.66162 11.3379C5.46387 11.3379 5.26611 11.2573 5.09033 11.0889L0.263672 6.26221C0.0952148 6.10107 0 5.88867 0 5.66895C0 5.44922 0.0952148 5.22949 0.263672 5.07568L5.07568 0.256348C5.26611 0.0732422 5.46387 0 5.66162 0C6.12305 0 6.45264 0.322266 6.45264 0.761719C6.45264 0.98877 6.36475 1.18652 6.21826 1.33301L4.57764 2.99561L2.41699 4.96582L4.12354 4.87061H13.0298C13.5059 4.87061 13.8428 5.19287 13.8428 5.66895C13.8428 6.1377 13.5059 6.46729 13.0298 6.46729H4.12354Z" stroke="none" fill="currentColor" />
</svg>
