<svg width="16" height="16" viewBox="0 0 16 16" fill="none" xmlns="http://www.w3.org/2000/svg">
<path d="M5.20215 8.50293L3.49561 8.40039L5.65625 10.3779L7.29688 12.0405C7.44336 12.1797 7.53125 12.3774 7.53125 12.6045C7.53125 13.0439 7.20166 13.3735 6.74023 13.3735C6.54248 13.3735 6.34473 13.293 6.16895 13.1245L1.34229 8.29785C1.17383 8.13672 1.07861 7.92432 1.07861 7.70459C1.07861 7.48486 1.17383 7.26514 1.34229 7.11133L6.1543 2.29199C6.34473 2.10889 6.54248 2.03564 6.74023 2.03564C7.20166 2.03564 7.53125 2.35791 7.53125 2.79736C7.53125 3.02441 7.44336 3.22217 7.29688 3.36865L5.65625 5.03125L3.49561 7.00146L5.20215 6.90625H14.1084C14.5845 6.90625 14.9214 7.22852 14.9214 7.70459C14.9214 8.17334 14.5845 8.50293 14.1084 8.50293H5.20215Z" fill="currentColor" />
</svg>
