<svg width="16" height="16" viewBox="0 0 16 16" fill="none" xmlns="http://www.w3.org/2000/svg">
<path d="M8 14.6699C7.78027 14.6699 7.56787 14.5747 7.40674 14.4136L2.58008 9.57959C2.41162 9.40381 2.33105 9.21338 2.33105 9.00098C2.33105 8.5542 2.66064 8.21729 3.1001 8.21729C3.31982 8.21729 3.5249 8.3125 3.66406 8.45166L5.32666 10.0923L7.26025 12.2603L7.20166 10.6709V1.57422C7.20166 1.09082 7.53125 0.76123 8 0.76123C8.47607 0.76123 8.79834 1.09082 8.79834 1.57422V10.6709L8.73975 12.2529L10.6733 10.0923L12.3359 8.45166C12.4824 8.3125 12.6802 8.21729 12.9072 8.21729C13.3467 8.21729 13.6689 8.5542 13.6689 9.00098C13.6689 9.21338 13.5884 9.40381 13.4199 9.57959L8.59326 14.4136C8.43213 14.5747 8.21973 14.6699 8 14.6699Z" fill="currentColor" />
</svg>
