<svg width="16" height="16" viewBox="0 0 16 16" fill="none" xmlns="http://www.w3.org/2000/svg">
<path d="M5.83203 11.1035C4.94141 11.1035 4.47266 10.5645 4.34375 9.68555L3.42969 3.46289H1.58398C1.29688 3.46289 1.04492 3.21094 1.04492 2.91797C1.04492 2.61914 1.29688 2.36719 1.58398 2.36719H3.59961C4.25 2.36719 4.44922 2.625 4.51953 3.12891L4.61328 3.77344H14.0176C14.416 3.77344 14.6562 4.00195 14.6562 4.3418C14.6562 4.40039 14.6445 4.5 14.6328 4.58203L14.1934 7.5293C14.0586 8.41406 13.5898 8.95898 12.6992 8.95898H5.36914L5.45703 9.56836C5.49805 9.86719 5.67383 10.0723 5.96094 10.0723H12.6523C12.9277 10.0723 13.168 10.2832 13.168 10.5879C13.168 10.8926 12.9277 11.1035 12.6523 11.1035H5.83203ZM13.4551 4.80469H4.76562L5.2168 7.92773H12.582C12.875 7.92773 13.0391 7.72852 13.0801 7.42383L13.4551 4.80469ZM6.30664 14.0332C5.74414 14.0332 5.29297 13.582 5.29297 13.0195C5.29297 12.4512 5.74414 12 6.30664 12C6.875 12 7.32031 12.4512 7.32031 13.0195C7.32031 13.582 6.875 14.0332 6.30664 14.0332ZM11.7266 14.0332C11.1641 14.0332 10.707 13.582 10.707 13.0195C10.707 12.4512 11.1641 12 11.7266 12C12.2949 12 12.7461 12.4512 12.7461 13.0195C12.7461 13.582 12.2949 14.0332 11.7266 14.0332Z" fill="currentColor" />
</svg>
