<svg width="16" height="16" viewBox="0 0 16 16" fill="none" xmlns="http://www.w3.org/2000/svg">
<path d="M12.375 8.06445C12.375 8.29688 12.293 8.49512 12.1084 8.67285L6.77637 13.8887C6.62598 14.0391 6.44141 14.1143 6.22266 14.1143C5.77832 14.1143 5.42285 13.7725 5.42285 13.3213C5.42285 13.1025 5.51855 12.9043 5.66211 12.7539L10.4746 8.06445L5.66211 3.375C5.51172 3.21777 5.42285 3.01953 5.42285 2.80078C5.42285 2.35645 5.77832 2.01465 6.22266 2.01465C6.44141 2.01465 6.62598 2.08984 6.77637 2.24023L12.1084 7.45605C12.2861 7.63379 12.375 7.83203 12.375 8.06445Z" fill="currentColor" />
</svg>
