<svg width="7" height="13" viewBox="0 0 7 13" xmlns="http://www.w3.org/2000/svg">
<path d="M6.95215 6.0498C6.95215 6.28223 6.87012 6.48047 6.68555 6.6582L1.35352 11.874C1.20312 12.0244 1.01855 12.0996 0.799805 12.0996C0.355469 12.0996 0 11.7578 0 11.3066C0 11.0879 0.0957031 10.8896 0.239258 10.7393L5.05176 6.0498L0.239258 1.36035C0.0888672 1.20312 0 1.00488 0 0.786133C0 0.341797 0.355469 0 0.799805 0C1.01855 0 1.20312 0.0751953 1.35352 0.225586L6.68555 5.44141C6.86328 5.61914 6.95215 5.81738 6.95215 6.0498Z" stroke="none" fill="currentColor" />
</svg>
