<svg width="16" height="16" viewBox="0 0 16 16" fill="none" xmlns="http://www.w3.org/2000/svg">
<path d="M8 15.126C4.10352 15.126 0.938477 11.9609 0.938477 8.06445C0.938477 4.16797 4.10352 1.00293 8 1.00293C11.8965 1.00293 15.0615 4.16797 15.0615 8.06445C15.0615 11.9609 11.8965 15.126 8 15.126ZM8 13.7314C11.1377 13.7314 13.6738 11.2021 13.6738 8.06445C13.6738 4.92676 11.1377 2.39062 8 2.39062C4.8623 2.39062 2.32617 4.92676 2.32617 8.06445C2.32617 11.2021 4.8623 13.7314 8 13.7314ZM4.54102 8.91211C4.2334 8.91211 4.00098 8.67285 4.00098 8.37207C4.00098 8.06445 4.2334 7.83203 4.54102 7.83203H7.45312V3.8877C7.45312 3.58691 7.69238 3.34766 7.99316 3.34766C8.30078 3.34766 8.54004 3.58691 8.54004 3.8877V8.37207C8.54004 8.67285 8.30078 8.91211 7.99316 8.91211H4.54102Z" fill="currentColor" />
</svg>
