<svg width="13" height="15" viewBox="0 0 13 15" xmlns="http://www.w3.org/2000/svg">
  <path d="M0 12.9785V4.92188C0 3.66211 0.650391 3 1.9043 3H2.89453V1.92188C2.89453 0.65625 3.55078 0 4.79883 0H7.00781C7.68164 0 8.20312 0.169922 8.64258 0.621094L11.5664 3.59766C12.0293 4.07227 12.1875 4.56445 12.1875 5.33203V9.97266C12.1875 11.2383 11.5371 11.8945 10.2832 11.8945H9.28711V12.9785C9.28711 14.2383 8.64258 14.9004 7.38867 14.9004H1.9043C0.650391 14.9004 0 14.2441 0 12.9785ZM8.70117 6.82031C9.19336 7.31836 9.28711 7.68164 9.28711 8.47266V10.7461H10.1836C10.7578 10.7461 11.0391 10.4473 11.0391 9.90234V5.05078H8.45508C7.73438 5.05078 7.34766 4.67578 7.34766 3.94922V1.14844H4.89844C4.33008 1.14844 4.04297 1.44727 4.04297 1.98633V3.00586C4.69336 3.01172 5.07422 3.13477 5.52539 3.5918L8.70117 6.82031ZM8.30859 3.80273C8.30859 4.00781 8.39648 4.08984 8.5957 4.08984H10.7402L8.30859 1.62305V3.80273ZM1.14844 12.9082C1.14844 13.4531 1.42969 13.752 1.99805 13.752H7.28906C7.85742 13.752 8.13867 13.4531 8.13867 12.9082V8.60742H5.04492C4.21289 8.60742 3.79688 8.19727 3.79688 7.35938V4.14844H1.99805C1.42969 4.14844 1.14844 4.45312 1.14844 4.99219V12.9082ZM5.15625 7.59375H7.98047L4.81055 4.37109V7.24805C4.81055 7.48828 4.91602 7.59375 5.15625 7.59375Z" stroke="none" fill="currentColor" />
</svg>
