<svg width="16" height="16" viewBox="0 0 16 16" fill="none" xmlns="http://www.w3.org/2000/svg">
<path d="M2.41406 13.187V5.80176C2.41406 4.64697 3.01025 4.04004 4.15967 4.04004H5.06738V3.05176C5.06738 1.8916 5.66895 1.29004 6.81299 1.29004H8.83789C9.45557 1.29004 9.93359 1.4458 10.3364 1.85938L13.0166 4.58789C13.4409 5.02295 13.5859 5.47412 13.5859 6.17773V10.4316C13.5859 11.5918 12.9897 12.1934 11.8403 12.1934H10.9272V13.187C10.9272 14.3418 10.3364 14.9487 9.18701 14.9487H4.15967C3.01025 14.9487 2.41406 14.3472 2.41406 13.187ZM10.3901 7.54199C10.8413 7.99854 10.9272 8.33154 10.9272 9.05664V11.1406H11.749C12.2754 11.1406 12.5332 10.8667 12.5332 10.3672V5.91992H10.1646C9.50391 5.91992 9.14941 5.57617 9.14941 4.91016V2.34277H6.9043C6.3833 2.34277 6.12012 2.6167 6.12012 3.11084V4.04541C6.71631 4.05078 7.06543 4.16357 7.479 4.58252L10.3901 7.54199ZM10.0303 4.77588C10.0303 4.96387 10.1108 5.03906 10.2935 5.03906H12.2593L10.0303 2.77783V4.77588ZM3.4668 13.1226C3.4668 13.6221 3.72461 13.896 4.24561 13.896H9.0957C9.6167 13.896 9.87451 13.6221 9.87451 13.1226V9.18018H7.03857C6.27588 9.18018 5.89453 8.8042 5.89453 8.03613V5.09277H4.24561C3.72461 5.09277 3.4668 5.37207 3.4668 5.86621V13.1226ZM7.14062 8.25098H9.72949L6.82373 5.29688V7.93408C6.82373 8.1543 6.92041 8.25098 7.14062 8.25098Z" fill="currentColor" />
</svg>
