<svg width="16" height="16" viewBox="0 0 16 16" fill="none" xmlns="http://www.w3.org/2000/svg">
<path d="M7.99365 15.5581C7.77148 15.5581 7.59375 15.374 7.59375 15.1582V14.0283C6.52734 13.9648 5.46094 13.6284 4.69287 12.9111C4.24854 12.4985 3.86133 11.832 3.86133 11.2354C3.86133 10.8354 4.15967 10.5562 4.59766 10.5562C4.96582 10.5562 5.19434 10.7529 5.33398 11.1147C5.62598 12.1177 6.48291 12.6255 7.59375 12.7271V8.96289L7.21924 8.87402C5.53711 8.49316 4.03271 7.69336 4.03271 5.87793C4.03271 3.96729 5.68945 2.90088 7.59375 2.77393V1.67578C7.59375 1.45996 7.77148 1.27588 7.99365 1.27588C8.21582 1.27588 8.39355 1.45996 8.39355 1.67578V2.77393C9.37744 2.84375 10.2979 3.17383 10.9961 3.80225C11.5229 4.24023 11.9419 4.93848 11.9419 5.53516C11.9419 5.94141 11.6372 6.18896 11.231 6.18896C10.8501 6.18896 10.6089 5.9668 10.4629 5.63037C10.1392 4.70996 9.40283 4.18945 8.39355 4.08154V7.67432L8.85059 7.78223C10.647 8.20752 12.1577 8.89941 12.1577 10.8291C12.1577 12.8286 10.4438 13.9077 8.39355 14.0283V15.1582C8.39355 15.374 8.21582 15.5581 7.99365 15.5581ZM5.56885 5.75098C5.56885 6.74756 6.45752 7.21094 7.59375 7.48389V4.08154C6.51465 4.1958 5.56885 4.76074 5.56885 5.75098ZM8.43799 9.15332L8.39355 9.14062V12.7334C9.59326 12.6509 10.6279 12.1367 10.6279 10.9751C10.6279 9.84521 9.71387 9.44531 8.43799 9.15332Z" fill="currentColor" />
</svg>
