<svg width="16" height="16" viewBox="0 0 16 16" fill="none" xmlns="http://www.w3.org/2000/svg">
<path d="M4.96533 6.34961C5.08887 6.34961 5.21777 6.39795 5.30371 6.49463L6.07178 7.31104L6.36182 7.66016L6.31348 6.85449V1.48877C6.31348 1.22559 6.53906 1 6.81299 1C7.08154 1 7.30713 1.22559 7.30713 1.48877V6.85449L7.26416 7.66016L7.54883 7.31104L8.31689 6.49463C8.40283 6.39795 8.52637 6.34961 8.6499 6.34961C8.8916 6.34961 9.0957 6.52686 9.0957 6.77393C9.0957 6.9082 9.04199 7.00488 8.95068 7.09082L7.18896 8.79346C7.06006 8.92236 6.94189 8.96533 6.81299 8.96533C6.67871 8.96533 6.56592 8.92236 6.43701 8.79346L4.66992 7.09082C4.57861 7.00488 4.5249 6.9082 4.5249 6.77393C4.5249 6.52686 4.72363 6.34961 4.96533 6.34961ZM4.26172 12.5962C2.7793 12.5962 1.95752 11.769 1.95752 10.292V6.15088C1.95752 4.67383 2.7793 3.85205 4.26172 3.85205H5.29834V4.90479H4.28857C3.47217 4.90479 3.01025 5.3667 3.01025 6.18311V10.2651C3.01025 11.0815 3.47217 11.5435 4.28857 11.5435H9.33203C10.1484 11.5435 10.6104 11.0815 10.6104 10.2651V6.18311C10.6104 5.3667 10.1484 4.90479 9.33203 4.90479H8.31689V3.85205H9.35889C10.8359 3.85205 11.6631 4.67383 11.6631 6.15088V6.22607H11.7329C13.21 6.22607 14.0371 7.05322 14.0371 8.53027V12.6714C14.0371 14.1484 13.21 14.9756 11.7329 14.9756H6.63574C5.15332 14.9756 4.33154 14.1484 4.33154 12.6714V12.5962H4.26172ZM6.6626 13.9229H11.7061C12.5225 13.9229 12.9844 13.4609 12.9844 12.6445V8.5625C12.9844 7.74072 12.5225 7.28418 11.7061 7.28418H11.6631V10.292C11.6631 11.769 10.8359 12.5962 9.35889 12.5962H5.38428V12.6445C5.38428 13.4609 5.84082 13.9229 6.6626 13.9229Z" fill="currentColor" />
</svg>
