<svg width="15" height="15" viewBox="0 0 15 15" xmlns="http://www.w3.org/2000/svg">
<path d="M7.06152 14.123C3.16504 14.123 0 10.958 0 7.06152C0 3.16504 3.16504 0 7.06152 0C10.958 0 14.123 3.16504 14.123 7.06152C14.123 10.958 10.958 14.123 7.06152 14.123ZM7.06152 12.7285C10.1992 12.7285 12.7354 10.1992 12.7354 7.06152C12.7354 3.92383 10.1992 1.3877 7.06152 1.3877C3.92383 1.3877 1.3877 3.92383 1.3877 7.06152C1.3877 10.1992 3.92383 12.7285 7.06152 12.7285ZM7.02051 4.81934C6.50781 4.81934 6.09766 4.40234 6.09766 3.89648C6.09766 3.37695 6.50781 2.9668 7.02051 2.9668C7.5332 2.9668 7.94336 3.37695 7.94336 3.89648C7.94336 4.40234 7.5332 4.81934 7.02051 4.81934ZM5.86523 10.8213C5.56445 10.8213 5.3252 10.6025 5.3252 10.2949C5.3252 10.0078 5.56445 9.78223 5.86523 9.78223H6.67871V6.9248H5.98828C5.68066 6.9248 5.44824 6.70605 5.44824 6.39844C5.44824 6.11133 5.68066 5.87891 5.98828 5.87891H7.27344C7.65625 5.87891 7.85449 6.14551 7.85449 6.54883V9.78223H8.62012C8.9209 9.78223 9.16016 10.0078 9.16016 10.2949C9.16016 10.6025 8.9209 10.8213 8.62012 10.8213H5.86523Z" stroke="none" fill="currentColor" />
</svg>
