<svg width="16" height="16" viewBox="0 0 16 16" fill="none" xmlns="http://www.w3.org/2000/svg">
<path d="M8 15.126C4.10352 15.126 0.938477 11.9609 0.938477 8.06445C0.938477 4.16797 4.10352 1.00293 8 1.00293C11.8965 1.00293 15.0615 4.16797 15.0615 8.06445C15.0615 11.9609 11.8965 15.126 8 15.126ZM8 13.7314C11.1377 13.7314 13.6738 11.2021 13.6738 8.06445C13.6738 4.92676 11.1377 2.39062 8 2.39062C4.8623 2.39062 2.32617 4.92676 2.32617 8.06445C2.32617 11.2021 4.8623 13.7314 8 13.7314ZM7.95898 5.82227C7.44629 5.82227 7.03613 5.40527 7.03613 4.89941C7.03613 4.37988 7.44629 3.96973 7.95898 3.96973C8.47168 3.96973 8.88184 4.37988 8.88184 4.89941C8.88184 5.40527 8.47168 5.82227 7.95898 5.82227ZM6.80371 11.8242C6.50293 11.8242 6.26367 11.6055 6.26367 11.2979C6.26367 11.0107 6.50293 10.7852 6.80371 10.7852H7.61719V7.92773H6.92676C6.61914 7.92773 6.38672 7.70898 6.38672 7.40137C6.38672 7.11426 6.61914 6.88184 6.92676 6.88184H8.21191C8.59473 6.88184 8.79297 7.14844 8.79297 7.55176V10.7852H9.55859C9.85938 10.7852 10.0986 11.0107 10.0986 11.2979C10.0986 11.6055 9.85938 11.8242 9.55859 11.8242H6.80371Z" fill="currentColor" />
</svg>
