<svg width="16" height="16" viewBox="0 0 16 16" fill="none" xmlns="http://www.w3.org/2000/svg">
<path d="M1.36914 11.7627C1.36914 11.0381 2.03906 10.416 2.6543 9.81445C3.13965 9.34277 3.24902 8.39941 3.33789 7.46289C3.42676 4.87207 4.17871 3.14258 5.96289 2.49316C6.22266 1.59082 6.98145 0.900391 8 0.900391C9.01855 0.900391 9.77734 1.59082 10.0371 2.49316C11.8213 3.14258 12.5732 4.87207 12.6621 7.46289C12.751 8.39941 12.8672 9.34277 13.3457 9.81445C13.9678 10.416 14.6309 11.0381 14.6309 11.7627C14.6309 12.3369 14.2002 12.7266 13.4893 12.7266H10.6797C10.6182 14.0391 9.55176 15.2285 8 15.2285C6.44824 15.2285 5.38184 14.0322 5.32031 12.7266H2.51074C1.80664 12.7266 1.36914 12.3369 1.36914 11.7627ZM3.00293 11.4756H12.9834V11.3936C12.8125 11.1953 12.4297 10.833 12.0879 10.4434C11.623 9.90332 11.3975 8.92578 11.3291 7.62695C11.2539 4.85156 10.3994 3.92871 9.29883 3.62793C9.12793 3.58691 9.03223 3.50488 9.01855 3.32031C8.99121 2.62305 8.60156 2.1582 8 2.1582C7.39844 2.1582 7.01562 2.62305 6.98145 3.32031C6.96777 3.50488 6.87207 3.58691 6.70801 3.62793C5.60059 3.92871 4.75293 4.85156 4.6709 7.62695C4.60254 8.92578 4.38379 9.90332 3.91211 10.4434C3.57715 10.833 3.18066 11.1953 3.00293 11.3936V11.4756ZM6.6123 12.7266C6.66699 13.5811 7.22754 14.1348 8 14.1348C8.7793 14.1348 9.33984 13.5811 9.3877 12.7266H6.6123Z" fill="currentColor" />
</svg>
