<svg width="16" height="16" viewBox="0 0 16 16" fill="none" xmlns="http://www.w3.org/2000/svg">
<path d="M3.04395 8.83008C2.62695 8.83008 2.27832 8.48828 2.27832 8.06445C2.27832 7.64746 2.62695 7.29883 3.04395 7.29883H7.23438V3.1084C7.23438 2.69141 7.58301 2.34277 8 2.34277C8.41699 2.34277 8.76562 2.69141 8.76562 3.1084V7.29883H12.9561C13.373 7.29883 13.7217 7.64746 13.7217 8.06445C13.7217 8.48828 13.373 8.83008 12.9561 8.83008H8.76562V13.0205C8.76562 13.4375 8.41699 13.7861 8 13.7861C7.58301 13.7861 7.23438 13.4375 7.23438 13.0205V8.83008H3.04395Z" fill="currentColor" />
</svg>
