<svg width="12" height="12" viewBox="0 0 12 12" xmlns="http://www.w3.org/2000/svg">
<path d="M0.765625 6.4873C0.348633 6.4873 0 6.14551 0 5.72168C0 5.30469 0.348633 4.95605 0.765625 4.95605H4.95605V0.765625C4.95605 0.348633 5.30469 0 5.72168 0C6.13867 0 6.4873 0.348633 6.4873 0.765625V4.95605H10.6777C11.0947 4.95605 11.4434 5.30469 11.4434 5.72168C11.4434 6.14551 11.0947 6.4873 10.6777 6.4873H6.4873V10.6777C6.4873 11.0947 6.13867 11.4434 5.72168 11.4434C5.30469 11.4434 4.95605 11.0947 4.95605 10.6777V6.4873H0.765625Z" stroke="none" fill="currentColor" />
</svg>
