<svg width="14" height="14" viewBox="0 0 14 14" xmlns="http://www.w3.org/2000/svg">
  <path d="M0 3.88281V2.59082C0 0.998047 0.991211 0 2.59082 0H3.91016C4.27246 0 4.56641 0.293945 4.56641 0.65625C4.56641 1.01855 4.27246 1.3125 3.91016 1.3125H2.59082C1.78418 1.3125 1.3125 1.79102 1.3125 2.59082V3.88281C1.3125 4.23828 1.01855 4.53906 0.65625 4.53906C0.293945 4.53906 0 4.23828 0 3.88281ZM13.542 3.88281C13.542 4.23828 13.248 4.53906 12.8857 4.53906C12.5303 4.53906 12.2295 4.23828 12.2295 3.88281V2.59082C12.2295 1.79102 11.7578 1.3125 10.9512 1.3125H9.63184C9.26953 1.3125 8.97559 1.01855 8.97559 0.65625C8.97559 0.293945 9.26953 0 9.63184 0H10.9512C12.5508 0 13.542 0.998047 13.542 2.59082V3.88281ZM3.80078 6.4668C3.62988 6.4668 3.5 6.34375 3.5 6.17285V3.80078C3.5 3.62988 3.62988 3.5 3.80078 3.5H6.17285C6.34375 3.5 6.47363 3.62988 6.47363 3.80078V6.17285C6.47363 6.34375 6.34375 6.4668 6.17285 6.4668H3.80078ZM7.3623 6.4668C7.19141 6.4668 7.06152 6.34375 7.06152 6.17285V3.80078C7.06152 3.62988 7.19141 3.5 7.3623 3.5H9.73438C9.90527 3.5 10.0352 3.62988 10.0352 3.80078V6.17285C10.0352 6.34375 9.90527 6.4668 9.73438 6.4668H7.3623ZM4.09473 5.87891H5.87891V4.08789H4.09473V5.87891ZM7.65625 5.87891H9.44043V4.08789H7.65625V5.87891ZM4.61426 5.35254V4.61426H5.35938V5.35254H4.61426ZM8.17578 5.35254V4.61426H8.9209V5.35254H8.17578ZM3.80078 10.0352C3.62988 10.0352 3.5 9.90527 3.5 9.73438V7.3623C3.5 7.19141 3.62988 7.06152 3.80078 7.06152H6.17285C6.34375 7.06152 6.47363 7.19141 6.47363 7.3623V9.73438C6.47363 9.90527 6.34375 10.0352 6.17285 10.0352H3.80078ZM7.15039 7.88867V7.14355H7.89551V7.88867H7.15039ZM9.20117 7.88867V7.14355H9.94629V7.88867H9.20117ZM4.09473 9.44043H5.87891V7.65625H4.09473V9.44043ZM4.61426 8.91406V8.17578H5.35938V8.91406H4.61426ZM8.17578 8.9209V8.17578H8.9209V8.9209H8.17578ZM0 9.65918C0 9.30371 0.293945 9.00293 0.65625 9.00293C1.01855 9.00293 1.3125 9.30371 1.3125 9.65918V10.9512C1.3125 11.751 1.78418 12.2295 2.59082 12.2295H3.91016C4.27246 12.2295 4.56641 12.5234 4.56641 12.8857C4.56641 13.248 4.27246 13.542 3.91016 13.542H2.59082C0.991211 13.542 0 12.5439 0 10.9512V9.65918ZM13.542 9.65918V10.9512C13.542 12.5439 12.5508 13.542 10.9512 13.542H9.63184C9.26953 13.542 8.97559 13.248 8.97559 12.8857C8.97559 12.5234 9.26953 12.2295 9.63184 12.2295H10.9512C11.7578 12.2295 12.2295 11.751 12.2295 10.9512V9.65918C12.2295 9.30371 12.5303 9.00293 12.8857 9.00293C13.248 9.00293 13.542 9.30371 13.542 9.65918ZM7.15039 9.94629V9.20117H7.89551V9.94629H7.15039ZM9.20117 9.94629V9.20117H9.94629V9.94629H9.20117Z" stroke="none" fill="currentColor" />
</svg>
