<svg width="16" height="16" viewBox="0 0 16 16" fill="none" xmlns="http://www.w3.org/2000/svg">
<path d="M1.22559 5.18652V3.89453C1.22559 2.30176 2.2168 1.30371 3.81641 1.30371H5.13574C5.49805 1.30371 5.79199 1.59766 5.79199 1.95996C5.79199 2.32227 5.49805 2.61621 5.13574 2.61621H3.81641C3.00977 2.61621 2.53809 3.09473 2.53809 3.89453V5.18652C2.53809 5.54199 2.24414 5.84277 1.88184 5.84277C1.51953 5.84277 1.22559 5.54199 1.22559 5.18652ZM14.7676 5.18652C14.7676 5.54199 14.4736 5.84277 14.1113 5.84277C13.7559 5.84277 13.4551 5.54199 13.4551 5.18652V3.89453C13.4551 3.09473 12.9834 2.61621 12.1768 2.61621H10.8574C10.4951 2.61621 10.2012 2.32227 10.2012 1.95996C10.2012 1.59766 10.4951 1.30371 10.8574 1.30371H12.1768C13.7764 1.30371 14.7676 2.30176 14.7676 3.89453V5.18652ZM5.02637 7.77051C4.85547 7.77051 4.72559 7.64746 4.72559 7.47656V5.10449C4.72559 4.93359 4.85547 4.80371 5.02637 4.80371H7.39844C7.56934 4.80371 7.69922 4.93359 7.69922 5.10449V7.47656C7.69922 7.64746 7.56934 7.77051 7.39844 7.77051H5.02637ZM8.58789 7.77051C8.41699 7.77051 8.28711 7.64746 8.28711 7.47656V5.10449C8.28711 4.93359 8.41699 4.80371 8.58789 4.80371H10.96C11.1309 4.80371 11.2607 4.93359 11.2607 5.10449V7.47656C11.2607 7.64746 11.1309 7.77051 10.96 7.77051H8.58789ZM5.32031 7.18262H7.10449V5.3916H5.32031V7.18262ZM8.88184 7.18262H10.666V5.3916H8.88184V7.18262ZM5.83984 6.65625V5.91797H6.58496V6.65625H5.83984ZM9.40137 6.65625V5.91797H10.1465V6.65625H9.40137ZM5.02637 11.3389C4.85547 11.3389 4.72559 11.209 4.72559 11.0381V8.66602C4.72559 8.49512 4.85547 8.36523 5.02637 8.36523H7.39844C7.56934 8.36523 7.69922 8.49512 7.69922 8.66602V11.0381C7.69922 11.209 7.56934 11.3389 7.39844 11.3389H5.02637ZM8.37598 9.19238V8.44727H9.12109V9.19238H8.37598ZM10.4268 9.19238V8.44727H11.1719V9.19238H10.4268ZM5.32031 10.7441H7.10449V8.95996H5.32031V10.7441ZM5.83984 10.2178V9.47949H6.58496V10.2178H5.83984ZM9.40137 10.2246V9.47949H10.1465V10.2246H9.40137ZM1.22559 10.9629C1.22559 10.6074 1.51953 10.3066 1.88184 10.3066C2.24414 10.3066 2.53809 10.6074 2.53809 10.9629V12.2549C2.53809 13.0547 3.00977 13.5332 3.81641 13.5332H5.13574C5.49805 13.5332 5.79199 13.8271 5.79199 14.1895C5.79199 14.5518 5.49805 14.8457 5.13574 14.8457H3.81641C2.2168 14.8457 1.22559 13.8477 1.22559 12.2549V10.9629ZM14.7676 10.9629V12.2549C14.7676 13.8477 13.7764 14.8457 12.1768 14.8457H10.8574C10.4951 14.8457 10.2012 14.5518 10.2012 14.1895C10.2012 13.8271 10.4951 13.5332 10.8574 13.5332H12.1768C12.9834 13.5332 13.4551 13.0547 13.4551 12.2549V10.9629C13.4551 10.6074 13.7559 10.3066 14.1113 10.3066C14.4736 10.3066 14.7676 10.6074 14.7676 10.9629ZM8.37598 11.25V10.5049H9.12109V11.25H8.37598ZM10.4268 11.25V10.5049H11.1719V11.25H10.4268Z" fill="currentColor" />
</svg>
