<svg width="16" height="16" viewBox="0 0 16 16" fill="none" xmlns="http://www.w3.org/2000/svg">
<path d="M1.25293 6.82031C1.25293 3.75098 3.74805 1.25586 6.81738 1.25586C9.88672 1.25586 12.3818 3.75098 12.3818 6.82031C12.3818 8.0166 11.9922 9.12402 11.3428 10.0195L14.4668 13.1504C14.6514 13.3418 14.7471 13.5947 14.7471 13.8682C14.7471 14.4355 14.3301 14.873 13.749 14.873C13.4824 14.873 13.2158 14.7842 13.0244 14.5859L9.87988 11.4414C9.00488 12.0361 7.95898 12.3848 6.81738 12.3848C3.74805 12.3848 1.25293 9.88965 1.25293 6.82031ZM2.6748 6.82031C2.6748 9.11035 4.52734 10.9629 6.81738 10.9629C9.10742 10.9629 10.96 9.11035 10.96 6.82031C10.96 4.53027 9.10742 2.67773 6.81738 2.67773C4.52734 2.67773 2.6748 4.53027 2.6748 6.82031Z" fill="currentColor" />
</svg>
