<svg width="16" height="16" viewBox="0 0 16 16" fill="none" xmlns="http://www.w3.org/2000/svg">
<path d="M7.35889 15.3042C6.82568 15.3042 6.41309 14.9805 6.29883 14.479L6.03857 13.3555L5.86719 13.292L4.88965 13.895C4.45166 14.168 3.93115 14.1045 3.55664 13.73L2.66797 12.8413C2.28711 12.4668 2.22998 11.9463 2.50293 11.5083L3.1123 10.5371L3.04883 10.3784L1.93164 10.1182C1.43018 9.99756 1.10645 9.57861 1.10645 9.05811V7.80762C1.10645 7.28711 1.42383 6.87451 1.93164 6.74756L3.03613 6.48096L3.10596 6.31592L2.49658 5.34473C2.22363 4.90674 2.28076 4.38623 2.66162 4.00537L3.55029 3.1167C3.91846 2.74854 4.43896 2.67871 4.8833 2.95166L5.86084 3.54834L6.03857 3.47852L6.29883 2.35498C6.41309 1.85352 6.82568 1.52979 7.35889 1.52979H8.64111C9.16797 1.52979 9.58057 1.85352 9.70117 2.35498L9.96143 3.47852L10.1392 3.54834L11.1167 2.95166C11.5547 2.67871 12.0752 2.74854 12.4434 3.1167L13.332 4.00537C13.7192 4.38623 13.77 4.90674 13.4971 5.34473L12.894 6.31592L12.9575 6.48096L14.0684 6.74756C14.5698 6.87451 14.8936 7.28711 14.8936 7.80762V9.05811C14.8936 9.57861 14.5635 9.99756 14.0684 10.1182L12.9448 10.3784L12.8877 10.5371L13.4907 11.5083C13.7637 11.9463 13.7065 12.4668 13.3257 12.8413L12.437 13.73C12.0688 14.1045 11.5483 14.168 11.104 13.895L10.1265 13.292L9.96143 13.3555L9.70117 14.479C9.58057 14.9805 9.16797 15.3042 8.64111 15.3042H7.35889ZM7.51123 14.1553H8.48877C8.59668 14.1553 8.64746 14.1108 8.66016 14.0093L9.04102 12.4478C9.45996 12.3525 9.82178 12.1938 10.1328 11.9971L11.5039 12.8413C11.5801 12.8921 11.6626 12.8921 11.7388 12.8096L12.4116 12.1304C12.4814 12.0669 12.4814 11.9907 12.4307 11.9082L11.5928 10.5371C11.7642 10.2388 11.9355 9.85791 12.0308 9.45801L13.5986 9.0835C13.6938 9.06445 13.7446 9.01367 13.7446 8.90576V7.95361C13.7446 7.83936 13.7002 7.79492 13.5986 7.76953L12.0371 7.40137C11.9419 6.97607 11.7515 6.58252 11.5991 6.30957L12.437 4.94482C12.4941 4.85596 12.4941 4.77979 12.418 4.70996L11.7388 4.04346C11.6626 3.96729 11.5991 3.96094 11.5039 4.01172L10.1392 4.84326C9.82812 4.66553 9.45361 4.49414 9.04102 4.39893L8.66016 2.82471C8.64746 2.72314 8.59668 2.67871 8.48877 2.67871H7.51123C7.40332 2.67871 7.35254 2.72949 7.3335 2.82471L6.95898 4.38623C6.55908 4.48779 6.14014 4.66553 5.85449 4.83691L4.48975 4.00537C4.39453 3.95459 4.33105 3.96729 4.24854 4.03711L3.57568 4.70361C3.49951 4.77979 3.49951 4.85596 3.55664 4.94482L4.39453 6.30957C4.24219 6.58252 4.05811 6.97607 3.96289 7.40137L2.39502 7.76953C2.2998 7.79492 2.25537 7.83936 2.25537 7.95361V8.90576C2.25537 9.01367 2.2998 9.06445 2.39502 9.0835L3.96289 9.45801C4.05811 9.85791 4.22949 10.2388 4.40723 10.5371L3.56299 11.9082C3.50586 11.9907 3.51221 12.0669 3.58203 12.1367L4.25488 12.8096C4.33105 12.8921 4.41357 12.8921 4.48975 12.8413L5.86084 11.9971C6.17188 12.1938 6.55273 12.3525 6.95898 12.4478L7.3335 14.0093C7.35254 14.1045 7.40332 14.1553 7.51123 14.1553ZM8 10.8228C6.66699 10.8228 5.58789 9.75 5.58789 8.41699C5.58789 7.08398 6.66699 6.01123 8 6.01123C9.32666 6.01123 10.4058 7.08398 10.4058 8.41699C10.4058 9.75 9.32666 10.8228 8 10.8228ZM8 9.73096C8.72363 9.73096 9.31396 9.14697 9.31396 8.41699C9.31396 7.68701 8.72363 7.09668 8 7.09668C7.27002 7.09668 6.67969 7.68701 6.67969 8.41699C6.67969 9.14697 7.27002 9.73096 8 9.73096Z" fill="currentColor" />
</svg>
