<svg width="16" height="16" viewBox="0 0 16 16" fill="none" xmlns="http://www.w3.org/2000/svg">
<path d="M3.2832 13.9639C2.92773 13.9639 2.63379 13.6836 2.63379 13.3418V11.373C1.98438 11.1133 1.52637 10.4775 1.52637 9.73926C1.52637 9.00098 1.98438 8.36523 2.63379 8.10547V2.19922C2.63379 1.84375 2.93457 1.55664 3.2832 1.55664C3.63867 1.55664 3.93262 1.83691 3.93262 2.19922V8.10547C4.58203 8.36523 5.04004 9.00098 5.04004 9.73926C5.04004 10.4775 4.58203 11.1133 3.93262 11.373V13.3418C3.93262 13.6836 3.64551 13.9639 3.2832 13.9639ZM8 13.9639C7.64453 13.9639 7.35059 13.6836 7.35059 13.3213V7.33984C6.70117 7.08008 6.23633 6.44434 6.23633 5.70605C6.23633 4.96777 6.70117 4.33203 7.35059 4.07227V2.17188C7.35059 1.84375 7.64453 1.55664 8 1.55664C8.35547 1.55664 8.64258 1.83691 8.64258 2.17188V4.07227C9.29199 4.33203 9.75 4.96777 9.75 5.70605C9.75 6.44434 9.29199 7.08008 8.64258 7.33984V13.3213C8.64258 13.6836 8.35547 13.9639 8 13.9639ZM10.9531 9.73926C10.9531 9.00098 11.418 8.36523 12.0605 8.10547V2.19922C12.0605 1.84375 12.3545 1.55664 12.71 1.55664C13.0654 1.55664 13.3594 1.83691 13.3594 2.19922V8.10547C14.0088 8.36523 14.4668 9.00098 14.4668 9.73926C14.4668 10.4775 14.0088 11.1133 13.3594 11.373V13.3418C13.3594 13.6836 13.0723 13.9639 12.71 13.9639C12.3545 13.9639 12.0605 13.6836 12.0605 13.3418V11.373C11.418 11.1133 10.9531 10.4775 10.9531 9.73926ZM8 6.54004C8.47168 6.54004 8.83398 6.17773 8.83398 5.70605C8.83398 5.24121 8.47168 4.86523 8 4.86523C7.53516 4.86523 7.15918 5.24121 7.15918 5.70605C7.15918 6.17773 7.53516 6.54004 8 6.54004ZM3.2832 10.5732C3.75488 10.5732 4.12402 10.2109 4.12402 9.73926C4.12402 9.27441 3.75488 8.89844 3.2832 8.89844C2.81836 8.89844 2.44922 9.27441 2.44922 9.73926C2.44922 10.2109 2.81836 10.5732 3.2832 10.5732ZM12.7168 10.5732C13.1885 10.5732 13.5508 10.2109 13.5508 9.73926C13.5508 9.27441 13.1885 8.89844 12.7168 8.89844C12.252 8.89844 11.876 9.27441 11.876 9.73926C11.876 10.2109 12.252 10.5732 12.7168 10.5732Z" fill="currentColor" />
</svg>
