<svg width="16" height="16" viewBox="0 0 16 16" fill="none" xmlns="http://www.w3.org/2000/svg">
<path d="M5.31055 13.8398C4.40234 13.8398 3.82812 13.3008 3.78711 12.3984L3.38867 3.94922H2.73828C2.45703 3.94922 2.22266 3.72656 2.22266 3.43359C2.22266 3.14648 2.45703 2.92383 2.73828 2.92383H5.33984V2.04492C5.33984 1.14844 5.91406 0.615234 6.88086 0.615234H9.10742C10.0801 0.615234 10.6484 1.14844 10.6484 2.04492V2.92383H13.2559C13.5488 2.92383 13.7773 3.14648 13.7773 3.43359C13.7773 3.72656 13.5488 3.94922 13.2559 3.94922H12.6113L12.2129 12.3926C12.1719 13.2949 11.5918 13.8398 10.6953 13.8398H5.31055ZM6.41797 2.09766V2.92383H9.57031V2.09766C9.57031 1.79297 9.35938 1.59961 9.03125 1.59961H6.95703C6.62891 1.59961 6.41797 1.79297 6.41797 2.09766ZM5.42188 12.8027H10.5664C10.9004 12.8027 11.1348 12.5684 11.1465 12.2227L11.5273 3.94922H4.44922L4.84766 12.2227C4.86523 12.5684 5.09961 12.8027 5.42188 12.8027ZM6.27148 11.8594C6.03711 11.8594 5.87305 11.707 5.86719 11.4727L5.69141 5.33203C5.68555 5.10352 5.84375 4.94531 6.08984 4.94531C6.32422 4.94531 6.48828 5.09766 6.49414 5.33203L6.66992 11.4727C6.67578 11.7012 6.51758 11.8594 6.27148 11.8594ZM8 11.8594C7.75391 11.8594 7.58984 11.7012 7.58984 11.4727V5.33203C7.58984 5.10352 7.75391 4.94531 8 4.94531C8.24609 4.94531 8.41016 5.10352 8.41016 5.33203V11.4727C8.41016 11.7012 8.24609 11.8594 8 11.8594ZM9.72852 11.8594C9.48242 11.8594 9.31836 11.7012 9.32422 11.4727L9.50586 5.33203C9.51172 5.09766 9.67578 4.94531 9.91016 4.94531C10.1504 4.94531 10.3145 5.10352 10.3086 5.33203L10.127 11.4727C10.1211 11.707 9.96289 11.8594 9.72852 11.8594Z" fill="#FF3B30"/>
</svg>
