<svg width="16" height="16" viewBox="0 0 16 16" fill="none" xmlns="http://www.w3.org/2000/svg">
<path d="M7.99414 7.76953C6.60547 7.76953 5.46289 6.5332 5.46289 5.02148C5.46289 3.52148 6.59375 2.34375 7.99414 2.34375C9.38867 2.34375 10.5312 3.54492 10.5254 5.0332C10.5254 6.53906 9.38867 7.76953 7.99414 7.76953ZM7.99414 6.88477C8.85547 6.88477 9.58203 6.07031 9.58203 5.0332C9.58789 4.01367 8.86719 3.22852 7.99414 3.22852C7.12109 3.22852 6.40625 3.99609 6.40625 5.02148C6.40625 6.05859 7.13281 6.88477 7.99414 6.88477ZM9.36523 13.1953H4.32031C3.3418 13.1953 2.87891 12.9023 2.87891 12.2578C2.87891 10.7227 4.81836 8.50195 8 8.50195C9.06055 8.50195 9.98047 8.74805 10.7363 9.14648C10.4902 9.33984 10.2676 9.5625 10.0742 9.82031C9.5 9.55078 8.80273 9.38672 8 9.38672C5.31055 9.38672 3.82227 11.1797 3.82227 12.1465C3.82227 12.2695 3.88672 12.3105 4.03906 12.3105H9.22461C9.23047 12.6152 9.27734 12.9082 9.36523 13.1953ZM13.0039 15.1465C11.3691 15.1465 10.0273 13.8047 10.0273 12.1699C10.0273 10.5352 11.3691 9.19336 13.0039 9.19336C14.6328 9.19336 15.9805 10.5352 15.9805 12.1699C15.9805 13.793 14.6152 15.1465 13.0039 15.1465ZM13.0039 14.0332C13.2207 14.0332 13.3613 13.8867 13.3613 13.6758V12.5273H14.5039C14.7207 12.5273 14.8672 12.3867 14.8672 12.1699C14.8672 11.9473 14.7207 11.8066 14.5039 11.8066H13.3613V10.6641C13.3613 10.4531 13.2207 10.3066 13.0039 10.3066C12.7812 10.3066 12.6406 10.4531 12.6406 10.6641V11.8066H11.498C11.2812 11.8066 11.1406 11.9473 11.1406 12.1699C11.1406 12.3867 11.2812 12.5273 11.498 12.5273H12.6406V13.6758C12.6406 13.8867 12.7812 14.0332 13.0039 14.0332Z" fill="#FF5B00"/>
</svg>
