<svg width="12" height="12" viewBox="0 0 12 12" xmlns="http://www.w3.org/2000/svg">
  <path d="M10.8691 9.78906C11.1562 10.0762 11.1562 10.5684 10.8623 10.8623C10.5684 11.1631 10.0762 11.1562 9.78223 10.8691L5.57812 6.66504L1.37402 10.8691C1.09375 11.1494 0.594727 11.1562 0.293945 10.8623C0 10.5752 0.00683594 10.0693 0.293945 9.78906L4.49805 5.57812L0.293945 1.37402C0.00683594 1.09375 0.00683594 0.594727 0.293945 0.293945C0.587891 0 1.09375 0.00683594 1.37402 0.293945L5.57812 4.49805L9.78223 0.293945C10.083 0 10.5684 0.00683594 10.8623 0.300781C11.1631 0.587891 11.1562 1.08691 10.8691 1.37402L6.66504 5.57812L10.8691 9.78906Z" stroke="none" fill="currentColor" />
</svg>
