<svg width="16" height="16" viewBox="0 0 16 16" fill="none" xmlns="http://www.w3.org/2000/svg">
<path d="M14.4165 13.1284C14.7651 13.4771 14.7651 14.0747 14.4082 14.4316C14.0513 14.7969 13.4536 14.7886 13.0967 14.4399L7.9917 9.33496L2.88672 14.4399C2.54639 14.7803 1.94043 14.7886 1.5752 14.4316C1.21826 14.083 1.22656 13.4688 1.5752 13.1284L6.68018 8.01514L1.5752 2.91016C1.22656 2.56982 1.22656 1.96387 1.5752 1.59863C1.93213 1.2417 2.54639 1.25 2.88672 1.59863L7.9917 6.70361L13.0967 1.59863C13.4619 1.2417 14.0513 1.25 14.4082 1.60693C14.7734 1.95557 14.7651 2.56152 14.4165 2.91016L9.31152 8.01514L14.4165 13.1284Z" fill="currentColor" />
</svg>
