<svg width="16" height="16" viewBox="0 0 16 16" fill="none" xmlns="http://www.w3.org/2000/svg">
<path d="M8 15.126C4.10352 15.126 0.938477 11.9609 0.938477 8.06445C0.938477 4.16797 4.10352 1.00293 8 1.00293C11.8965 1.00293 15.0615 4.16797 15.0615 8.06445C15.0615 11.9609 11.8965 15.126 8 15.126ZM5.75781 10.9629C5.94238 10.9629 6.09961 10.8945 6.22949 10.7715L8 8.9873L9.78418 10.7715C9.90039 10.8945 10.0645 10.9629 10.249 10.9629C10.6113 10.9629 10.8984 10.6758 10.8984 10.3066C10.8984 10.1357 10.8301 9.97852 10.707 9.85547L8.92285 8.07129L10.7139 6.28027C10.8438 6.15039 10.8984 6 10.8984 5.8291C10.8984 5.4668 10.6182 5.18652 10.2627 5.18652C10.0781 5.18652 9.93457 5.24805 9.80469 5.37793L8 7.16895L6.20898 5.38477C6.08594 5.26172 5.94238 5.2002 5.75781 5.2002C5.39551 5.2002 5.11523 5.47363 5.11523 5.83594C5.11523 6.00684 5.18359 6.16406 5.30664 6.28711L7.09082 8.07129L5.30664 9.8623C5.18359 9.98535 5.11523 10.1426 5.11523 10.3066C5.11523 10.6758 5.39551 10.9629 5.75781 10.9629Z" fill="currentColor" />
</svg>
