<svg width="28" height="20" viewBox="0 0 28 20" fill="none" xmlns="http://www.w3.org/2000/svg">
    <path d="M24.344 2.53333C22.4518 0.933333 20.1812 0.133333 17.7844 0L17.406 0.4C19.5505 0.933333 21.4427 2 23.2087 3.46667C21.0642 2.26667 18.6674 1.46667 16.1445 1.2C15.3876 1.06667 14.7569 1.06667 14 1.06667C13.2431 1.06667 12.6124 1.06667 11.8555 1.2C9.33257 1.46667 6.93578 2.26667 4.79128 3.46667C6.55734 2 8.44954 0.933333 10.594 0.4L10.2156 0C7.81881 0.133333 5.54817 0.933333 3.65596 2.53333C1.51147 6.8 0.376147 11.6 0.25 16.5333C2.1422 18.6667 4.79128 20 7.56651 20C7.56651 20 8.44954 18.9333 9.08028 18C7.44037 17.6 5.92661 16.6667 4.91743 15.2C5.80046 15.7333 6.68349 16.2667 7.56651 16.6667C8.70184 17.2 9.83716 17.4667 10.9725 17.7333C11.9817 17.8667 12.9908 18 14 18C15.0092 18 16.0183 17.8667 17.0275 17.7333C18.1628 17.4667 19.2982 17.2 20.4335 16.6667C21.3165 16.2667 22.1995 15.7333 23.0826 15.2C22.0734 16.6667 20.5596 17.6 18.9197 18C19.5505 18.9333 20.4335 20 20.4335 20C23.2087 20 25.8578 18.6667 27.75 16.5333C27.6239 11.6 26.4885 6.8 24.344 2.53333ZM9.83716 14.1333C8.57569 14.1333 7.44037 12.9333 7.44037 11.4667C7.44037 10 8.57569 8.8 9.83716 8.8C11.0986 8.8 12.2339 10 12.2339 11.4667C12.2339 12.9333 11.0986 14.1333 9.83716 14.1333ZM18.1628 14.1333C16.9014 14.1333 15.7661 12.9333 15.7661 11.4667C15.7661 10 16.9014 8.8 18.1628 8.8C19.4243 8.8 20.5596 10 20.5596 11.4667C20.5596 12.9333 19.4243 14.1333 18.1628 14.1333Z" fill="#FF5B00"/>
</svg>
