<svg width="16" height="16" viewBox="0 0 16 16" fill="none" xmlns="http://www.w3.org/2000/svg">
<path d="M8 0.5C3.85875 0.5 0.5 3.94302 0.5 8.1896C0.5 11.5871 2.64875 14.4694 5.62937 15.4864C6.00375 15.5575 6.125 15.3191 6.125 15.1167V13.6851C4.03875 14.1503 3.60437 12.7777 3.60437 12.7777C3.26312 11.8889 2.77125 11.6525 2.77125 11.6525C2.09063 11.1751 2.82312 11.1853 2.82312 11.1853C3.57625 11.2392 3.9725 11.978 3.9725 11.978C4.64125 13.1532 5.72688 12.8136 6.155 12.6169C6.22188 12.1203 6.41625 11.7806 6.63125 11.589C4.96563 11.3936 3.21438 10.7342 3.21438 7.78846C3.21438 6.94837 3.5075 6.26272 3.98688 5.72444C3.90937 5.53028 3.6525 4.74786 4.06 3.68926C4.06 3.68926 4.69 3.48292 6.12313 4.47745C6.72125 4.30699 7.3625 4.22177 8 4.21856C8.6375 4.22177 9.27938 4.30699 9.87875 4.47745C11.3106 3.48292 11.9394 3.68926 11.9394 3.68926C12.3475 4.74851 12.0906 5.53092 12.0131 5.72444C12.4944 6.26272 12.785 6.94901 12.785 7.78846C12.785 10.7419 11.0306 11.3923 9.36063 11.5826C9.62938 11.821 9.875 12.2888 9.875 13.0065V15.1167C9.875 15.3211 9.995 15.5614 10.3756 15.4858C13.3537 14.4675 15.5 11.5858 15.5 8.1896C15.5 3.94302 12.1419 0.5 8 0.5Z" fill="#FF5B00"/>
</svg>
