<svg width="26" height="21" viewBox="0 0 26 21" fill="none" xmlns="http://www.w3.org/2000/svg">
    <path fill-rule="evenodd" clip-rule="evenodd" d="M22.594 7.32586C24.1966 7.32586 25.5 8.62382 25.5 10.219C25.5 11.2738 24.9278 12.1953 24.0798 12.6998C24.1148 12.9408 24.1335 13.1843 24.1335 13.4307C24.1335 17.5446 19.1159 20.8918 12.9489 20.8918C6.78125 20.8918 1.7642 17.5446 1.7642 13.4307C1.7642 13.1651 1.78608 12.9026 1.8267 12.6436C1.02955 12.1277 0.5 11.2347 0.5 10.219C0.5 8.62382 1.80341 7.32615 3.40597 7.32586C4.1179 7.32586 4.77102 7.58382 5.27699 8.00921C7.20653 6.79384 9.78125 6.03074 12.6193 5.9753L14.2787 0.753488C14.3659 0.475739 14.6551 0.312539 14.9398 0.379007L19.2372 1.38564C19.6219 0.568793 20.4534 0 21.4182 0C22.746 0 23.827 1.07564 23.827 2.39821C23.827 3.72077 22.7463 4.79642 21.4182 4.79642C20.1168 4.79642 19.0562 3.7632 19.0134 2.47825L15.1889 1.58165L13.7872 5.99255C16.4528 6.1252 18.8599 6.88294 20.6807 8.04739C21.1923 7.59994 21.8611 7.32586 22.594 7.32586ZM9.26835 10.3619C10.2124 10.3619 10.9777 11.1502 10.9777 12.0898C10.9777 13.0291 10.2124 13.7908 9.26835 13.792C8.32488 13.792 7.53312 13.0291 7.53312 12.0898C7.53312 11.1502 8.3246 10.3619 9.26835 10.3619ZM16.7578 10.3613C15.814 10.3613 15.02 11.1493 15.02 12.0889C15.02 13.0288 15.814 13.7911 16.7578 13.7911C17.7018 13.7911 18.4677 13.0294 18.4677 12.0889C18.4672 11.1488 17.7018 10.3613 16.7578 10.3613ZM13.0132 17.1503C14.5754 17.1503 15.6416 16.8446 16.2748 16.215C16.4939 15.9978 16.8484 15.9978 17.0674 16.2155C17.2859 16.4328 17.2859 16.7852 17.0669 17.0033C16.2135 17.8518 14.8873 18.265 13.0132 18.265C13.0107 18.265 13.0084 18.2646 13.0062 18.2641C13.004 18.2637 13.0018 18.2633 12.9995 18.2633C12.9973 18.2633 12.9952 18.2637 12.9931 18.2641C12.9909 18.2646 12.9886 18.265 12.9862 18.265C11.1118 18.265 9.78591 17.8518 8.93335 17.0027C8.7146 16.7857 8.7146 16.433 8.93335 16.215C9.15182 15.9972 9.50636 15.9972 9.72483 16.215C10.3572 16.8446 11.4237 17.1503 12.9862 17.1503C12.9907 17.1503 12.9947 17.1517 12.9995 17.1517C13.0018 17.1517 13.004 17.1514 13.0062 17.1511C13.0084 17.1507 13.0107 17.1503 13.0132 17.1503Z" fill="#FF5B00"/>
</svg>
