<svg width="26" height="21" viewBox="0 0 26 21" fill="none" xmlns="http://www.w3.org/2000/svg">
    <path d="M0.877587 9.63101C3.43515 8.22223 6.29009 7.04645 8.9576 5.86466C13.5468 3.92897 18.1542 2.02683 22.8081 0.255963C23.7135 -0.0457761 25.3405 -0.34086 25.5 1.00101C25.4127 2.90042 25.0533 4.7887 24.8068 6.67698C24.1812 10.8295 23.4581 14.9678 22.753 19.1066C22.5101 20.4852 20.783 21.1989 19.678 20.3167C17.0223 18.5228 14.3462 16.7465 11.7245 14.9111C10.8657 14.0384 11.662 12.7852 12.4291 12.1621C14.6163 10.0065 16.936 8.1751 19.009 5.90814C19.5681 4.55779 17.916 5.69583 17.371 6.04452C14.3766 8.10801 11.4555 10.2975 8.29843 12.111C6.68581 12.9987 4.80628 12.2401 3.19439 11.7447C1.74913 11.1464 -0.368713 10.5435 0.877441 9.63111L0.877587 9.63101Z" fill="#FF5B00"/>
</svg>
