<svg width="26" height="21" viewBox="0 0 26 21" fill="none" xmlns="http://www.w3.org/2000/svg">
    <path d="M12.6389 5.49583L12.6931 6.38942L11.7899 6.28C8.5023 5.86056 5.63014 4.43811 3.19152 2.04911L1.9993 0.863728L1.69222 1.73909C1.04192 3.6904 1.45739 5.75114 2.81218 7.13713C3.53473 7.90306 3.37216 8.01248 2.12575 7.55657C1.69222 7.41068 1.31287 7.30126 1.27675 7.35597C1.1503 7.48362 1.58383 9.14316 1.92705 9.79967C2.39671 10.7115 3.35409 11.6051 4.4018 12.134L5.28693 12.5534L4.23922 12.5716C3.22765 12.5716 3.19152 12.5899 3.2999 12.9728C3.66118 14.1582 5.08822 15.4166 6.67785 15.9637L7.79781 16.3466L6.82236 16.9302C5.37725 17.7691 3.67924 18.2432 1.98124 18.2797C1.16836 18.2979 0.5 18.3709 0.5 18.4256C0.5 18.608 2.70379 19.6292 3.98633 20.0304C7.83393 21.2158 12.4041 20.7052 15.8362 18.6809C18.2749 17.2402 20.7135 14.3771 21.8515 11.6051C22.4657 10.1279 23.0798 7.42891 23.0798 6.13411C23.0798 5.29523 23.134 5.18581 24.1456 4.18279C24.7417 3.59922 25.3017 2.96094 25.4101 2.77857C25.5907 2.43208 25.5727 2.43208 24.6514 2.7421C23.116 3.2892 22.8992 3.21625 23.6579 2.3956C24.2179 1.81203 24.8862 0.754308 24.8862 0.444285C24.8862 0.389575 24.6153 0.480758 24.3082 0.644888C23.983 0.827254 23.2605 1.1008 22.7186 1.26493L21.7431 1.57496L20.858 0.973147C20.3703 0.644888 19.6838 0.280156 19.3226 0.170736C18.4013 -0.0845769 16.9923 -0.0481036 16.1614 0.243682C13.9034 1.06433 12.4764 3.17978 12.6389 5.49583Z" fill="#FF5B00"/>
</svg>
