<svg width="16" height="16" viewBox="0 0 16 16" fill="none" xmlns="http://www.w3.org/2000/svg">
<path d="M10.8125 8C10.8125 8.67383 10.7539 9.28906 10.6953 9.875H5.27539C5.2168 9.28906 5.1582 8.67383 5.1582 8C5.1582 7.35547 5.2168 6.74023 5.27539 6.125H10.6953C10.7539 6.74023 10.8125 7.35547 10.8125 8ZM15.2363 6.125C15.4121 6.74023 15.5 7.35547 15.5 8C15.5 8.67383 15.4121 9.28906 15.2363 9.875H11.6328C11.6914 9.28906 11.75 8.64453 11.75 8C11.75 7.35547 11.6914 6.74023 11.6328 6.125H15.2363ZM14.9434 5.1875H11.5156C11.2227 3.3418 10.6367 1.75977 9.9043 0.763672C12.1895 1.37891 14.0645 3.01953 14.9434 5.1875ZM10.5781 5.1875H5.39258C5.56836 4.13281 5.86133 3.19531 6.18359 2.43359C6.50586 1.73047 6.82812 1.23242 7.17969 0.910156C7.50195 0.617188 7.76562 0.5 8 0.5C8.20508 0.5 8.46875 0.617188 8.79102 0.910156C9.14258 1.23242 9.46484 1.73047 9.78711 2.43359C10.1094 3.19531 10.4023 4.13281 10.5781 5.1875ZM1.02734 5.1875C1.90625 3.01953 3.78125 1.37891 6.06641 0.763672C5.33398 1.75977 4.74805 3.3418 4.45508 5.1875H1.02734ZM4.33789 6.125C4.2793 6.74023 4.2207 7.35547 4.2207 8C4.2207 8.64453 4.2793 9.28906 4.33789 9.875H0.734375C0.558594 9.28906 0.5 8.67383 0.5 8C0.5 7.35547 0.558594 6.74023 0.734375 6.125H4.33789ZM6.18359 13.5957C5.86133 12.834 5.56836 11.8965 5.39258 10.8125H10.5781C10.4023 11.8965 10.1094 12.834 9.78711 13.5957C9.46484 14.2988 9.14258 14.7969 8.79102 15.1191C8.46875 15.4121 8.20508 15.5 7.9707 15.5C7.76562 15.5 7.50195 15.4121 7.17969 15.1191C6.82812 14.7969 6.50586 14.2988 6.18359 13.5957ZM6.06641 15.2656C3.78125 14.6504 1.90625 13.0098 1.02734 10.8125H4.45508C4.74805 12.6875 5.33398 14.2695 6.06641 15.2656ZM9.9043 15.2656C10.6367 14.2695 11.2227 12.6875 11.5156 10.8125H14.9434C14.0645 13.0098 12.1895 14.6504 9.9043 15.2656Z" fill="#FF5B00"/>
</svg>
