<svg width="26" height="18" viewBox="0 0 26 18" fill="none" xmlns="http://www.w3.org/2000/svg">
    <path fill-rule="evenodd" clip-rule="evenodd" d="M22.7672 0.77246C23.8429 1.05994 24.6901 1.907 24.9776 2.98268C25.5 4.93224 25.5 9 25.5 9C25.5 9 25.5 13.0676 24.9776 15.0173C24.6901 16.093 23.8429 16.9401 22.7672 17.2277C20.8178 17.75 13 17.75 13 17.75C13 17.75 5.18224 17.75 3.23267 17.2277C2.15696 16.9401 1.3098 16.093 1.0223 15.0173C0.5 13.0676 0.5 9 0.5 9C0.5 9 0.5 4.93224 1.0223 2.98268C1.3098 1.907 2.15696 1.05994 3.23267 0.77246C5.18224 0.25 13 0.25 13 0.25C13 0.25 20.8178 0.25 22.7672 0.77246ZM10.6562 5.57633V13.185L16.9062 9.38083L10.6562 5.57633Z" fill="#FF5B00"/>
</svg>
