<svg width="111" height="24" viewBox="0 0 111 24" fill="none" xmlns="http://www.w3.org/2000/svg">
    <g filter="url(#filter0_ii)">
        <path d="M53.2892 9.37953C54.2509 9.37953 55.0258 9.68753 55.6141 10.3035C56.2024 10.9195 56.4966 11.7483 56.4966 12.7899V17.9979H54.6638V12.9075C54.6638 12.3251 54.5167 11.8771 54.2226 11.5635C53.9284 11.2387 53.5268 11.0763 53.0177 11.0763C52.452 11.0763 51.9995 11.2611 51.6601 11.6307C51.332 12.0003 51.1679 12.5547 51.1679 13.2939V17.9979H49.3351V12.9075C49.3351 12.3251 49.1937 11.8771 48.9109 11.5635C48.6394 11.2387 48.249 11.0763 47.7399 11.0763C47.1856 11.0763 46.733 11.2667 46.3823 11.6475C46.0316 12.0171 45.8562 12.5659 45.8562 13.2939V17.9979H44.0234V9.59793H45.8562V10.6059C46.3993 9.78833 47.2082 9.37953 48.283 9.37953C49.3691 9.37953 50.1723 9.82193 50.6928 10.7067C51.2584 9.82193 52.1239 9.37953 53.2892 9.37953Z" fill="#FF5B00"/>
        <path d="M65.5177 9.59793H67.3505V17.9979H65.5177V16.7883C64.8276 17.7403 63.8377 18.2163 62.548 18.2163C61.3827 18.2163 60.3871 17.7907 59.5612 16.9395C58.7353 16.0771 58.3224 15.0299 58.3224 13.7979C58.3224 12.5547 58.7353 11.5075 59.5612 10.6563C60.3871 9.80513 61.3827 9.37953 62.548 9.37953C63.8377 9.37953 64.8276 9.84993 65.5177 10.7907V9.59793ZM60.9188 15.7299C61.4279 16.2339 62.0671 16.4859 62.8364 16.4859C63.6058 16.4859 64.245 16.2339 64.7541 15.7299C65.2632 15.2147 65.5177 14.5707 65.5177 13.7979C65.5177 13.0251 65.2632 12.3867 64.7541 11.8827C64.245 11.3675 63.6058 11.1099 62.8364 11.1099C62.0671 11.1099 61.4279 11.3675 60.9188 11.8827C60.4097 12.3867 60.1551 13.0251 60.1551 13.7979C60.1551 14.5707 60.4097 15.2147 60.9188 15.7299Z" fill="#FF5B00"/>
        <path d="M76.5464 6.23793H78.3792V17.9979H76.5464V16.7883C75.8563 17.7403 74.8664 18.2163 73.5766 18.2163C72.4114 18.2163 71.4158 17.7907 70.5899 16.9395C69.764 16.0771 69.351 15.0299 69.351 13.7979C69.351 12.5547 69.764 11.5075 70.5899 10.6563C71.4158 9.80513 72.4114 9.37953 73.5766 9.37953C74.8664 9.37953 75.8563 9.84993 76.5464 10.7907V6.23793ZM71.9475 15.7299C72.4566 16.2339 73.0958 16.4859 73.8651 16.4859C74.6345 16.4859 75.2737 16.2339 75.7828 15.7299C76.2919 15.2147 76.5464 14.5707 76.5464 13.7979C76.5464 13.0251 76.2919 12.3867 75.7828 11.8827C75.2737 11.3675 74.6345 11.1099 73.8651 11.1099C73.0958 11.1099 72.4566 11.3675 71.9475 11.8827C71.4384 12.3867 71.1838 13.0251 71.1838 13.7979C71.1838 14.5707 71.4384 15.2147 71.9475 15.7299Z" fill="#FF5B00"/>
        <path d="M87.9485 9.59793V17.9979H86.1157V11.3451H83.2986V17.9979H81.4658V11.3451H80.1761V9.59793H81.4658V9.42993C81.4658 7.15633 82.7443 6.01953 85.3011 6.01953C85.9007 6.01953 86.5286 6.09233 87.1848 6.23793V7.90113C86.5852 7.81153 85.9573 7.76673 85.3011 7.76673C84.6223 7.76673 84.1189 7.88993 83.7908 8.13633C83.4627 8.38273 83.2986 8.81393 83.2986 9.42993V9.59793H87.9485Z" fill="#FF5B00"/>
        <path d="M92.005 11.9163C92.005 12.1963 92.1578 12.4203 92.4632 12.5883C92.78 12.7451 93.159 12.8851 93.6002 13.0083C94.0528 13.1203 94.5053 13.2547 94.9579 13.4115C95.4104 13.5683 95.7894 13.8371 96.0949 14.2179C96.4117 14.5875 96.57 15.0579 96.57 15.6291C96.57 16.4355 96.2533 17.0683 95.6197 17.5275C94.9975 17.9867 94.2112 18.2163 93.2608 18.2163C92.4236 18.2163 91.7052 18.0427 91.1056 17.6955C90.506 17.3483 90.0704 16.8667 89.7989 16.2507L91.3771 15.3435C91.6713 16.1499 92.2992 16.5531 93.2608 16.5531C94.2225 16.5531 94.7033 16.2395 94.7033 15.6123C94.7033 15.3435 94.5449 15.1251 94.2281 14.9571C93.9227 14.7891 93.5437 14.6491 93.0911 14.5371C92.6499 14.4139 92.203 14.2739 91.7505 14.1171C91.2979 13.9603 90.9133 13.7027 90.5965 13.3443C90.291 12.9747 90.1383 12.5099 90.1383 11.9499C90.1383 11.1771 90.4325 10.5555 91.0208 10.0851C91.6204 9.61473 92.3614 9.37953 93.2439 9.37953C93.9453 9.37953 94.5676 9.53633 95.1106 9.84993C95.665 10.1523 96.0892 10.5779 96.3834 11.1267L94.8391 11.9835C94.5449 11.3451 94.0132 11.0259 93.2439 11.0259C92.8932 11.0259 92.599 11.1043 92.3614 11.2611C92.1238 11.4067 92.005 11.6251 92.005 11.9163Z" fill="#FF5B00"/>
        <path d="M102.884 9.37953C103.857 9.37953 104.644 9.68753 105.243 10.3035C105.843 10.9195 106.143 11.7651 106.143 12.8403V17.9979H104.31V13.0251C104.31 12.3979 104.14 11.9163 103.801 11.5803C103.461 11.2443 102.997 11.0763 102.409 11.0763C101.764 11.0763 101.244 11.2779 100.848 11.6811C100.452 12.0731 100.254 12.6779 100.254 13.4955V17.9979H98.4211V6.23793H100.254V10.6731C100.808 9.81073 101.685 9.37953 102.884 9.37953Z" fill="#FF5B00"/>
        <path d="M110.458 17.8299C110.209 18.0763 109.909 18.1995 109.559 18.1995C109.208 18.1995 108.908 18.0763 108.659 17.8299C108.41 17.5835 108.286 17.2867 108.286 16.9395C108.286 16.5923 108.405 16.2955 108.642 16.0491C108.891 15.8027 109.197 15.6795 109.559 15.6795C109.909 15.6795 110.209 15.8027 110.458 16.0491C110.707 16.2955 110.831 16.5923 110.831 16.9395C110.831 17.2867 110.707 17.5835 110.458 17.8299Z" fill="#FF5B00"/>
    </g>
    <g filter="url(#filter1_ii)">
        <path fill-rule="evenodd" clip-rule="evenodd" d="M20.6575 11.0142C23.1792 12.7862 25.5505 14.4457 28.3645 14.8464C30.9598 15.2197 33.6006 14.4413 36.5433 12.4166C36.9669 12.1252 37.3968 11.8078 37.8338 11.4644C37.3725 11.157 36.9231 10.8702 36.4849 10.603C29.1211 6.1138 24.909 7.17152 20.7753 9.25839C20.2764 9.51025 19.7786 9.77711 19.2766 10.051C19.6937 10.337 20.1051 10.626 20.5122 10.9121L20.6247 10.9911C20.6356 10.9988 20.6466 11.0065 20.6575 11.0142ZM25.9663 0.0563006C27.9867 0.294029 30.0358 1.22796 32.2279 2.92036C34.5673 4.73046 37.0382 7.34891 39.7833 10.9509C39.789 10.9581 39.7945 10.9655 39.7999 10.9729C39.8972 11.1071 39.9494 11.2682 39.949 11.4333L40.0232 11.4616C40.0212 11.6055 39.9797 11.7461 39.903 11.8684C39.8797 11.9056 39.8535 11.9406 39.8246 11.9732C39.7855 12.0174 39.7415 12.0571 39.6935 12.0917C39.6602 12.1156 39.625 12.1371 39.588 12.1558L39.5829 12.1584C39.4419 12.3438 39.2999 12.5284 39.1568 12.7121C37.9516 14.2596 36.6707 15.7483 35.3186 17.1728C34.0675 18.4981 32.7063 19.7174 31.2492 20.8179C30.0924 21.6965 28.8339 22.4357 27.5003 23.0198C26.3938 23.5006 25.2209 23.8153 24.0204 23.9537C21.4956 24.1782 18.9656 23.5821 16.8145 22.2556C14.681 20.9359 12.6784 19.4198 10.8334 17.7275L10.8004 17.6991C8.94201 16.101 7.14141 14.5525 5.28198 13.5108C3.72631 13.2418 2.20345 12.8078 0.739923 12.2157L0.735157 12.215C0.668481 12.2099 0.602082 12.1965 0.538475 12.175C0.434227 12.1398 0.338508 12.0836 0.257381 12.0099C0.176254 11.9362 0.111487 11.8467 0.0671818 11.7469C0.022877 11.6472 0 11.5394 0 11.4305C0 11.3215 0.022877 11.2138 0.0671818 11.1141C0.111487 11.0143 0.176254 10.9248 0.257381 10.8511C0.302409 10.8102 0.351931 10.7746 0.404912 10.7451C2.24413 9.20651 4.34472 8.00215 6.60941 7.18816C8.33022 6.58787 10.1738 6.41488 11.9781 6.6844C12.2518 6.72696 12.5219 6.77971 12.7887 6.84169C13.5472 6.26163 14.2891 5.65704 15.0261 5.05638L15.0287 5.05426C16.6065 3.6797 18.3077 2.45013 20.1112 1.38079C20.984 0.884085 21.9193 0.503453 22.8928 0.248748C23.8976 0.00471107 24.9384 -0.0604547 25.9663 0.0563006ZM10.9548 8.15565C8.61327 9.70274 6.04315 10.8395 2.93669 10.8318C5.80594 8.86502 8.44735 7.98271 10.9548 8.15565ZM9.90779 10.5811C8.6961 11.218 7.40237 11.7327 5.99969 12.046C7.61429 12.2796 9.05702 12.2444 10.3887 12.0248C11.8612 11.782 13.198 11.3137 14.4812 10.7339C15.041 10.481 15.5905 10.2068 16.1367 9.92088C15.5923 9.60642 15.0427 9.32023 14.4824 9.07345C14.0265 8.87262 13.5637 8.6979 13.0909 8.55527C12.0862 9.29366 11.0323 9.99002 9.90779 10.5811ZM16.1158 8.1089C16.6739 8.39823 17.2187 8.71515 17.7525 9.04807L17.8101 9.01641C19.1325 8.25118 20.5011 7.56689 21.9082 6.96742C23.4156 6.34366 25.021 5.9836 26.653 5.9033C28.4497 5.85271 30.2393 6.12521 31.9349 6.70607C32.0983 6.76203 32.2608 6.82085 32.4223 6.88251C33.4979 7.29332 34.548 7.76318 35.568 8.28949C34.6602 7.263 33.7839 6.3597 32.9318 5.57534C32.9317 5.57528 32.9318 5.5754 32.9318 5.57534C32.8663 5.51505 32.8007 5.45529 32.7355 5.3964C32.2283 4.93838 31.7295 4.52276 31.2377 4.14863C29.2803 2.64301 27.4888 1.81096 25.7717 1.6072C22.224 1.18911 19.3662 3.5174 16.0601 6.211L16.0417 6.22592L16.0276 6.2375C15.9873 6.27047 15.9469 6.30351 15.9065 6.33656C15.4728 6.69134 15.033 7.05037 14.5849 7.40725C15.107 7.61354 15.6168 7.85019 16.1158 8.1089ZM31.8976 16.2594C30.6604 16.5264 29.381 16.5765 28.1184 16.403C24.9075 15.9388 22.166 14.0144 19.5904 12.2031C18.9584 11.7587 18.3347 11.3204 17.711 10.9055C15.7249 11.9751 13.6349 12.9984 11.1594 13.488C11.0075 13.5174 10.8552 13.5446 10.7026 13.5695C9.9705 13.6889 9.2314 13.7563 8.49095 13.7715C9.09254 14.2148 9.68219 14.6737 10.2593 15.1478C10.8095 15.5997 11.3482 16.0654 11.8751 16.5445C15.5095 19.6746 19.2756 22.9065 23.8544 22.4254C26.5888 22.1344 29.5009 20.553 32.6458 17.6253C33.0024 17.2933 33.3621 16.9439 33.7248 16.5772C33.727 16.575 33.7292 16.5727 33.7314 16.5705C34.2072 16.0892 34.6883 15.578 35.1749 15.0366C34.6066 15.3204 34.0243 15.5781 33.4299 15.8087C32.9295 15.9969 32.4173 16.1473 31.8976 16.2594Z" fill="#FF5B00"/>
    </g>
    <defs>
        <filter id="filter0_ii" x="43.9472" y="5.94334" width="66.9602" height="12.3492" filterUnits="userSpaceOnUse" color-interpolation-filters="sRGB">
            <feFlood flood-opacity="0" result="BackgroundImageFix"/>
            <feBlend mode="normal" in="SourceGraphic" in2="BackgroundImageFix" result="shape"/>
            <feColorMatrix in="SourceAlpha" type="matrix" values="0 0 0 0 0 0 0 0 0 0 0 0 0 0 0 0 0 0 127 0" result="hardAlpha"/>
            <feOffset dx="-0.0761905" dy="-0.0761905"/>
            <feGaussianBlur stdDeviation="0.0380952"/>
            <feComposite in2="hardAlpha" operator="arithmetic" k2="-1" k3="1"/>
            <feColorMatrix type="matrix" values="0 0 0 0 1 0 0 0 0 1 0 0 0 0 1 0 0 0 0.4 0"/>
            <feBlend mode="normal" in2="shape" result="effect1_innerShadow"/>
            <feColorMatrix in="SourceAlpha" type="matrix" values="0 0 0 0 0 0 0 0 0 0 0 0 0 0 0 0 0 0 127 0" result="hardAlpha"/>
            <feOffset dx="0.0761905" dy="0.0761905"/>
            <feGaussianBlur stdDeviation="0.0380952"/>
            <feComposite in2="hardAlpha" operator="arithmetic" k2="-1" k3="1"/>
            <feColorMatrix type="matrix" values="0 0 0 0 0.127604 0 0 0 0 0.267969 0 0 0 0 0.408333 0 0 0 0.4 0"/>
            <feBlend mode="normal" in2="effect1_innerShadow" result="effect2_innerShadow"/>
        </filter>
        <filter id="filter1_ii" x="-0.0761905" y="-0.0761905" width="40.1755" height="24.1524" filterUnits="userSpaceOnUse" color-interpolation-filters="sRGB">
            <feFlood flood-opacity="0" result="BackgroundImageFix"/>
            <feBlend mode="normal" in="SourceGraphic" in2="BackgroundImageFix" result="shape"/>
            <feColorMatrix in="SourceAlpha" type="matrix" values="0 0 0 0 0 0 0 0 0 0 0 0 0 0 0 0 0 0 127 0" result="hardAlpha"/>
            <feOffset dx="-0.0761905" dy="-0.0761905"/>
            <feGaussianBlur stdDeviation="0.0380952"/>
            <feComposite in2="hardAlpha" operator="arithmetic" k2="-1" k3="1"/>
            <feColorMatrix type="matrix" values="0 0 0 0 1 0 0 0 0 1 0 0 0 0 1 0 0 0 0.4 0"/>
            <feBlend mode="normal" in2="shape" result="effect1_innerShadow"/>
            <feColorMatrix in="SourceAlpha" type="matrix" values="0 0 0 0 0 0 0 0 0 0 0 0 0 0 0 0 0 0 127 0" result="hardAlpha"/>
            <feOffset dx="0.0761905" dy="0.0761905"/>
            <feGaussianBlur stdDeviation="0.0380952"/>
            <feComposite in2="hardAlpha" operator="arithmetic" k2="-1" k3="1"/>
            <feColorMatrix type="matrix" values="0 0 0 0 0.127604 0 0 0 0 0.267969 0 0 0 0 0.408333 0 0 0 0.4 0"/>
            <feBlend mode="normal" in2="effect1_innerShadow" result="effect2_innerShadow"/>
        </filter>
    </defs>
</svg>
