<svg width="20" height="20" viewBox="0 0 20 20" fill="none" xmlns="http://www.w3.org/2000/svg">
<path d="M11.982 9.77952C11.733 9.77952 11.4835 9.68278 11.2934 9.48975C10.9128 9.1037 10.9128 8.47705 11.2934 8.091L13.8119 5.53311C14.1921 5.14707 14.8091 5.14707 15.1892 5.53311C15.5698 5.91912 15.5698 6.54578 15.1892 6.93183L12.6706 9.48975C12.4806 9.68278 12.231 9.77952 11.982 9.77952Z" fill="#38FF9C"/>
<path d="M10 19.9994C4.48592 19.9994 0 15.5135 0 10C0 4.48644 4.48592 0 10 0C15.5141 0 20 4.48592 20 10C20 15.5141 15.5141 20 10 20V19.9994ZM10 1.94788C5.5604 1.94788 1.94788 5.5599 1.94788 10C1.94788 14.4401 5.5599 18.0521 10 18.0521C14.4401 18.0521 18.0521 14.4401 18.0521 10C18.0521 5.5599 14.4396 1.94788 10 1.94788Z" fill="#38FF9C"/>
<path d="M5.81144 16.0265C5.56245 16.0265 5.3129 15.9297 5.12286 15.7367C4.74276 15.3507 4.74223 14.7241 5.12286 14.338L7.64142 11.7801C8.02153 11.394 8.63854 11.3935 9.0186 11.7801C9.39871 12.1667 9.39926 12.7928 9.0186 13.1788L6.50009 15.7367C6.31003 15.9297 6.06049 16.0265 5.81144 16.0265Z" fill="#38FF9C"/>
<path d="M9.93824 7.11319C8.19727 7.23991 6.78952 8.66216 6.67159 10.4314C6.66529 10.5271 6.62424 10.6175 6.55686 10.6854L5.14226 12.1242C5.06223 12.206 4.92377 12.1691 4.89482 12.0574C4.78006 11.612 4.70898 11.134 4.70898 10.6587C4.70898 7.60029 7.15859 5.11242 10.1699 5.11242C10.6605 5.11242 11.1365 5.17872 11.5892 5.30223C11.6808 5.32736 11.7108 5.44392 11.6439 5.51236L10.182 6.99824C10.1167 7.06454 10.0304 7.10568 9.93824 7.11263V7.11319Z" fill="#38FF9C"/>
<path d="M13.7414 10.6226L15.2044 9.13779C15.2713 9.06992 15.3866 9.10041 15.4113 9.19344C15.5334 9.65325 15.5982 10.1366 15.5982 10.6349C15.5982 13.6933 13.1486 16.1811 10.1373 16.1811C9.6698 16.1811 9.19918 16.109 8.76008 15.9924C8.65009 15.963 8.61428 15.8229 8.6943 15.7411L10.111 14.3044C10.1778 14.2365 10.2668 14.1948 10.361 14.1878C12.1036 14.0681 13.5035 12.6384 13.6282 10.8702C13.6351 10.7766 13.6756 10.6889 13.7409 10.6226H13.7414Z" fill="#38FF9C"/>
</svg>
