<svg width="20" height="20" viewBox="0 0 20 20" fill="none" xmlns="http://www.w3.org/2000/svg">
<path d="M10 0C15.5228 0 20 4.47715 20 10C20 15.5228 15.5228 20 10 20C4.47715 20 0 15.5228 0 10C0 4.47715 4.47715 0 10 0ZM8 7C7.44772 7 7 7.44772 7 8V12C7 12.5523 7.44772 13 8 13H12C12.5523 13 13 12.5523 13 12V8C13 7.44772 12.5523 7 12 7H8Z" fill="url(#paint0_linear_685_13)"/>
<defs>
<linearGradient id="paint0_linear_685_13" x1="3" y1="2.5" x2="17.5" y2="17" gradientUnits="userSpaceOnUse">
<stop stop-color="#FF5B00"/>
<stop offset="1" stop-color="#F4BE38"/>
</linearGradient>
</defs>
</svg>
