<svg width="20" height="20" viewBox="2 2 20 20" fill="none" xmlns="http://www.w3.org/2000/svg">
<rect x="2" y="2" width="20" height="20" rx="10" fill="#1D2227"/>
<path d="M13.652 18.25C12.8018 18.25 12.1812 18.0351 11.7903 17.6054C11.4282 17.2417 11.218 16.7424 11.2058 16.2166C11.2014 16.0568 11.2367 15.8986 11.3082 15.7575C11.3749 15.6356 11.4712 15.5344 11.5874 15.4644C11.7224 15.3937 11.8712 15.3569 12.0221 15.3569C12.173 15.3569 12.3218 15.3937 12.4568 15.4644C12.5727 15.5342 12.6686 15.6354 12.7344 15.7575C12.808 15.8979 12.8446 16.0564 12.8405 16.2166C12.8481 16.4079 12.7958 16.5965 12.6916 16.7537C12.6047 16.882 12.4805 16.9773 12.3377 17.0253C12.4774 17.2119 12.675 17.3412 12.8962 17.3906C13.1436 17.466 13.3999 17.5048 13.6576 17.5058C13.9987 17.5089 14.3328 17.4041 14.6164 17.205C14.9105 16.987 15.1298 16.6754 15.2418 16.3164C15.3839 15.889 15.4532 15.4388 15.4466 14.9863C15.4581 14.5146 15.3822 14.0449 15.2232 13.6035C15.1036 13.2504 14.8766 12.9484 14.5772 12.7441C14.2989 12.5594 13.9759 12.4624 13.6466 12.4648C13.3596 12.4903 13.0829 12.5889 12.8405 12.752L12.2427 13.0664V12.752L14.9291 8.97112H11.2058V12.8945C11.1953 13.1777 11.2667 13.4575 11.4106 13.6973C11.4802 13.8017 11.5744 13.8856 11.6839 13.9407C11.7935 13.9958 11.9148 14.0202 12.0361 14.0117C12.2601 14.0069 12.4767 13.9268 12.6541 13.7832C12.8551 13.6286 13.0301 13.4398 13.1716 13.2246C13.1844 13.1868 13.2079 13.1541 13.239 13.1309C13.2639 13.1083 13.2957 13.0958 13.3287 13.0957C13.3934 13.1019 13.4546 13.1292 13.5037 13.1738C13.5659 13.2467 13.5998 13.3415 13.5986 13.4394C13.5915 13.5052 13.5803 13.5704 13.5651 13.6347C13.4329 13.9706 13.2112 14.2594 12.9266 14.4665C12.6622 14.6541 12.35 14.7536 12.0308 14.7519C11.2247 14.7519 10.6663 14.5853 10.3555 14.252C10.1957 14.0677 10.0726 13.8519 9.99332 13.6171C9.91405 13.3824 9.8802 13.1334 9.89376 12.8847V8.97112H8V8.24215H9.90259V6.58004L9.46699 6.12272V5.75H10.731L11.2058 6.00785V8.24215L16.1242 8.22646L16.6139 8.74207L13.598 11.9215C13.7802 11.8446 13.972 11.796 14.1676 11.777C14.5546 11.7948 14.9322 11.9079 15.2699 12.1071C15.6609 12.3021 15.9904 12.6106 16.2194 12.9961C16.4246 13.3224 16.5698 13.686 16.6476 14.0683C16.7115 14.3699 16.7459 14.6775 16.75 14.9864C16.752 15.5759 16.6246 16.158 16.3777 16.6875C16.1435 17.2003 15.7494 17.6138 15.2606 17.8594C14.7603 18.1181 14.2097 18.2518 13.652 18.25Z" fill="white"/>
</svg>
