<svg width="20" height="20" viewBox="2 2 20 20" fill="none" xmlns="http://www.w3.org/2000/svg">
<circle cx="12" cy="12" r="10" fill="#2C7DF7"/>
<path d="M13.4597 19C12.4866 19 11.7791 18.7592 11.3318 18.2776C10.8872 17.796 10.6649 17.278 10.6649 16.7208C10.6649 16.5164 10.7029 16.3456 10.7815 16.2084C10.8574 16.0712 10.9686 15.9564 11.0987 15.8808C11.2342 15.7996 11.3996 15.7604 11.5947 15.7604C11.7926 15.7604 11.958 15.7996 12.0908 15.8808C12.2263 15.962 12.3321 16.0712 12.408 16.2084C12.4866 16.3484 12.5245 16.5192 12.5245 16.7208C12.5245 16.9672 12.4676 17.166 12.3538 17.3228C12.2399 17.4768 12.1044 17.5804 11.9499 17.628C12.0854 17.8212 12.2968 17.9556 12.5869 18.0368C12.8769 18.1236 13.167 18.1656 13.457 18.1656C13.8609 18.1656 14.2242 18.0536 14.5522 17.8296C14.8775 17.6056 15.1187 17.2724 15.2732 16.8356C15.4278 16.396 15.5064 15.9004 15.5064 15.3432C15.5064 14.7384 15.4196 14.2232 15.2488 13.7948C15.0835 13.3608 14.8368 13.0416 14.5115 12.8316C14.1944 12.6272 13.8284 12.518 13.457 12.518C13.2076 12.518 12.8986 12.6244 12.5245 12.84L11.8414 13.1928V12.84L14.9154 8.6064H10.6649V12.9996C10.6649 13.3636 10.7436 13.6632 10.8981 13.8984C11.0526 14.1336 11.2911 14.2512 11.6137 14.2512C11.8631 14.2512 12.0989 14.1644 12.3266 13.9936C12.5571 13.82 12.7549 13.61 12.9176 13.3692C12.9393 13.3216 12.9637 13.2852 12.9962 13.2656C13.0233 13.2404 13.0613 13.2264 13.0965 13.2264C13.1534 13.2264 13.2212 13.2544 13.2971 13.316C13.3703 13.4 13.4055 13.5008 13.4055 13.6128C13.3974 13.6884 13.3838 13.764 13.3676 13.8368C13.1914 14.2428 12.9474 14.5536 12.6384 14.7664C12.3348 14.9764 11.9797 15.0884 11.6137 15.0884C10.6921 15.0884 10.055 14.9008 9.70263 14.5284C9.35023 14.1532 9.17403 13.6464 9.17403 13.0052V8.6092H7V7.7916H9.17403V5.9296L8.67796 5.4172V5H10.1228L10.6649 5.2884V7.7888L16.2844 7.7748L16.8428 8.3516L13.3974 11.9104C13.6061 11.8236 13.8257 11.7704 14.0507 11.7508C14.4221 11.7508 14.8422 11.874 15.3085 12.1204C15.7802 12.3612 16.1407 12.6916 16.3955 13.1144C16.6503 13.5316 16.813 13.932 16.8834 14.3184C16.962 14.7048 17 15.0464 17 15.346C17 16.0292 16.859 16.6676 16.5798 17.2556C16.3006 17.8436 15.875 18.2804 15.3058 18.5716C14.7365 18.8544 14.1212 19 13.4597 19Z" fill="white"/>
</svg>
