<svg width="129" height="13" viewBox="0 0 129 13" preserveAspectRatio="none slice" fill="none" xmlns="http://www.w3.org/2000/svg">
    <path d="M6 11.5L1 6.5L6 1.5" stroke="#E4E4E4" stroke-width="1.5" stroke-linecap="round" stroke-linejoin="round"/>
    <path d="M13 11.5L8 6.5L13 1.5" stroke="#E4E4E4" stroke-width="1.5" stroke-linecap="round" stroke-linejoin="round"/>
    <path d="M20 11.5L15 6.5L20 1.5" stroke="#E4E4E4" stroke-width="1.5" stroke-linecap="round" stroke-linejoin="round"/>
    <path d="M27.828 10.11C26.816 10.11 26.0313 9.85333 25.474 9.34C24.924 8.81933 24.6307 8.08233 24.594 7.129C24.5867 6.931 24.583 6.60833 24.583 6.161C24.583 5.70633 24.5867 5.37633 24.594 5.171C24.6307 4.23233 24.9277 3.50267 25.485 2.982C26.0423 2.454 26.8233 2.19 27.828 2.19C28.4807 2.19 29.049 2.30367 29.533 2.531C30.017 2.751 30.391 3.05533 30.655 3.444C30.9263 3.83267 31.0693 4.269 31.084 4.753V4.775C31.084 4.83367 31.0583 4.885 31.007 4.929C30.963 4.96567 30.9117 4.984 30.853 4.984H29.786C29.698 4.984 29.632 4.96567 29.588 4.929C29.544 4.885 29.5073 4.81167 29.478 4.709C29.368 4.25433 29.1773 3.93533 28.906 3.752C28.6347 3.56133 28.2753 3.466 27.828 3.466C26.7793 3.466 26.233 4.05267 26.189 5.226C26.1817 5.424 26.178 5.72833 26.178 6.139C26.178 6.54967 26.1817 6.86133 26.189 7.074C26.233 8.24733 26.7793 8.834 27.828 8.834C28.268 8.834 28.6237 8.74233 28.895 8.559C29.1737 8.36833 29.368 8.04567 29.478 7.591C29.5073 7.48833 29.544 7.41867 29.588 7.382C29.632 7.338 29.698 7.316 29.786 7.316H30.853C30.919 7.316 30.974 7.338 31.018 7.382C31.0693 7.426 31.0913 7.481 31.084 7.547C31.0693 8.031 30.9263 8.46733 30.655 8.856C30.391 9.24467 30.017 9.55267 29.533 9.78C29.049 10 28.4807 10.11 27.828 10.11ZM35.4283 10.11C34.4236 10.11 33.6426 9.857 33.0853 9.351C32.5279 8.845 32.2346 8.09333 32.2053 7.096C32.1979 6.88333 32.1943 6.57167 32.1943 6.161C32.1943 5.743 32.1979 5.42767 32.2053 5.215C32.2346 4.23967 32.5353 3.49167 33.1073 2.971C33.6793 2.45033 34.4529 2.19 35.4283 2.19C36.3963 2.19 37.1663 2.45033 37.7383 2.971C38.3176 3.49167 38.6219 4.23967 38.6513 5.215C38.6659 5.64033 38.6733 5.95567 38.6733 6.161C38.6733 6.359 38.6659 6.67067 38.6513 7.096C38.6219 8.09333 38.3249 8.845 37.7603 9.351C37.2029 9.857 36.4256 10.11 35.4283 10.11ZM35.4283 8.834C35.9196 8.834 36.3083 8.68733 36.5943 8.394C36.8803 8.10067 37.0343 7.64967 37.0563 7.041C37.0709 6.601 37.0783 6.304 37.0783 6.15C37.0783 5.98133 37.0709 5.68433 37.0563 5.259C37.0343 4.65767 36.8766 4.21033 36.5833 3.917C36.2899 3.61633 35.9049 3.466 35.4283 3.466C34.9443 3.466 34.5556 3.61633 34.2623 3.917C33.9689 4.21033 33.8149 4.65767 33.8003 5.259C33.7929 5.47167 33.7893 5.76867 33.7893 6.15C33.7893 6.524 33.7929 6.821 33.8003 7.041C33.8149 7.64233 33.9653 8.09333 34.2513 8.394C34.5446 8.68733 34.9369 8.834 35.4283 8.834ZM40.4407 10C40.3674 10 40.305 9.97433 40.2537 9.923C40.2024 9.87167 40.1767 9.80933 40.1767 9.736V2.564C40.1767 2.48333 40.2024 2.421 40.2537 2.377C40.305 2.32567 40.3674 2.3 40.4407 2.3H41.4747C41.5554 2.3 41.6177 2.32567 41.6617 2.377C41.713 2.421 41.7387 2.48333 41.7387 2.564V8.68H45.2257C45.3064 8.68 45.3724 8.70567 45.4237 8.757C45.475 8.80833 45.5007 8.87067 45.5007 8.944V9.736C45.5007 9.80933 45.475 9.87167 45.4237 9.923C45.3724 9.97433 45.3064 10 45.2257 10H40.4407ZM46.9023 10C46.829 10 46.7666 9.97433 46.7153 9.923C46.664 9.87167 46.6383 9.80933 46.6383 9.736V2.564C46.6383 2.48333 46.664 2.421 46.7153 2.377C46.7666 2.32567 46.829 2.3 46.9023 2.3H47.9363C48.017 2.3 48.0793 2.32567 48.1233 2.377C48.1746 2.421 48.2003 2.48333 48.2003 2.564V8.68H51.6873C51.768 8.68 51.834 8.70567 51.8853 8.757C51.9366 8.80833 51.9623 8.87067 51.9623 8.944V9.736C51.9623 9.80933 51.9366 9.87167 51.8853 9.923C51.834 9.97433 51.768 10 51.6873 10H46.9023ZM53.3639 10C53.2906 10 53.2282 9.97433 53.1769 9.923C53.1256 9.87167 53.0999 9.80933 53.0999 9.736V2.575C53.0999 2.49433 53.1219 2.42833 53.1659 2.377C53.2172 2.32567 53.2832 2.3 53.3639 2.3H58.2149C58.2956 2.3 58.3616 2.32567 58.4129 2.377C58.4642 2.42833 58.4899 2.49433 58.4899 2.575V3.312C58.4899 3.39267 58.4642 3.45867 58.4129 3.51C58.3616 3.554 58.2956 3.576 58.2149 3.576H54.6069V5.501H57.9729C58.0536 5.501 58.1196 5.52667 58.1709 5.578C58.2222 5.62933 58.2479 5.69533 58.2479 5.776V6.469C58.2479 6.54967 58.2222 6.61567 58.1709 6.667C58.1196 6.711 58.0536 6.733 57.9729 6.733H54.6069V8.724H58.3029C58.3836 8.724 58.4496 8.74967 58.5009 8.801C58.5522 8.845 58.5779 8.90733 58.5779 8.988V9.736C58.5779 9.81667 58.5522 9.88267 58.5009 9.934C58.4496 9.978 58.3836 10 58.3029 10H53.3639ZM62.929 10.11C61.917 10.11 61.1323 9.85333 60.575 9.34C60.025 8.81933 59.7316 8.08233 59.695 7.129C59.6876 6.931 59.684 6.60833 59.684 6.161C59.684 5.70633 59.6876 5.37633 59.695 5.171C59.7316 4.23233 60.0286 3.50267 60.586 2.982C61.1433 2.454 61.9243 2.19 62.929 2.19C63.5816 2.19 64.15 2.30367 64.634 2.531C65.118 2.751 65.492 3.05533 65.756 3.444C66.0273 3.83267 66.1703 4.269 66.185 4.753V4.775C66.185 4.83367 66.1593 4.885 66.108 4.929C66.064 4.96567 66.0126 4.984 65.954 4.984H64.887C64.799 4.984 64.733 4.96567 64.689 4.929C64.645 4.885 64.6083 4.81167 64.579 4.709C64.469 4.25433 64.2783 3.93533 64.007 3.752C63.7356 3.56133 63.3763 3.466 62.929 3.466C61.8803 3.466 61.334 4.05267 61.29 5.226C61.2826 5.424 61.279 5.72833 61.279 6.139C61.279 6.54967 61.2826 6.86133 61.29 7.074C61.334 8.24733 61.8803 8.834 62.929 8.834C63.369 8.834 63.7246 8.74233 63.996 8.559C64.2746 8.36833 64.469 8.04567 64.579 7.591C64.6083 7.48833 64.645 7.41867 64.689 7.382C64.733 7.338 64.799 7.316 64.887 7.316H65.954C66.02 7.316 66.075 7.338 66.119 7.382C66.1703 7.426 66.1923 7.481 66.185 7.547C66.1703 8.031 66.0273 8.46733 65.756 8.856C65.492 9.24467 65.118 9.55267 64.634 9.78C64.15 10 63.5816 10.11 62.929 10.11ZM69.5172 10C69.4439 10 69.3816 9.97433 69.3302 9.923C69.2789 9.87167 69.2532 9.80933 69.2532 9.736V3.675H67.2182C67.1449 3.675 67.0826 3.64933 67.0312 3.598C66.9799 3.54667 66.9542 3.48067 66.9542 3.4V2.575C66.9542 2.49433 66.9762 2.42833 67.0202 2.377C67.0716 2.32567 67.1376 2.3 67.2182 2.3H72.8392C72.9199 2.3 72.9859 2.32567 73.0372 2.377C73.0886 2.42833 73.1142 2.49433 73.1142 2.575V3.4C73.1142 3.48067 73.0886 3.54667 73.0372 3.598C72.9859 3.64933 72.9199 3.675 72.8392 3.675H70.8152V9.736C70.8152 9.80933 70.7896 9.87167 70.7382 9.923C70.6942 9.97433 70.6319 10 70.5512 10H69.5172ZM74.5642 10C74.4908 10 74.4285 9.97433 74.3772 9.923C74.3258 9.87167 74.3002 9.80933 74.3002 9.736V2.564C74.3002 2.48333 74.3258 2.421 74.3772 2.377C74.4285 2.32567 74.4908 2.3 74.5642 2.3H75.6202C75.7008 2.3 75.7632 2.32567 75.8072 2.377C75.8585 2.421 75.8842 2.48333 75.8842 2.564V9.736C75.8842 9.80933 75.8585 9.87167 75.8072 9.923C75.7632 9.97433 75.7008 10 75.6202 10H74.5642ZM77.932 10C77.8587 10 77.7963 9.97433 77.745 9.923C77.6937 9.87167 77.668 9.80933 77.668 9.736V2.575C77.668 2.49433 77.69 2.42833 77.734 2.377C77.7853 2.32567 77.8513 2.3 77.932 2.3H81.122C81.98 2.3 82.6217 2.49067 83.047 2.872C83.4723 3.246 83.685 3.75933 83.685 4.412C83.685 4.79333 83.5897 5.11967 83.399 5.391C83.2157 5.655 82.9993 5.84567 82.75 5.963C83.058 6.10233 83.3183 6.32967 83.531 6.645C83.7437 6.96033 83.85 7.31967 83.85 7.723C83.85 8.405 83.619 8.955 83.157 9.373C82.695 9.791 82.0497 10 81.221 10H77.932ZM80.924 5.457C81.298 5.457 81.584 5.36533 81.782 5.182C81.9873 4.99867 82.09 4.753 82.09 4.445C82.09 4.137 81.991 3.89867 81.793 3.73C81.595 3.56133 81.3053 3.477 80.924 3.477H79.219V5.457H80.924ZM81.034 8.823C81.4153 8.823 81.7123 8.72033 81.925 8.515C82.1377 8.30233 82.244 8.03467 82.244 7.712C82.244 7.38933 82.134 7.12533 81.914 6.92C81.7013 6.70733 81.408 6.601 81.034 6.601H79.219V8.823H81.034ZM85.5538 10C85.4804 10 85.4181 9.97433 85.3668 9.923C85.3154 9.87167 85.2898 9.80933 85.2898 9.736V2.564C85.2898 2.48333 85.3154 2.421 85.3668 2.377C85.4181 2.32567 85.4804 2.3 85.5538 2.3H86.5878C86.6684 2.3 86.7308 2.32567 86.7748 2.377C86.8261 2.421 86.8518 2.48333 86.8518 2.564V8.68H90.3388C90.4194 8.68 90.4854 8.70567 90.5368 8.757C90.5881 8.80833 90.6138 8.87067 90.6138 8.944V9.736C90.6138 9.80933 90.5881 9.87167 90.5368 9.923C90.4854 9.97433 90.4194 10 90.3388 10H85.5538ZM92.0154 10C91.942 10 91.8797 9.97433 91.8284 9.923C91.777 9.87167 91.7514 9.80933 91.7514 9.736V2.575C91.7514 2.49433 91.7734 2.42833 91.8174 2.377C91.8687 2.32567 91.9347 2.3 92.0154 2.3H96.8664C96.947 2.3 97.013 2.32567 97.0644 2.377C97.1157 2.42833 97.1414 2.49433 97.1414 2.575V3.312C97.1414 3.39267 97.1157 3.45867 97.0644 3.51C97.013 3.554 96.947 3.576 96.8664 3.576H93.2584V5.501H96.6244C96.705 5.501 96.771 5.52667 96.8224 5.578C96.8737 5.62933 96.8994 5.69533 96.8994 5.776V6.469C96.8994 6.54967 96.8737 6.61567 96.8224 6.667C96.771 6.711 96.705 6.733 96.6244 6.733H93.2584V8.724H96.9544C97.035 8.724 97.101 8.74967 97.1524 8.801C97.2037 8.845 97.2294 8.90733 97.2294 8.988V9.736C97.2294 9.81667 97.2037 9.88267 97.1524 9.934C97.101 9.978 97.035 10 96.9544 10H92.0154ZM101.359 10.11C100.699 10.11 100.134 10.011 99.6649 9.813C99.1955 9.615 98.8399 9.35467 98.5979 9.032C98.3559 8.70933 98.2275 8.35733 98.2129 7.976C98.2129 7.91733 98.2349 7.866 98.2789 7.822C98.3229 7.77067 98.3779 7.745 98.4439 7.745H99.4449C99.5255 7.745 99.5915 7.76333 99.6429 7.8C99.6942 7.83667 99.7419 7.888 99.7859 7.954C99.8592 8.20333 100.024 8.41233 100.281 8.581C100.545 8.74967 100.904 8.834 101.359 8.834C101.872 8.834 102.257 8.74967 102.514 8.581C102.778 8.405 102.91 8.16667 102.91 7.866C102.91 7.668 102.844 7.503 102.712 7.371C102.58 7.239 102.378 7.12533 102.107 7.03C101.843 6.92733 101.447 6.80633 100.919 6.667C100.054 6.46167 99.4192 6.19033 99.0159 5.853C98.6125 5.51567 98.4109 5.03167 98.4109 4.401C98.4109 3.97567 98.5282 3.598 98.7629 3.268C98.9975 2.93067 99.3312 2.66667 99.7639 2.476C100.204 2.28533 100.714 2.19 101.293 2.19C101.902 2.19 102.426 2.29633 102.866 2.509C103.313 2.72167 103.651 2.98933 103.878 3.312C104.113 3.62733 104.237 3.94267 104.252 4.258C104.252 4.31667 104.23 4.37167 104.186 4.423C104.142 4.467 104.087 4.489 104.021 4.489H102.976C102.815 4.489 102.705 4.423 102.646 4.291C102.609 4.05633 102.466 3.862 102.217 3.708C101.968 3.54667 101.66 3.466 101.293 3.466C100.89 3.466 100.571 3.543 100.336 3.697C100.109 3.851 99.9949 4.07467 99.9949 4.368C99.9949 4.566 100.054 4.731 100.171 4.863C100.288 4.995 100.472 5.11233 100.721 5.215C100.97 5.31033 101.333 5.42033 101.81 5.545C102.463 5.69167 102.98 5.85667 103.361 6.04C103.75 6.22333 104.036 6.45433 104.219 6.733C104.402 7.01167 104.494 7.36733 104.494 7.8C104.494 8.27667 104.362 8.691 104.098 9.043C103.841 9.38767 103.475 9.65167 102.998 9.835C102.529 10.0183 101.982 10.11 101.359 10.11Z" fill="#E4E4E4"/>
    <path d="M114 11.5L109 6.5L114 1.5" stroke="#E4E4E4" stroke-width="1.5" stroke-linecap="round" stroke-linejoin="round"/>
    <path d="M121 11.5L116 6.5L121 1.5" stroke="#E4E4E4" stroke-width="1.5" stroke-linecap="round" stroke-linejoin="round"/>
    <path d="M128 11.5L123 6.5L128 1.5" stroke="#E4E4E4" stroke-width="1.5" stroke-linecap="round" stroke-linejoin="round"/>
</svg>
