<svg width="71" height="93" viewBox="0 0 71 93" fill="none" xmlns="http://www.w3.org/2000/svg">
    <g clip-path="url(#clip0)">
        <path fill-rule="evenodd" clip-rule="evenodd" d="M34.1829 54.4413H32.6602C32.5367 54.4413 32.4339 54.5446 32.4339 54.6478V58.0542C32.4339 58.0749 32.4133 58.0955 32.3927 58.1162H32.331C31.9194 57.8271 31.3844 57.6826 30.8083 57.6826C29.0387 57.6826 27.7012 59.0452 27.7012 60.8413C27.7012 62.6375 29.0387 63.9794 30.8083 63.9794C31.3844 63.9794 31.9194 63.8142 32.331 63.5252C32.3516 63.5046 32.3721 63.5046 32.3927 63.5252C32.4133 63.5458 32.4339 63.5665 32.4339 63.5871V63.6491C32.4339 63.7729 32.5367 63.8555 32.6602 63.8555H34.1829C34.3064 63.8555 34.4092 63.7523 34.4092 63.6491V54.6478C34.4092 54.5446 34.3064 54.4413 34.1829 54.4413ZM31.0758 62.1626C30.3144 62.1626 29.7589 61.6052 29.7589 60.8413C29.7589 60.0775 30.3144 59.5407 31.0758 59.5407C31.7342 59.5407 32.4133 59.9949 32.4133 60.8413C32.4133 61.5846 31.8371 62.1626 31.0758 62.1626ZM14.1 58.4877C14.6556 57.8271 15.3758 57.6826 15.8902 57.6826C17.454 57.6826 18.38 58.7148 18.38 60.4284V63.649C18.38 63.7522 18.2771 63.8555 18.1537 63.8555H16.631C16.5075 63.8555 16.4046 63.7729 16.4046 63.649V60.5729C16.4046 59.9122 16.0754 59.5406 15.5198 59.5406C14.9231 59.5406 14.5527 59.9535 14.5527 60.6348V63.649C14.5527 63.7522 14.4498 63.8555 14.3263 63.8555H12.8037C12.6802 63.8555 12.5773 63.7729 12.5773 63.649V60.5522C12.5773 59.9329 12.2481 59.5406 11.7337 59.5406C11.3633 59.5406 10.7254 59.6851 10.7254 60.6348V63.649C10.7254 63.7522 10.6225 63.8555 10.499 63.8555H8.97635C8.85288 63.8555 8.75 63.7729 8.75 63.649V58.0129C8.75 57.9097 8.85288 57.8064 8.97635 57.8064H10.499C10.6225 57.8064 10.7254 57.889 10.7254 58.0129V58.0748C10.7254 58.0955 10.746 58.1161 10.7665 58.1368C10.7871 58.1574 10.8077 58.1574 10.8283 58.1368C11.1987 57.8684 11.7131 57.7032 12.1863 57.7032C13.0506 57.7445 13.6267 57.9922 14.0177 58.4877C14.0177 58.5084 14.0383 58.5084 14.0588 58.5084C14.0794 58.5084 14.0794 58.5084 14.1 58.4877L14.1 58.4877ZM24.5326 57.8064H26.0552C26.1787 57.8064 26.2816 57.9097 26.2816 58.0129V63.649C26.2816 63.7522 26.1787 63.8555 26.0552 63.8555H24.5326C24.4091 63.8555 24.3062 63.7729 24.3062 63.649V63.5871C24.3062 63.5568 24.2952 63.5487 24.2812 63.5385C24.2761 63.5347 24.2706 63.5307 24.2651 63.5251C24.2445 63.5045 24.2239 63.5045 24.2033 63.5251C23.7095 63.8348 23.0922 63.9587 22.7012 63.9587C21.1374 63.9587 19.4912 62.8645 19.4912 60.8206C19.4912 58.7768 21.1374 57.6826 22.7012 57.6826C23.2362 57.6826 23.7918 57.8477 24.2033 58.1161C24.2102 58.1161 24.217 58.1184 24.2239 58.1207C24.2376 58.1253 24.2513 58.1299 24.2651 58.1161L24.2651 58.1161C24.2856 58.0955 24.3062 58.0748 24.3062 58.0542V58.0129C24.3062 57.9097 24.4091 57.8064 24.5326 57.8064ZM21.5283 60.8413C21.5283 61.6877 22.2485 62.1419 22.9276 62.1419C23.6066 62.1419 24.3062 61.6877 24.3062 60.8413C24.3062 59.9948 23.586 59.5406 22.9276 59.5406C22.2485 59.5406 21.5283 59.9948 21.5283 60.8413ZM36.4875 62.9058C36.4875 62.2864 36.9608 61.8116 37.5575 61.8116C38.1749 61.8116 38.6481 62.2864 38.6481 62.9058C38.6481 63.5251 38.1749 64 37.5575 64C36.9608 64 36.4875 63.5251 36.4875 62.9058ZM46.4469 54.6478C45.8296 54.6478 45.3152 55.1433 45.3152 55.7626C45.3152 56.382 45.809 56.8775 46.4469 56.8775C47.0848 56.8775 47.5581 56.4026 47.5581 55.7626C47.5581 55.1226 47.0642 54.6478 46.4469 54.6478ZM42.949 57.8064H47.2084C47.3319 57.8064 47.4348 57.9096 47.4348 58.0129V63.649C47.4348 63.7522 47.3319 63.8554 47.2084 63.8554H45.6857C45.5623 63.8554 45.4594 63.7729 45.4594 63.649V59.4787C45.4594 59.4374 45.4388 59.4167 45.3977 59.4167H42.949C42.9079 59.4167 42.8873 59.4374 42.8873 59.4787V63.649C42.8873 63.7522 42.7844 63.8554 42.6609 63.8554H41.1177C40.9942 63.8554 40.8913 63.7729 40.8913 63.649V59.4787C40.8913 59.4374 40.8707 59.4167 40.8296 59.4167H39.8213C39.6979 59.4167 39.595 59.3342 39.595 59.2103V58.0335C39.595 57.9303 39.6979 57.8271 39.8213 57.8271H40.8296C40.8707 57.8271 40.8913 57.8064 40.8913 57.7651V57.2903C40.8913 55.4942 41.879 54.4619 43.6075 54.4619H44.163C44.2865 54.4619 44.3894 54.5445 44.3894 54.6684V56.0722C44.3894 56.1755 44.2865 56.2787 44.163 56.2787H43.6075C43.2782 56.2787 42.8873 56.3819 42.8873 57.2696V57.7445C42.8873 57.7858 42.9079 57.8064 42.949 57.8064ZM52.5994 60.2013L51.6117 59.9742C51.4677 59.9535 51.159 59.8503 51.159 59.5406C51.159 59.4374 51.2002 59.3548 51.2619 59.2929C51.4059 59.1484 51.6734 59.169 51.6734 59.169C52.0027 59.169 52.2084 59.3135 52.229 59.5406C52.229 59.6438 52.3319 59.7264 52.4554 59.7264H53.9163C53.9781 59.7264 54.0398 59.7058 54.0809 59.6645C54.1221 59.6232 54.1427 59.5613 54.1427 59.52C54.0809 58.0748 52.8052 57.5587 51.6323 57.5587C50.2948 57.5587 49.2454 58.6735 49.2454 59.6438C49.2454 60.3458 49.3894 60.9858 51.0767 61.4193C51.0767 61.4193 52.3319 61.6671 52.3525 62.1832C52.3525 62.3484 52.2702 62.6374 51.694 62.6374C51.2619 62.6374 50.9944 62.3896 50.9738 62.1213C50.9738 62.018 50.8709 61.9354 50.7475 61.9354H49.3277C49.2659 61.9354 49.2042 61.9561 49.163 61.9974C49.1219 62.0387 49.1013 62.1006 49.1013 62.1419C49.1425 63.5045 50.5211 64 51.694 64C52.9492 64 54.3073 63.4013 54.3073 62.08C54.2867 61.5432 54.0604 60.5935 52.5994 60.2013ZM58.1552 58.1575C58.6284 57.8271 59.2458 57.6826 59.6573 57.6826C61.2829 57.6826 62.25 58.7562 62.2088 60.511V63.6491C62.2088 63.7523 62.1059 63.8555 61.9825 63.8555H60.4598C60.3363 63.8555 60.2334 63.7729 60.2334 63.6491V60.5729C60.2334 59.871 59.719 59.5407 59.2252 59.5407C59.04 59.5407 58.0523 59.582 58.0523 60.6349V63.6491C58.0523 63.7523 57.9494 63.8555 57.8259 63.8555H56.3033C56.1798 63.8555 56.0769 63.7729 56.0769 63.6491V54.6478C56.0769 54.5446 56.1798 54.4413 56.3033 54.4413H57.8259C57.9494 54.4413 58.0523 54.5239 58.0523 54.6478V58.0955C58.0523 58.1162 58.0729 58.1368 58.0934 58.1575C58.114 58.1781 58.1346 58.1781 58.1552 58.1575Z" fill="#707070"/>
        <path d="M56.0768 38.1936C57.7847 38.1936 59.1633 36.8103 59.1633 35.0968V16.5161C59.1633 14.8026 57.7847 13.4194 56.0768 13.4194C54.3689 13.4194 52.9903 14.8026 52.9903 16.5161C52.9903 17.0942 53.443 17.5484 54.0191 17.5484C54.5953 17.5484 55.048 17.0942 55.048 16.5161C55.048 15.9381 55.5007 15.4839 56.0768 15.4839C56.653 15.4839 57.1057 15.9381 57.1057 16.5161V35.0968C57.1057 35.6748 56.653 36.129 56.0768 36.129C55.5007 36.129 55.048 35.6748 55.048 35.0968V22.7097C55.048 20.9961 53.6693 19.6129 51.9614 19.6129C51.3853 19.6129 50.9326 19.1587 50.9326 18.5806V10.3226C50.9326 9.74452 51.3853 9.29032 51.9614 9.29032C52.5376 9.29032 52.9903 9.74452 52.9903 10.3226C52.9903 10.9006 53.443 11.3548 54.0191 11.3548C54.5953 11.3548 55.048 10.9006 55.048 10.3226C55.048 8.60903 53.6693 7.22581 51.9614 7.22581C50.2535 7.22581 48.8749 8.60903 48.8749 10.3226V22.7097V26.8387C48.8749 27.4168 48.4222 27.871 47.846 27.871C47.2699 27.871 46.8172 27.4168 46.8172 26.8387V22.7097V11.3548C46.8172 5.09936 41.7347 0 35.4999 0C29.2651 0 24.1826 5.09936 24.1826 11.3548V22.7097V26.8387C24.1826 27.4168 23.7299 27.871 23.1537 27.871C22.5776 27.871 22.1249 27.4168 22.1249 26.8387V22.7097V10.3226C22.1249 8.60903 20.7462 7.22581 19.0383 7.22581C17.3305 7.22581 15.9518 8.60903 15.9518 10.3226C15.9518 10.9006 16.4045 11.3548 16.9807 11.3548C17.5568 11.3548 18.0095 10.9006 18.0095 10.3226C18.0095 9.74452 18.4622 9.29032 19.0383 9.29032C19.6145 9.29032 20.0672 9.74452 20.0672 10.3226V18.5806C20.0672 19.1587 19.6145 19.6129 19.0383 19.6129C17.3305 19.6129 15.9518 20.9961 15.9518 22.7097V35.0968C15.9518 35.6748 15.4991 36.129 14.923 36.129C14.3468 36.129 13.8941 35.6748 13.8941 35.0968V16.5161C13.8941 15.9381 14.3468 15.4839 14.923 15.4839C15.4991 15.4839 15.9518 15.9381 15.9518 16.5161C15.9518 17.0942 16.4045 17.5484 16.9807 17.5484C17.5568 17.5484 18.0095 17.0942 18.0095 16.5161C18.0095 14.8026 16.6308 13.4194 14.923 13.4194C13.2151 13.4194 11.8364 14.8026 11.8364 16.5161V35.0968C11.8364 36.8103 13.2151 38.1936 14.923 38.1936C16.6308 38.1936 18.0095 36.8103 18.0095 35.0968V22.7097C18.0095 22.1316 18.4622 21.6774 19.0383 21.6774C19.6145 21.6774 20.0672 22.1316 20.0672 22.7097V26.8387C20.0672 28.5523 21.4458 29.9355 23.1537 29.9355C24.8616 29.9355 26.2403 28.5523 26.2403 26.8387V22.7097C26.2403 22.1316 26.693 21.6774 27.2691 21.6774C27.8453 21.6774 28.298 22.1316 28.298 22.7097V24.7742V37.1613C28.298 37.7394 27.8453 38.1936 27.2691 38.1936C26.693 38.1936 26.2403 37.7394 26.2403 37.1613V35.0968C26.2403 33.3832 24.8616 32 23.1537 32C21.4458 32 20.0672 33.3832 20.0672 35.0968V41.2903C20.0672 41.8684 19.6145 42.3226 19.0383 42.3226C18.4622 42.3226 18.0095 41.8684 18.0095 41.2903C18.0095 40.7123 17.5568 40.2581 16.9807 40.2581C16.4045 40.2581 15.9518 40.7123 15.9518 41.2903C15.9518 43.0039 17.3305 44.3871 19.0383 44.3871C20.7462 44.3871 22.1249 43.0039 22.1249 41.2903V35.0968C22.1249 34.5187 22.5776 34.0645 23.1537 34.0645C23.7299 34.0645 24.1826 34.5187 24.1826 35.0968V37.1613C24.1826 38.8748 25.5612 40.2581 27.2691 40.2581C28.977 40.2581 30.3557 38.8748 30.3557 37.1613V24.7742C30.3557 24.1961 30.8083 23.7419 31.3845 23.7419C31.9607 23.7419 32.4133 24.1961 32.4133 24.7742V47.4839C32.4133 48.0619 31.9607 48.5161 31.3845 48.5161C30.8083 48.5161 30.3557 48.0619 30.3557 47.4839V45.4194C30.3557 43.7058 28.977 42.3226 27.2691 42.3226C25.5612 42.3226 24.1826 43.7058 24.1826 45.4194C24.1826 45.9974 24.6353 46.4516 25.2114 46.4516C25.7876 46.4516 26.2403 45.9974 26.2403 45.4194C26.2403 44.8413 26.693 44.3871 27.2691 44.3871C27.8453 44.3871 28.298 44.8413 28.298 45.4194V47.4839C28.298 49.1974 29.6766 50.5806 31.3845 50.5806C33.0924 50.5806 34.471 49.1974 34.471 47.4839V24.7742V20.6452C34.471 20.0671 34.9237 19.6129 35.4999 19.6129C36.076 19.6129 36.5287 20.0671 36.5287 20.6452V24.7742V47.4839C36.5287 49.1974 37.9074 50.5806 39.6153 50.5806C41.3232 50.5806 42.7018 49.1974 42.7018 47.4839V45.4194C42.7018 44.8413 43.1545 44.3871 43.7307 44.3871C44.3068 44.3871 44.7595 44.8413 44.7595 45.4194C44.7595 45.9974 45.2122 46.4516 45.7883 46.4516C46.3645 46.4516 46.8172 45.9974 46.8172 45.4194C46.8172 43.7058 45.4385 42.3226 43.7307 42.3226C42.0228 42.3226 40.6441 43.7058 40.6441 45.4194V47.4839C40.6441 48.0619 40.1914 48.5161 39.6153 48.5161C39.0391 48.5161 38.5864 48.0619 38.5864 47.4839V24.7742C38.5864 24.1961 39.0391 23.7419 39.6153 23.7419C40.1914 23.7419 40.6441 24.1961 40.6441 24.7742V37.1613C40.6441 38.8748 42.0228 40.2581 43.7307 40.2581C45.4385 40.2581 46.8172 38.8748 46.8172 37.1613V35.0968C46.8172 34.5187 47.2699 34.0645 47.846 34.0645C48.4222 34.0645 48.8749 34.5187 48.8749 35.0968V41.2903C48.8749 43.0039 50.2535 44.3871 51.9614 44.3871C53.6693 44.3871 55.048 43.0039 55.048 41.2903C55.048 40.7123 54.5953 40.2581 54.0191 40.2581C53.443 40.2581 52.9903 40.7123 52.9903 41.2903C52.9903 41.8684 52.5376 42.3226 51.9614 42.3226C51.3853 42.3226 50.9326 41.8684 50.9326 41.2903V35.0968C50.9326 33.3832 49.5539 32 47.846 32C46.1382 32 44.7595 33.3832 44.7595 35.0968V37.1613C44.7595 37.7394 44.3068 38.1936 43.7307 38.1936C43.1545 38.1936 42.7018 37.7394 42.7018 37.1613V24.7742V22.7097C42.7018 22.1316 43.1545 21.6774 43.7307 21.6774C44.3068 21.6774 44.7595 22.1316 44.7595 22.7097V26.8387C44.7595 28.5523 46.1382 29.9355 47.846 29.9355C49.5539 29.9355 50.9326 28.5523 50.9326 26.8387V22.7097C50.9326 22.1316 51.3853 21.6774 51.9614 21.6774C52.5376 21.6774 52.9903 22.1316 52.9903 22.7097V35.0968C52.9903 36.8103 54.3689 38.1936 56.0768 38.1936ZM35.4999 2.06452C40.603 2.06452 44.7595 6.23484 44.7595 11.3548C44.7595 11.9329 44.3068 12.3871 43.7307 12.3871H41.673C40.3355 12.3871 39.1832 13.2542 38.7716 14.4516H32.2487C31.8166 13.2542 30.6849 12.3871 29.3474 12.3871H27.2691C26.693 12.3871 26.2403 11.9329 26.2403 11.3548C26.2403 6.23484 30.3968 2.06452 35.4999 2.06452ZM42.7018 15.4839V16.5161C42.7018 17.0942 42.2491 17.5484 41.673 17.5484C41.0968 17.5484 40.6441 17.0942 40.6441 16.5161V15.4839C40.6441 14.9058 41.0968 14.4516 41.673 14.4516C42.2491 14.4516 42.7018 14.9058 42.7018 15.4839ZM29.3268 14.4516C29.903 14.4516 30.3557 14.9058 30.3557 15.4839V16.5161C30.3557 17.0942 29.903 17.5484 29.3268 17.5484C28.7507 17.5484 28.298 17.0942 28.298 16.5161V15.4839C28.298 14.9058 28.7507 14.4516 29.3268 14.4516Z" fill="#707070"/>
    </g>
    <path d="M2.20615 83V91H3.1124V84.9219H3.19053L5.69053 91H6.56553L9.06553 84.9219H9.14365V91H10.0499V83H8.89365L6.1749 89.6406H6.08115L3.3624 83H2.20615ZM13.7029 91.1406C14.7498 91.1406 15.2967 90.5781 15.4842 90.1875H15.531V91H16.4529V87.0469C16.4529 85.1406 14.9998 84.9219 14.2342 84.9219C13.3279 84.9219 12.2967 85.2344 11.8279 86.3281L12.7029 86.6406C12.906 86.2031 13.3865 85.7344 14.2654 85.7344C15.1131 85.7344 15.531 86.1836 15.531 86.9531V86.9844C15.531 87.4297 15.0779 87.3906 13.9842 87.5313C12.8709 87.6758 11.656 87.9219 11.656 89.2969C11.656 90.4687 12.5623 91.1406 13.7029 91.1406ZM13.8435 90.3125C13.1092 90.3125 12.5779 89.9844 12.5779 89.3437C12.5779 88.6406 13.2185 88.4219 13.9373 88.3281C14.3279 88.2812 15.3748 88.1719 15.531 87.9844V88.8281C15.531 89.5781 14.9373 90.3125 13.8435 90.3125ZM20.4712 91.125C21.6274 91.125 22.018 90.4062 22.2212 90.0781H22.3305V91H23.2212V83H22.2993V85.9531H22.2212C22.018 85.6406 21.6587 84.9219 20.4868 84.9219C18.9712 84.9219 17.9243 86.125 17.9243 88.0156C17.9243 89.9219 18.9712 91.125 20.4712 91.125ZM20.5962 90.2969C19.4399 90.2969 18.8462 89.2812 18.8462 88C18.8462 86.7344 19.4243 85.75 20.5962 85.75C21.7212 85.75 22.3149 86.6562 22.3149 88C22.3149 89.3594 21.7055 90.2969 20.5962 90.2969ZM27.6232 91.125C28.8419 91.125 29.7326 90.5156 30.0138 89.6094L29.1232 89.3594C28.8888 89.9844 28.3458 90.2969 27.6232 90.2969C26.5412 90.2969 25.7951 89.5977 25.7521 88.3125H30.1076V87.9219C30.1076 85.6875 28.7794 84.9219 27.5294 84.9219C25.9044 84.9219 24.8263 86.2031 24.8263 88.0469C24.8263 89.8906 25.8888 91.125 27.6232 91.125ZM25.7521 87.5156C25.8146 86.582 26.4747 85.75 27.5294 85.75C28.5294 85.75 29.1701 86.5 29.1701 87.5156H25.7521ZM36.103 91H37.0093L38.3218 86.3906H38.4155L39.728 91H40.6343L42.4624 85H41.4937L40.1968 89.5781H40.1343L38.8687 85H37.8843L36.603 89.5938H36.5405L35.2437 85H34.2749L36.103 91ZM43.7512 91H44.673V85H43.7512V91ZM44.2199 84C44.5793 84 44.8762 83.7188 44.8762 83.375C44.8762 83.0313 44.5793 82.75 44.2199 82.75C43.8605 82.75 43.5637 83.0313 43.5637 83.375C43.5637 83.7188 43.8605 84 44.2199 84ZM49.0409 85H47.7596V83.5625H46.8378V85H45.9315V85.7812H46.8378V89.5312C46.8378 90.5781 47.6815 91.0781 48.4628 91.0781C48.8065 91.0781 49.0253 91.0156 49.1503 90.9687L48.9628 90.1406C48.8846 90.1562 48.7596 90.1875 48.5565 90.1875C48.1503 90.1875 47.7596 90.0625 47.7596 89.2812V85.7812H49.0409V85ZM51.5484 87.3906C51.5484 86.3437 52.2164 85.75 53.1265 85.75C53.9937 85.75 54.5171 86.2969 54.5171 87.25V91H55.439V87.1875C55.439 85.6445 54.6187 84.9219 53.3921 84.9219C52.4468 84.9219 51.9078 85.3164 51.6265 85.9375H51.5484V83H50.6265V91H51.5484V87.3906Z" fill="#707070"/>
    <path d="M65.1405 91.125L69.1562 87.1094C70.1171 86.1484 70.1093 84.5625 69.1562 83.625C68.1796 82.6641 66.6522 82.6719 65.6718 83.625L65.1405 84.1406L64.6093 83.625C63.6288 82.6719 62.1015 82.6641 61.1249 83.625C60.1718 84.5625 60.164 86.1484 61.1249 87.1094L65.1405 91.125Z" fill="#FF3B30"/>
    <defs>
        <clipPath id="clip0">
            <rect width="53.5" height="64" fill="white" transform="translate(8.75)"/>
        </clipPath>
    </defs>
</svg>
